<svg xmlns="http://www.w3.org/2000/svg" xmlns:xlink="http://www.w3.org/1999/xlink" width="376" height="376" viewBox="0 0 376 376">
  <defs>
    <clipPath id="clip-path">
      <rect id="Rectangle_4" data-name="Rectangle 4" width="376" height="376" transform="translate(198 1110)" fill="#f0f0f0"/>
    </clipPath>
  </defs>
  <g id="Mask_Group_5" data-name="Mask Group 5" transform="translate(-198 -1110)" clip-path="url(#clip-path)">
    <g id="Delivery-cuate" transform="translate(169.795 1083.306)">
      <g id="freepik--background-complete--inject-35">
        <path id="Path_229" data-name="Path 229" d="M368.179,118.774H294.151s7.342-20.055,18.637-20.055,14.84,13.837,14.84,13.837,7.619-7.515,13.88-7.515,11.7,9.98,11.7,9.98S362.056,109.633,368.179,118.774Z" fill="#ebebeb"/>
        <path id="Path_230" data-name="Path 230" d="M303.551,67.214H268.958S276.69,55.971,282.8,55.971s7.9,7.463,7.9,7.463,4.324-3.459,8.276-2.854S303.551,67.214,303.551,67.214Z" fill="#ebebeb"/>
        <path id="Path_231" data-name="Path 231" d="M118.117,128.391H50.739s9.228-20.6,19.1-21.889,14.6,15.307,14.6,15.307,6.365-5.863,11.372-5.863,8.838,7.723,8.838,7.723S114.684,118.376,118.117,128.391Z" fill="#ebebeb"/>
        <path id="Path_232" data-name="Path 232" d="M188.02,41.84H142.5s7.783-14.927,16.31-15.143,12.972,11.295,12.972,11.295S184.941,27.406,188.02,41.84Z" fill="#ebebeb"/>
        <path id="Path_233" data-name="Path 233" d="M237.246,83.135H206.527s5.275-10.075,11-10.214,8.735,7.619,8.735,7.619S235.17,73.4,237.246,83.135Z" fill="#ebebeb"/>
        <rect id="Rectangle_21" data-name="Rectangle 21" width="31.471" height="164.99" transform="translate(284.923 131.47)" fill="#dbdbdb"/>
        <rect id="Rectangle_22" data-name="Rectangle 22" width="6.114" height="6.296" transform="translate(289.809 136.832)" fill="#ebebeb"/>
        <rect id="Rectangle_23" data-name="Rectangle 23" width="6.114" height="6.296" transform="translate(297.636 136.832)" fill="#ebebeb"/>
        <rect id="Rectangle_24" data-name="Rectangle 24" width="6.114" height="6.296" transform="translate(289.809 147.529)" fill="#ebebeb"/>
        <rect id="Rectangle_25" data-name="Rectangle 25" width="6.114" height="6.296" transform="translate(297.636 147.529)" fill="#ebebeb"/>
        <rect id="Rectangle_26" data-name="Rectangle 26" width="6.114" height="6.296" transform="translate(289.809 158.227)" fill="#ebebeb"/>
        <rect id="Rectangle_27" data-name="Rectangle 27" width="6.114" height="6.296" transform="translate(297.636 158.227)" fill="#ebebeb"/>
        <rect id="Rectangle_28" data-name="Rectangle 28" width="6.114" height="6.296" transform="translate(289.809 168.916)" fill="#ebebeb"/>
        <rect id="Rectangle_29" data-name="Rectangle 29" width="6.114" height="6.296" transform="translate(297.636 168.916)" fill="#ebebeb"/>
        <rect id="Rectangle_30" data-name="Rectangle 30" width="6.114" height="6.296" transform="translate(289.809 179.614)" fill="#ebebeb"/>
        <rect id="Rectangle_31" data-name="Rectangle 31" width="6.114" height="6.296" transform="translate(297.636 179.614)" fill="#ebebeb"/>
        <rect id="Rectangle_32" data-name="Rectangle 32" width="6.114" height="6.296" transform="translate(289.809 190.312)" fill="#ebebeb"/>
        <rect id="Rectangle_33" data-name="Rectangle 33" width="6.114" height="6.296" transform="translate(297.636 190.312)" fill="#ebebeb"/>
        <rect id="Rectangle_34" data-name="Rectangle 34" width="6.114" height="6.296" transform="translate(289.809 201.01)" fill="#ebebeb"/>
        <rect id="Rectangle_35" data-name="Rectangle 35" width="6.114" height="6.296" transform="translate(297.636 201.01)" fill="#ebebeb"/>
        <rect id="Rectangle_36" data-name="Rectangle 36" width="6.114" height="6.296" transform="translate(289.809 211.699)" fill="#ebebeb"/>
        <rect id="Rectangle_37" data-name="Rectangle 37" width="6.114" height="6.296" transform="translate(297.636 211.699)" fill="#ebebeb"/>
        <rect id="Rectangle_38" data-name="Rectangle 38" width="6.114" height="6.296" transform="translate(289.809 222.397)" fill="#ebebeb"/>
        <rect id="Rectangle_39" data-name="Rectangle 39" width="6.114" height="6.296" transform="translate(297.636 222.397)" fill="#ebebeb"/>
        <rect id="Rectangle_40" data-name="Rectangle 40" width="6.114" height="6.296" transform="translate(289.809 233.094)" fill="#ebebeb"/>
        <rect id="Rectangle_41" data-name="Rectangle 41" width="6.114" height="6.296" transform="translate(297.636 233.094)" fill="#ebebeb"/>
        <rect id="Rectangle_42" data-name="Rectangle 42" width="6.114" height="6.296" transform="translate(289.809 243.784)" fill="#ebebeb"/>
        <rect id="Rectangle_43" data-name="Rectangle 43" width="6.114" height="6.296" transform="translate(297.636 243.784)" fill="#ebebeb"/>
        <rect id="Rectangle_44" data-name="Rectangle 44" width="6.114" height="6.296" transform="translate(289.809 254.481)" fill="#ebebeb"/>
        <rect id="Rectangle_45" data-name="Rectangle 45" width="6.114" height="6.296" transform="translate(297.636 254.481)" fill="#ebebeb"/>
        <rect id="Rectangle_46" data-name="Rectangle 46" width="6.114" height="6.296" transform="translate(289.809 265.179)" fill="#ebebeb"/>
        <rect id="Rectangle_47" data-name="Rectangle 47" width="6.114" height="6.296" transform="translate(297.636 265.179)" fill="#ebebeb"/>
        <rect id="Rectangle_48" data-name="Rectangle 48" width="6.114" height="6.296" transform="translate(289.809 275.877)" fill="#ebebeb"/>
        <rect id="Rectangle_49" data-name="Rectangle 49" width="6.114" height="6.296" transform="translate(311.508 282.173) rotate(180)" fill="#ebebeb"/>
        <rect id="Rectangle_50" data-name="Rectangle 50" width="6.114" height="6.296" transform="translate(311.508 271.475) rotate(180)" fill="#ebebeb"/>
        <rect id="Rectangle_51" data-name="Rectangle 51" width="6.114" height="6.296" transform="translate(311.508 260.786) rotate(180)" fill="#ebebeb"/>
        <rect id="Rectangle_52" data-name="Rectangle 52" width="6.114" height="6.296" transform="translate(311.508 250.088) rotate(180)" fill="#ebebeb"/>
        <rect id="Rectangle_53" data-name="Rectangle 53" width="6.114" height="6.296" transform="translate(311.508 239.39) rotate(180)" fill="#ebebeb"/>
        <rect id="Rectangle_54" data-name="Rectangle 54" width="6.114" height="6.296" transform="translate(311.508 228.692) rotate(180)" fill="#ebebeb"/>
        <rect id="Rectangle_55" data-name="Rectangle 55" width="6.114" height="6.296" transform="translate(311.508 218.003) rotate(180)" fill="#ebebeb"/>
        <rect id="Rectangle_56" data-name="Rectangle 56" width="6.114" height="6.296" transform="translate(311.508 207.297) rotate(180)" fill="#ebebeb"/>
        <rect id="Rectangle_57" data-name="Rectangle 57" width="6.114" height="6.296" transform="translate(311.508 196.608) rotate(180)" fill="#ebebeb"/>
        <rect id="Rectangle_58" data-name="Rectangle 58" width="6.114" height="6.296" transform="translate(311.508 185.919) rotate(180)" fill="#ebebeb"/>
        <rect id="Rectangle_59" data-name="Rectangle 59" width="6.114" height="6.296" transform="translate(311.508 175.221) rotate(180)" fill="#ebebeb"/>
        <rect id="Rectangle_60" data-name="Rectangle 60" width="6.114" height="6.296" transform="translate(311.508 164.523) rotate(180)" fill="#ebebeb"/>
        <rect id="Rectangle_61" data-name="Rectangle 61" width="6.114" height="6.296" transform="translate(311.508 153.825) rotate(180)" fill="#ebebeb"/>
        <rect id="Rectangle_62" data-name="Rectangle 62" width="6.114" height="6.296" transform="translate(311.508 143.136) rotate(180)" fill="#ebebeb"/>
        <rect id="Rectangle_63" data-name="Rectangle 63" width="6.114" height="6.296" transform="translate(297.636 275.877)" fill="#ebebeb"/>
        <rect id="Rectangle_64" data-name="Rectangle 64" width="24.812" height="164.99" transform="translate(316.394 131.47)" fill="#a6a6a6"/>
        <rect id="Rectangle_65" data-name="Rectangle 65" width="5.051" height="6.296" transform="translate(338.646 282.173) rotate(180)" fill="#c7c7c7"/>
        <rect id="Rectangle_66" data-name="Rectangle 66" width="5.051" height="6.296" transform="translate(332.194 282.173) rotate(180)" fill="#c7c7c7"/>
        <rect id="Rectangle_67" data-name="Rectangle 67" width="5.051" height="6.296" transform="translate(338.646 271.475) rotate(180)" fill="#c7c7c7"/>
        <rect id="Rectangle_68" data-name="Rectangle 68" width="5.051" height="6.296" transform="translate(332.194 271.475) rotate(180)" fill="#c7c7c7"/>
        <rect id="Rectangle_69" data-name="Rectangle 69" width="5.051" height="6.296" transform="translate(338.646 260.786) rotate(180)" fill="#c7c7c7"/>
        <rect id="Rectangle_70" data-name="Rectangle 70" width="5.051" height="6.296" transform="translate(332.194 260.786) rotate(180)" fill="#c7c7c7"/>
        <rect id="Rectangle_71" data-name="Rectangle 71" width="5.051" height="6.296" transform="translate(338.646 250.088) rotate(180)" fill="#c7c7c7"/>
        <rect id="Rectangle_72" data-name="Rectangle 72" width="5.051" height="6.296" transform="translate(332.194 250.088) rotate(180)" fill="#c7c7c7"/>
        <rect id="Rectangle_73" data-name="Rectangle 73" width="5.051" height="6.296" transform="translate(338.646 239.39) rotate(180)" fill="#c7c7c7"/>
        <rect id="Rectangle_74" data-name="Rectangle 74" width="5.051" height="6.296" transform="translate(332.194 239.39) rotate(180)" fill="#c7c7c7"/>
        <rect id="Rectangle_75" data-name="Rectangle 75" width="5.051" height="6.296" transform="translate(338.646 228.692) rotate(180)" fill="#c7c7c7"/>
        <rect id="Rectangle_76" data-name="Rectangle 76" width="5.051" height="6.296" transform="translate(332.194 228.692) rotate(180)" fill="#c7c7c7"/>
        <rect id="Rectangle_77" data-name="Rectangle 77" width="5.051" height="6.296" transform="translate(338.646 218.003) rotate(180)" fill="#c7c7c7"/>
        <rect id="Rectangle_78" data-name="Rectangle 78" width="5.051" height="6.296" transform="translate(332.194 218.003) rotate(180)" fill="#c7c7c7"/>
        <rect id="Rectangle_79" data-name="Rectangle 79" width="5.051" height="6.296" transform="translate(338.646 207.297) rotate(180)" fill="#c7c7c7"/>
        <rect id="Rectangle_80" data-name="Rectangle 80" width="5.051" height="6.296" transform="translate(332.194 207.297) rotate(180)" fill="#c7c7c7"/>
        <rect id="Rectangle_81" data-name="Rectangle 81" width="5.051" height="6.296" transform="translate(338.646 196.608) rotate(180)" fill="#c7c7c7"/>
        <rect id="Rectangle_82" data-name="Rectangle 82" width="5.051" height="6.296" transform="translate(332.194 196.608) rotate(180)" fill="#c7c7c7"/>
        <rect id="Rectangle_83" data-name="Rectangle 83" width="5.051" height="6.296" transform="translate(338.646 185.919) rotate(180)" fill="#c7c7c7"/>
        <rect id="Rectangle_84" data-name="Rectangle 84" width="5.051" height="6.296" transform="translate(332.194 185.919) rotate(180)" fill="#c7c7c7"/>
        <rect id="Rectangle_85" data-name="Rectangle 85" width="5.051" height="6.296" transform="translate(338.646 175.221) rotate(180)" fill="#c7c7c7"/>
        <rect id="Rectangle_86" data-name="Rectangle 86" width="5.051" height="6.296" transform="translate(332.194 175.221) rotate(180)" fill="#c7c7c7"/>
        <rect id="Rectangle_87" data-name="Rectangle 87" width="5.051" height="6.296" transform="translate(338.646 164.523) rotate(180)" fill="#c7c7c7"/>
        <rect id="Rectangle_88" data-name="Rectangle 88" width="5.051" height="6.296" transform="translate(332.194 164.523) rotate(180)" fill="#c7c7c7"/>
        <rect id="Rectangle_89" data-name="Rectangle 89" width="5.051" height="6.296" transform="translate(338.646 153.825) rotate(180)" fill="#c7c7c7"/>
        <rect id="Rectangle_90" data-name="Rectangle 90" width="5.051" height="6.296" transform="translate(332.194 153.825) rotate(180)" fill="#c7c7c7"/>
        <rect id="Rectangle_91" data-name="Rectangle 91" width="5.051" height="6.296" transform="translate(338.646 143.136) rotate(180)" fill="#c7c7c7"/>
        <rect id="Rectangle_92" data-name="Rectangle 92" width="5.051" height="6.296" transform="translate(320.726 136.832)" fill="#c7c7c7"/>
        <rect id="Rectangle_93" data-name="Rectangle 93" width="5.051" height="6.296" transform="translate(320.726 147.529)" fill="#c7c7c7"/>
        <rect id="Rectangle_94" data-name="Rectangle 94" width="5.051" height="6.296" transform="translate(320.726 158.227)" fill="#c7c7c7"/>
        <rect id="Rectangle_95" data-name="Rectangle 95" width="5.051" height="6.296" transform="translate(320.726 168.916)" fill="#c7c7c7"/>
        <rect id="Rectangle_96" data-name="Rectangle 96" width="5.051" height="6.296" transform="translate(320.726 179.614)" fill="#c7c7c7"/>
        <rect id="Rectangle_97" data-name="Rectangle 97" width="5.051" height="6.296" transform="translate(320.726 190.312)" fill="#c7c7c7"/>
        <rect id="Rectangle_98" data-name="Rectangle 98" width="5.051" height="6.296" transform="translate(320.726 201.01)" fill="#c7c7c7"/>
        <rect id="Rectangle_99" data-name="Rectangle 99" width="5.051" height="6.296" transform="translate(320.726 211.699)" fill="#c7c7c7"/>
        <rect id="Rectangle_100" data-name="Rectangle 100" width="5.051" height="6.296" transform="translate(320.726 222.397)" fill="#c7c7c7"/>
        <rect id="Rectangle_101" data-name="Rectangle 101" width="5.051" height="6.296" transform="translate(320.726 233.094)" fill="#c7c7c7"/>
        <rect id="Rectangle_102" data-name="Rectangle 102" width="5.051" height="6.296" transform="translate(320.726 243.784)" fill="#c7c7c7"/>
        <rect id="Rectangle_103" data-name="Rectangle 103" width="5.051" height="6.296" transform="translate(320.726 254.481)" fill="#c7c7c7"/>
        <rect id="Rectangle_104" data-name="Rectangle 104" width="5.051" height="6.296" transform="translate(320.726 265.179)" fill="#c7c7c7"/>
        <rect id="Rectangle_105" data-name="Rectangle 105" width="5.051" height="6.296" transform="translate(320.726 275.877)" fill="#c7c7c7"/>
        <rect id="Rectangle_106" data-name="Rectangle 106" width="5.051" height="6.296" transform="translate(332.194 143.136) rotate(180)" fill="#c7c7c7"/>
        <rect id="Rectangle_107" data-name="Rectangle 107" width="37.23" height="173.88" transform="translate(85.418 122.579)" fill="#ebebeb"/>
        <rect id="Rectangle_108" data-name="Rectangle 108" width="38.13" height="3.805" transform="translate(84.519 118.774)" fill="#c7c7c7"/>
        <rect id="Rectangle_109" data-name="Rectangle 109" width="3.771" height="168.276" transform="translate(88.782 128.192)" fill="#fff"/>
        <rect id="Rectangle_110" data-name="Rectangle 110" width="3.771" height="168.276" transform="translate(95.459 128.192)" fill="#fff"/>
        <rect id="Rectangle_111" data-name="Rectangle 111" width="3.771" height="168.276" transform="translate(102.144 128.192)" fill="#fff"/>
        <rect id="Rectangle_112" data-name="Rectangle 112" width="3.771" height="168.276" transform="translate(108.829 128.192)" fill="#fff"/>
        <rect id="Rectangle_113" data-name="Rectangle 113" width="3.771" height="168.276" transform="translate(115.505 128.192)" fill="#fff"/>
        <rect id="Rectangle_114" data-name="Rectangle 114" width="3.771" height="7.515" transform="translate(88.782 133)" fill="#ebebeb"/>
        <rect id="Rectangle_115" data-name="Rectangle 115" width="3.771" height="7.515" transform="translate(95.459 133)" fill="#ebebeb"/>
        <rect id="Rectangle_116" data-name="Rectangle 116" width="3.771" height="7.515" transform="translate(102.144 133)" fill="#ebebeb"/>
        <rect id="Rectangle_117" data-name="Rectangle 117" width="3.771" height="7.515" transform="translate(108.829 133)" fill="#ebebeb"/>
        <rect id="Rectangle_118" data-name="Rectangle 118" width="3.771" height="7.515" transform="translate(115.505 133)" fill="#ebebeb"/>
        <rect id="Rectangle_119" data-name="Rectangle 119" width="3.771" height="7.515" transform="translate(88.782 145.212)" fill="#ebebeb"/>
        <rect id="Rectangle_120" data-name="Rectangle 120" width="3.771" height="7.515" transform="translate(95.459 145.212)" fill="#ebebeb"/>
        <rect id="Rectangle_121" data-name="Rectangle 121" width="3.771" height="7.515" transform="translate(102.144 145.212)" fill="#ebebeb"/>
        <rect id="Rectangle_122" data-name="Rectangle 122" width="3.771" height="7.515" transform="translate(108.829 145.212)" fill="#ebebeb"/>
        <rect id="Rectangle_123" data-name="Rectangle 123" width="3.771" height="7.515" transform="translate(115.505 145.212)" fill="#ebebeb"/>
        <rect id="Rectangle_124" data-name="Rectangle 124" width="3.771" height="7.515" transform="translate(88.782 157.423)" fill="#ebebeb"/>
        <rect id="Rectangle_125" data-name="Rectangle 125" width="3.771" height="7.515" transform="translate(95.459 157.423)" fill="#ebebeb"/>
        <rect id="Rectangle_126" data-name="Rectangle 126" width="3.771" height="7.515" transform="translate(102.144 157.423)" fill="#ebebeb"/>
        <rect id="Rectangle_127" data-name="Rectangle 127" width="3.771" height="7.515" transform="translate(108.829 157.423)" fill="#ebebeb"/>
        <rect id="Rectangle_128" data-name="Rectangle 128" width="3.771" height="7.515" transform="translate(115.505 157.423)" fill="#ebebeb"/>
        <rect id="Rectangle_129" data-name="Rectangle 129" width="3.771" height="7.515" transform="translate(88.782 169.643)" fill="#ebebeb"/>
        <rect id="Rectangle_130" data-name="Rectangle 130" width="3.771" height="7.515" transform="translate(95.459 169.643)" fill="#ebebeb"/>
        <rect id="Rectangle_131" data-name="Rectangle 131" width="3.771" height="7.515" transform="translate(102.144 169.643)" fill="#ebebeb"/>
        <rect id="Rectangle_132" data-name="Rectangle 132" width="3.771" height="7.515" transform="translate(108.829 169.643)" fill="#ebebeb"/>
        <rect id="Rectangle_133" data-name="Rectangle 133" width="3.771" height="7.515" transform="translate(115.505 169.643)" fill="#ebebeb"/>
        <rect id="Rectangle_134" data-name="Rectangle 134" width="3.771" height="7.515" transform="translate(88.782 181.854)" fill="#ebebeb"/>
        <rect id="Rectangle_135" data-name="Rectangle 135" width="3.771" height="7.515" transform="translate(95.459 181.854)" fill="#ebebeb"/>
        <rect id="Rectangle_136" data-name="Rectangle 136" width="3.771" height="7.515" transform="translate(102.144 181.854)" fill="#ebebeb"/>
        <rect id="Rectangle_137" data-name="Rectangle 137" width="3.771" height="7.515" transform="translate(108.829 181.854)" fill="#ebebeb"/>
        <rect id="Rectangle_138" data-name="Rectangle 138" width="3.771" height="7.515" transform="translate(115.505 181.854)" fill="#ebebeb"/>
        <rect id="Rectangle_139" data-name="Rectangle 139" width="3.771" height="7.515" transform="translate(88.782 194.065)" fill="#ebebeb"/>
        <rect id="Rectangle_140" data-name="Rectangle 140" width="3.771" height="7.515" transform="translate(95.459 194.065)" fill="#ebebeb"/>
        <rect id="Rectangle_141" data-name="Rectangle 141" width="3.771" height="7.515" transform="translate(102.144 194.065)" fill="#ebebeb"/>
        <rect id="Rectangle_142" data-name="Rectangle 142" width="3.771" height="7.515" transform="translate(108.829 194.065)" fill="#ebebeb"/>
        <rect id="Rectangle_143" data-name="Rectangle 143" width="3.771" height="7.515" transform="translate(115.505 194.065)" fill="#ebebeb"/>
        <rect id="Rectangle_144" data-name="Rectangle 144" width="3.771" height="7.515" transform="translate(88.782 206.276)" fill="#ebebeb"/>
        <rect id="Rectangle_145" data-name="Rectangle 145" width="3.771" height="7.515" transform="translate(95.459 206.276)" fill="#ebebeb"/>
        <rect id="Rectangle_146" data-name="Rectangle 146" width="3.771" height="7.515" transform="translate(102.144 206.276)" fill="#ebebeb"/>
        <rect id="Rectangle_147" data-name="Rectangle 147" width="3.771" height="7.515" transform="translate(108.829 206.276)" fill="#ebebeb"/>
        <rect id="Rectangle_148" data-name="Rectangle 148" width="3.771" height="7.515" transform="translate(115.505 206.276)" fill="#ebebeb"/>
        <rect id="Rectangle_149" data-name="Rectangle 149" width="3.771" height="7.515" transform="translate(88.782 218.496)" fill="#ebebeb"/>
        <rect id="Rectangle_150" data-name="Rectangle 150" width="3.771" height="7.515" transform="translate(95.459 218.496)" fill="#ebebeb"/>
        <rect id="Rectangle_151" data-name="Rectangle 151" width="3.771" height="7.515" transform="translate(102.144 218.496)" fill="#ebebeb"/>
        <rect id="Rectangle_152" data-name="Rectangle 152" width="3.771" height="7.515" transform="translate(108.829 218.496)" fill="#ebebeb"/>
        <rect id="Rectangle_153" data-name="Rectangle 153" width="3.771" height="7.515" transform="translate(115.505 218.496)" fill="#ebebeb"/>
        <rect id="Rectangle_154" data-name="Rectangle 154" width="3.771" height="7.515" transform="translate(88.782 230.708)" fill="#ebebeb"/>
        <rect id="Rectangle_155" data-name="Rectangle 155" width="3.771" height="7.515" transform="translate(95.459 230.708)" fill="#ebebeb"/>
        <rect id="Rectangle_156" data-name="Rectangle 156" width="3.771" height="7.515" transform="translate(102.144 230.708)" fill="#ebebeb"/>
        <rect id="Rectangle_157" data-name="Rectangle 157" width="3.771" height="7.515" transform="translate(108.829 230.708)" fill="#ebebeb"/>
        <rect id="Rectangle_158" data-name="Rectangle 158" width="3.771" height="7.515" transform="translate(115.505 230.708)" fill="#ebebeb"/>
        <rect id="Rectangle_159" data-name="Rectangle 159" width="3.771" height="7.515" transform="translate(88.782 242.919)" fill="#ebebeb"/>
        <rect id="Rectangle_160" data-name="Rectangle 160" width="3.771" height="7.515" transform="translate(95.459 242.919)" fill="#ebebeb"/>
        <rect id="Rectangle_161" data-name="Rectangle 161" width="3.771" height="7.515" transform="translate(102.144 242.919)" fill="#ebebeb"/>
        <rect id="Rectangle_162" data-name="Rectangle 162" width="3.771" height="7.515" transform="translate(108.829 242.919)" fill="#ebebeb"/>
        <rect id="Rectangle_163" data-name="Rectangle 163" width="3.771" height="7.515" transform="translate(115.505 242.919)" fill="#ebebeb"/>
        <rect id="Rectangle_164" data-name="Rectangle 164" width="3.771" height="7.515" transform="translate(88.782 255.139)" fill="#ebebeb"/>
        <rect id="Rectangle_165" data-name="Rectangle 165" width="3.771" height="7.515" transform="translate(95.459 255.139)" fill="#ebebeb"/>
        <rect id="Rectangle_166" data-name="Rectangle 166" width="3.771" height="7.515" transform="translate(102.144 255.139)" fill="#ebebeb"/>
        <rect id="Rectangle_167" data-name="Rectangle 167" width="3.771" height="7.515" transform="translate(108.829 255.139)" fill="#ebebeb"/>
        <rect id="Rectangle_168" data-name="Rectangle 168" width="3.771" height="7.515" transform="translate(115.505 255.139)" fill="#ebebeb"/>
        <rect id="Rectangle_169" data-name="Rectangle 169" width="3.771" height="7.515" transform="translate(88.782 267.35)" fill="#ebebeb"/>
        <rect id="Rectangle_170" data-name="Rectangle 170" width="3.771" height="7.515" transform="translate(95.459 267.35)" fill="#ebebeb"/>
        <rect id="Rectangle_171" data-name="Rectangle 171" width="3.771" height="7.515" transform="translate(102.144 267.35)" fill="#ebebeb"/>
        <rect id="Rectangle_172" data-name="Rectangle 172" width="3.771" height="7.515" transform="translate(108.829 267.35)" fill="#ebebeb"/>
        <rect id="Rectangle_173" data-name="Rectangle 173" width="3.771" height="7.515" transform="translate(115.505 267.35)" fill="#ebebeb"/>
        <rect id="Rectangle_174" data-name="Rectangle 174" width="3.771" height="7.515" transform="translate(88.782 279.561)" fill="#ebebeb"/>
        <rect id="Rectangle_175" data-name="Rectangle 175" width="3.771" height="7.515" transform="translate(95.459 279.561)" fill="#ebebeb"/>
        <rect id="Rectangle_176" data-name="Rectangle 176" width="3.771" height="7.515" transform="translate(102.144 279.561)" fill="#ebebeb"/>
        <rect id="Rectangle_177" data-name="Rectangle 177" width="3.771" height="7.515" transform="translate(108.829 279.561)" fill="#ebebeb"/>
        <rect id="Rectangle_178" data-name="Rectangle 178" width="3.771" height="7.515" transform="translate(115.505 279.561)" fill="#ebebeb"/>
        <rect id="Rectangle_179" data-name="Rectangle 179" width="3.771" height="4.687" transform="translate(88.782 291.772)" fill="#ebebeb"/>
        <rect id="Rectangle_180" data-name="Rectangle 180" width="3.771" height="4.687" transform="translate(95.459 291.772)" fill="#ebebeb"/>
        <rect id="Rectangle_181" data-name="Rectangle 181" width="3.771" height="4.687" transform="translate(102.144 291.772)" fill="#ebebeb"/>
        <rect id="Rectangle_182" data-name="Rectangle 182" width="3.771" height="4.687" transform="translate(108.829 291.772)" fill="#ebebeb"/>
        <rect id="Rectangle_183" data-name="Rectangle 183" width="3.771" height="4.687" transform="translate(115.505 291.772)" fill="#ebebeb"/>
        <rect id="Rectangle_184" data-name="Rectangle 184" width="23.904" height="173.88" transform="translate(122.649 122.579)" fill="#dbdbdb"/>
        <rect id="Rectangle_185" data-name="Rectangle 185" width="24.941" height="3.805" transform="translate(122.649 118.774)" fill="#c7c7c7"/>
        <rect id="Rectangle_186" data-name="Rectangle 186" width="3.771" height="168.276" transform="translate(126.013 128.192)" fill="#c7c7c7"/>
        <rect id="Rectangle_187" data-name="Rectangle 187" width="3.771" height="168.276" transform="translate(132.698 128.192)" fill="#c7c7c7"/>
        <rect id="Rectangle_188" data-name="Rectangle 188" width="3.771" height="168.276" transform="translate(139.383 128.192)" fill="#c7c7c7"/>
        <rect id="Rectangle_189" data-name="Rectangle 189" width="3.771" height="7.515" transform="translate(126.013 133)" fill="#dbdbdb"/>
        <rect id="Rectangle_190" data-name="Rectangle 190" width="3.771" height="7.515" transform="translate(132.698 133)" fill="#dbdbdb"/>
        <rect id="Rectangle_191" data-name="Rectangle 191" width="3.771" height="7.515" transform="translate(139.383 133)" fill="#dbdbdb"/>
        <rect id="Rectangle_192" data-name="Rectangle 192" width="3.771" height="7.515" transform="translate(126.013 145.212)" fill="#dbdbdb"/>
        <rect id="Rectangle_193" data-name="Rectangle 193" width="3.771" height="7.515" transform="translate(132.698 145.212)" fill="#dbdbdb"/>
        <rect id="Rectangle_194" data-name="Rectangle 194" width="3.771" height="7.515" transform="translate(139.383 145.212)" fill="#dbdbdb"/>
        <rect id="Rectangle_195" data-name="Rectangle 195" width="3.771" height="7.515" transform="translate(126.013 157.423)" fill="#dbdbdb"/>
        <rect id="Rectangle_196" data-name="Rectangle 196" width="3.771" height="7.515" transform="translate(132.698 157.423)" fill="#dbdbdb"/>
        <rect id="Rectangle_197" data-name="Rectangle 197" width="3.771" height="7.515" transform="translate(139.383 157.423)" fill="#dbdbdb"/>
        <rect id="Rectangle_198" data-name="Rectangle 198" width="3.771" height="7.515" transform="translate(126.013 169.643)" fill="#dbdbdb"/>
        <rect id="Rectangle_199" data-name="Rectangle 199" width="3.771" height="7.515" transform="translate(132.698 169.643)" fill="#dbdbdb"/>
        <rect id="Rectangle_200" data-name="Rectangle 200" width="3.771" height="7.515" transform="translate(139.383 169.643)" fill="#dbdbdb"/>
        <rect id="Rectangle_201" data-name="Rectangle 201" width="3.771" height="7.515" transform="translate(126.013 181.854)" fill="#dbdbdb"/>
        <rect id="Rectangle_202" data-name="Rectangle 202" width="3.771" height="7.515" transform="translate(132.698 181.854)" fill="#dbdbdb"/>
        <rect id="Rectangle_203" data-name="Rectangle 203" width="3.771" height="7.515" transform="translate(139.383 181.854)" fill="#dbdbdb"/>
        <rect id="Rectangle_204" data-name="Rectangle 204" width="3.771" height="7.515" transform="translate(126.013 194.065)" fill="#dbdbdb"/>
        <rect id="Rectangle_205" data-name="Rectangle 205" width="3.771" height="7.515" transform="translate(132.698 194.065)" fill="#dbdbdb"/>
        <rect id="Rectangle_206" data-name="Rectangle 206" width="3.771" height="7.515" transform="translate(139.383 194.065)" fill="#dbdbdb"/>
        <rect id="Rectangle_207" data-name="Rectangle 207" width="3.771" height="7.515" transform="translate(126.013 206.276)" fill="#dbdbdb"/>
        <rect id="Rectangle_208" data-name="Rectangle 208" width="3.771" height="7.515" transform="translate(132.698 206.276)" fill="#dbdbdb"/>
        <rect id="Rectangle_209" data-name="Rectangle 209" width="3.771" height="7.515" transform="translate(139.383 206.276)" fill="#dbdbdb"/>
        <rect id="Rectangle_210" data-name="Rectangle 210" width="3.771" height="7.515" transform="translate(126.013 218.496)" fill="#dbdbdb"/>
        <rect id="Rectangle_211" data-name="Rectangle 211" width="3.771" height="7.515" transform="translate(132.698 218.496)" fill="#dbdbdb"/>
        <rect id="Rectangle_212" data-name="Rectangle 212" width="3.771" height="7.515" transform="translate(139.383 218.496)" fill="#dbdbdb"/>
        <rect id="Rectangle_213" data-name="Rectangle 213" width="3.771" height="7.515" transform="translate(126.013 230.708)" fill="#dbdbdb"/>
        <rect id="Rectangle_214" data-name="Rectangle 214" width="3.771" height="7.515" transform="translate(132.698 230.708)" fill="#dbdbdb"/>
        <rect id="Rectangle_215" data-name="Rectangle 215" width="3.771" height="7.515" transform="translate(139.383 230.708)" fill="#dbdbdb"/>
        <rect id="Rectangle_216" data-name="Rectangle 216" width="3.771" height="7.515" transform="translate(126.013 242.919)" fill="#dbdbdb"/>
        <rect id="Rectangle_217" data-name="Rectangle 217" width="3.771" height="7.515" transform="translate(132.698 242.919)" fill="#dbdbdb"/>
        <rect id="Rectangle_218" data-name="Rectangle 218" width="3.771" height="7.515" transform="translate(139.383 242.919)" fill="#dbdbdb"/>
        <rect id="Rectangle_219" data-name="Rectangle 219" width="3.771" height="7.515" transform="translate(126.013 255.139)" fill="#dbdbdb"/>
        <rect id="Rectangle_220" data-name="Rectangle 220" width="3.771" height="7.515" transform="translate(132.698 255.139)" fill="#dbdbdb"/>
        <rect id="Rectangle_221" data-name="Rectangle 221" width="3.771" height="7.515" transform="translate(139.383 255.139)" fill="#dbdbdb"/>
        <rect id="Rectangle_222" data-name="Rectangle 222" width="3.771" height="7.515" transform="translate(126.013 267.35)" fill="#dbdbdb"/>
        <rect id="Rectangle_223" data-name="Rectangle 223" width="3.771" height="7.515" transform="translate(132.698 267.35)" fill="#dbdbdb"/>
        <rect id="Rectangle_224" data-name="Rectangle 224" width="3.771" height="7.515" transform="translate(139.383 267.35)" fill="#dbdbdb"/>
        <rect id="Rectangle_225" data-name="Rectangle 225" width="3.771" height="7.515" transform="translate(126.013 279.561)" fill="#dbdbdb"/>
        <rect id="Rectangle_226" data-name="Rectangle 226" width="3.771" height="7.515" transform="translate(132.698 279.561)" fill="#dbdbdb"/>
        <rect id="Rectangle_227" data-name="Rectangle 227" width="3.771" height="7.515" transform="translate(139.383 279.561)" fill="#dbdbdb"/>
        <rect id="Rectangle_228" data-name="Rectangle 228" width="3.771" height="4.687" transform="translate(126.013 291.772)" fill="#dbdbdb"/>
        <rect id="Rectangle_229" data-name="Rectangle 229" width="3.771" height="4.687" transform="translate(132.698 291.772)" fill="#dbdbdb"/>
        <rect id="Rectangle_230" data-name="Rectangle 230" width="3.771" height="4.687" transform="translate(139.383 291.772)" fill="#dbdbdb"/>
        <rect id="Rectangle_231" data-name="Rectangle 231" width="37.075" height="109.979" transform="translate(38.675 186.481)" fill="#ebebeb"/>
        <rect id="Rectangle_232" data-name="Rectangle 232" width="31.799" height="9.323" transform="translate(43.941 177.158)" fill="#c7c7c7"/>
        <rect id="Rectangle_233" data-name="Rectangle 233" width="28.945" height="105.11" transform="translate(42.739 191.35)" fill="#dbdbdb"/>
        <rect id="Rectangle_234" data-name="Rectangle 234" width="28.945" height="2.482" transform="translate(42.739 201.382)" fill="#fff"/>
        <rect id="Rectangle_235" data-name="Rectangle 235" width="28.945" height="2.482" transform="translate(42.739 211.664)" fill="#fff"/>
        <rect id="Rectangle_236" data-name="Rectangle 236" width="28.945" height="2.482" transform="translate(42.739 221.956)" fill="#fff"/>
        <rect id="Rectangle_237" data-name="Rectangle 237" width="28.945" height="2.482" transform="translate(42.739 232.247)" fill="#fff"/>
        <rect id="Rectangle_238" data-name="Rectangle 238" width="28.945" height="2.482" transform="translate(42.739 242.53)" fill="#fff"/>
        <rect id="Rectangle_239" data-name="Rectangle 239" width="28.945" height="2.482" transform="translate(42.739 252.821)" fill="#fff"/>
        <rect id="Rectangle_240" data-name="Rectangle 240" width="28.945" height="2.482" transform="translate(42.739 263.112)" fill="#fff"/>
        <rect id="Rectangle_241" data-name="Rectangle 241" width="28.945" height="2.482" transform="translate(42.739 273.395)" fill="#fff"/>
        <rect id="Rectangle_242" data-name="Rectangle 242" width="28.945" height="2.482" transform="translate(42.739 283.686)" fill="#fff"/>
        <rect id="Rectangle_243" data-name="Rectangle 243" width="28.945" height="2.482" transform="translate(42.739 293.978)" fill="#fff"/>
        <rect id="Rectangle_244" data-name="Rectangle 244" width="23.22" height="109.979" transform="translate(75.749 186.481)" fill="#dbdbdb"/>
        <rect id="Rectangle_245" data-name="Rectangle 245" width="19.735" height="9.323" transform="translate(75.749 177.158)" fill="#a6a6a6"/>
        <rect id="Rectangle_246" data-name="Rectangle 246" width="17.858" height="105.11" transform="translate(78.949 191.35)" fill="#c7c7c7"/>
        <rect id="Rectangle_247" data-name="Rectangle 247" width="17.858" height="2.482" transform="translate(78.949 201.382)" fill="#fff"/>
        <rect id="Rectangle_248" data-name="Rectangle 248" width="17.858" height="2.482" transform="translate(78.949 211.664)" fill="#fff"/>
        <rect id="Rectangle_249" data-name="Rectangle 249" width="17.858" height="2.482" transform="translate(78.949 221.956)" fill="#fff"/>
        <rect id="Rectangle_250" data-name="Rectangle 250" width="17.858" height="2.482" transform="translate(78.949 232.247)" fill="#fff"/>
        <rect id="Rectangle_251" data-name="Rectangle 251" width="17.858" height="2.482" transform="translate(78.949 242.53)" fill="#fff"/>
        <rect id="Rectangle_252" data-name="Rectangle 252" width="17.858" height="2.482" transform="translate(78.949 252.821)" fill="#fff"/>
        <rect id="Rectangle_253" data-name="Rectangle 253" width="17.858" height="2.482" transform="translate(78.949 263.112)" fill="#fff"/>
        <rect id="Rectangle_254" data-name="Rectangle 254" width="17.858" height="2.482" transform="translate(78.949 273.395)" fill="#fff"/>
        <rect id="Rectangle_255" data-name="Rectangle 255" width="17.858" height="2.482" transform="translate(78.949 283.686)" fill="#fff"/>
        <rect id="Rectangle_256" data-name="Rectangle 256" width="17.858" height="2.482" transform="translate(78.949 293.978)" fill="#fff"/>
        <rect id="Rectangle_257" data-name="Rectangle 257" width="28.66" height="64.386" transform="translate(141.086 232.074)" fill="#dbdbdb"/>
        <rect id="Rectangle_258" data-name="Rectangle 258" width="5.068" height="3.944" transform="translate(145.592 237.652)" fill="#c7c7c7"/>
        <rect id="Rectangle_259" data-name="Rectangle 259" width="5.068" height="3.944" transform="translate(145.592 246.075)" fill="#c7c7c7"/>
        <rect id="Rectangle_260" data-name="Rectangle 260" width="5.068" height="3.944" transform="translate(145.592 254.499)" fill="#c7c7c7"/>
        <rect id="Rectangle_261" data-name="Rectangle 261" width="5.068" height="3.944" transform="translate(145.592 262.922)" fill="#c7c7c7"/>
        <rect id="Rectangle_262" data-name="Rectangle 262" width="5.068" height="3.944" transform="translate(145.592 271.354)" fill="#c7c7c7"/>
        <rect id="Rectangle_263" data-name="Rectangle 263" width="5.068" height="3.944" transform="translate(145.592 279.777)" fill="#c7c7c7"/>
        <rect id="Rectangle_264" data-name="Rectangle 264" width="5.068" height="3.944" transform="translate(145.592 288.201)" fill="#c7c7c7"/>
        <rect id="Rectangle_265" data-name="Rectangle 265" width="5.076" height="3.944" transform="translate(152.891 237.652)" fill="#c7c7c7"/>
        <rect id="Rectangle_266" data-name="Rectangle 266" width="5.076" height="3.944" transform="translate(152.891 246.075)" fill="#c7c7c7"/>
        <rect id="Rectangle_267" data-name="Rectangle 267" width="5.076" height="3.944" transform="translate(152.891 254.499)" fill="#c7c7c7"/>
        <rect id="Rectangle_268" data-name="Rectangle 268" width="5.076" height="3.944" transform="translate(152.891 262.922)" fill="#c7c7c7"/>
        <rect id="Rectangle_269" data-name="Rectangle 269" width="5.076" height="3.944" transform="translate(152.891 271.354)" fill="#c7c7c7"/>
        <rect id="Rectangle_270" data-name="Rectangle 270" width="5.076" height="3.944" transform="translate(152.891 279.777)" fill="#c7c7c7"/>
        <rect id="Rectangle_271" data-name="Rectangle 271" width="5.076" height="3.944" transform="translate(152.891 288.201)" fill="#c7c7c7"/>
        <rect id="Rectangle_272" data-name="Rectangle 272" width="5.076" height="3.944" transform="translate(160.173 237.652)" fill="#c7c7c7"/>
        <rect id="Rectangle_273" data-name="Rectangle 273" width="5.076" height="3.944" transform="translate(160.173 246.075)" fill="#c7c7c7"/>
        <rect id="Rectangle_274" data-name="Rectangle 274" width="5.076" height="3.944" transform="translate(160.173 254.499)" fill="#c7c7c7"/>
        <rect id="Rectangle_275" data-name="Rectangle 275" width="5.076" height="3.944" transform="translate(160.173 262.922)" fill="#c7c7c7"/>
        <rect id="Rectangle_276" data-name="Rectangle 276" width="5.076" height="3.944" transform="translate(160.173 271.354)" fill="#c7c7c7"/>
        <rect id="Rectangle_277" data-name="Rectangle 277" width="5.076" height="3.944" transform="translate(160.173 279.777)" fill="#c7c7c7"/>
        <rect id="Rectangle_278" data-name="Rectangle 278" width="5.076" height="3.944" transform="translate(160.173 288.201)" fill="#c7c7c7"/>
        <rect id="Rectangle_279" data-name="Rectangle 279" width="20.107" height="64.386" transform="translate(169.747 232.074)" fill="#a6a6a6"/>
        <rect id="Rectangle_280" data-name="Rectangle 280" width="4.125" height="3.944" transform="translate(187.804 291.522) rotate(180)" fill="#c7c7c7"/>
        <rect id="Rectangle_281" data-name="Rectangle 281" width="4.125" height="3.944" transform="translate(187.804 283.09) rotate(180)" fill="#c7c7c7"/>
        <rect id="Rectangle_282" data-name="Rectangle 282" width="4.125" height="3.944" transform="translate(187.804 274.666) rotate(180)" fill="#c7c7c7"/>
        <rect id="Rectangle_283" data-name="Rectangle 283" width="4.125" height="3.944" transform="translate(187.804 266.234) rotate(180)" fill="#c7c7c7"/>
        <rect id="Rectangle_284" data-name="Rectangle 284" width="4.125" height="3.944" transform="translate(187.804 257.82) rotate(180)" fill="#c7c7c7"/>
        <rect id="Rectangle_285" data-name="Rectangle 285" width="4.125" height="3.944" transform="translate(187.804 249.388) rotate(180)" fill="#c7c7c7"/>
        <rect id="Rectangle_286" data-name="Rectangle 286" width="4.125" height="3.944" transform="translate(187.804 240.964) rotate(180)" fill="#c7c7c7"/>
        <rect id="Rectangle_287" data-name="Rectangle 287" width="4.125" height="3.944" transform="translate(181.863 291.522) rotate(180)" fill="#c7c7c7"/>
        <rect id="Rectangle_288" data-name="Rectangle 288" width="4.125" height="3.944" transform="translate(181.863 283.09) rotate(180)" fill="#c7c7c7"/>
        <rect id="Rectangle_289" data-name="Rectangle 289" width="4.125" height="3.944" transform="translate(181.863 274.666) rotate(180)" fill="#c7c7c7"/>
        <rect id="Rectangle_290" data-name="Rectangle 290" width="4.125" height="3.944" transform="translate(181.863 266.234) rotate(180)" fill="#c7c7c7"/>
        <rect id="Rectangle_291" data-name="Rectangle 291" width="4.125" height="3.944" transform="translate(181.863 257.82) rotate(180)" fill="#c7c7c7"/>
        <rect id="Rectangle_292" data-name="Rectangle 292" width="4.125" height="3.944" transform="translate(181.863 249.388) rotate(180)" fill="#c7c7c7"/>
        <rect id="Rectangle_293" data-name="Rectangle 293" width="4.125" height="3.944" transform="translate(181.863 240.964) rotate(180)" fill="#c7c7c7"/>
        <rect id="Rectangle_294" data-name="Rectangle 294" width="4.125" height="3.944" transform="translate(175.939 291.522) rotate(180)" fill="#c7c7c7"/>
        <rect id="Rectangle_295" data-name="Rectangle 295" width="4.125" height="3.944" transform="translate(175.939 283.09) rotate(180)" fill="#c7c7c7"/>
        <rect id="Rectangle_296" data-name="Rectangle 296" width="4.125" height="3.944" transform="translate(175.939 274.666) rotate(180)" fill="#c7c7c7"/>
        <rect id="Rectangle_297" data-name="Rectangle 297" width="4.125" height="3.944" transform="translate(175.939 266.234) rotate(180)" fill="#c7c7c7"/>
        <rect id="Rectangle_298" data-name="Rectangle 298" width="4.125" height="3.944" transform="translate(175.939 257.82) rotate(180)" fill="#c7c7c7"/>
        <rect id="Rectangle_299" data-name="Rectangle 299" width="4.125" height="3.944" transform="translate(175.939 249.388) rotate(180)" fill="#c7c7c7"/>
        <rect id="Rectangle_300" data-name="Rectangle 300" width="4.125" height="3.944" transform="translate(175.939 240.964) rotate(180)" fill="#c7c7c7"/>
        <rect id="Rectangle_301" data-name="Rectangle 301" width="19.804" height="23.393" transform="translate(343.367 158.227)" fill="#dbdbdb"/>
        <rect id="Rectangle_302" data-name="Rectangle 302" width="12.557" height="24.25" transform="translate(363.172 158.227)" fill="#c7c7c7"/>
        <rect id="Rectangle_303" data-name="Rectangle 303" width="12.462" height="13.924" transform="translate(364.097 168.553)" fill="#dbdbdb"/>
        <rect id="Rectangle_304" data-name="Rectangle 304" width="7.775" height="13.924" transform="translate(376.559 168.553)" fill="#c7c7c7"/>
        <rect id="Rectangle_305" data-name="Rectangle 305" width="32.016" height="116.37" transform="translate(335.774 180.09)" fill="#ebebeb"/>
        <rect id="Rectangle_306" data-name="Rectangle 306" width="10.066" height="4.117" transform="translate(339.432 185.097)" fill="#fff"/>
        <rect id="Rectangle_307" data-name="Rectangle 307" width="10.066" height="4.117" transform="translate(352.31 185.097)" fill="#fff"/>
        <rect id="Rectangle_308" data-name="Rectangle 308" width="10.066" height="4.117" transform="translate(339.432 192.085)" fill="#fff"/>
        <rect id="Rectangle_309" data-name="Rectangle 309" width="10.066" height="4.117" transform="translate(352.31 192.085)" fill="#fff"/>
        <rect id="Rectangle_310" data-name="Rectangle 310" width="10.066" height="4.117" transform="translate(339.432 199.064)" fill="#fff"/>
        <rect id="Rectangle_311" data-name="Rectangle 311" width="10.066" height="4.117" transform="translate(352.31 199.064)" fill="#fff"/>
        <rect id="Rectangle_312" data-name="Rectangle 312" width="10.066" height="4.117" transform="translate(339.432 206.052)" fill="#fff"/>
        <rect id="Rectangle_313" data-name="Rectangle 313" width="10.066" height="4.117" transform="translate(352.31 206.052)" fill="#fff"/>
        <rect id="Rectangle_314" data-name="Rectangle 314" width="10.066" height="4.117" transform="translate(339.432 213.031)" fill="#fff"/>
        <rect id="Rectangle_315" data-name="Rectangle 315" width="10.066" height="4.117" transform="translate(352.31 213.031)" fill="#fff"/>
        <rect id="Rectangle_316" data-name="Rectangle 316" width="10.066" height="4.117" transform="translate(339.432 220.018)" fill="#fff"/>
        <rect id="Rectangle_317" data-name="Rectangle 317" width="10.066" height="4.117" transform="translate(352.31 220.018)" fill="#fff"/>
        <rect id="Rectangle_318" data-name="Rectangle 318" width="10.066" height="4.117" transform="translate(339.432 227.006)" fill="#fff"/>
        <rect id="Rectangle_319" data-name="Rectangle 319" width="10.066" height="4.117" transform="translate(352.31 227.006)" fill="#fff"/>
        <rect id="Rectangle_320" data-name="Rectangle 320" width="10.066" height="4.117" transform="translate(339.432 233.985)" fill="#fff"/>
        <rect id="Rectangle_321" data-name="Rectangle 321" width="10.066" height="4.117" transform="translate(352.31 233.985)" fill="#fff"/>
        <rect id="Rectangle_322" data-name="Rectangle 322" width="10.066" height="4.117" transform="translate(339.432 240.973)" fill="#fff"/>
        <rect id="Rectangle_323" data-name="Rectangle 323" width="10.066" height="4.117" transform="translate(352.31 240.973)" fill="#fff"/>
        <rect id="Rectangle_324" data-name="Rectangle 324" width="10.066" height="4.117" transform="translate(339.432 247.961)" fill="#fff"/>
        <rect id="Rectangle_325" data-name="Rectangle 325" width="10.066" height="4.117" transform="translate(352.31 247.961)" fill="#fff"/>
        <rect id="Rectangle_326" data-name="Rectangle 326" width="10.066" height="4.117" transform="translate(339.432 254.94)" fill="#fff"/>
        <rect id="Rectangle_327" data-name="Rectangle 327" width="10.066" height="4.117" transform="translate(352.31 254.94)" fill="#fff"/>
        <rect id="Rectangle_328" data-name="Rectangle 328" width="10.066" height="4.117" transform="translate(339.432 261.927)" fill="#fff"/>
        <rect id="Rectangle_329" data-name="Rectangle 329" width="10.066" height="4.117" transform="translate(352.31 261.927)" fill="#fff"/>
        <rect id="Rectangle_330" data-name="Rectangle 330" width="10.066" height="4.117" transform="translate(339.432 268.915)" fill="#fff"/>
        <rect id="Rectangle_331" data-name="Rectangle 331" width="10.066" height="4.117" transform="translate(352.31 268.915)" fill="#fff"/>
        <rect id="Rectangle_332" data-name="Rectangle 332" width="10.066" height="4.117" transform="translate(339.432 275.894)" fill="#fff"/>
        <rect id="Rectangle_333" data-name="Rectangle 333" width="10.066" height="4.117" transform="translate(352.31 275.894)" fill="#fff"/>
        <rect id="Rectangle_334" data-name="Rectangle 334" width="25.945" height="116.37" transform="translate(367.79 180.09)" fill="#c7c7c7"/>
        <rect id="Rectangle_335" data-name="Rectangle 335" width="8.268" height="4.117" transform="translate(391.131 280.011) rotate(180)" fill="#ebebeb"/>
        <rect id="Rectangle_336" data-name="Rectangle 336" width="8.268" height="4.117" transform="translate(380.563 280.011) rotate(180)" fill="#ebebeb"/>
        <rect id="Rectangle_337" data-name="Rectangle 337" width="8.268" height="4.117" transform="translate(391.131 273.023) rotate(180)" fill="#ebebeb"/>
        <rect id="Rectangle_338" data-name="Rectangle 338" width="8.268" height="4.117" transform="translate(380.563 273.023) rotate(180)" fill="#ebebeb"/>
        <rect id="Rectangle_339" data-name="Rectangle 339" width="8.268" height="4.117" transform="translate(391.131 266.044) rotate(180)" fill="#ebebeb"/>
        <rect id="Rectangle_340" data-name="Rectangle 340" width="8.268" height="4.117" transform="translate(380.563 266.044) rotate(180)" fill="#ebebeb"/>
        <rect id="Rectangle_341" data-name="Rectangle 341" width="8.268" height="4.117" transform="translate(391.131 259.056) rotate(180)" fill="#ebebeb"/>
        <rect id="Rectangle_342" data-name="Rectangle 342" width="8.268" height="4.117" transform="translate(380.563 259.056) rotate(180)" fill="#ebebeb"/>
        <rect id="Rectangle_343" data-name="Rectangle 343" width="8.268" height="4.117" transform="translate(391.131 252.069) rotate(180)" fill="#ebebeb"/>
        <rect id="Rectangle_344" data-name="Rectangle 344" width="8.268" height="4.117" transform="translate(380.563 252.069) rotate(180)" fill="#ebebeb"/>
        <rect id="Rectangle_345" data-name="Rectangle 345" width="8.268" height="4.117" transform="translate(391.131 245.089) rotate(180)" fill="#ebebeb"/>
        <rect id="Rectangle_346" data-name="Rectangle 346" width="8.268" height="4.117" transform="translate(380.563 245.089) rotate(180)" fill="#ebebeb"/>
        <rect id="Rectangle_347" data-name="Rectangle 347" width="8.268" height="4.117" transform="translate(391.131 238.11) rotate(180)" fill="#ebebeb"/>
        <rect id="Rectangle_348" data-name="Rectangle 348" width="8.268" height="4.117" transform="translate(380.563 238.11) rotate(180)" fill="#ebebeb"/>
        <rect id="Rectangle_349" data-name="Rectangle 349" width="8.268" height="4.117" transform="translate(391.131 231.114) rotate(180)" fill="#ebebeb"/>
        <rect id="Rectangle_350" data-name="Rectangle 350" width="8.268" height="4.117" transform="translate(380.563 231.114) rotate(180)" fill="#ebebeb"/>
        <rect id="Rectangle_351" data-name="Rectangle 351" width="8.268" height="4.117" transform="translate(391.131 224.135) rotate(180)" fill="#ebebeb"/>
        <rect id="Rectangle_352" data-name="Rectangle 352" width="8.268" height="4.117" transform="translate(380.563 224.135) rotate(180)" fill="#ebebeb"/>
        <rect id="Rectangle_353" data-name="Rectangle 353" width="8.268" height="4.117" transform="translate(391.131 217.156) rotate(180)" fill="#ebebeb"/>
        <rect id="Rectangle_354" data-name="Rectangle 354" width="8.268" height="4.117" transform="translate(380.563 217.156) rotate(180)" fill="#ebebeb"/>
        <rect id="Rectangle_355" data-name="Rectangle 355" width="8.268" height="4.117" transform="translate(391.131 210.159) rotate(180)" fill="#ebebeb"/>
        <rect id="Rectangle_356" data-name="Rectangle 356" width="8.268" height="4.117" transform="translate(380.563 210.159) rotate(180)" fill="#ebebeb"/>
        <rect id="Rectangle_357" data-name="Rectangle 357" width="8.268" height="4.117" transform="translate(391.131 203.18) rotate(180)" fill="#ebebeb"/>
        <rect id="Rectangle_358" data-name="Rectangle 358" width="8.268" height="4.117" transform="translate(380.563 203.18) rotate(180)" fill="#ebebeb"/>
        <rect id="Rectangle_359" data-name="Rectangle 359" width="8.268" height="4.117" transform="translate(391.131 196.193) rotate(180)" fill="#ebebeb"/>
        <rect id="Rectangle_360" data-name="Rectangle 360" width="8.268" height="4.117" transform="translate(380.563 196.193) rotate(180)" fill="#ebebeb"/>
        <rect id="Rectangle_361" data-name="Rectangle 361" width="8.268" height="4.117" transform="translate(391.131 189.205) rotate(180)" fill="#ebebeb"/>
        <rect id="Rectangle_362" data-name="Rectangle 362" width="8.268" height="4.117" transform="translate(380.563 189.205) rotate(180)" fill="#ebebeb"/>
        <rect id="Rectangle_363" data-name="Rectangle 363" width="37.767" height="75.827" transform="translate(214.371 220.632)" fill="#c7c7c7"/>
        <rect id="Rectangle_364" data-name="Rectangle 364" width="6.685" height="4.644" transform="translate(220.312 227.196)" fill="#dbdbdb"/>
        <rect id="Rectangle_365" data-name="Rectangle 365" width="6.685" height="4.644" transform="translate(220.312 237.124)" fill="#dbdbdb"/>
        <rect id="Rectangle_366" data-name="Rectangle 366" width="6.685" height="4.644" transform="translate(220.312 247.044)" fill="#dbdbdb"/>
        <rect id="Rectangle_367" data-name="Rectangle 367" width="6.685" height="4.644" transform="translate(220.312 256.963)" fill="#dbdbdb"/>
        <rect id="Rectangle_368" data-name="Rectangle 368" width="6.685" height="4.644" transform="translate(220.312 266.892)" fill="#dbdbdb"/>
        <rect id="Rectangle_369" data-name="Rectangle 369" width="6.685" height="4.644" transform="translate(220.312 276.811)" fill="#dbdbdb"/>
        <rect id="Rectangle_370" data-name="Rectangle 370" width="6.685" height="4.644" transform="translate(220.312 286.73)" fill="#dbdbdb"/>
        <rect id="Rectangle_371" data-name="Rectangle 371" width="6.685" height="4.644" transform="translate(229.929 227.196)" fill="#dbdbdb"/>
        <rect id="Rectangle_372" data-name="Rectangle 372" width="6.685" height="4.644" transform="translate(229.929 237.124)" fill="#dbdbdb"/>
        <rect id="Rectangle_373" data-name="Rectangle 373" width="6.685" height="4.644" transform="translate(229.929 247.044)" fill="#dbdbdb"/>
        <rect id="Rectangle_374" data-name="Rectangle 374" width="6.685" height="4.644" transform="translate(229.929 256.963)" fill="#dbdbdb"/>
        <rect id="Rectangle_375" data-name="Rectangle 375" width="6.685" height="4.644" transform="translate(229.929 266.892)" fill="#dbdbdb"/>
        <rect id="Rectangle_376" data-name="Rectangle 376" width="6.685" height="4.644" transform="translate(229.929 276.811)" fill="#dbdbdb"/>
        <rect id="Rectangle_377" data-name="Rectangle 377" width="6.685" height="4.644" transform="translate(229.929 286.73)" fill="#dbdbdb"/>
        <rect id="Rectangle_378" data-name="Rectangle 378" width="6.685" height="4.644" transform="translate(239.52 227.196)" fill="#dbdbdb"/>
        <rect id="Rectangle_379" data-name="Rectangle 379" width="6.685" height="4.644" transform="translate(239.52 237.124)" fill="#dbdbdb"/>
        <rect id="Rectangle_380" data-name="Rectangle 380" width="6.685" height="4.644" transform="translate(239.52 247.044)" fill="#dbdbdb"/>
        <rect id="Rectangle_381" data-name="Rectangle 381" width="6.685" height="4.644" transform="translate(239.52 256.963)" fill="#dbdbdb"/>
        <rect id="Rectangle_382" data-name="Rectangle 382" width="6.685" height="4.644" transform="translate(239.52 266.892)" fill="#dbdbdb"/>
        <rect id="Rectangle_383" data-name="Rectangle 383" width="6.685" height="4.644" transform="translate(239.52 276.811)" fill="#dbdbdb"/>
        <rect id="Rectangle_384" data-name="Rectangle 384" width="6.685" height="4.644" transform="translate(239.52 286.73)" fill="#dbdbdb"/>
        <rect id="Rectangle_385" data-name="Rectangle 385" width="25.14" height="7.904" transform="translate(226.997 212.737)" fill="#dbdbdb"/>
        <rect id="Rectangle_386" data-name="Rectangle 386" width="15.939" height="4.895" transform="translate(236.199 207.842)" fill="#ebebeb"/>
        <rect id="Rectangle_387" data-name="Rectangle 387" width="26.498" height="75.827" transform="translate(252.138 220.632)" fill="#a6a6a6"/>
        <rect id="Rectangle_388" data-name="Rectangle 388" width="5.44" height="4.644" transform="translate(275.929 290.639) rotate(180)" fill="#c7c7c7"/>
        <rect id="Rectangle_389" data-name="Rectangle 389" width="5.44" height="4.644" transform="translate(275.929 280.72) rotate(180)" fill="#c7c7c7"/>
        <rect id="Rectangle_390" data-name="Rectangle 390" width="5.44" height="4.644" transform="translate(275.929 270.792) rotate(180)" fill="#c7c7c7"/>
        <rect id="Rectangle_391" data-name="Rectangle 391" width="5.44" height="4.644" transform="translate(275.929 260.864) rotate(180)" fill="#c7c7c7"/>
        <rect id="Rectangle_392" data-name="Rectangle 392" width="5.44" height="4.644" transform="translate(275.929 250.953) rotate(180)" fill="#c7c7c7"/>
        <rect id="Rectangle_393" data-name="Rectangle 393" width="5.44" height="4.644" transform="translate(275.929 241.025) rotate(180)" fill="#c7c7c7"/>
        <rect id="Rectangle_394" data-name="Rectangle 394" width="5.44" height="4.644" transform="translate(275.929 231.105) rotate(180)" fill="#c7c7c7"/>
        <rect id="Rectangle_395" data-name="Rectangle 395" width="5.44" height="4.644" transform="translate(268.102 290.639) rotate(180)" fill="#c7c7c7"/>
        <rect id="Rectangle_396" data-name="Rectangle 396" width="5.44" height="4.644" transform="translate(268.102 280.72) rotate(180)" fill="#c7c7c7"/>
        <rect id="Rectangle_397" data-name="Rectangle 397" width="5.44" height="4.644" transform="translate(268.102 270.792) rotate(180)" fill="#c7c7c7"/>
        <rect id="Rectangle_398" data-name="Rectangle 398" width="5.44" height="4.644" transform="translate(268.102 260.864) rotate(180)" fill="#c7c7c7"/>
        <rect id="Rectangle_399" data-name="Rectangle 399" width="5.44" height="4.644" transform="translate(268.102 250.953) rotate(180)" fill="#c7c7c7"/>
        <rect id="Rectangle_400" data-name="Rectangle 400" width="5.44" height="4.644" transform="translate(268.102 241.025) rotate(180)" fill="#c7c7c7"/>
        <rect id="Rectangle_401" data-name="Rectangle 401" width="5.44" height="4.644" transform="translate(268.102 231.105) rotate(180)" fill="#c7c7c7"/>
        <rect id="Rectangle_402" data-name="Rectangle 402" width="5.44" height="4.644" transform="translate(260.293 290.639) rotate(180)" fill="#c7c7c7"/>
        <rect id="Rectangle_403" data-name="Rectangle 403" width="5.44" height="4.644" transform="translate(260.293 280.72) rotate(180)" fill="#c7c7c7"/>
        <rect id="Rectangle_404" data-name="Rectangle 404" width="5.44" height="4.644" transform="translate(260.293 270.792) rotate(180)" fill="#c7c7c7"/>
        <rect id="Rectangle_405" data-name="Rectangle 405" width="5.44" height="4.644" transform="translate(260.293 260.864) rotate(180)" fill="#c7c7c7"/>
        <rect id="Rectangle_406" data-name="Rectangle 406" width="5.44" height="4.644" transform="translate(260.293 250.953) rotate(180)" fill="#c7c7c7"/>
        <rect id="Rectangle_407" data-name="Rectangle 407" width="5.44" height="4.644" transform="translate(260.293 241.025) rotate(180)" fill="#c7c7c7"/>
        <rect id="Rectangle_408" data-name="Rectangle 408" width="5.44" height="4.644" transform="translate(260.293 231.105) rotate(180)" fill="#c7c7c7"/>
        <rect id="Rectangle_409" data-name="Rectangle 409" width="22.485" height="7.904" transform="translate(252.138 212.737)" fill="#c7c7c7"/>
        <rect id="Rectangle_410" data-name="Rectangle 410" width="12.185" height="4.895" transform="translate(252.138 207.842)" fill="#dbdbdb"/>
      </g>
      <g id="freepik--Shadow--inject-35">
        <ellipse id="Ellipse_6" data-name="Ellipse 6" cx="163.987" cy="13.327" rx="163.987" ry="13.327" transform="translate(52.218 376.04)" fill="#ebebeb"/>
      </g>
      <g id="freepik--Floor--inject-35">
        <path id="Path_234" data-name="Path 234" d="M33.823,302.747l45.593-.208,45.6-.078,91.186-.147,91.186.147,45.6.069,45.593.216-45.593.208-45.6.078-91.186.147-91.186-.147-45.6-.078Z" fill="#263238"/>
        <rect id="Rectangle_411" data-name="Rectangle 411" width="360.863" height="6.287" transform="translate(35.769 296.46)" fill="#c7c7c7"/>
        <path id="Path_235" data-name="Path 235" d="M61.073,296.46a11.874,11.874,0,0,1,0,6.287,10.378,10.378,0,0,1-.432-3.139A10.637,10.637,0,0,1,61.073,296.46Z" fill="#263238"/>
        <path id="Path_236" data-name="Path 236" d="M89.275,296.46a10.637,10.637,0,0,1,.432,3.148,10.378,10.378,0,0,1-.432,3.139,11.874,11.874,0,0,1,0-6.287Z" fill="#263238"/>
        <path id="Path_237" data-name="Path 237" d="M117.486,296.46a11.874,11.874,0,0,1,0,6.287,10.378,10.378,0,0,1-.432-3.139,10.638,10.638,0,0,1,.432-3.148Z" fill="#263238"/>
        <path id="Path_238" data-name="Path 238" d="M145.687,296.46a10.637,10.637,0,0,1,.432,3.148,10.378,10.378,0,0,1-.432,3.139,11.874,11.874,0,0,1,0-6.287Z" fill="#263238"/>
        <path id="Path_239" data-name="Path 239" d="M173.9,296.46a11.874,11.874,0,0,1,0,6.287,10.378,10.378,0,0,1-.432-3.139,10.637,10.637,0,0,1,.432-3.148Z" fill="#263238"/>
        <path id="Path_240" data-name="Path 240" d="M202.1,296.46a10.637,10.637,0,0,1,.432,3.148,10.379,10.379,0,0,1-.432,3.139,11.874,11.874,0,0,1,0-6.287Z" fill="#263238"/>
        <path id="Path_241" data-name="Path 241" d="M230.31,296.46a11.874,11.874,0,0,1,0,6.287,10.38,10.38,0,0,1-.432-3.139,10.636,10.636,0,0,1,.432-3.148Z" fill="#263238"/>
        <path id="Path_242" data-name="Path 242" d="M258.511,296.46a10.638,10.638,0,0,1,.432,3.148,10.377,10.377,0,0,1-.432,3.139,11.874,11.874,0,0,1,0-6.287Z" fill="#263238"/>
        <path id="Path_243" data-name="Path 243" d="M286.722,296.46a11.874,11.874,0,0,1,0,6.287,10.377,10.377,0,0,1-.432-3.139,10.638,10.638,0,0,1,.432-3.148Z" fill="#263238"/>
        <path id="Path_244" data-name="Path 244" d="M314.923,296.46a10.637,10.637,0,0,1,.432,3.148,10.378,10.378,0,0,1-.432,3.139,11.874,11.874,0,0,1,0-6.287Z" fill="#263238"/>
        <path id="Path_245" data-name="Path 245" d="M343.134,296.46a11.874,11.874,0,0,1,0,6.287,10.379,10.379,0,0,1-.432-3.139,10.637,10.637,0,0,1,.432-3.148Z" fill="#263238"/>
        <path id="Path_246" data-name="Path 246" d="M371.336,296.46a10.636,10.636,0,0,1,.432,3.148,10.378,10.378,0,0,1-.432,3.139,11.874,11.874,0,0,1,0-6.287Z" fill="#263238"/>
      </g>
      <g id="freepik--Plants--inject-35">
        <path id="Path_247" data-name="Path 247" d="M76.467,296.46s-.726-3.4-2.179-3.918a2.077,2.077,0,0,0-2.344,1s-.337-3.252-2.4-4.22-3.606,1.02-3.606,1.02-1.583-4.091-4.411-4.091-4.246,6.054-4.246,6.054-1.669-1.79-3.381-.778-1.73,4.99-1.73,4.99Z" fill="#37474f"/>
        <path id="Path_248" data-name="Path 248" d="M317.613,296.46s-.726-3.4-2.179-3.918a2.063,2.063,0,0,0-2.335,1s-.346-3.252-2.4-4.22-3.606,1.02-3.606,1.02-1.583-4.091-4.4-4.091-4.255,6.054-4.255,6.054-1.66-1.79-3.373-.778-1.73,4.99-1.73,4.99Z" fill="#455a64"/>
        <path id="Path_249" data-name="Path 249" d="M140.706,296.46H115.151s.865-3.6,2.534-3.857a2.517,2.517,0,0,1,2.525,1.436s-.078-5.025,3.087-5.881,5.812,3.58,5.812,3.58,1.989-2.534,4.687-2.37,3.4,4.324,3.4,4.324S139.616,292.248,140.706,296.46Z" fill="#37474f"/>
        <path id="Path_250" data-name="Path 250" d="M53.757,296.46H40.309s0-2,1.349-2.534a1.807,1.807,0,0,1,2.11.51s.536-3.684,3-3.684,3.65,3.174,3.65,3.174a1.885,1.885,0,0,1,1.92-.778C53.705,293.32,53.757,296.46,53.757,296.46Z" fill="#455a64"/>
        <path id="Path_251" data-name="Path 251" d="M151.257,296.46H137.809s0-2,1.349-2.534a1.807,1.807,0,0,1,2.11.51s.545-3.684,3.01-3.684,3.641,3.174,3.641,3.174a1.885,1.885,0,0,1,1.92-.778C151.2,293.32,151.257,296.46,151.257,296.46Z" fill="#455a64"/>
        <path id="Path_252" data-name="Path 252" d="M372.477,296.46H359.029s0-2,1.349-2.534a1.807,1.807,0,0,1,2.11.51s.536-3.684,3-3.684,3.65,3.174,3.65,3.174a1.877,1.877,0,0,1,1.92-.778C372.425,293.32,372.477,296.46,372.477,296.46Z" fill="#455a64"/>
        <path id="Path_253" data-name="Path 253" d="M392.1,296.46H369.926s.052-3.3,2.231-4.177a2.975,2.975,0,0,1,3.459.865s.865-6.054,4.955-6.054,6,5.215,6,5.215a3.113,3.113,0,0,1,3.165-1.289C392.013,291.288,392.1,296.46,392.1,296.46Z" fill="#37474f"/>
      </g>
      <g id="freepik--Chronometer--inject-35">
        <rect id="Rectangle_412" data-name="Rectangle 412" width="14.788" height="8.38" transform="translate(277.39 41.814)" fill="#263238"/>
        <rect id="Rectangle_413" data-name="Rectangle 413" width="18.965" height="5.483" transform="translate(275.298 38.995)" fill="#455a64"/>
        <rect id="Rectangle_414" data-name="Rectangle 414" width="5.699" height="9.003" transform="translate(255.084 54.126) rotate(-45)" fill="#263238"/>
        <rect id="Rectangle_415" data-name="Rectangle 415" width="9.055" height="5.881" transform="translate(251.759 53.167) rotate(-45)" fill="#455a64"/>
        <rect id="Rectangle_416" data-name="Rectangle 416" width="5.699" height="9.003" transform="translate(308.118 60.484) rotate(-135)" fill="#263238"/>
        <rect id="Rectangle_417" data-name="Rectangle 417" width="9.055" height="5.881" transform="translate(313.635 57.329) rotate(-135)" fill="#455a64"/>
        <circle id="Ellipse_7" data-name="Ellipse 7" cx="35.951" cy="35.951" r="35.951" transform="translate(241.554 111.868) rotate(-76.8)" fill="#455a64"/>
        <circle id="Ellipse_8" data-name="Ellipse 8" cx="34.299" cy="34.299" r="34.299" transform="translate(250.045 50.194)" fill="#263238"/>
        <circle id="Ellipse_9" data-name="Ellipse 9" cx="30.295" cy="30.295" r="30.295" transform="matrix(0.145, -0.989, 0.989, 0.145, 250.413, 110.513)" fill="#fff"/>
        <path id="Path_254" data-name="Path 254" d="M315.079,84.934H284.811V54.665A30.269,30.269,0,0,1,315.079,84.934Z" fill="red" opacity="0.5"/>
        <rect id="Rectangle_418" data-name="Rectangle 418" width="0.588" height="4.592" transform="translate(284.491 56.836)" fill="#c7c7c7"/>
        <rect id="Rectangle_419" data-name="Rectangle 419" width="0.588" height="4.592" transform="matrix(0.866, -0.5, 0.5, 0.866, 270.475, 60.728)" fill="#c7c7c7"/>
        <rect id="Rectangle_420" data-name="Rectangle 420" width="0.588" height="4.592" transform="matrix(0.5, -0.866, 0.866, 0.5, 260.291, 71.126)" fill="#c7c7c7"/>
        <rect id="Rectangle_421" data-name="Rectangle 421" width="4.592" height="0.588" transform="translate(256.687 84.64)" fill="#c7c7c7"/>
        <rect id="Rectangle_422" data-name="Rectangle 422" width="4.608" height="0.59" transform="translate(261.314 99.019) rotate(-29.887)" fill="#c7c7c7"/>
        <rect id="Rectangle_423" data-name="Rectangle 423" width="4.592" height="0.588" transform="translate(270.479 109.122) rotate(-60.03)" fill="#c7c7c7"/>
        <rect id="Rectangle_424" data-name="Rectangle 424" width="0.588" height="4.592" transform="translate(284.491 108.44)" fill="#c7c7c7"/>
        <rect id="Rectangle_425" data-name="Rectangle 425" width="0.588" height="4.592" transform="matrix(0.866, -0.5, 0.5, 0.866, 296.275, 105.423)" fill="#c7c7c7"/>
        <rect id="Rectangle_426" data-name="Rectangle 426" width="0.588" height="4.592" transform="matrix(0.5, -0.866, 0.866, 0.5, 304.987, 96.918)" fill="#c7c7c7"/>
        <rect id="Rectangle_427" data-name="Rectangle 427" width="4.592" height="0.588" transform="translate(308.29 84.64)" fill="#c7c7c7"/>
        <rect id="Rectangle_428" data-name="Rectangle 428" width="4.592" height="0.588" transform="matrix(0.866, -0.5, 0.5, 0.866, 304.99, 72.91)" fill="#c7c7c7"/>
        <rect id="Rectangle_429" data-name="Rectangle 429" width="4.592" height="0.588" transform="translate(296.278 64.424) rotate(-60.02)" fill="#c7c7c7"/>
        <path id="Path_255" data-name="Path 255" d="M284.992,63.011l1.349,23.722-3.044-.043L284.171,63Z" fill="red"/>
        <path id="Path_256" data-name="Path 256" d="M285.822,84.934a1.038,1.038,0,1,1-.3-.739,1.047,1.047,0,0,1,.3.739Z" fill="red"/>
        <path id="Path_257" data-name="Path 257" d="M306.742,85.288l-23.722,1.34.043-3.044,23.687.873Z" fill="#263238"/>
        <path id="Path_258" data-name="Path 258" d="M285.822,84.934a1.038,1.038,0,1,1-.3-.739,1.047,1.047,0,0,1,.3.739Z" fill="red"/>
      </g>
      <g id="freepik--Character--inject-35">
        <path id="Path_259" data-name="Path 259" d="M161.609,150.046c4.454,16.994,10.257,28.089,14.148,31.929,9.323,9.2,29.4,11.243,40.7,15.93,3.675,1.531,13.837-21.785,10.075-23.826-2.776-1.513-35.016-5.6-37.758-6.434-1.41-.432-12.107-14.365-18.161-22.2C160.856,132.888,159.17,140.766,161.609,150.046Z" fill="#f7a9a0"/>
        <path id="Path_260" data-name="Path 260" d="M234.106,201.174c-1.73-.043-1.79.865.623,2.863s13.647,7.783,11.286,11.545-18.092-4.679-21.854-8.294-8.6-10.776-8.6-10.776C218.963,197.542,227.447,199.245,234.106,201.174Z" fill="#f7a9a0"/>
        <path id="Path_261" data-name="Path 261" d="M223.815,173.344c16.743,2.594,23.4,5.872,30.736,14.434a5.613,5.613,0,0,1,1.436,3.347c3.355,3.771,2.594,6.495,2.594,6.495,2.041,4.471.865,7.143.865,7.143s3.892,4.471,1.574,7.273c-2.594,3.148-7.541-3.753-12.583-5.881-11.563-4.886-29.4-8.588-32.863-9.66Z" fill="#f7a9a0"/>
        <path id="Path_262" data-name="Path 262" d="M239.883,192.543a79.8,79.8,0,0,1,9.885,4.843,80.333,80.333,0,0,1,9.513,7.4.1.1,0,0,0,.138-.147,42.7,42.7,0,0,0-19.467-12.254C239.779,192.336,239.71,192.465,239.883,192.543Z" fill="#263238"/>
        <path id="Path_263" data-name="Path 263" d="M241.812,185.132c3.208,1.643,8.813,4.575,16.656,12.583h.052a38.311,38.311,0,0,0-16.63-12.7C241.682,184.889,241.6,185.019,241.812,185.132Z" fill="#263238"/>
        <path id="Path_264" data-name="Path 264" d="M242.927,181.171c5.336,3.01,8.32,5.578,13.016,9.971,0,0,.069,0,.043-.043-4.8-5.552-7.169-7.022-12.972-10.127C242.806,180.868,242.72,181.05,242.927,181.171Z" fill="#263238"/>
        <path id="Path_265" data-name="Path 265" d="M180.6,157.751,165.18,172.2s-6.227-22.416-6.183-29.508c0-8,4.117-6.235,9.513-.865S180.6,157.751,180.6,157.751Z" fill="red"/>
        <path id="Path_266" data-name="Path 266" d="M180.6,157.751,165.18,172.2s-6.227-22.416-6.183-29.508c0-8,4.117-6.235,9.513-.865S180.6,157.751,180.6,157.751Z" opacity="0.1"/>
        <path id="Path_267" data-name="Path 267" d="M177.443,155.468c-2.214,1.574-8.19,7.23-9.193,8.155-.528.493-2.534,2.525-3.061,3.01-.069.061,0,.156.1.1,1.012-.917,2.119-1.73,3.131-2.655s7.308-6.452,9.089-8.527C177.556,155.5,177.5,155.434,177.443,155.468Z" fill="#263238"/>
        <path id="Path_268" data-name="Path 268" d="M262.317,331.165c-2.093.683-62.353-1.73-64.611-3.191-.277-.164-1.349-11.753-1.349-11.753l6.97-44.529,39.565.528-7.636,38.052s8.717,4.013,15.9,7.515h0a84.637,84.637,0,0,1,9.158,4.826C262.637,324.462,264.418,330.49,262.317,331.165Z" fill="#f7a9a0"/>
        <path id="Path_269" data-name="Path 269" d="M262.325,331.165c-2.093.683-62.371-1.73-64.619-3.183-.268-.173-1.358-11.762-1.358-11.762L198.5,302.5l37.957,1.73-1.228,6s8.709,4.013,15.9,7.507h0a84.634,84.634,0,0,1,9.158,4.826C262.628,324.471,264.409,330.5,262.325,331.165Z" fill="#ebebeb"/>
        <path id="Path_270" data-name="Path 270" d="M262.291,331.225c-2.136.666-62.794-.744-65.069-2.266-.865-.562-1.185-9.418-1.254-20.124v-.329l39.15.476v.657s22.978,10.931,25.3,12.868S264.427,330.585,262.291,331.225Z" fill="#c7c7c7"/>
        <path id="Path_271" data-name="Path 271" d="M258.831,331.4c-13.275.138-59.672-1.107-61.61-2.43-.865-.562-1.185-9.418-1.254-20.124v-.329l24.518.294Z" fill="#a6a6a6"/>
        <path id="Path_272" data-name="Path 272" d="M261.659,328.873c-10.222-.493-51.491-1.5-61.627-1.211-.086,0-.086.061,0,.069,10.118.7,51.387,1.375,61.618,1.306C261.867,329.037,261.876,328.882,261.659,328.873Z" fill="#263238"/>
        <path id="Path_273" data-name="Path 273" d="M238.37,309.847c-4-.865-8.942-.346-12.107,2.456-.121.1,0,.277.164.233a56.5,56.5,0,0,1,11.891-2.179.259.259,0,0,0,.052-.51Z" fill="#263238"/>
        <path id="Path_274" data-name="Path 274" d="M241.232,311.663c-4-.865-8.942-.337-12.107,2.456-.121.1,0,.277.164.242a56.5,56.5,0,0,1,11.917-2.162.268.268,0,0,0,.026-.536Z" fill="#263238"/>
        <path id="Path_275" data-name="Path 275" d="M244.095,313.479c-4-.865-8.942-.337-12.107,2.456-.121.112,0,.277.164.242a56.614,56.614,0,0,1,11.891-2.188.259.259,0,0,0,.052-.51Z" fill="#263238"/>
        <path id="Path_276" data-name="Path 276" d="M238.577,304.511,194.411,302.5s15.264-61.981,13.638-64c-1.73-2.162-65.674,13.837-78.456-2.024-13.093-16.25-6.529-39.643-6.529-39.643h43.613s-.865,5.855-.277,8.648c0,0,61.4-9.392,74.755-2.318,2.594,1.392,12.107,9.21,12.263,16.622C254.257,252.527,238.577,304.511,238.577,304.511Z" fill="#455a64"/>
        <path id="Path_277" data-name="Path 277" d="M239.018,296.512c-5.241-.657-10.49-1.055-15.757-1.453s-10.533-.709-15.8-.908c-2.975-.121-5.95-.1-8.925-.2a.078.078,0,0,0,0,.147c2.646.19,5.284.528,7.93.735l7.835.571c5.267.346,10.533.64,15.8.96,2.966.182,5.933.277,8.908.346a.1.1,0,0,0,.009-.2Z" fill="#263238"/>
        <path id="Path_278" data-name="Path 278" d="M214.855,234.106c-8.484.277-16.924,1.012-25.365,1.842s-16.933,1.73-25.443,2.283c-4.22.268-8.458.441-12.7.467a35.951,35.951,0,0,1-10.456-1.09,14.157,14.157,0,0,1-8.121-6.227,26.5,26.5,0,0,1-3.554-9.989c-1.116-7.152,0-14.46,1.306-21.517.164-.865.329-1.73.484-2.664,0-.078-.112-.112-.138,0-1.73,7.117-3.347,14.442-2.828,21.793a29.205,29.205,0,0,0,2.594,10.43A16.431,16.431,0,0,0,137.3,237.1c3.036,1.73,6.625,2.24,10.11,2.413,4.065.208,8.181,0,12.246-.182,8.7-.424,17.366-1.323,26.014-2.223s17.253-1.782,25.945-2.214c.96-.052,1.92-.086,2.88-.121-1.315,7.783-12.445,54.12-13.067,57.787-.061.363.285.476.381.1,1.9-7.221,12.7-53.619,13.422-58.15a.337.337,0,0,0-.372-.406Z" fill="#263238"/>
        <rect id="Rectangle_430" data-name="Rectangle 430" width="94.386" height="10.438" transform="translate(154.517 332.972)" fill="red"/>
        <path id="Path_279" data-name="Path 279" d="M71.572,241.4h5.353l34.593,39.574h-5.353Z" fill="#a6a6a6"/>
        <rect id="Rectangle_431" data-name="Rectangle 431" width="74.392" height="3.131" transform="translate(64.602 238.257)" fill="#a6a6a6"/>
        <path id="Path_280" data-name="Path 280" d="M91.757,241.4H97.11L131.7,280.971H126.35Z" fill="#a6a6a6"/>
        <path id="Path_281" data-name="Path 281" d="M126.177,314.353c26.879,0,42.454,18.671,42.454,40.646s-14.425,40.223-40.638,40.223c-29.006,0-42.86-23.073-42.86-40.422S98.97,314.353,126.177,314.353Z" fill="#37474f"/>
        <path id="Path_282" data-name="Path 282" d="M122.043,314.353c25.555,0,40.352,18.671,40.352,40.646s-13.707,40.223-38.64,40.223c-27.579,0-40.733-23.108-40.733-40.456S96.176,314.353,122.043,314.353Z" fill="#263238"/>
        <path id="Path_283" data-name="Path 283" d="M122.3,330.136c15.567,0,24.587,11.381,24.587,24.768s-8.354,24.5-23.54,24.5c-16.812,0-24.838-14.062-24.838-24.639S106.537,330.136,122.3,330.136Z" fill="#c7c7c7"/>
        <path id="Path_284" data-name="Path 284" d="M202.264,265.084v-3.537l-90.451,2.914v7.956s-26.2,28.928-28.842,59l90.7,1.92,14.572-.363h17.893V314.794s-13.526-9.859-11.156-30C195.769,278.108,202.264,265.084,202.264,265.084Z" fill="red"/>
        <path id="Path_285" data-name="Path 285" d="M165.223,329.124c-.943,1.73-14.7,4.212-40.785,4.912-23.48.631-41.018.112-42.376-1.4s2.1-28.28,18-42.774,38.4-16.579,53.238-7.93C166.348,289.515,176.086,308.792,165.223,329.124Z" fill="red"/>
        <path id="Path_286" data-name="Path 286" d="M169.651,303.785A33.3,33.3,0,0,0,160.4,287.12a37.11,37.11,0,0,0-16.838-9.677,42.791,42.791,0,0,0-21.62.233,48.35,48.35,0,0,0-10.2,3.952,56.954,56.954,0,0,0-9.617,6.512c-.8.657-1.6,1.315-2.387,1.989-.069.052,0,.147.1.1a61.924,61.924,0,0,1,9.677-6.979,48.346,48.346,0,0,1,9.937-4.281,43.466,43.466,0,0,1,21.214-1.193,36,36,0,0,1,17.115,8.648,34.342,34.342,0,0,1,9.876,15.523c2.162,7.282,1.453,15.3-.7,22.485-.285.969-.6,1.92-.917,2.871,0,.1.121.138.156.043C169.107,319.879,171.277,311.836,169.651,303.785Z" opacity="0.1"/>
        <path id="Path_287" data-name="Path 287" d="M106.779,336.795c-15.748,0-24.085-.484-28.314-2.162l1.963-4.938c4.947,1.963,20.436,1.929,45.36,1.643,18.412-.216,32-1.954,40.473-5.189l1.894,4.964c-9.167,3.459-23,5.293-42.307,5.518C118.523,336.734,112.21,336.795,106.779,336.795Z" fill="#dbdbdb"/>
        <path id="Path_288" data-name="Path 288" d="M203.751,263.873s.605-19.787,0-20.565-92.172-2.43-94.914-2.188-3.018,23.35-2.811,24.431S201.364,264.081,203.751,263.873Z" fill="#37474f"/>
        <path id="Path_289" data-name="Path 289" d="M212.33,243.706c-.268-.311-11.874-.64-12.514-.657s-.865,21.076-.519,21.058,12.609.156,13.016-.294S212.91,244.38,212.33,243.706Z" fill="#455a64"/>
        <path id="Path_290" data-name="Path 290" d="M148.2,241.137a2.3,2.3,0,0,0-.614,1.245,12.244,12.244,0,0,0-.234,1.5c-.112,1-.173,2.024-.225,3.036-.086,2.041-.138,4.091-.173,6.149s-.086,4.1,0,6.132a24.652,24.652,0,0,0,.208,3.01,5.7,5.7,0,0,0,.337,1.41,1.315,1.315,0,0,0,.865.865,1.193,1.193,0,0,1-1.064-.726,6.625,6.625,0,0,1-.562-1.427,18.626,18.626,0,0,1-.476-3.087,59.992,59.992,0,0,1-.156-6.227c.052-2.067.138-4.143.372-6.209a30.823,30.823,0,0,1,.493-3.079,14.7,14.7,0,0,1,.441-1.487C147.547,241.812,147.789,241.284,148.2,241.137Z" fill="#455a64"/>
        <rect id="Rectangle_432" data-name="Rectangle 432" width="86.473" height="53.757" transform="translate(154.517 238.214) rotate(180)" fill="#37474f"/>
        <rect id="Rectangle_433" data-name="Rectangle 433" width="62.474" height="53.757" transform="translate(130.518 238.214) rotate(180)" fill="#263238"/>
        <rect id="Rectangle_434" data-name="Rectangle 434" width="6.72" height="53.757" transform="translate(95.926 184.448)" fill="red"/>
        <rect id="Rectangle_435" data-name="Rectangle 435" width="64.239" height="4.973" transform="translate(66.288 179.476)" fill="#37474f"/>
        <rect id="Rectangle_436" data-name="Rectangle 436" width="25.936" height="4.973" transform="translate(130.518 179.476)" fill="#263238"/>
        <rect id="Rectangle_437" data-name="Rectangle 437" width="7.853" height="4.973" transform="translate(95.355 179.476)" fill="red"/>
        <rect id="Rectangle_438" data-name="Rectangle 438" width="63.123" height="39.245" transform="translate(140.325 179.701) rotate(180)" fill="#37474f"/>
        <rect id="Rectangle_439" data-name="Rectangle 439" width="45.602" height="39.245" transform="translate(122.804 179.701) rotate(180)" fill="#263238"/>
        <rect id="Rectangle_440" data-name="Rectangle 440" width="4.904" height="39.245" transform="translate(97.551 140.464)" fill="red"/>
        <rect id="Rectangle_441" data-name="Rectangle 441" width="46.89" height="3.632" transform="translate(75.914 136.832)" fill="#37474f"/>
        <rect id="Rectangle_442" data-name="Rectangle 442" width="18.931" height="3.632" transform="translate(122.804 136.832)" fill="#263238"/>
        <rect id="Rectangle_443" data-name="Rectangle 443" width="5.734" height="3.632" transform="translate(97.136 136.832)" fill="red"/>
        <path id="Path_291" data-name="Path 291" d="M323.6,314.024c26.887,0,42.454,18.671,42.454,40.646s-14.425,40.2-40.646,40.2c-29.015,0-42.869-23.073-42.869-40.413S296.39,314.024,323.6,314.024Z" fill="#37474f"/>
        <path id="Path_292" data-name="Path 292" d="M319.464,314.024c25.555,0,40.361,18.671,40.361,40.646s-13.716,40.2-38.64,40.2c-27.579,0-40.75-23.073-40.75-40.413S293.606,314.024,319.464,314.024Z" fill="#263238"/>
        <path id="Path_293" data-name="Path 293" d="M319.723,329.807c15.567,0,24.6,11.381,24.6,24.768s-8.354,24.5-23.549,24.5c-16.8,0-24.829-14.062-24.829-24.63S303.966,329.807,319.723,329.807Z" fill="#c7c7c7"/>
        <path id="Path_294" data-name="Path 294" d="M280.106,222.224H269.529l-7.247-10.637h12.393Z" fill="red"/>
        <path id="Path_295" data-name="Path 295" d="M262.282,211.586l4.246,6.227,3,4.411h10.577l-2.863-5.6-2.577-5.033Z" fill="red"/>
        <path id="Path_296" data-name="Path 296" d="M262.282,211.586l4.246,6.227,10.715-1.193-2.577-5.033Z" opacity="0.1"/>
        <path id="Path_297" data-name="Path 297" d="M305.808,301.605l-10.3,2.37-9.444-8.752,12.073-2.767Z" fill="red"/>
        <path id="Path_298" data-name="Path 298" d="M286.065,295.223l5.526,5.128,3.909,3.624,10.317-2.37-4.047-4.817-3.632-4.333Z" fill="red"/>
        <path id="Path_299" data-name="Path 299" d="M286.065,295.223l5.526,5.128,10.179-3.563-3.632-4.333Z" opacity="0.1"/>
        <path id="Path_300" data-name="Path 300" d="M363.717,319.213l-10.006,5.258s-28.98-5.258-47.565-1.28-23.6,13.906-23.6,13.906h-9.392s8.06-28.634,21.733-39.029,35.648-8.069,47.8-1.522S363.717,319.213,363.717,319.213Z" fill="red"/>
        <path id="Path_301" data-name="Path 301" d="M352.656,322.491a51.647,51.647,0,0,0-6.279-5.569,55.78,55.78,0,0,0-7.022-4.653,42.887,42.887,0,0,0-15.376-5.051c-10.568-1.3-21.62,1.781-29.4,9.9-4.376,4.6-7.489,10.248-10.447,15.947-.043.086.078.156.121.069a62.872,62.872,0,0,1,9.409-13.837,33.728,33.728,0,0,1,13.085-8.821c9.971-3.658,20.756-2.257,30.338,2.162A60.925,60.925,0,0,1,345,316.964a91.67,91.67,0,0,1,7.481,5.613.1.1,0,0,0,.173-.086Z" opacity="0.1"/>
        <path id="Path_302" data-name="Path 302" d="M242.694,216.5c-.156.363-21.041,4.2-21.041,4.2s-3.459-2.335-1.323-5.293l20.955-4.523A4.86,4.86,0,0,1,242.694,216.5Z" fill="#263238"/>
        <path id="Path_303" data-name="Path 303" d="M286.532,189.5v24.777s-13.379-1.168-16.942-1.289-19.4,1.929-19.4,1.929l-1.228-5.552s12.211-4.264,17.4-7.593,11.165-9.695,14.373-11.1a12.973,12.973,0,0,1,5.794-1.167Z" fill="red"/>
        <path id="Path_304" data-name="Path 304" d="M250.244,208.663a7.559,7.559,0,0,1,2.076,6.253s-9.971,1.825-10.092,1.825a5.665,5.665,0,0,0-3.416-5.6Z" fill="#dbdbdb"/>
        <ellipse id="Ellipse_10" data-name="Ellipse 10" cx="6.555" cy="12.384" rx="6.555" ry="12.384" transform="translate(280.106 189.508)" fill="#dbdbdb"/>
        <ellipse id="Ellipse_11" data-name="Ellipse 11" cx="5.613" cy="11.052" rx="5.613" ry="11.052" transform="translate(281.455 190.839)" fill="#fff"/>
        <path id="Path_305" data-name="Path 305" d="M288.771,222.258c2.179,3.191,10.905,46.588,12.618,48.767s4.99,2.335,4.99,2.335l5.768,14.339s-14.33,4.523-22.286,11.061c-10.283,8.449-19.787,36.461-19.787,36.461-1.557,1.09-20.877,9.037-26.178,9.349,0,0,24.639-27.052,26.645-64.489.778-14.5-8.147-34.93-8.726-45.048-.64-10.862,2.646-12.773,8.415-12.773Z" fill="red"/>
        <path id="Path_306" data-name="Path 306" d="M242.711,347.657l-3.857-3.65c21.62-22.883,29.594-58.937,28.963-68.779-.329-5.042-1.946-10.681-3.667-16.656-1.833-6.374-3.909-13.595-4.791-21.439-.822-7.282,0-11.986,2.482-14.8s5.889-2.8,8.155-2.793h20.583v5.31H269.988c-1.98,0-3.33.069-4.186,1.029s-1.972,3.459-1.159,10.663a126.271,126.271,0,0,0,4.618,20.557c1.8,6.261,3.459,12.168,3.857,17.781C273.793,285.39,265.5,323.641,242.711,347.657Z" fill="#dbdbdb"/>
        <path id="Path_307" data-name="Path 307" d="M301.493,282.865c1.211,4.462,5.025,7.3,8.518,6.348s5.353-5.336,4.134-9.79-5.033-7.308-8.527-6.356S300.273,278.411,301.493,282.865Z" fill="#dbdbdb"/>
        <path id="Path_308" data-name="Path 308" d="M302.79,282.51c1.081,3.978,4.385,6.538,7.377,5.725s4.532-4.7,3.459-8.648-4.385-6.538-7.368-5.725S301.709,278.532,302.79,282.51Z" fill="#fff"/>
        <path id="Path_309" data-name="Path 309" d="M286.194,282.147c-.96-4.488-2-8.96-2.9-13.457s-1.73-9-2.43-13.526c-.683-4.212-1.418-8.467-1.686-12.73-.268-4.454,0-8.951,2.162-12.972a.07.07,0,1,0-.121-.069c-2.223,3.243-2.949,7.143-3.07,11.009a74.695,74.695,0,0,0,1.124,12.713,273.156,273.156,0,0,0,5.189,27.406c1.254,5.111,2.871,10.136,4.6,15.1a.061.061,0,1,0,.121,0Q287.639,288.849,286.194,282.147Z" opacity="0.1"/>
        <path id="Path_310" data-name="Path 310" d="M206.138,314.794v18.161h-15.5V319.2s-8.648-4.367-10.378-20.254c-1.557-14.391,9.928-33.6,12.107-37.083l9.868-.32v3.537s-6.495,13.024-7.282,19.709C192.612,304.935,206.138,314.794,206.138,314.794Z" opacity="0.1"/>
        <path id="Path_311" data-name="Path 311" d="M245.115,337.2c-2.093.675-62.362-1.73-64.619-3.191-.268-.164-1.34-11.762-1.34-11.762l6.97-44.529,39.565.528L218.055,316.3s8.709,4,15.9,7.507h0a88.041,88.041,0,0,1,9.158,4.826C245.427,330.5,247.208,336.527,245.115,337.2Z" fill="#f7a9a0"/>
        <path id="Path_312" data-name="Path 312" d="M245.124,337.2c-2.1.675-62.371-1.73-64.619-3.191-.277-.164-1.358-11.753-1.358-11.753l2.153-13.725,37.957,1.73-1.2,5.985s8.709,4.013,15.9,7.507h0a89.035,89.035,0,0,1,9.158,4.826C245.427,330.508,247.208,336.527,245.124,337.2Z" fill="#ebebeb"/>
        <path id="Path_313" data-name="Path 313" d="M245.081,337.279c-2.127.666-62.794-.752-65.069-2.274-.865-.562-1.176-9.409-1.245-20.116v-.337l39.142.476v.666s22.978,10.923,25.3,12.86S247.217,336.613,245.081,337.279Z" fill="#c7c7c7"/>
        <path id="Path_314" data-name="Path 314" d="M244.449,334.9c-10.214-.484-51.483-1.5-61.618-1.2-.086,0-.086.061,0,.061,10.118.709,51.388,1.384,61.618,1.315C244.666,335.065,244.666,334.909,244.449,334.9Z" fill="#263238"/>
        <path id="Path_315" data-name="Path 315" d="M221.169,315.875c-4-.865-8.942-.337-12.107,2.456-.13.112,0,.277.164.242a56.508,56.508,0,0,1,11.891-2.188.259.259,0,0,0,.052-.51Z" fill="#263238"/>
        <path id="Path_316" data-name="Path 316" d="M224.031,317.7c-4-.865-8.942-.346-12.107,2.447-.121.112,0,.285.164.242a56.508,56.508,0,0,1,11.9-2.188.252.252,0,0,0,.043-.5Z" fill="#263238"/>
        <path id="Path_317" data-name="Path 317" d="M226.894,319.516c-4-.865-8.942-.346-12.107,2.456-.121.1,0,.277.164.233a57.075,57.075,0,0,1,11.891-2.179.259.259,0,0,0,.052-.51Z" fill="#263238"/>
        <path id="Path_318" data-name="Path 318" d="M221.393,310.548l-44.166-2.015s15.273-61.981,13.647-64c-1.73-2.171-59.966,13.837-72.757-2.024-13.093-16.25,0-43.448,0-43.448h44.772s0,4.981-3.044,12.436c0,0,50.765-9.4,64.144-2.326,2.638,1.4,12.107,9.219,12.263,16.63C237.029,258.581,221.393,310.548,221.393,310.548Z" fill="#455a64"/>
        <path id="Path_319" data-name="Path 319" d="M221.817,302.548c-5.241-.657-10.5-1.064-15.766-1.453s-10.525-.709-15.8-.917c-2.966-.112-5.941-.086-8.916-.2a.078.078,0,1,0,0,.156c2.646.19,5.284.519,7.93.726s5.189.4,7.835.571c5.258.355,10.525.64,15.792.969,2.975.182,5.941.277,8.916.346a.1.1,0,0,0,.009-.2Z" fill="#263238"/>
        <path id="Path_320" data-name="Path 320" d="M136.84,202.808a3.123,3.123,0,0,1-.225.528.069.069,0,0,0,0,.086c-.519,1.617-.735,3.33-1.237,4.955a7.783,7.783,0,0,1-2.992,4.272c-3.061,2.127-6.737,3.087-10.3,3.969a.1.1,0,0,0,0,.2,19.554,19.554,0,0,0,6.054-.925,16.1,16.1,0,0,0,5.12-2.456,8.043,8.043,0,0,0,2.94-4.428,28.825,28.825,0,0,0,.51-2.845,22.653,22.653,0,0,0,.355-3.33.156.156,0,0,0-.225-.026Z" fill="#263238"/>
        <path id="Path_321" data-name="Path 321" d="M167.048,209.286a45.371,45.371,0,0,0-7.092,2.707l-.112.052a2.6,2.6,0,0,0,.1-.432,2.622,2.622,0,0,1,.086-.51c.035-.173,0-.355.052-.536v-.277h0a2.136,2.136,0,0,0,1.522-.787,5.448,5.448,0,0,0,.943-2.231c.268-1,.519-2.024.735-3.044s.45-2.274.631-3.459a21.533,21.533,0,0,0,.389-3.4.156.156,0,1,0-.311,0c-.268,1.046-.389,2.127-.588,3.183s-.424,2.119-.666,3.174-.5,2.11-.8,3.148-.519,2.274-1.591,2.594c-2.214.631-1.219-4.324-1.124-5.31.225-2.249.363-4.549.761-6.78,0-.086-.13-.13-.147,0-.484,2.05-1.029,4.065-1.392,6.14-.182,1.02-.311,2.05-.424,3.07a4.826,4.826,0,0,0,.208,2.646,1.946,1.946,0,0,0,1.462,1.081l-.069.233c-.052.164-.1.329-.147.493s-.078.337-.112.5a1.271,1.271,0,0,0-.078.614.251.251,0,0,0,.112.138c-.943.406-1.894.813-2.828,1.254a24.217,24.217,0,0,0-3.4,1.652c-.13.061,0,.233.1.208a25.828,25.828,0,0,0,3.563-1.289c1.185-.45,2.352-.934,3.528-1.427a44.192,44.192,0,0,0,6.737-3.139.137.137,0,1,0-.052-.268Z" fill="#263238"/>
        <path id="Path_322" data-name="Path 322" d="M234.936,220.174a19.83,19.83,0,0,0-8.735-10.715c-4.212-2.326-9.124-2.949-13.837-3.1-5.483-.164-11,.121-16.475.467-5.829.363-11.658.917-17.452,1.73s-11.485,1.807-17.184,3.036c-1.366.294-2.724.657-4.082,1.038-.1,0-.086.225,0,.208,5.665-.8,11.3-1.73,16.968-2.508s11.39-1.392,17.115-1.825,11.39-.675,17.089-.761c4.67-.069,9.513,0,13.95,1.5a17.3,17.3,0,0,1,5.976,3.33,18.066,18.066,0,0,1,4.151,5.457c2.335,4.592,2.551,9.859,2.785,14.944.675,15.091-10.179,63.045-12.107,70.751a.285.285,0,0,0,.545.138c2.171-8.7,12.972-54,12.972-67.611C236.623,230.829,236.822,225.294,234.936,220.174Z" fill="#263238"/>
        <path id="Path_323" data-name="Path 323" d="M197.36,239.312c-7.913.277-15.783,1.012-23.653,1.842s-15.8,1.73-23.722,2.283c-3.944.268-7.9.441-11.848.467a31.133,31.133,0,0,1-9.747-1.09,13.387,13.387,0,0,1-7.576-6.218,27.926,27.926,0,0,1-3.312-10.015c-1.038-7.152,0-14.46,1.219-21.517.156-.865.3-1.73.458-2.655,0-.086-.112-.121-.13,0-1.652,7.117-3.131,14.442-2.594,21.793a31.2,31.2,0,0,0,2.413,10.438,16.129,16.129,0,0,0,6.209,7.654,20.41,20.41,0,0,0,9.427,2.413,107.158,107.158,0,0,0,11.424-.182c8.112-.424,16.189-1.323,24.258-2.223s16.086-1.782,24.163-2.214c.865-.043,1.79-.086,2.681-.112-1.219,7.74-11.6,54.112-12.177,57.779-.061.363.268.476.355.112,1.73-7.23,11.848-53.619,12.514-58.159a.329.329,0,0,0-.363-.4Z" fill="#263238"/>
        <path id="Path_324" data-name="Path 324" d="M115.548,204.59c.121.173,59.283,4.722,59.906,4.168.865-.787-4.99-61.4-10.274-70.292-1.133-1.894-5.466-2.888-9.262-2.854a16.517,16.517,0,0,0-2.949.251h-.1a7.04,7.04,0,0,0-2.24.787c-11.364,7.091-23.488,35.094-26.541,43.57C119.034,194.195,115.107,203.967,115.548,204.59Z" fill="red"/>
        <path id="Path_325" data-name="Path 325" d="M162.456,146.2c-2.94,0-7.9-4.748-8.89-9.2-.069-.311,1.15-2.966,2.465-6.27.8-2.015,1.635-4.264,2.249-6.374.121-.441,12.306,7.066,12.306,7.066a35.025,35.025,0,0,0-3.632,7.74,4.99,4.99,0,0,0-.164.865,1.053,1.053,0,0,1,0,.147C166.555,141.925,165.6,146.241,162.456,146.2Z" fill="#f7a9a0"/>
        <path id="Path_326" data-name="Path 326" d="M166.789,140.049a1.053,1.053,0,0,1,0,.147,8.416,8.416,0,0,1-1.375-.32c-7.783-2.439-6.97-12.8-6.642-15.385,2.257,1.02,11.839,6.919,11.839,6.919a35.527,35.527,0,0,0-3.641,7.74A5.845,5.845,0,0,0,166.789,140.049Z" fill="#263238"/>
        <path id="Path_327" data-name="Path 327" d="M159.36,108.146c-2.136,4.653-1.479,19.026,1.539,22.589,4.385,5.189,12.514,6.754,17.175,1.271,4.514-5.319,3.33-24.007-.13-27.371C172.834,99.688,162.525,101.287,159.36,108.146Z" fill="#f7a9a0"/>
        <path id="Path_328" data-name="Path 328" d="M171.883,118.385s-.069.052-.069.1c.069.96,0,2.084-.865,2.439v.052C172.012,120.78,172.1,119.293,171.883,118.385Z" fill="#263238"/>
        <path id="Path_329" data-name="Path 329" d="M170.975,117.416c-1.557-.061-1.548,3.07-.1,3.122S172.289,117.46,170.975,117.416Z" fill="#263238"/>
        <path id="Path_330" data-name="Path 330" d="M177.487,118.541s.078.043.069.086c0,.96.1,2.076.977,2.4v.052C177.461,120.928,177.288,119.449,177.487,118.541Z" fill="#263238"/>
        <path id="Path_331" data-name="Path 331" d="M178.351,117.529c1.548-.121,1.678,3,.234,3.1S177.046,117.615,178.351,117.529Z" fill="#263238"/>
        <path id="Path_332" data-name="Path 332" d="M169.746,115.989a11.7,11.7,0,0,0,1.2-.432,2.024,2.024,0,0,0,1.15-.666.666.666,0,0,0-.1-.8,1.635,1.635,0,0,0-1.652-.164,2.378,2.378,0,0,0-1.384,1.046.709.709,0,0,0,.787,1.02Z" fill="#263238"/>
        <path id="Path_333" data-name="Path 333" d="M179.554,115.946a10.527,10.527,0,0,1-1.245-.32,2.006,2.006,0,0,1-1.2-.562.666.666,0,0,1,0-.8,1.635,1.635,0,0,1,1.635-.311,2.387,2.387,0,0,1,1.47.917.7.7,0,0,1-.657,1.081Z" fill="#263238"/>
        <path id="Path_334" data-name="Path 334" d="M171,127.37a1.482,1.482,0,0,0,.865.571,2.594,2.594,0,0,0,1.038-.251s.061,0,.043.052a1.306,1.306,0,0,1-1.228.528,1.02,1.02,0,0,1-.761-.865C170.9,127.362,170.966,127.336,171,127.37Z" fill="#263238"/>
        <path id="Path_335" data-name="Path 335" d="M172.012,124.473a3.3,3.3,0,0,0,2.205,1.462,4.169,4.169,0,0,0,1.185.052.943.943,0,0,0,.225,0h.216a.242.242,0,0,0,.19-.216h0a.354.354,0,0,0,0-.1h0v-.086c0-.744-.061-1.877-.061-1.877.277.138,1.669.761,1.643.372a49.293,49.293,0,0,0-1.3-9.971.086.086,0,1,0-.173,0c.069,3.1.675,6.175.8,9.288a5.854,5.854,0,0,0-1.557-.467c-.1,0,.182,2.188.147,2.525a4.592,4.592,0,0,1-3.407-1.055C172.038,124.335,171.96,124.4,172.012,124.473Z" fill="#263238"/>
        <path id="Path_336" data-name="Path 336" d="M174.961,125.606a3.857,3.857,0,0,1-1.565,1.219,1.773,1.773,0,0,1-1.064.069c-.77-.2-.8-.865-.657-1.522a4.7,4.7,0,0,1,.346-.925,5.051,5.051,0,0,0,2.94,1.159Z" fill="#263238"/>
        <path id="Path_337" data-name="Path 337" d="M173.4,126.826a1.773,1.773,0,0,1-1.064.069c-.77-.2-.8-.865-.657-1.522a1.816,1.816,0,0,1,1.721,1.453Z" fill="#ff9bbc"/>
        <path id="Path_338" data-name="Path 338" d="M180.012,109.382c-.528-1.228-1.142-2.465-1.885-2.716s-1.219,1.565-2.906,1.678c-2.266.156-3.364-1.929-6.538-2.153-4.566-.311-6.573,3.459-6.676,9.963-.1,5.777-3.589,6.322-3.589,6.322s-2.119-12.739,1.47-16.959,11.831-6.054,17.366-2.058C179.268,104.92,180.012,109.382,180.012,109.382Z" fill="#263238"/>
        <path id="Path_339" data-name="Path 339" d="M161.332,120.21s-2.655-4.9-4.843-4.013-.562,7.783,1.73,8.934a2.482,2.482,0,0,0,3.459-.943Z" fill="#f7a9a0"/>
        <path id="Path_340" data-name="Path 340" d="M157.008,118.143v.061c1.617.865,2.326,2.594,2.767,4.264a1.366,1.366,0,0,0-1.989-.605c-.052,0,0,.1,0,.1a1.539,1.539,0,0,1,1.609.718,7.723,7.723,0,0,1,.64,1.444c.061.156.346.112.3-.069v-.043C160.631,121.844,159.3,118.627,157.008,118.143Z" fill="#263238"/>
        <path id="Path_341" data-name="Path 341" d="M179.467,105.586c-1.34-.32-8.769-.1-12.107,1.34s-9.271,6.235-9.574,6.486-1.833-12,8.1-14.226C176.708,96.747,179.467,105.586,179.467,105.586Z" fill="red"/>
        <path id="Path_342" data-name="Path 342" d="M158.357,112.911s6.564-8.648,10.214-10.637,11.822-3.1,16.881-.865c3.935,1.73-5.682,6.8-5.682,6.8a2.733,2.733,0,0,0-1.539-1.9c-2.456-.977-7.126-.225-9.79.666C165.085,108.1,158.357,112.911,158.357,112.911Z" fill="red"/>
        <path id="Path_343" data-name="Path 343" d="M158.357,112.954s6.564-8.7,10.214-10.681,11.822-3.1,16.881-.865c3.935,1.73-5.682,6.8-5.682,6.8a2.733,2.733,0,0,0-1.539-1.9c-2.456-.977-7.126-.225-9.79.666C165.085,108.1,158.357,112.954,158.357,112.954Z" opacity="0.2"/>
        <path id="Path_344" data-name="Path 344" d="M146.889,152.822c-.553,17.054,5.742,48.992,10.378,51.163,14.961,6.988,40.136,7.429,48.758,7.507,3.719,0,9.427-26.446,5.742-27.934-2.447-.986-39.358-.995-40.006-2.309s-9.444-20.306-13.24-30.822C153.479,136.442,147.209,142.807,146.889,152.822Z" fill="#f7a9a0"/>
        <path id="Path_345" data-name="Path 345" d="M207.807,183.2s11.3.692,18.663,1.487c4.117.441,11.1,1.833,13.958,3.537,4.324,2.594,20.617,15.982,17.452,20.012-2.871,3.641-15.428-9.669-15.428-9.669s13.837,12.306,9.6,16.068-16.432-13.18-16.432-13.18,13.958,12.972,8.951,16.155c-3.779,2.4-15.688-12.315-15.688-12.315s11.926,11.243,8.138,13.837c-4.186,2.914-16.025-9.98-16.025-9.98-10.75,5.085-17.945,3.1-22.9,1.09C196.876,209.8,207.807,183.2,207.807,183.2Z" fill="#f7a9a0"/>
        <path id="Path_346" data-name="Path 346" d="M237.929,194c1.678,1.384,3.39,2.776,4.938,4.324s3.053,3.122,4.454,4.791a37.629,37.629,0,0,1,4.843,7.014c-2.707-4.324-8.173-9.859-9.729-11.39s-3.018-3.139-4.566-4.67A.046.046,0,0,1,237.929,194Z" fill="#263238"/>
        <path id="Path_347" data-name="Path 347" d="M232.3,199.5c2.067,1.859,4.186,3.641,6.175,5.6s3.684,3.97,5.526,6.054c.138.156,0,.182-.147,0-1.92-2-3.848-3.7-5.786-5.682s-3.814-4.039-5.82-5.941C232.212,199.522,232.264,199.479,232.3,199.5Z" fill="#263238"/>
        <path id="Path_348" data-name="Path 348" d="M226.582,203.353a62.017,62.017,0,0,1,8.8,9.279c.13.164-.043.182-.19,0-2.863-3.139-5.085-5.621-8.7-9.176C226.461,203.414,226.582,203.3,226.582,203.353Z" fill="#263238"/>
        <path id="Path_349" data-name="Path 349" d="M239,186.861a27.674,27.674,0,0,0-8.449-2.119c-6.279-.77-12.592-1.271-18.9-1.73s-12.721-.865-19.087-1.1q-5.371-.208-10.741-.32c-3.58-.069-4.324.061-7.922.1-.1,0-.086.13,0,.138,6.27.329,9.729.588,16,.917s12.523.7,18.775,1.133,12.4.865,18.576,1.557a48.691,48.691,0,0,1,8.847,1.427,25.832,25.832,0,0,1,7.783,4.532c2.646,2.084,12.566,11.623,13.474,12.86.112.147.156.1.1-.086C256.73,201.589,244.8,189.568,239,186.861Z" fill="#263238"/>
        <path id="Path_350" data-name="Path 350" d="M164.748,163.831l-18.395,10.43s-.778-23.246.925-30.148c1.92-7.783,5.466-5.085,9.461,1.384S164.748,163.831,164.748,163.831Z" fill="red"/>
        <path id="Path_351" data-name="Path 351" d="M164.748,163.831l-18.395,10.43s-.778-23.246.925-30.148c1.92-7.783,5.466-5.085,9.461,1.384S164.748,163.831,164.748,163.831Z" opacity="0.1"/>
        <path id="Path_352" data-name="Path 352" d="M162.214,160.856c-2.517,1.012-9.66,5.111-10.845,5.777-.623.346-3.061,1.859-3.684,2.205-.078.043,0,.156.078.112,1.2-.657,2.465-1.193,3.675-1.842s8.648-4.558,10.828-6.166a.052.052,0,0,0-.052-.086Z" fill="#263238"/>
        <path id="Path_353" data-name="Path 353" d="M146.414,153.427c0-.1-.138-.086-.147,0q-.234,2.958-.346,5.924a17.547,17.547,0,0,1-.311-3.087h-.069a13.837,13.837,0,0,0,.372,3.563c-.052,1.375-.1,2.759-.112,4.134-.052,3.5-.147,7.022,0,10.525a.242.242,0,0,0,.372.19c.623-.381,1.237-.778,1.833-1.2.069-.052,0-.164-.061-.13-.562.234-1.107.493-1.652.752.138-3.381.112-6.772.156-10.162S146.509,156.93,146.414,153.427Z" fill="#263238"/>
        <path id="Path_354" data-name="Path 354" d="M161.851,155.226c-.285-1.081-.579-2.153-.908-3.226h0c.182.8.389,1.591.6,2.387-.666-1.5-1.349-2.992-2.093-4.437H159.4c.8,2.344,1.73,4.644,2.594,6.97s1.73,4.549,2.594,6.823c-.389.3-.77.6-1.168.865a.072.072,0,0,0,.078.121c.476-.242.951-.484,1.444-.7a.242.242,0,0,0,.147-.294C164.125,160.908,163.053,158.037,161.851,155.226Z" fill="#263238"/>
      </g>
      <g id="freepik--Line--inject-35">
        <g id="Group_31" data-name="Group 31" opacity="0.5">
          <path id="Path_355" data-name="Path 355" d="M367.219,144.935a4.047,4.047,0,1,1-1.182-2.867A4.056,4.056,0,0,1,367.219,144.935Z" fill="red"/>
          <path id="Path_356" data-name="Path 356" d="M363.172,151.81a6.919,6.919,0,1,1,6.875-6.875,6.919,6.919,0,0,1-6.875,6.875Zm0-12.886a6.011,6.011,0,1,0,4.265,1.776,6.01,6.01,0,0,0-4.265-1.776Z" fill="red"/>
          <path id="Path_357" data-name="Path 357" d="M119.207,106.148a4.056,4.056,0,1,1-4.056-4.047,4.056,4.056,0,0,1,4.056,4.047Z" fill="red"/>
          <path id="Path_358" data-name="Path 358" d="M115.151,113.032a6.919,6.919,0,1,1,6.875-6.919,6.919,6.919,0,0,1-6.875,6.919Zm0-12.894a6.054,6.054,0,1,0,6.01,6.01,6.054,6.054,0,0,0-6.01-6.01Z" fill="red"/>
          <path id="Path_359" data-name="Path 359" d="M268.18,166.348H215.772V85.332h-69.16V106.58H121.593v-.865h24.154V84.467h70.889v81.016h50.678V143.041h59.318V121.187H363.6v17.305h-.865v-16.44H327.5v21.854H268.18Z" fill="red"/>
        </g>
      </g>
      <g id="freepik--Locator--inject-35">
        <path id="Path_360" data-name="Path 360" d="M129.55,64c-.718-7.2-5.682-14.365-14.4-14.365S101.478,56.836,100.76,64c-1.1,11.113,6.391,21.179,14.391,30.364C123.15,85.211,130.648,75.144,129.55,64Zm-14.4,7.991a3.268,3.268,0,1,1,0,.035Z" fill="red"/>
      </g>
    </g>
  </g>
</svg>
