<svg xmlns="http://www.w3.org/2000/svg" xmlns:xlink="http://www.w3.org/1999/xlink" width="376" height="376" viewBox="0 0 376 376">
  <defs>
    <clipPath id="clip-path">
      <rect id="Rectangle_803" data-name="Rectangle 803" width="376" height="376" transform="translate(2051 3235)" fill="#fff" stroke="#707070" stroke-width="1"/>
    </clipPath>
    <clipPath id="clip-path-2">
      <path id="Path_2743" data-name="Path 2743" d="M22.889,282.7h8.45v7.279a4.009,4.009,0,0,1-4.009,4.009h-.369a4.009,4.009,0,0,1-4.009-4.009V282.7Z" fill="red" stroke="#263238" stroke-linecap="round" stroke-linejoin="round" stroke-width="0.802"/>
    </clipPath>
    <clipPath id="clip-path-3">
      <path id="Path_2748" data-name="Path 2748" d="M39.412,282.7h8.45v7.279a4.009,4.009,0,0,1-4.009,4.009h-.4a4.009,4.009,0,0,1-4.009-4.009V282.7Z" fill="red" stroke="#263238" stroke-linecap="round" stroke-linejoin="round" stroke-width="0.802"/>
    </clipPath>
    <clipPath id="clip-path-4">
      <path id="Path_2753" data-name="Path 2753" d="M55.935,282.7h8.45v7.279a4.009,4.009,0,0,1-4.009,4.009h-.369A4.009,4.009,0,0,1,56,289.977V282.7Z" fill="red" stroke="#263238" stroke-linecap="round" stroke-linejoin="round" stroke-width="0.802"/>
    </clipPath>
    <clipPath id="clip-path-5">
      <path id="Path_2758" data-name="Path 2758" d="M72.458,282.7h8.45v7.279a4.009,4.009,0,0,1-4.009,4.009h-.369a4.009,4.009,0,0,1-4.009-4.009V282.7Z" fill="red" stroke="#263238" stroke-linecap="round" stroke-linejoin="round" stroke-width="0.802"/>
    </clipPath>
    <clipPath id="clip-path-6">
      <path id="Path_2763" data-name="Path 2763" d="M88.989,282.7h8.45v7.288a4.009,4.009,0,0,1-4.009,4.009H93a4.009,4.009,0,0,1-4.009-4.009V282.7Z" fill="red" stroke="#263238" stroke-linecap="round" stroke-linejoin="round" stroke-width="0.802"/>
    </clipPath>
    <clipPath id="clip-path-7">
      <path id="Path_2770" data-name="Path 2770" d="M275.554,182.508v71.015L257.34,288.654V216.469Z" fill="red" stroke="#263238" stroke-linecap="round" stroke-linejoin="round" stroke-width="0.802"/>
    </clipPath>
  </defs>
  <g id="Mask_Group_29" data-name="Mask Group 29" transform="translate(-2051 -3235)" clip-path="url(#clip-path)">
    <g id="Free_shipping-bro" data-name="Free shipping-bro" transform="translate(2039.776 3211.819)">
      <g id="freepik--background-simple--inject-57">
        <path id="Path_2589" data-name="Path 2589" d="M133.235,62.469S72.49,93.415,42.194,141.1s-27.9,109.032,8.915,154.569,107.18,39.556,166.1,68.4,123.92,22.9,151.779-38.209-14.15-83.955-21.365-154.681S276.645-3.111,133.235,62.469Z" fill="red"/>
        <path id="Path_2590" data-name="Path 2590" d="M133.235,62.469S72.49,93.415,42.194,141.1s-27.9,109.032,8.915,154.569,107.18,39.556,166.1,68.4,123.92,22.9,151.779-38.209-14.15-83.955-21.365-154.681S276.645-3.111,133.235,62.469Z" fill="#fff" opacity="0.7"/>
      </g>
      <g id="freepik--Map--inject-57">
        <path id="Path_2591" data-name="Path 2591" d="M198.631,181.105c.353-.056.393-1.876.192-1.9C198.093,179.133,197.813,181.226,198.631,181.105Z" fill="none" stroke="#b2b2b2" stroke-miterlimit="10" stroke-width="0.802"/>
        <path id="Path_2592" data-name="Path 2592" d="M121.274,207.642c.6-.224,4.457.585,4.457-.633,0-.8-4.009-1.828-4.457-1.451a2.357,2.357,0,0,0,.617,1.4c0,.393-1.668-.04-1.812.361a.882.882,0,0,0,1.195.321Z" fill="none" stroke="#b2b2b2" stroke-miterlimit="10" stroke-width="0.802"/>
        <path id="Path_2593" data-name="Path 2593" d="M156.244,231.693c-1.6.088-3.207-2-4.955-2.245-1.6-.216-1.668-.385-3.046.184,1.539-.633-2.493-2.5-2.517-2.5-.681-.184-1.371,1.652-1.98,1.395.12.048.73-1.459.1-2.036s-1.716.8-1.772.8c.1.056,1.724-4.065-.257-5.147-1.908-1.251-3.479-1.01-5.211-1.884s-1.764-2.814-4.009-2.67c.93-.056-1.788-2.405-1.034-2.133-1.211-.481-3.552.545-5.115.192-.609-.136-1.018-1.724-1.908-1.724-1.371,0-.994,2.461-1.219,2.942-.633,1.387-.882-3.64-.249-3.207-.457-.3-3.664,1.924-4.009,2.173-.714.529-1,1.6-1.748,1.8,1.251-.369-4.009-.954-2.91-.537-3.327-1.267-1.8-1.692-2.71-4.634-.257-.8.609-1.219-.1-1.98s-3.511-.874-4.385-.321c-.609.337.08-2.3.345-2.573h0c1.082-1.106,1.427-3.656-.249-3.7-2.79-.072-1.411,2.405-3.143,3.255-5.219,2.6-5.444-4.738-5.283-7.825a1.4,1.4,0,0,0-.208-.12,1.4,1.4,0,0,1,.208.12c.289-5.428,4.193-3.96,7.464-3.576-.858-.1-.136-1.395.858-1.491a7.576,7.576,0,0,1,2.686.585c1.6.489,1.235,0,2.453,2.076.481.8.673,2.91,1.756,3.263.088,0-.064-7.6.553-8.506.8-1.154,2.654-2.581,3.207-3.335,1.347-1.724.048.216.216-1.788,0-.208-.537-3.063.377-3.063-.353,0,.321,2.678.281,2.7.914-.633.321-1.563.361-2.285,0-.577,2.974-1.6,3.207-2.084.1-.224-1.419,0-1.419-.048,0-.8,2.405-.641,2.742-.882a6.959,6.959,0,0,1,1.01-2.782c1.074-1.122,3.768-.866,4.594-2.573-.1.208.361,1.058.938.89-2.125.625-3.135,1.748-.593,1.371a12.052,12.052,0,0,0,4.233-2.2c.056,0-.441-.665-.369-1.106a4.4,4.4,0,0,1-1.972,1.443c-2.469-.457-1.291-2.125-2.253-2.766a1.555,1.555,0,0,1-.8.16c-.265-.89,3-1.6-.136-1.972-2.165-.281-3.247,2.862-4.73,2.862.722,0,4.009-4.009,5.564-4.361.633-.144,9.4-.8,8.666-2.726a6.819,6.819,0,0,0-.625-.313c-.6-.561,1.6-1.106-.8-1.395a2.742,2.742,0,0,1-.064-.8,12.438,12.438,0,0,0-2.686.85c-.184-.9,2.269-.994,2.541-1.459,0,0-5.251-2.517-4.77-3.143.97-1.251.962.144.329-1.8-.168-.529-2.509-3.808-2.341-3.96-1.138,1.026-.5,3.367-2.477,3.375-2.189,0-1.972-2.509-1.972-3.944,0-.625-5.428-2.245-5.836-2.237-3.071.088-1.812.281-2,2.71,0,.425-.489,2.149-.441,2.405.361,1.884,1.924,2.485.97,4.906-.289.738-2.036.946-2.165,1.371-.168.569.673,1.154.545,1.844a24.448,24.448,0,0,1,.112,2.8c-1.154-.545-.649.529-1.948-.633-1.459-1.307-.441-3.207-1.291-4.177-.345-.4-4.57-2-5.508-2.405a5.877,5.877,0,0,0-4.089-.649c.377-.056-.345-2.149-.505-2.405-.922-1.563-1.908.176-1.355-2.9.144-.8,3.592-4.482,3.616-4.377,0-.152-2.822-1.211-2.806-1.259.393-.938,2.79,1.668,3.447-.3-.3.906,3.8-.89,2.774-1.6-.433-.3-2.83,0-2.694-1.13-.088.762,5.155,1.026,3.071-.8-.072-.064,1.908,0,2.309,0,.281,0-.754-.962-.665-1.05.3-.3,1.355,1.467,2.734-.072,1.058-1.187-.561-1.315-.625-2.469,0-.128,1.6-.569,1.1-1.395a4.682,4.682,0,0,0-3.319-1.146c-.5.16.176,2.614-1.179,3.4a1.6,1.6,0,0,1-.417-.633c-.569,0,.521,2.133-.216,1.788s-.8-1.828-.914-1.932c-.289-.257-.673-1.195-1.171-1.6-.377-.337-.946,1.6-1.138,1.66-.689.128.1-1.78.144-1.868.337-.633-1.772-.425-1.732-.393-.665-.585.457-.906.577-1.082-.152.232-1.6-2.405-1.6-2.405-.97-2.2-.313,0-.561-2.485.112,1.17,4.5-1.924,2.974-2.405s-3.752-.665-4.089.561c-.192.7-.08,3.5-.377,4.618-.088.353-1.291.93-.866,2.349.16.553,3.351,1.275,1.852,2.485a.593.593,0,0,1,.625-.537c.04.088-1.6,3.159-1.459,3.03a21.719,21.719,0,0,1-1.924-1.972c-.088-.16,2.133-.5,2.245-.609.866-.8-1.251-.8-1.251-.954s1.13-.088.738-.4a2.5,2.5,0,0,0-3.584.609c-.4.513,3.119,1.86-1.114,2.405-1.932.249-2.718-.714-4.393-1.114-.489-.112-.465-.625-1.347-.714-.313,0-2.405.89-1.764,1.179.465.208,2.2-.978,2.469-.673-1.138-1.251-1.347,3.511-2.084,3.119-.321-.168-.12-1.315-1.122-1.6-1.363-.457-4.474.954-5.492-.16-.5-.545,1.307-.673,1.17-.994-.505-1.171-3.359-1.251-4.4-1.491s-1.788-.8-2.71-.93c-1.114-.12-1.539.681-2.573.681-.152,0,.208-1.387-.265-1.451a5.884,5.884,0,0,1-1.323,1.275c-.994-.08-.858-2.509-2.036-2.333.8-.12-1.684,1.772-1.515,1.676a32.937,32.937,0,0,1-3.271,1.828c-.617,0,3.487-2.557,3.479-2.461,0-.5-3.552,1.026-3.96,1.243s0-.633-.7-.385c-1.716.617-.5,1.154-.906,1.6.16-.176-10.631-2.541-11.344-2.606-1.058-.08-7.624-.8-8.017-1.283-.714-.8-2.606.048-3.463.994-.689.754-5.8,1.884-6.061,3.006-.513,2.341,4.939,2.774,5.355,4.049,0,.1-6.141-.232-6.823,1.379.232-.553,1.724,1.772,1.876,1.828.7.265,4.457-.537,4.474-.513,1.05,1.042-1.235,2.453-1.8,2.982s-.738-.385-1.547.673a13.523,13.523,0,0,1-1.531,1.251c.168-.16,1.243,2.221,1.267,2.245.649.569,2.646.561,2.405.329.625.625-.056,1.94.521,2.245.393.208,1.756.048,2.509.353-.673-.273,2.06-1.187,1.9-.706-.377,1.13-4.81,6.582-5.508,5.86.8.866,8.867-4.586,8.867-5.876a2.261,2.261,0,0,0-.746-.409c-.176-.457,4.369-4.249,4.209-2.774,0-.152-2.718,2.068-2.084,2.646a19.069,19.069,0,0,0,3.672-1.05c.465-.176-1.1-1.531,0-1.732.361-.064,1.8.8,1.86.8a.505.505,0,0,0-.641.4c.136.433,6.414.152,6.814.505-.192-.168,4.009,3.479,4.009,2.461a1.684,1.684,0,0,1-.136-1.162c2.012,1.467-.938,1.868-.938,1.78,0,.1,1.531,2.253,1.483,2.277.289-.152-.393-1.948.064-1.78a1.379,1.379,0,0,1,.128.722c.505.649.593-1.475.529-1.315.112-.289.16,2.782-.16,2.742-.465-.064,2.678-.273,1.748.176.3-.144-1.146-.994-.345-1.058,1.219-.1.265,1.034-.561,1.106a11.225,11.225,0,0,0,.144,1.788c.257.176,1.371-.874,1.94-.8s.473,2.189.8,2.622c.224.313,1.8,1.892,2,2.149a16.707,16.707,0,0,0,3.3,2.67c-.112-.088,4.137,3.5,1.8,3.5-.088,0-2.533-6.6-5.259-4.674.577-.409,3.664,4.009,3.856,4.586,1.138,3.263-.73,7.063.537,10.623.866,2.445,3.159,4.009,4.706,5.66a21.212,21.212,0,0,1,2.453,3.72c1.082,1.828,1.323,2.3,1.106,3.351,0,.048,4.89,5.171,4.706,5.307.465-.337-4.81-9.941-4.7-9.957,1.924-.192,2.092,2.806,2.445,3.359.986,1.531,2.774,2.95,3.856,4.337,1.844,2.365,2.084,4.81,3.728,6.542,1.106,1.13,3.648,2.108,5.123,2.573,1.924.609,3.96.04,5.508,1.555h0c.7.673,1.828.7,2.317,1.2,1.363,1.251,1.924.625,3.207,1.932.866.89,1.114,1.7,1.6,2.181.8.8,2.189,2.325,3.415,2.405s.842-1.355,1.459-1.211c2.742.641,2.245,4.321,1.146,6.566-1.2,2.405-2.734,2.862-1.387,5.323.1.168-1.331,2.493-1.195,3.207.265,1.379,3.327,5.436,4.009,6.855,1.363,2.694,3.111,2.974,5.051,5.179,1.772,2,1.211,3.608.906,6.414-.449,4.009-.561,7.961-1.419,11.857-.337,1.547-3.279,9.62-2.2,11.176.5.722.706-2.028,1.195-2.173s-.3,6.029-.8,5.684c-.257-.176.281-2-.393-1.7.609-.273-1.251,2.565-1.259,2.6.072-.8.962.978.994,1.267.056.489,1.074-.329,1.018.385.08-1.074-3.055,1.243-1.6,1.018a3.562,3.562,0,0,0,.673-.513c.216-.048-1.547,1.836-.361,2.028.232,0,.353-1.211.681-.882.689.689-1.323,2.165-.85,2.758.1.112,1.082-.449,1.275-.056.056.128-.665.689-.553.73.393.144,1.291-.393,1.467.184s-1.748.04-1.09.97c.249.353,1.8-1.13,2.1-.16-.088-.273-1.748.882-1.8.954a18.5,18.5,0,0,1,2.052-.473c.144.321-2.285,1.259-2.349.986.072.3,1.467,1.17,1.692.954.377-.385-.5-.2-.192-.6s2.092-1.331,2.189-1.6a1.058,1.058,0,0,0-.513.962,3.714,3.714,0,0,0,.8.048c-.241-.265-.561,1.219-.473,1.17a1.178,1.178,0,0,1-.393-.8c-.417-.184-.192.874-.257.8a.561.561,0,0,0-.673-.377c.345-.481-.433,1.475-.433.8,0-.369,1.187,1.082,1.154,1.066a2.469,2.469,0,0,0,.337-.8,19.292,19.292,0,0,0,1.956,1.355c.361.1-.265-.858-.056-.8a11.9,11.9,0,0,0,2.822-.585c-1.3-.473-2.91-2.814-3.151-2.87h0c-.208-.048-.946.1-.8-.4s.8.184.994,0-.8-1.724-.617-2.189c.329-.73.906-.93,1.275-1.6.5-.906,1.716-1.6,1.8-2.606.064-.8-1.146-.8-1.09-1.034a12.987,12.987,0,0,1,1.692-4.153c.345-.433,1.507-1.6,1.5-1.6-.281-.241-2.509-.04-1.339-1.812-.369.553,2.662-.489,2.509-.4.417-.233-.064-1.6.152-1.86,1.034-1.1,4.81.489,5.275-2.445.1-.649-1.692-2.91-1.732-2.87.609-.625,3.423.722,4.979-.914.385-.409,2.317-3.824,2.309-3.72a6.364,6.364,0,0,1-.8,1.419c0-.681,2.277-2.549,2.565-3.335.417-1.13-.1-2.59.489-3.616,1.178-2.06,3.8-1.66,5.259-2.581,1.876-1.187,2.405-2.894,2.99-5.107.353-1.363,0-4.81.689-5.9C153.463,239.6,160.862,231.452,156.244,231.693Z" fill="none" stroke="#b2b2b2" stroke-miterlimit="10" stroke-width="0.802"/>
        <path id="Path_2594" data-name="Path 2594" d="M120.256,205.4c1.066-1.459-11.048-4.065-9.532-1.852-.722-1.058,4.81.353,5.091.5C116.752,204.563,118.957,207.169,120.256,205.4Z" fill="none" stroke="#b2b2b2" stroke-miterlimit="10" stroke-width="0.802"/>
        <path id="Path_2595" data-name="Path 2595" d="M116.408,207.393c.168.313,1.732.762,1.9.361S116.247,207,116.408,207.393Z" fill="none" stroke="#b2b2b2" stroke-miterlimit="10" stroke-width="0.802"/>
        <path id="Path_2596" data-name="Path 2596" d="M127.006,207.481c.369.633,1.435.257,1.523,0C128.7,207.024,126.67,206.84,127.006,207.481Z" fill="none" stroke="#b2b2b2" stroke-miterlimit="10" stroke-width="0.802"/>
        <path id="Path_2597" data-name="Path 2597" d="M132.9,285.471c.5.273,1.531-1.082,1.074-1.17S132.434,285.215,132.9,285.471Z" fill="none" stroke="#b2b2b2" stroke-miterlimit="10" stroke-width="0.802"/>
        <path id="Path_2598" data-name="Path 2598" d="M134.141,285.56c.329.184,1.684-.433,1.523-.762C135.336,284.117,133.813,285.407,134.141,285.56Z" fill="none" stroke="#b2b2b2" stroke-miterlimit="10" stroke-width="0.802"/>
        <path id="Path_2599" data-name="Path 2599" d="M104.286,226.338c-.409.673.409,1.339.577,1.034S104.7,225.656,104.286,226.338Z" fill="none" stroke="#b2b2b2" stroke-miterlimit="10" stroke-width="0.802"/>
        <path id="Path_2600" data-name="Path 2600" d="M141.3,139.93c.1-1.6-2.405-.8-2.782-.8S141.188,141.9,141.3,139.93Z" fill="none" stroke="#b2b2b2" stroke-miterlimit="10" stroke-width="0.802"/>
        <path id="Path_2601" data-name="Path 2601" d="M169.312,138.815a39.333,39.333,0,0,1-4.009-.329c.1-.249,1.339-1.668,1.179-1.724.8.3,3.135,3.063,3.207.505.064-1.515-2.068-1.523-2.405-2.734-.1-.345,2.838.946,2.253-.874-.329-1.026-3.207.738-3.1-.369,0,.377.994-1.363.8-1.162.922-1.018,5.091,2.469,2.405-1.026-.112-.144,2.405-.1,2.549-.617s-2.525-.441-1.924-1.435c.754-1.243,2.646.561,1.427-1.972.04.08-3.055-.97-2.581-1.435s4.113-.04,4.009-.561c-.353-1.323-2.149.072-2.293-1.066-.08-.593,1.09,0,1.259-.3.665-1.042-2.838-.208-2.71-.112-.946-.73,3.872-5.227,4.009-5.035-.89-1.179-1.7.8-2.325.168s3.487-1.13,3.608-1.2c.345-.224-2.2-.754-2.309-.561.441-.762,6.374-.665,6.374-2.3,0-2.2-5.612-.1-6.261.112-.489.152-1.2-.489-1.547-.361-1.13.433-2.165,2.269-3.383,2.445,1.187-.176,2.533-3.046.6-3.391-.3-.048-3.584,2.405-3.784,1.6-.168-.585,1.972-.8,1.924-1.331-.1-1.01-6.975.577-6.983.425-.1-1.395,9.556-.8,10.526-2.141.545-.722-12.282-2.8-13.445-2.5-.289.072-2.036.7-2.221.722a9.827,9.827,0,0,0-1.211-.064c-2.181.249-4.313.1-6.486.521-.273.048.946.866.93.93s-1.908.2-1.652.545a19.657,19.657,0,0,1,2.493,1.988c-1.531.321-4.345-3.207-5.9-2.052-.377.281,1.13,1.2,1.13,1.419,0,.85-3.087-.962-3-.962-.232,0-.144,1.844-.577,2.117,1.331-.8-1.644-2-2.108-2.044a2.469,2.469,0,0,0-2.453,1.419c-.7.241-1.716-.6-2.614-.241-.641.265.561,1.339-.321,1.836-.241.128-6.47.281-5.612,2.221.633,1.467,4.009-.072,1.01,2.405-.8.665-3.207.393-4.2,1.09-4.77,3.255,4.409,1.106,4.321,2.926,0,.2-4.874.208-4.81.657.128.657,3.415,2.181,4.289,2.261,1.772.168,3.471-1.154,5.836,0a9.188,9.188,0,0,1,4.81,5.355c.722,2.7-.994,3.046,1.836,3.046a16.21,16.21,0,0,0,2.405,2.6c-.1.088-3.159-1.2-3.159-.433,0,1.828,4.273.5,3.135,3.736-.176.489-1.523-.192-1.924.8a4.93,4.93,0,0,0-.481,2.084c-.072,1.307,1.9,5.844,3.351,7.841a6.577,6.577,0,0,0,3.5,2.581c2.581,1.162,1.98,1.307,3.431-.85.569-.842-.3-1.668-.072-2.317.12-.345,1.235-.337,1.395-1.066.216-.954.088-2.517.208-2.934a1.98,1.98,0,0,1,.914.12c.128-.072,1.732-2.229,1.924-2.229a.689.689,0,0,1,.12.874c.3.978,4.009-2.3,4.065-2.357a9.6,9.6,0,0,1,2.453-1.643C163.925,141.188,167.051,140.154,169.312,138.815Z" fill="none" stroke="#b2b2b2" stroke-miterlimit="10" stroke-width="0.802"/>
        <path id="Path_2602" data-name="Path 2602" d="M75.36,127.543c.8-.441.8,0,1.4-.633a2.782,2.782,0,0,0,.657.8c.954,0,1.339-2.044,1.94-2.165s.176,1.82,1.555.489c.521-.505.4-.97.914-1.531a12.891,12.891,0,0,0-3.319.088C77.381,124.994,75.36,127.567,75.36,127.543Z" fill="none" stroke="#b2b2b2" stroke-miterlimit="10" stroke-width="0.802"/>
        <path id="Path_2603" data-name="Path 2603" d="M81.485,126.726c-1.379.112.754,1.01.681.8a3.079,3.079,0,0,0-1.6.465c-.249.353,1.387.224,1.2.289a2.974,2.974,0,0,0-1.652.593c.882,1.283,2.405.064,3.079-.377-.361.232,2.141.842,2.309.585-.241.369-2.59.689-2.549,1.074.128,1.219,4.7-.409,5.371-.7,2.269-.986,2.934-.192,1.868-2.149.088.16-2.445-1.6-2.846-1.387-1.187.617.7,1.844.441,2.269-.673,1.114-2.966-1.251-3.5-1.395a5.973,5.973,0,0,0-2.8-.072Z" fill="none" stroke="#b2b2b2" stroke-miterlimit="10" stroke-width="0.802"/>
        <path id="Path_2604" data-name="Path 2604" d="M96.91,136.45c1.668,1.251,3.608-3.431,2.565-3.5a.8.8,0,0,0-.2.986c.12-.249-1.371-.754-1.339-.7-.321-.505,2.117-.962.537-2.036-1.17-.8-1.034.681-1.018.673.208-.1-3.5-.425-2.325.633a6.31,6.31,0,0,0,1.219.241c1.395,1.211-2.405.561-2.036.489C93.19,133.444,96.565,136.194,96.91,136.45Z" fill="none" stroke="#b2b2b2" stroke-miterlimit="10" stroke-width="0.802"/>
        <path id="Path_2605" data-name="Path 2605" d="M73.524,135.633a19.545,19.545,0,0,1,1.323,1.6c1,0,2.06-1.459,2.557-1.828,1.3-.97,3.135-1.924,4.449-3.006.489-.4-5.981-2.261-6.823-2-2.718.85-.353.273-1.235,1.764-.273.457-1.732,2.862-1.547,3.087A3.207,3.207,0,0,0,73.524,135.633Z" fill="none" stroke="#b2b2b2" stroke-miterlimit="10" stroke-width="0.802"/>
        <path id="Path_2606" data-name="Path 2606" d="M78.479,128.225c.738.088,1.483-.633,1.443-1.042S78.11,128.177,78.479,128.225Z" fill="none" stroke="#b2b2b2" stroke-miterlimit="10" stroke-width="0.802"/>
        <path id="Path_2607" data-name="Path 2607" d="M122.22,137.26a.8.8,0,0,0,.8-.8c.184.593-3.1-1.13-3.4-1.227-.73-.249-.281-.922-1.459-1.187-.8-.184-2.044,1.018-2,1.026-1.1-.385-.641.072-1.876.072-.914,0,.633-4.979-3.335-2.59-2.405,1.435-.4,2.2-.3,3.72,0,.257-1.78-.529-1.708-1.684s1.379-2,1.379-2.654c0-1.219-4.305,1.483-4.514,2.405-.289,1.283,1.563,3.848,2.317,2.846-.192.257-2.012-.241-1.964.241.265,2.63,9.741.986,9.941,1.523a1.09,1.09,0,0,1-.481-.73c.128-.441,3.335,1.988,3.359,2.189a2.726,2.726,0,0,0-.906.858c.609.521,1.291-.513,2.309.545,1.146,1.195,1.13.946,1.4,2.758.056.377,3.487-.73,2.862.858s-1.523-.409-1.98-.265-1.6.184-2.245.377c-.1,0,.321,1.179.369,1.154-.962.473-2.541.056-3.279.689-2.734,2.341,2.926.922,3.7,1.162s5.492,6.021,6.718,4.345c.3-.425-2.076-3.006-2.517-2.878,1.8-.521,4.457,2.469,3.511-.561-.425-1.347-3.624-2.405-2.229-4.065.585-.706,3.014,2.269,3.423,2.261,0,0,2.405-2.509,2.405-2.493,0-1.676-6.6-2.581-6.414-4.2a3.728,3.728,0,0,1,1.275-.321,2.157,2.157,0,0,0-1.066-.585c-.12-.994,1.05-.946-.625-.946,1.219,0-1.684-1.323-1.788-1.355C123.543,137.637,122.22,137.26,122.22,137.26Z" fill="none" stroke="#b2b2b2" stroke-miterlimit="10" stroke-width="0.802"/>
        <path id="Path_2608" data-name="Path 2608" d="M65.531,164.839c-.762.449.962,2.557,1.419,2.237C67.095,166.979,66.662,164.189,65.531,164.839Z" fill="none" stroke="#b2b2b2" stroke-miterlimit="10" stroke-width="0.802"/>
        <path id="Path_2609" data-name="Path 2609" d="M92.91,129.123c.289-.361-.617-1.13-.866-.5S92.613,129.492,92.91,129.123Z" fill="none" stroke="#b2b2b2" stroke-miterlimit="10" stroke-width="0.802"/>
        <path id="Path_2610" data-name="Path 2610" d="M115.173,153.358c.289,0,.866-1.171.12-1.13S114.724,153.43,115.173,153.358Z" fill="none" stroke="#b2b2b2" stroke-miterlimit="10" stroke-width="0.802"/>
        <path id="Path_2611" data-name="Path 2611" d="M119.294,143.73c2.253-.417-2.173-2.036-1.435-1.411C118.332,142.7,116.584,144.227,119.294,143.73Z" fill="none" stroke="#b2b2b2" stroke-miterlimit="10" stroke-width="0.802"/>
        <path id="Path_2612" data-name="Path 2612" d="M111.541,152.364c.665.457,1.652-.8,1.6-1.13S110.748,151.819,111.541,152.364Z" fill="none" stroke="#b2b2b2" stroke-miterlimit="10" stroke-width="0.802"/>
        <path id="Path_2613" data-name="Path 2613" d="M103.628,129.219c.369,1.171,9.8,1.6,10.887.858,4.353-3.159-9.228-1.6-9.043-2.606a3.9,3.9,0,0,1,.754-.746c.337-.441-7.392-2-6.806-1.082C101.015,128.137,102.538,125.8,103.628,129.219Z" fill="none" stroke="#b2b2b2" stroke-miterlimit="10" stroke-width="0.802"/>
        <path id="Path_2614" data-name="Path 2614" d="M94.144,139.344c.224-.289,1.283.585,1.323-.048,0-.441-3.143-2.678-3.423-3.391a18.008,18.008,0,0,1-.208-2.918c.377-.337.337-.689-.128-1.058a1.708,1.708,0,0,0-1.812.449,5.532,5.532,0,0,1,1.154,1.09c0-.208-2.06-.962-2.269-.545-.289.577.938,2.694.545,2.894-.072.04-2.774-3.046-2.934-2.349a3.279,3.279,0,0,1,.7.858c0,.112-1.5,0-1.411.257-1.09-2.87-1.98.569-2.974-.361-.1-.1,1.692-1.459-.417-1.467a5.632,5.632,0,0,0-3.207,1.852c-1.227,2.918,1.523.8,2.67,1.66.064.056-2.405.7-2.405,1.042,0,1.523,5.893-.16,5.893,1.13,0,.321-5.307,0-5.115.858.545,2.405,7.3,1.908,8.658,1.716a10.791,10.791,0,0,1,2.2-.3c.457,0,4.233,1.3,3.776-.24-.361-1.2-1.227.361-1.523-.457a3.3,3.3,0,0,1,.906-.673Z" fill="none" stroke="#b2b2b2" stroke-miterlimit="10" stroke-width="0.802"/>
        <path id="Path_2615" data-name="Path 2615" d="M129.6,170.451c.08.361,2.477,1.443,2.557.946S129.532,170.138,129.6,170.451Z" fill="none" stroke="#b2b2b2" stroke-miterlimit="10" stroke-width="0.802"/>
        <path id="Path_2616" data-name="Path 2616" d="M105.729,123.88c-.738-.409-1.676.457-.906.8S106.475,124.264,105.729,123.88Z" fill="none" stroke="#b2b2b2" stroke-miterlimit="10" stroke-width="0.802"/>
        <path id="Path_2617" data-name="Path 2617" d="M99.3,123.294c4.81,0-.874-2.7-1.195-2.173S98.73,123.294,99.3,123.294Z" fill="none" stroke="#b2b2b2" stroke-miterlimit="10" stroke-width="0.802"/>
        <path id="Path_2618" data-name="Path 2618" d="M99.8,118.821s3.824,1.764,3.624,1.171c.1.3-1.748.754-1.652.858a5.043,5.043,0,0,0,4.81,1.724c.12,0,3.56-3.1,3.463-2.582-.136.8-2.541-2.405-2.678-2.533s-5.235-2.79-5.732-2.405a.8.8,0,0,0,.617.537c0,.281-1.259.056-1.371.289.232.184.457.369.681.569-.257.481-1.7-.232-1.6.722a3.159,3.159,0,0,0,1.122.858C101.1,118.532,98.345,118.019,99.8,118.821Z" fill="none" stroke="#b2b2b2" stroke-miterlimit="10" stroke-width="0.802"/>
        <path id="Path_2619" data-name="Path 2619" d="M114.139,131.977c-1.034,2.461,4.209,1.892,4.209,1.355C118.348,132.506,114.435,131.271,114.139,131.977Z" fill="none" stroke="#b2b2b2" stroke-miterlimit="10" stroke-width="0.802"/>
        <path id="Path_2620" data-name="Path 2620" d="M102.618,123.519c-.08-.273-3.207.144-2.718.545C100.742,124.737,102.723,123.791,102.618,123.519Z" fill="none" stroke="#b2b2b2" stroke-miterlimit="10" stroke-width="0.802"/>
        <path id="Path_2621" data-name="Path 2621" d="M83.626,123.463c.208-.537-1.363-.449-1.235-.265C82.68,123.607,83.425,124.016,83.626,123.463Z" fill="none" stroke="#b2b2b2" stroke-miterlimit="10" stroke-width="0.802"/>
        <path id="Path_2622" data-name="Path 2622" d="M101.728,128.4c-.665-.545-2.622.8-2.349.994C100.446,130.309,104.158,130.4,101.728,128.4Z" fill="none" stroke="#b2b2b2" stroke-miterlimit="10" stroke-width="0.802"/>
        <path id="Path_2623" data-name="Path 2623" d="M92.2,124.785c.329-.449-1.315-1.9-1.4-1.219S91.851,125.267,92.2,124.785Z" fill="none" stroke="#b2b2b2" stroke-miterlimit="10" stroke-width="0.802"/>
        <path id="Path_2624" data-name="Path 2624" d="M95.836,125.555c-.978-.417.417,1.483.265,1.443a3.784,3.784,0,0,0-1.6-.73c-.353.281.505,1.138.216,1.283-.441.208-1.523-1.868-2.133-1.908-1.323-.072.457,1.86.521,1.9,1.1.665,1.964.152,3.063.449-.152-.04,1.219,3.5,2.509.369C99.652,126.084,96.942,126.028,95.836,125.555Z" fill="none" stroke="#b2b2b2" stroke-miterlimit="10" stroke-width="0.802"/>
        <path id="Path_2625" data-name="Path 2625" d="M87.049,123.246c.714-.12-2.926-.986-2.926.409C84.123,126.012,87.065,123.246,87.049,123.246Z" fill="none" stroke="#b2b2b2" stroke-miterlimit="10" stroke-width="0.802"/>
        <path id="Path_2626" data-name="Path 2626" d="M85.029,122.388c.337.144,2.686.12,2.686-.361,0-1.748-3.888.192-3.8.273A4.008,4.008,0,0,0,85.029,122.388Z" fill="none" stroke="#b2b2b2" stroke-miterlimit="10" stroke-width="0.802"/>
        <path id="Path_2627" data-name="Path 2627" d="M97.568,118.861c.289-.545-1.74-.97-1.235-.5C96.622,118.652,97.279,119.406,97.568,118.861Z" fill="none" stroke="#b2b2b2" stroke-miterlimit="10" stroke-width="0.802"/>
        <path id="Path_2628" data-name="Path 2628" d="M91.916,120.985c.665-.216,1.074,0,1.243.633-.088.2-1.531.136-1.491.273s7.937,3.207,3.92-.8a4.113,4.113,0,0,0-1.9-1.018C90.168,119.695,92.2,120.777,91.916,120.985Z" fill="none" stroke="#b2b2b2" stroke-miterlimit="10" stroke-width="0.802"/>
        <path id="Path_2629" data-name="Path 2629" d="M114.516,149.919c.08-.473-4.009-3.287-4.249-3.255-.385.048-2.309,2.622-2.06,3.431S114.556,149.662,114.516,149.919Z" fill="none" stroke="#b2b2b2" stroke-miterlimit="10" stroke-width="0.802"/>
        <path id="Path_2630" data-name="Path 2630" d="M104.783,114.339c1.483-1.042.257.441.273.457a4.626,4.626,0,0,1,.874.144c-1.6,1.932,3.071,1.6,3.046,1.251.208,3.006,6.021-1,6.718-.505,1.347.954-3.519,1.892-3.407,2.052,0,0,1.563,1.323,1.371,1.339-.93.064-5.764-3.375-4.947-.313.192.714,4.009,2.173,4.009,2.854,0,0-4.81-1.427-4.906.633-.072,1.307,2.646-.232,2.678-.152-.425-.938.417,2.934.417,2.189,0,.874-3.712-2.277-3.56-.545a7.446,7.446,0,0,0,1.1.85c0,.3-3.207.561-2.445,1.323s10.558,1.146,11.048-.04-3.632-.858-3.832-1.17c.585.906,3.68-1.6,3.888-1.748,1.539-.85,2.181.393,3-2.012.241-.722-2.67-.746-2.646-.8,1.7-1.2,3.936-.714,5.484-1.491.938-.465,6.5-3.343,6.566-3.768s-2.614-.112-2.766-.176c1.283.561,5.844-2.461,5.9-2.405-.361-.112-5.612-1.908-5.724-.553a2.02,2.02,0,0,1,.858-.714c-1.042.417-6.213.136-6.919.176-2.405.128-4.674-.313-6.758.265-.425.112-10.142,3.3-10.326,2.95a.93.93,0,0,0,1.01-.088Z" fill="none" stroke="#b2b2b2" stroke-miterlimit="10" stroke-width="0.802"/>
        <path id="Path_2631" data-name="Path 2631" d="M137.725,168.535a5.147,5.147,0,0,0-1.98,2.293c-.1.216-1.916,2.036-1.178,2.469,1.668.986,3.207-1.491,3.383.7-.064-.73,2.405.273,2.525.056-.048.1-.73-1.892-.4-1.748s-3.287-2.405-3.207-1.94a4.009,4.009,0,0,1,.858-1.828Z" fill="none" stroke="#b2b2b2" stroke-miterlimit="10" stroke-width="0.802"/>
        <path id="Path_2632" data-name="Path 2632" d="M33.367,165.656c.5-.224.7-.5.5-.8S32.982,165.833,33.367,165.656Z" fill="none" stroke="#b2b2b2" stroke-miterlimit="10" stroke-width="0.802"/>
        <path id="Path_2633" data-name="Path 2633" d="M36.878,163.62c-.569-.224-1.154.7-1.235.681C35.379,164.261,37.424,163.845,36.878,163.62Z" fill="none" stroke="#b2b2b2" stroke-miterlimit="10" stroke-width="0.802"/>
        <path id="Path_2634" data-name="Path 2634" d="M46.6,158.6c-.946,1.195-1.724,3.487.3,1.451C47.2,159.748,47.629,157.311,46.6,158.6Z" fill="none" stroke="#b2b2b2" stroke-miterlimit="10" stroke-width="0.802"/>
        <path id="Path_2635" data-name="Path 2635" d="M34.193,155.643c-.393-.232-.665-.128-.8.313a1.283,1.283,0,0,0,1.3.433C36.077,155.876,34.185,155.531,34.193,155.643Z" fill="none" stroke="#b2b2b2" stroke-miterlimit="10" stroke-width="0.802"/>
        <path id="Path_2636" data-name="Path 2636" d="M193.131,183.246c-.072-.513-1.01.152-.8.3C192.73,183.847,193.211,183.759,193.131,183.246Z" fill="none" stroke="#b2b2b2" stroke-miterlimit="10" stroke-width="0.802"/>
        <path id="Path_2637" data-name="Path 2637" d="M214.055,188.4c0-.329-2.67,0-2.614,0C211.113,188.337,214.136,189.243,214.055,188.4Z" fill="none" stroke="#b2b2b2" stroke-miterlimit="10" stroke-width="0.802"/>
        <path id="Path_2638" data-name="Path 2638" d="M221.03,188.746a10.42,10.42,0,0,1,.681-.866,8.53,8.53,0,0,0-2.108.738C219.234,189.307,221.11,189.2,221.03,188.746Z" fill="none" stroke="#b2b2b2" stroke-miterlimit="10" stroke-width="0.802"/>
        <path id="Path_2639" data-name="Path 2639" d="M175.8,149.061c2.942-.16.176-4.61-1.219-3.792a10.781,10.781,0,0,1-2.75,1.219.8.8,0,0,0-.657-.505c-1.828,2.157.072-.625-2.453-.625-.529,0,.273.746.128.73-.505-.056-1.283-.216-1.4.746-.056.417,2.092.321,2.02.241s-.208.8-.144.73-1.724.072-1.6.377c.056.1,1.523.144,1.78.449.465.537-.505,1.211-.609,1.1C170.675,151.659,173.906,149.173,175.8,149.061Z" fill="none" stroke="#b2b2b2" stroke-miterlimit="10" stroke-width="0.802"/>
        <path id="Path_2640" data-name="Path 2640" d="M181.258,168.118c2.405,0,3.119-1.764,2.878-3.624-.08-.641,1.235-.746-.241-1.539a5.8,5.8,0,0,0-1.924.409c-.048,1.315.1.152-1.307.922C180.624,164.35,180.656,168.118,181.258,168.118Z" fill="none" stroke="#b2b2b2" stroke-miterlimit="10" stroke-width="0.802"/>
        <path id="Path_2641" data-name="Path 2641" d="M188.762,155.876c.232-.257.505-1.235.152-1.13S188.657,155.988,188.762,155.876Z" fill="none" stroke="#b2b2b2" stroke-miterlimit="10" stroke-width="0.802"/>
        <path id="Path_2642" data-name="Path 2642" d="M184.056,158.241c-.176-.192-.89.914-.617.906S184.24,158.441,184.056,158.241Z" fill="none" stroke="#b2b2b2" stroke-miterlimit="10" stroke-width="0.802"/>
        <path id="Path_2643" data-name="Path 2643" d="M183.823,159.6c.9-.8.056,3.022.056,2.533,0-.681,1.178.337,1.05.361a1.491,1.491,0,0,0,.529-.8c.417.064-.273,1.6-.257,1.732.072.617,1.6-.377,1.66-.224.978,1.708-.8,2.405-.73,3.552a1.315,1.315,0,0,0-1,1.042,12.274,12.274,0,0,0,2.3.329c.04.281-3.207.962-2.405,2.036,0-.04,5.917-1.3,6.269-1.66s-.609-.12-.577-.377c.152-1.195,1.082-.633.577-1.94a3.207,3.207,0,0,1-1.154-.9c-.665-1.122-1.315-3.536-2.926-3.415,0,0,1.034-1.724.922-1.988-.449-1.154-1.307.16-1.948-.609-.216-.265,1.323-1.283.874-1.708C186.7,157.255,183.9,159.539,183.823,159.6Z" fill="none" stroke="#b2b2b2" stroke-miterlimit="10" stroke-width="0.802"/>
        <path id="Path_2644" data-name="Path 2644" d="M200.675,163.324c-.176-.048,2.341-.681,1.146-1.491C200.8,161.143,200.579,163.3,200.675,163.324Z" fill="none" stroke="#b2b2b2" stroke-miterlimit="10" stroke-width="0.802"/>
        <path id="Path_2645" data-name="Path 2645" d="M207.345,159.058c-.529,0-.8,1.138-.633,1.323S207.866,159.042,207.345,159.058Z" fill="none" stroke="#b2b2b2" stroke-miterlimit="10" stroke-width="0.802"/>
        <path id="Path_2646" data-name="Path 2646" d="M210.255,158.738a2.686,2.686,0,0,0,.962-.689C211.891,157.319,209.245,158.818,210.255,158.738Z" fill="none" stroke="#b2b2b2" stroke-miterlimit="10" stroke-width="0.802"/>
        <path id="Path_2647" data-name="Path 2647" d="M211.041,157.431c.112-.232-.8-.128-.593.072a.385.385,0,0,0,.593-.072Z" fill="none" stroke="#b2b2b2" stroke-miterlimit="10" stroke-width="0.802"/>
        <path id="Path_2648" data-name="Path 2648" d="M207,118.2c.8.673,2.309-.1,3.279.5-.048,0-1.948.706-1.94.73.465,1.227,7.3.6,6.823-1.291-.056-.232-4.441-.842-4.265-.906a.8.8,0,0,0-.168.994c-.361.265-2.125-1.179-2.517-1.13a2.862,2.862,0,0,0-.593.8c-.241-.176-.473-.361-.706-.545C206.1,117.37,206.888,118.115,207,118.2Z" fill="none" stroke="#b2b2b2" stroke-miterlimit="10" stroke-width="0.802"/>
        <path id="Path_2649" data-name="Path 2649" d="M201.284,120.039c-1.387-.321.738,2.165,1.074,2.357.641.369,1.154-1.2,1.6-1.387s-.192.866.257.8a3.689,3.689,0,0,1,.986-.417c.409.625-2.934,1.836-2.469,1.948.842.208,1.74-.329,2.614-.12a13.341,13.341,0,0,0-2.557.8c-.088.8,1.475.8,1.836.922a.625.625,0,0,1-.457.385c-.208.289,1.162.425,1.379.3A20.391,20.391,0,0,0,207,123.415c.16-.208,1.491-3.383,2.317-2.084-.224-.345.337,2.774.04,2.71.345.08,3.5.609,3.367-.858.064.754-3.263-2.405-3.207-2.405a7.691,7.691,0,0,0-3.311-1.162c.425.1-.689-1.387-1.219-1.563-.8-.249.168,2.75.224,2.509.705-3.087-2.149-.665-2.125-.673a6.012,6.012,0,0,0-.866-.754,3.5,3.5,0,0,1,.8-.313C202.832,119.005,197.733,119.214,201.284,120.039Z" fill="none" stroke="#b2b2b2" stroke-miterlimit="10" stroke-width="0.802"/>
        <path id="Path_2650" data-name="Path 2650" d="M200.426,121.859a3.545,3.545,0,0,0,.657.5c-.3,0-.641-1.6-1.235-1.4A.8.8,0,0,0,200.426,121.859Z" fill="none" stroke="#b2b2b2" stroke-miterlimit="10" stroke-width="0.802"/>
        <path id="Path_2651" data-name="Path 2651" d="M365.963,150.512a1.6,1.6,0,0,0-1.154.393c.184.224,2.862.85,2.862.24A2.6,2.6,0,0,0,365.963,150.512Z" fill="none" stroke="#b2b2b2" stroke-miterlimit="10" stroke-width="0.802"/>
        <path id="Path_2652" data-name="Path 2652" d="M320.61,178.909c-.136-.922-2.2,3.014-1.163,2.445-.176.1.858-.585.8-.433-.176-.257-.361-.505-.553-.754,0,.224,5.933.176,5.612-2.405.16,1.395-4.963-.914-4.353-1.315C321.059,176.415,320.586,178.78,320.61,178.909Z" fill="none" stroke="#b2b2b2" stroke-miterlimit="10" stroke-width="0.802"/>
        <path id="Path_2653" data-name="Path 2653" d="M309.643,191.608c.3.593.561-.8.722-.112,0,.1-.393,2.229.3,2.076.553-.12,1.6-2.149.7-2.517C311.174,190.958,308.9,190.1,309.643,191.608Z" fill="none" stroke="#b2b2b2" stroke-miterlimit="10" stroke-width="0.802"/>
        <path id="Path_2654" data-name="Path 2654" d="M312.914,191.351c.2-.89,1.427.168,1.427-1.235,0-.746-1.483,0-1.531.128C312.617,190.694,312.713,192.233,312.914,191.351Z" fill="none" stroke="#b2b2b2" stroke-miterlimit="10" stroke-width="0.802"/>
        <path id="Path_2655" data-name="Path 2655" d="M314.942,188.313s-4.53.2-4.177,1.788c.048.208,3.816-.353,4.089-.417-.85.2.8.6,1,.585.641-.048.152-.93.273-1.01.714-.433,2.886.4,3.632-.617.577-.8,1.9-6.253.874-6.847-1.291-.738-1.924,3.415-2.533,4.257C317.628,186.717,315.07,186.9,314.942,188.313Z" fill="none" stroke="#b2b2b2" stroke-miterlimit="10" stroke-width="0.802"/>
        <path id="Path_2656" data-name="Path 2656" d="M291.556,207.024a8.814,8.814,0,0,0,.489-1.2c-.1-.417-2.405-.1-1.964.8C290.137,206.72,291.436,208.548,291.556,207.024Z" fill="none" stroke="#b2b2b2" stroke-miterlimit="10" stroke-width="0.802"/>
        <path id="Path_2657" data-name="Path 2657" d="M301.2,203.377c.449-.337,1.515-2.638,1.154-3.159C301.169,198.478,300.183,204.162,301.2,203.377Z" fill="none" stroke="#b2b2b2" stroke-miterlimit="10" stroke-width="0.802"/>
        <path id="Path_2658" data-name="Path 2658" d="M300.351,209.678c-.633,2.1,6.141,4.906,4.738,6.51,2.253-2.581-2.581-3.632-3.079-4.81s1.74-2.87,0-3.88C300.84,206.792,300.375,209.59,300.351,209.678Z" fill="none" stroke="#b2b2b2" stroke-miterlimit="10" stroke-width="0.802"/>
        <path id="Path_2659" data-name="Path 2659" d="M299.165,216.252a5.612,5.612,0,0,0-1.178,1.684c-.112-.224,2.405-1.8,1.924-2.8A1.6,1.6,0,0,0,299.165,216.252Z" fill="none" stroke="#b2b2b2" stroke-miterlimit="10" stroke-width="0.802"/>
        <path id="Path_2660" data-name="Path 2660" d="M300.872,212.757c.08.417.273,1.291.882,1.082S300.816,212.452,300.872,212.757Z" fill="none" stroke="#b2b2b2" stroke-miterlimit="10" stroke-width="0.802"/>
        <path id="Path_2661" data-name="Path 2661" d="M304.744,216.372c-.216-.3-.762.257-.681.481S304.969,216.677,304.744,216.372Z" fill="none" stroke="#b2b2b2" stroke-miterlimit="10" stroke-width="0.802"/>
        <path id="Path_2662" data-name="Path 2662" d="M305.658,216.885s-4.009,2.6-3.327,2.533.954-1.01,1.643-.521.273,2.052,1.6,2.052c-.986,0,1.05-2.117.962-1.748a2.2,2.2,0,0,0-.882-2.317Z" fill="none" stroke="#b2b2b2" stroke-miterlimit="10" stroke-width="0.802"/>
        <path id="Path_2663" data-name="Path 2663" d="M302.355,214.288a1,1,0,0,0,.056,1.387c1.724-.377-.609,1.323.714,1.6C304.279,217.575,304.36,213.855,302.355,214.288Z" fill="none" stroke="#b2b2b2" stroke-miterlimit="10" stroke-width="0.802"/>
        <path id="Path_2664" data-name="Path 2664" d="M330.118,231.621c0,1.195-3.071.449-3.1.8-.168,1.732,4.714.056,3.712-1.211C330.391,231.132,330.191,231.26,330.118,231.621Z" fill="none" stroke="#b2b2b2" stroke-miterlimit="10" stroke-width="0.802"/>
        <path id="Path_2665" data-name="Path 2665" d="M331.353,231.5c.8-.232-.633-1.283-.8-1.323C330.792,230.234,331.1,231.581,331.353,231.5Z" fill="none" stroke="#b2b2b2" stroke-miterlimit="10" stroke-width="0.802"/>
        <path id="Path_2666" data-name="Path 2666" d="M326.078,233.609c.746.048-2.405-2.581-3.087-2.99-1.6-.906-4.706-2.317-6.309-2.221-.465,0-1.114,1.451-1.684,1.347-1.146-.208-.489-1.427-1.307-1.764-.7-.289-.7-1.074-1.956-.882-.216,0-1.411.978-.986,1.066.232.056,2.654,1.4,2.67.986,0,.192-1.491.176-1.6.2-.673.128,2.517,1.692,2.718,1.788,1.411.689,2.405.537,3.247,1.972s-1.138,1.355-.8,2c.593,1.187,5.043.136,5.516.144,1.3,0,1.275-.04,2.894.8,0,0,4.009,2.012,3.56,1.3C328.747,237.032,325.268,233.561,326.078,233.609Z" fill="none" stroke="#b2b2b2" stroke-miterlimit="10" stroke-width="0.802"/>
        <path id="Path_2667" data-name="Path 2667" d="M264.395,216.581c-.593.072-.609,3.552.08,3.832C266.407,221.191,265.942,216.4,264.395,216.581Z" fill="none" stroke="#b2b2b2" stroke-miterlimit="10" stroke-width="0.802"/>
        <path id="Path_2668" data-name="Path 2668" d="M235.172,238.828s-1.291,2.245-1.507,2.469c-.577.585-2.108.946-2.573,1.475-1.267,1.467-.409,2.125-.633,4.281-.16,1.515-1.948,7.664,2.157,5.668,2.405-1.154,1.884-7.921,2.766-10.15.12-.289.754.657.746-.569S235.437,239.894,235.172,238.828Z" fill="none" stroke="#b2b2b2" stroke-miterlimit="10" stroke-width="0.802"/>
        <path id="Path_2669" data-name="Path 2669" d="M239.2,213.647c.313.353.914-.056.946-.192S238.86,213.254,239.2,213.647Z" fill="none" stroke="#b2b2b2" stroke-miterlimit="10" stroke-width="0.802"/>
        <path id="Path_2670" data-name="Path 2670" d="M337.662,236.391c.088.457.706.73.954.569S337.582,235.926,337.662,236.391Z" fill="none" stroke="#b2b2b2" stroke-miterlimit="10" stroke-width="0.802"/>
        <path id="Path_2671" data-name="Path 2671" d="M334.736,233.609c0,.112.641.8.8.706S334.776,233.409,334.736,233.609Z" fill="none" stroke="#b2b2b2" stroke-miterlimit="10" stroke-width="0.802"/>
        <path id="Path_2672" data-name="Path 2672" d="M337.831,235.421c.224-.16-1.275-1.058-1.3-.8S337.606,235.581,337.831,235.421Z" fill="none" stroke="#b2b2b2" stroke-miterlimit="10" stroke-width="0.802"/>
        <path id="Path_2673" data-name="Path 2673" d="M332.98,232.342c-.056.273.8,1.708,1.154,1.483C334.736,233.4,333.037,232.078,332.98,232.342Z" fill="none" stroke="#b2b2b2" stroke-miterlimit="10" stroke-width="0.802"/>
        <path id="Path_2674" data-name="Path 2674" d="M338.633,235.373c-.2.5.617,1.363.746,1.379S338.793,235,338.633,235.373Z" fill="none" stroke="#b2b2b2" stroke-miterlimit="10" stroke-width="0.802"/>
        <path id="Path_2675" data-name="Path 2675" d="M339.354,237.385c0,.112.577.657.85.457S339.282,237.193,339.354,237.385Z" fill="none" stroke="#b2b2b2" stroke-miterlimit="10" stroke-width="0.802"/>
        <path id="Path_2676" data-name="Path 2676" d="M309.891,238.836c.208.176,1.243-.048,1.2-.321S309.579,238.564,309.891,238.836Z" fill="none" stroke="#b2b2b2" stroke-miterlimit="10" stroke-width="0.802"/>
        <path id="Path_2677" data-name="Path 2677" d="M331.746,256.217c-.04,0-.5-2.982-.241-2.862-1.756-.8-4.313-4.482-5.612-6.414-.954-1.467-1.243-3.014-2.012-4.81-.393-.946-1.2-.24-1.483-.85-.409-.9,0-2.774-.89-3.592-.665-.625-1.018,4.482-1.026,4.5-.938,2.654-.385,2.7-2.766,1.852-.689-.241-2.75-1.3-2.942-2.213-.152-.762,1.652-2.052,1.411-2.533.176.361-4.329-1.283-4.425-1.243-.112.3,0,.521.353.681-1.243-1.451-3.279,3.728-2.67,3.64.289-.04-1.836-.329-1.251,0-1.531-.882-1.3-1.772-3.127-.457-1.187.858-.8,2-1.467,2.774-.184.2-.313-1.042-.593-.85-.986.657-.216,1.515-1.114,2.245a11.312,11.312,0,0,1-2.862,1.555c-1.6.8-2.71,1.018-4.089,2.317a.681.681,0,0,1-.1-.633c0,.329-.393,1.355-.433,1.9s.521,2.662.369,2.982a1.066,1.066,0,0,1-.553-.521,3.768,3.768,0,0,1,.265.73l-.657-.545c-.265.657,1.716,4.145,1.908,4.922.1.409.072,4.177-.1,3.824,1.275,2.606,3.1.8,5.2.208,1.716-.505,2.822-.874,4.49-1.491,1.283-.489,4.009-1.451,5.4-1.227.866.144,5.163,3.5,4.185,3.944.3-.128,2.06-2.325,2.173-2.221.545.513-.906,1.908-.97,2.237-.265,1.259,1.443-.994.986-.633.625-.489.329,1.539.273,1.379s2.036,2.686,2.229,2.854c1.178,1.01,4.113.072,4.081.048a1.668,1.668,0,0,1,0,.689c-.265-.329.978.417,1.275.7-.6-.577,3.455-1.844,3.335-1.716.625-.689.986-3.92,1.467-4.963C330.166,261.629,331.393,256.546,331.746,256.217Z" fill="none" stroke="#b2b2b2" stroke-miterlimit="10" stroke-width="0.802"/>
        <path id="Path_2678" data-name="Path 2678" d="M315.728,265.284c.232.224.994.16,1.114-.16S315.527,265.084,315.728,265.284Z" fill="none" stroke="#b2b2b2" stroke-miterlimit="10" stroke-width="0.802"/>
        <path id="Path_2679" data-name="Path 2679" d="M325.052,271.57a7.618,7.618,0,0,1-1.6-.5c.281-.088.048,4.265,2.405,3.038C327.016,273.494,327.465,271.273,325.052,271.57Z" fill="none" stroke="#b2b2b2" stroke-miterlimit="10" stroke-width="0.802"/>
        <path id="Path_2680" data-name="Path 2680" d="M345.006,279.162c.144.048.617-.088.353-.449S344.661,279.058,345.006,279.162Z" fill="none" stroke="#b2b2b2" stroke-miterlimit="10" stroke-width="0.802"/>
        <path id="Path_2681" data-name="Path 2681" d="M354.354,267.77c-.553,1.01-1.764-1.523-1.876-1.515a.521.521,0,0,0,0,.561c.1-.144-1.836-2.758-2.229-2.758-.048,0,1.379,2.822,1.507,3.207.425,1.251-.986,1.2-.93,1.892,0-.056,1.018,2.942.97,2.846C352.951,274.183,355.46,265.645,354.354,267.77Z" fill="none" stroke="#b2b2b2" stroke-miterlimit="10" stroke-width="0.802"/>
        <path id="Path_2682" data-name="Path 2682" d="M350.963,271.369c-1.154-.906-8.121,5.315-6.021,6.734S351.949,272.155,350.963,271.369Z" fill="none" stroke="#b2b2b2" stroke-miterlimit="10" stroke-width="0.802"/>
        <path id="Path_2683" data-name="Path 2683" d="M355.54,244.352c.224.088.97-.184.97-.569S355.2,244.216,355.54,244.352Z" fill="none" stroke="#b2b2b2" stroke-miterlimit="10" stroke-width="0.802"/>
        <path id="Path_2684" data-name="Path 2684" d="M354.266,245.546c.345.361,1.05.345,1.066-.313S353.953,245.226,354.266,245.546Z" fill="none" stroke="#b2b2b2" stroke-miterlimit="10" stroke-width="0.802"/>
        <path id="Path_2685" data-name="Path 2685" d="M234.763,117.266a1.547,1.547,0,0,0-.882.545c.385.842,3.952-.85,3.968-1.1C237.906,115.6,234.964,116.945,234.763,117.266Z" fill="none" stroke="#b2b2b2" stroke-miterlimit="10" stroke-width="0.802"/>
        <path id="Path_2686" data-name="Path 2686" d="M239.9,117.747c0-.481-1.435.048-1.154.152S239.9,118.228,239.9,117.747Z" fill="none" stroke="#b2b2b2" stroke-miterlimit="10" stroke-width="0.802"/>
        <path id="Path_2687" data-name="Path 2687" d="M233.441,117.049a3.816,3.816,0,0,1,1.6-.337c.176-.489-3.207,0-3.079.273a1,1,0,0,0,1.475.064Z" fill="none" stroke="#b2b2b2" stroke-miterlimit="10" stroke-width="0.802"/>
        <path id="Path_2688" data-name="Path 2688" d="M234.844,141.1c.8.8,1.291-.369,1.708-.537C237.121,140.339,233.369,139.609,234.844,141.1Z" fill="none" stroke="#b2b2b2" stroke-miterlimit="10" stroke-width="0.802"/>
        <path id="Path_2689" data-name="Path 2689" d="M240.752,132a36.423,36.423,0,0,0-3.135,3.5c0,.088,1.6,1.419,1.491,1.491-.144-.289-.088-.5.152-.625-.152-.04,4.009,3.447,4.161,1.459.048-.529-1.82-1.676-1.892-2.405s.73-1.515,1.042-2.2a11.489,11.489,0,0,1,1.868-2.469c1.227-1.13,10.093-4.85,9.7-5.187-.938-.8-8.819,1.78-10.142,2.581A34.234,34.234,0,0,0,240.752,132Z" fill="none" stroke="#b2b2b2" stroke-miterlimit="10" stroke-width="0.802"/>
        <path id="Path_2690" data-name="Path 2690" d="M327.537,130.109a2.493,2.493,0,0,0,2.229-.489C329.958,127.543,320.795,129.62,327.537,130.109Z" fill="none" stroke="#b2b2b2" stroke-miterlimit="10" stroke-width="0.802"/>
        <path id="Path_2691" data-name="Path 2691" d="M320.5,131.159c0-.449-1.5.168-.874.393C319.953,131.672,320.5,131.616,320.5,131.159Z" fill="none" stroke="#b2b2b2" stroke-miterlimit="10" stroke-width="0.802"/>
        <path id="Path_2692" data-name="Path 2692" d="M281.495,123.086c.545.345,5.492-.481,5.66-1.451s-2.862-1.251-2.766-.489C283.8,116.809,282.2,123.527,281.495,123.086Z" fill="none" stroke="#b2b2b2" stroke-miterlimit="10" stroke-width="0.802"/>
        <path id="Path_2693" data-name="Path 2693" d="M277.23,118.829a2.645,2.645,0,0,0-.633.906c1.387,1.331,4.762,2.349,5.051,0C281.9,117.747,277.23,118.308,277.23,118.829Z" fill="none" stroke="#b2b2b2" stroke-miterlimit="10" stroke-width="0.802"/>
        <path id="Path_2694" data-name="Path 2694" d="M275.787,117.987c.89.417-.8.465-.9.513-.481.241,1.788.112,2.2-.048s3.407-1.05,2.862-1.74C277.7,113.954,275.346,117.787,275.787,117.987Z" fill="none" stroke="#b2b2b2" stroke-miterlimit="10" stroke-width="0.802"/>
        <path id="Path_2695" data-name="Path 2695" d="M293.368,130.614c-.633,1.395,1.114.417,1.13.184a.738.738,0,0,0-1.13-.184Z" fill="none" stroke="#b2b2b2" stroke-miterlimit="10" stroke-width="0.802"/>
        <path id="Path_2696" data-name="Path 2696" d="M240.512,116.632c.449.489,3.127.545,3.207-.329.04-.3-2.229-.7-2.365-.673C241.8,115.566,240.776,116.9,240.512,116.632Z" fill="none" stroke="#b2b2b2" stroke-miterlimit="10" stroke-width="0.802"/>
        <path id="Path_2697" data-name="Path 2697" d="M275.057,115.846c.112-.449-1.716-.257-1.235.184C273.991,116.183,274.985,116.3,275.057,115.846Z" fill="none" stroke="#b2b2b2" stroke-miterlimit="10" stroke-width="0.802"/>
        <path id="Path_2698" data-name="Path 2698" d="M357.28,137.669c.12.1,2.549-.072,2.068-.641-1.13-1.355-3.568.577-3.391.673C356.4,137.677,356.839,137.669,357.28,137.669Z" fill="none" stroke="#b2b2b2" stroke-miterlimit="10" stroke-width="0.802"/>
        <path id="Path_2699" data-name="Path 2699" d="M316.954,129.291a4.281,4.281,0,0,0,3,.6c.714-.136,2.63-1.251,1.9-1.515.353.128,1.355,2.405,1.948.649.489-1.483-.906-1.13-2.173-1.547-.112,0-2.405-.088-2.405-.088C319.6,127.319,314.838,128.129,316.954,129.291Z" fill="none" stroke="#b2b2b2" stroke-miterlimit="10" stroke-width="0.802"/>
        <path id="Path_2700" data-name="Path 2700" d="M322.695,133.147c1.459-.353-3.768-2.1-2.742-.481C320.273,133.187,322.214,133.268,322.695,133.147Z" fill="none" stroke="#b2b2b2" stroke-miterlimit="10" stroke-width="0.802"/>
        <path id="Path_2701" data-name="Path 2701" d="M364.4,147.153l1.042.241c.265,0-.345-.361-.265-.409-.313.192,1.844-.553,1.355-.738,0,0-4.233-2.541-4.289-1.66.064-.978.433,1.6.289,1.114-.8-2.6-6.109-5.444-9.083-6.085a12.1,12.1,0,0,0-5.492.16c.088,0,.681,1.275-.136,1.78-.377.232-2.165-1.355-1.756-1.547s.954.7,1.058-.152c.088-.681-3.487.273-4.009.353a20.652,20.652,0,0,1-2.59-.208c-1.122-.1-.529.89-.986,1.122.393-.192-1.451-1.8-1.435-1.78-1.6-1.379-1.387-1.6-4.409-1.868-.93-.072-5.452,0-5.909-1.379-.136-.4,1.371.088.97-.585-.882-1.483-4.5.216-4.53.369.249-.152.5-.321.73-.5a4.761,4.761,0,0,0-1.05-.353c-.3-.505,1.419,0,1.459-.273.265-1.555-7.528-.633-6.758.425a.8.8,0,0,0,.738,0c-.5-.273.1,1.884.04,1.235,0,.12-1.772-.2-2.06,0a1.6,1.6,0,0,0,.529.353s-4.922-.93-5.251-1.01-.9,2.052-1.643,2c-1.1-.064-1.948-2.7-2.509-2.662a2.045,2.045,0,0,0,1,.2c1.4-.8-3.511-3.744-4.554-3.519-.8.16-.93,1.8-1.211,1.844-.409.072-4.345-.1-4.473-.553-.072-.249.529-.561.273-.625-2.036-.537-3.632.425-4.906.545-.337,0,.064-1.187-.433-1.275-.241-.04-3.56,0-3.263.377.184.064.369.112.561.16.048.441-4.161,1.114-4.249,1.347.906-2.333,7.72-2.95,7.159-5.371-.16-.722.289-1.339-1.219-2.052-1.924-.906-3.375.537-5.075.112a4.666,4.666,0,0,1,.673-.954c0,.192-2.405-.457-2.71-.345.208-.08,1.668-.329,1.339-.8-1.1-1.676-3.632.457-4.562,1.13.473-.345-1.772,2.63-1.844,1.235a4.069,4.069,0,0,0,.6.513c.1-.321-2.582.273-2.718.224.08-.192.168-.385.257-.577a18.622,18.622,0,0,0-2.99.577.9.9,0,0,0,.561.417c-.04-.329-4.49,1.187-4.81,1.339-1.05.489-.513.441-.962,1.05l-.8-.048c-.088.1.914.569.922.665a4.075,4.075,0,0,1-.7.04s1.1.657.6,1.114c-.3.281-2.02.128-2.517.232-6.911,1.459,0,1.924-1.339,3.752-.529.73-4.009-2.285-5-1.275-.088.08,1.114.922.85.994-.529.152-1.331-.617-1.708.112-.3.585,2.445,1.507,2.229,1.764,0,0-2.9-.609-2.942-.649-.577-.649.994-2.525-.233-2.942s-1.948,5.508-1.451,6.173c1.323,1.8,3.784.85,4.61,3.584.441,1.427-2.525-2.028-1.235-1.475-.882-.385-.593-1.146-1.764-.938-1.66.281-.08,1.227-.7,2.02-.73.922-1.716,2.261-2.726,2.485-.281.064-2.766-.064-2.541-.706,0,.088,3.287-.329,3.84-2.189.345-1.17-.241-2.108-.489-3.447-.072-.385.112-4.433.128-4.393-1.948-3.207-5.219.449-5.387,2.734.048-.625-.072,2.405-.216,2,0,0,3.544,2.269,1.483,2.606-1.443.249-7.3-4.9-9.083-3.872.473-.273,3.159,4.626.561,3.576-1.018-.417.04-.513-2.309-.3,0,0-3.752.633-3.463.393s.8-.465.754-1.058c0,.377-4.9,1.98-5.612,2.277-.946.417-.746,2.189-2.493,1.01s.89-1.114,1.1-1.371c.8-.954-3.207-1.988-3.087-1.387-.04-.168.954,3.022.192,2.477,1.892,1.355-.3,1.227-.425,1.315-2.181,1.748-2.181-.136-2.614,2.99-.072.529-1.8-.529-2.076-.321l-1.058-.689c-.641.3-.738.681-.289,1.162,1.058-.6,1.4,2.293-.441.842-.457-.361-2.958-5.852-3.968-5.347.706-.353,11.064,4.57,7.9-1.106-.609-1.09-7.047-3.816-7.6-3.135a1.323,1.323,0,0,0,.689-.24c-.088-.754-1.668,0-1.844-.16-.425-.473-1.459.593-1.772-.577.056.224,1.676-.216,1.716-.433.353-1.892-2.966-.208-2.557-.192-.329,0,.176-1.018.144-1.074-.673-1.283-1.243,1.1-1.6,1.1-.136,0,.088-1.13-.144-.978l-1.323,1.427c-.481.1.93-1.555.93-1.6-.136-.858-1.6.8-1.6.8.457-.393-1.852,1.315-1.17,1.106-.89.273.232-2,.345-1.6.048.192-1.355.16-1.331.5a1.371,1.371,0,0,1,.385.7,3.079,3.079,0,0,0-1.05-.04,1.235,1.235,0,0,0,.521.513,3.744,3.744,0,0,1-1.219-.425c.048,0,.385,1.267,0,1.018-.689-.449-.545-1.179-1.5-.762a9.564,9.564,0,0,0-1.956,1.676c.032.216.938-.192.8.577a11.928,11.928,0,0,0-1.6.072c.064-.281.136-.561.224-.842a32.774,32.774,0,0,1-2.766,2.453c.714.04,2.357-1.8,3.119-1.082,0,0-.112.8-.128.8-2.157.874-2.8,4.425-4.81,5.307-.168.08.8.738.489.874-1.146.449-1.154.89-2.108,1.676-.072.056-.714-.8-.8-.273-.112,1.146-.681.257-1.251,1.114a.738.738,0,0,0,.489.409c-.617-1.355-2.173,2.189-2.125,1.916-.353,2.141,1.042,1.427,1.154,1.8.313,1.1-1.275.577-1.2.521a5.83,5.83,0,0,0-.16.97c0,.393.858-.441,1.018,0,.1.289-.537.593-.617.722-1.082,1.644,3.632.377,3.079.5.762-.168,1.154-1.371,1.6-1.6.257-.16,2.3,6.213,2.5,6.285.962.361,2.966-2.565,3.287-2.654q-.192.505-.505.241c.184-1.716,2.229-3.063,2.221-4.369,0-1.708-1.932-.9-1.307-3.407.353-1.435,1.475-1.6,2.213-2.606.593-.8,1.563-3.255,2.67-3.624,5.187-1.708-1.195,4.329-1.363,4.634a7.185,7.185,0,0,0,.257,4.049c1.435,1.443,4.185.377,5.772-.056a3.559,3.559,0,0,1,.441-.617,4.007,4.007,0,0,0-.441.617,3.712,3.712,0,0,1,1.788.706c.345.417-4.441.938-4.233.8-3.079,1.475-.1,1.419-.882,2.3-.922,1.467-1.106.353-1.491.665-.128.1-2.405.281-1.563,1.98.8,1.852-.8,2.3-1.836,2.678.088,0-2.678.265-3.343.353-1.443.176-.681.377-1.387-.625-.3-.425-1.988,1.162-2.3.93a1.339,1.339,0,0,1,0-.689c-.393-.1-1.6,0-1.483-1.05,0-.192,1.058.553,1.138.088.16-.882-.5-.3-.754-.7-.12-.192,1.138-2.317.481-3.038-.441-.489-1.179,1.171-1.179,1.171-.473.473-.938-.377-1,1.6,0,.633,1.211,2.076.906,2.694-.241.473-2.886.962-3.375,1.283a23.127,23.127,0,0,0-2.485,2.485,12.739,12.739,0,0,1-1.692,1.676c-.746.345-2.309.144-2.557.281-.537.313.505,1.146,0,1.555s-1.94-.874-2.277-.241c-.914,1.7.457.409,1.259,1.7,1.106,1.772,2.83,3.88.257,5.187-1.195.609-4.121-.962-5.091-.433-1.828.994-.4.906-.8,2.606-.8,3.455-.714,4.906,2.125,5.828a4.874,4.874,0,0,0,5.74-1.98c1.315-1.764,2.1-4.81,4.1-6.069-.457.289,4.185-.521,3.808-.537,1.988.1.746-.184,2.445,1.138-.056-.04,6.566,6.021,4.682,6.021,1.066,0,.7-2.678.8-2.742a1.331,1.331,0,0,1,1.187.393c-.706-.208-7.288-7.215-4.081-7.1.441,0,3.888,3.912,4.979,4.538a1.344,1.344,0,0,1,.072-.257,1.344,1.344,0,0,0-.072.257c-1.074-.633,2.878,6.029,2.878,4.474,0-1.371-1.78,3.4.553,2.108a2.814,2.814,0,0,0-.168-1.026,1.2,1.2,0,0,0,.649,0c.337-.425-.706-.369-.5-.585s1.331.409,1.179-.481c-.192-1.082-.8,0-1.179-.433.128.144-.168-2.149-.353-2.068a6.029,6.029,0,0,0,1.122.216c.617-.273,3.928-.249,4.73-1.05-.208.208-1.323-1.772-1.251-2.157a13.043,13.043,0,0,1,1.6-2.5c.377-.537.553-1.78,1.339-2.141.5-.232,2.71-.144,2.83.529a4.858,4.858,0,0,1-1.235.754c-.04-.232,1,1.283.978,1.251s2.846-.754,2.886-.8c.168-.289-2.6-.128-1.267-1.547.313-.329,3.415-1.491,3.632-1.01.048.1-2.181,2.2-2.108,2.573.3,1.395,4.562,2.149,4.417,3.672-.192,2.052-2.638,1.331-4.073,1.307-.617,0-1.1-.689-1.692-.73a13.073,13.073,0,0,0-4.963.85c-2.405.657-5.011,1.884-2.261,4.7,1.3,1.315,2.557.762,4.009.8.473,0,3.407-.633,3.8-.377s-.85,3.72-1,4.089l.481.224h0v0l-.465-.216c-1.435,3.415-4.233,2.718-7.833,2.044-.962-.184-1.724-.641-2.678-.8-1.555-.208-.746-1.475-2.79-.4-.681.361-.489,1.724-.561,1.756-1.219.489-6.462-1.3-7.817-2.694s.938-2.581-.088-4.009c-.625-.882-4.89-.1-6.109.04a24.743,24.743,0,0,0-4.385,1.146c-1.483.425-2.7.3-4.089.665-1.178.313-.706-.184-1.748.369,1.1-.577-2.349,2.565-1.924,1.892-.521.8-.938,1.764-1.419,2.606-.385.657-.281,1.515-.906,2.461-.409.617-1.235.7-1.7,1.187A16.652,16.652,0,0,0,175,201.9c-.8,2.036-.321,2.357-.393,4.137-.064,1.652-.585,3.415-.529,5.051.056,1.788.866,2.509,1.74,3.92,1.964,3.207,4.3,6.165,8.073,6.526a16.956,16.956,0,0,0,5.909-.8c.24-.064,2.774-1.483,3.038-1.146a23.418,23.418,0,0,0,2.141,1.154c.329.16.2.97.633,1.162s.914-.457,1.267-.232c2,1.267,1.227.168,2.253,2.477.192.513-.393,2.141-.385,2.405.04,2.076.8,2.405,2.028,4.49.994,1.724,2.269,5.131,2,7.1-.289,2.125-1.844,3.952-1.94,6.277-.152,1.563,2.068,5.235,2.405,6.863a53.36,53.36,0,0,0,2.485,7.472c1.331,3.76.192,4.578,4.409,4.057,4.065-.5,6.414-1.772,8.5-5.812a20.367,20.367,0,0,0,.754-3.247c1.427-2.1,2.317-.954,2.718-3.688.281-1.948-.93-1.94.12-3.808.85-1.5,3.207-1.724,4.073-3.079,1.868-2.8-.064-5.893-.6-8.747-.577-3.038.978-5.227,3.063-7.488.866-.938,11.16-11.785,7.961-12.972-2.213-.8-4.658,2.333-7.175.73h0a20.517,20.517,0,0,0-1.852-3.536c-1.154-1.4-2.766-2.8-3.439-4.706-.3-.8-4.466-12.25-4.6-12.2.241-.088.906,2.654,1.547,2.654a4.489,4.489,0,0,0,.569-1.443c.633.377,2.581,4.81,2.99,5.612,1.146,2.357,2.622,4.433,3.752,6.887.529,1.13.409,3.64,1.195,4.49,1.058,1.154,3.327,0,4.922-.7,2.862-1.243,6.173-2.91,8.113-4.922.2-.216,2.509-2.934,2.405-3.471s-3.608-4.65-3.159-4.61c-.9-.08-2.02,2.63-3.792,2.461-1.435-.128,0-1.916-.858-2.173-.385-.12-.673,1.018-.681,1.01-.8-.625-2.91-4.963-1.82-5.556.657-.353,4.57,3.263,5.917,3.864.273.128,1.6.048,2,.152.144,0,.681.866,1.251,1.05,1.6.513,3.287.257,4.906.3a6.051,6.051,0,0,1,3.383.665c-.2-.1,3.022,2.958,3.022,2.108a2.245,2.245,0,0,1-1.291.481c-.689,3.383,4.065.6,3.207.184.762.385,4.5,24.051,7.119,10.158.73-3.88,2.02-4.626,4.955-7.536.529-.529,4.009-3.728,4.85-3.271,1.884,1.034,1.6,6.245,2.622,7.071,2.076,1.732,1.6-3.84,3.03,2.165.465,1.972-.048,4.281.409,6.029.265,1.01,3.7,8.121,5.387,7.263,1.2-.617-2.084-4.955-2.638-5.676-.7-.922-3.68-5.949-.986-6.863.8-.265,2.581,2.092,2.91,2.461.12.128,1.483,2.493,1.387,2.405.168.112,2.052-1.7,2.157-1.8,2.87-2.734,1.78-3.447.128-6.6-.8-1.6-2.445-3.864.369-4.963,1.956-.8,1.275.192,2.141,1.1-.168-.176,7.592-4.009,8.394-5.011.5-.609,2.774-5.66,3.038-5.612-.257-.08-1.026,0-1.259-.168.449.321,1.483-1.972-.4-1.972,0,0,1.6-.112,1.347.152.144-.16-2.405-3.584-2.357-3.7.224-1.547,2.068-1.6,3.006-2.3,1.459-1.13-3.832-.73-2.686-.168a23.675,23.675,0,0,1-1.916-1.772c0-.337,3.776-2.9,4.185-2.549.1.08-.962,2.405-.746,2.405,2.966.168,1.379-1.78,3.768-.241-1.106-.714.393,1.86.168,1.411,0,0,1.1.232,1.291.874.16.505-.8,2.181-.329,2.942.2.313,2.774-.994,2.854-1.106.8-1.307-.8-2.405-1-3.576-.361-2.469-.625-.04.289-2.269a11.016,11.016,0,0,1,2.365-3.095h0c1.146-.906,1.307.409,2.565-.128s2.181-2.036,2.934-2.982a15.569,15.569,0,0,0,3.247-6.582c.337-1.363,1.211-3.014.465-4.193-1.451-2.309-1.724-.192-3.1-.1-.16,0,0-1.122,0-1.195a3.81,3.81,0,0,0-.73.706c.866-.2-1.451-1.908-1.539-1.363.128-.8,2.565-2.445,3.207-3.046,2.036-1.9,3.071-3.351,5.844-3.744.689-.1,6.839.048,6.63.4a2.052,2.052,0,0,1-.681.216c-.361.3,3.856-.281,3.672-.5-1.339-1.5,3.207-5.011,4.858-3.872-.216-.144-.136,1.852-.184,1.764.184.4,4.81-3.688,4.73-2.726-.144,1.4-4.057,4.666-5.387,5.82-1.732,1.491-2.581,1.283-3.335,3.648-.481,1.507-.337,6.229.8,7.5-.176-.2,6.053-7.416,6.1-7.464-.577.577-.136-2.678,0-2.2-.353-1.05-1.5-.85.12-2.79a11.135,11.135,0,0,1,2.469-1.411.938.938,0,0,1,.192.89c-.377-1.547,4.009-.128,3.88-.088.8-.208,1.9-1.7,2.814-2.229s4.409-1.395,4.7-1.676c2.341-2.229-1.291-2.092-1.8-3.752.192.641,3.335-.593,3.792-.866.657-.385-.241-1.05.922-1.684-.657.361,4.746,4.249,5.772,3.255a1.17,1.17,0,0,0-.409-.553C363.718,148.62,364.568,147.289,364.4,147.153Z" fill="none" stroke="#b2b2b2" stroke-miterlimit="10" stroke-width="0.802"/>
        <path id="Path_2702" data-name="Path 2702" d="M248.152,116.784c.8-1.187-3.664-.529-2.646.361a2.662,2.662,0,0,0,2.646-.361Z" fill="none" stroke="#b2b2b2" stroke-miterlimit="10" stroke-width="0.802"/>
        <path id="Path_2703" data-name="Path 2703" d="M243.446,117.354c-.417.176-.842.337-1.275.473-.561.633,2.846.529,3.063-.2C245.37,117.185,243.406,117.233,243.446,117.354Z" fill="none" stroke="#b2b2b2" stroke-miterlimit="10" stroke-width="0.802"/>
        <path id="Path_2704" data-name="Path 2704" d="M243.31,115.726a7.022,7.022,0,0,0,1.708-.665c-.361-.489-2.87.473-2.918.3a1.491,1.491,0,0,0,1.211.361Z" fill="none" stroke="#b2b2b2" stroke-miterlimit="10" stroke-width="0.802"/>
        <path id="Path_2705" data-name="Path 2705" d="M321.436,168.775c.585,1.443-1.162,5.612-.249,6.782-.617-.8,1.387.088,1.4.088s-.8-2.405-.754-2.5c.722-1.6,1.459-.858,1.7-1.179.433-.593-2.133-7.143-1.772-7.376C320.754,165.248,321.123,168.021,321.436,168.775Z" fill="none" stroke="#b2b2b2" stroke-miterlimit="10" stroke-width="0.802"/>
        <path id="Path_2706" data-name="Path 2706" d="M255.464,133.388a2.245,2.245,0,0,0,1.427-.361C257.484,131.889,254.221,133.179,255.464,133.388Z" fill="none" stroke="#b2b2b2" stroke-miterlimit="10" stroke-width="0.802"/>
        <path id="Path_2707" data-name="Path 2707" d="M264.2,133.508c-.056-.481-1.066.144-.714.337S264.258,134,264.2,133.508Z" fill="none" stroke="#b2b2b2" stroke-miterlimit="10" stroke-width="0.802"/>
        <path id="Path_2708" data-name="Path 2708" d="M250.132,116.632l.8-.441c.265-.922-2.477.216-2.405.353A2.165,2.165,0,0,0,250.132,116.632Z" fill="none" stroke="#b2b2b2" stroke-miterlimit="10" stroke-width="0.802"/>
        <path id="Path_2709" data-name="Path 2709" d="M341.8,248c.056.361,2.405,2.293,2.694,2.052S341.743,247.623,341.8,248Z" fill="none" stroke="#b2b2b2" stroke-miterlimit="10" stroke-width="0.802"/>
        <path id="Path_2710" data-name="Path 2710" d="M116.849,200.09c-.513-.97.112,1.932.353,1.387A10.617,10.617,0,0,1,116.849,200.09Z" fill="none" stroke="#b2b2b2" stroke-miterlimit="10" stroke-width="0.802"/>
        <path id="Path_2711" data-name="Path 2711" d="M132.049,216.068c.689.152.914-.08.665-.689C132.225,214.929,131.824,215.835,132.049,216.068Z" fill="none" stroke="#b2b2b2" stroke-miterlimit="10" stroke-width="0.802"/>
        <path id="Path_2712" data-name="Path 2712" d="M289.416,229.544c0-.273-.714-.144-.5.241S289.416,229.817,289.416,229.544Z" fill="none" stroke="#b2b2b2" stroke-miterlimit="10" stroke-width="0.802"/>
        <path id="Path_2713" data-name="Path 2713" d="M295.1,235.365a2.4,2.4,0,0,0,1.1,0c.489-.4-2.638-.938-2.557-.9a.8.8,0,0,1,.938-.7c-.8.545-7.953-1.852-7.472-.168C287.3,234.315,294.8,235.838,295.1,235.365Z" fill="none" stroke="#b2b2b2" stroke-miterlimit="10" stroke-width="0.802"/>
        <path id="Path_2714" data-name="Path 2714" d="M303.566,235.389c.706,0,.8-.1.3-.3a17.854,17.854,0,0,0-3.712.449C300.64,236.5,302.949,235.429,303.566,235.389Z" fill="none" stroke="#b2b2b2" stroke-miterlimit="10" stroke-width="0.802"/>
        <path id="Path_2715" data-name="Path 2715" d="M298.042,235.028c-.265.657-.914-.224-1.243.216-.689.922,2.349.9,2.614.265C299.573,235.14,298.162,234.731,298.042,235.028Z" fill="none" stroke="#b2b2b2" stroke-miterlimit="10" stroke-width="0.802"/>
        <path id="Path_2716" data-name="Path 2716" d="M289.961,225.929c2.068,2.125,1.066,3.952,4.49,4.129,2.838.152,3.006-2.117,4.858-4.433a10.06,10.06,0,0,1-1.219-2.694c.064-1.106,1.379-.938,1.6-1.676s-2.646-1.259-2.8-1.227c-.93.2-.457,1.836-2.052,1.716-.048,0-2.782,3.135-2.8,3.159C292.254,224.413,288.518,224.478,289.961,225.929Z" fill="none" stroke="#b2b2b2" stroke-miterlimit="10" stroke-width="0.802"/>
        <path id="Path_2717" data-name="Path 2717" d="M279.1,225.111c-.048.3.249,1.178.577.8S279.154,224.814,279.1,225.111Z" fill="none" stroke="#b2b2b2" stroke-miterlimit="10" stroke-width="0.802"/>
        <path id="Path_2718" data-name="Path 2718" d="M280.445,227.684c-.048.144.249.754.441.569S280.6,227.227,280.445,227.684Z" fill="none" stroke="#b2b2b2" stroke-miterlimit="10" stroke-width="0.802"/>
        <path id="Path_2719" data-name="Path 2719" d="M287.291,231.052c-.08-1.267.633-.93.625-1.748,0-.353-1.154-1.435-1.178-.8a4.14,4.14,0,0,1,.585.714c-.24.609-3.062-3.688-3.207-3.848-.657-.746-6.35-5.131-6.606-4.53-.184.425,4.377,6.983,4.971,7.809S287.548,235.076,287.291,231.052Z" fill="none" stroke="#b2b2b2" stroke-miterlimit="10" stroke-width="0.802"/>
        <path id="Path_2720" data-name="Path 2720" d="M301.121,237.016c0-.8-1.6-.377-1.708-.513S301.121,237.77,301.121,237.016Z" fill="none" stroke="#b2b2b2" stroke-miterlimit="10" stroke-width="0.802"/>
        <path id="Path_2721" data-name="Path 2721" d="M299.277,229.24c-.136.241,1.732,2.966.962,3.287.722-.3.08-3.319.8-2.966,1.355.665-.144,2.533,1.668,1.122-.962.746.048-4.987.8-3.367.1.216-4.1,1.323-3.055-.393,1.146-1.876,3.7.265,4.7-1.812-.6,1.259-3.095-.273-3.928.289C299.9,226.273,300,227.965,299.277,229.24Z" fill="none" stroke="#b2b2b2" stroke-miterlimit="10" stroke-width="0.802"/>
        <path id="Path_2722" data-name="Path 2722" d="M307.935,229.937a13.3,13.3,0,0,0,2.405.665C311.407,230.6,307.438,228.3,307.935,229.937Z" fill="none" stroke="#b2b2b2" stroke-miterlimit="10" stroke-width="0.802"/>
        <path id="Path_2723" data-name="Path 2723" d="M308.071,225.2c0-2.02-1.676,2.149-.136,1.844C308.985,226.835,308.071,225.159,308.071,225.2Z" fill="none" stroke="#b2b2b2" stroke-miterlimit="10" stroke-width="0.802"/>
        <path id="Path_2724" data-name="Path 2724" d="M304.977,236.5c.481-.617,2.068-.706,2.277-1.315.112-.353-2.445.8-2.678.8-.369.064-1.427.85-.8,1.243a1.259,1.259,0,0,0,1.2-.73Z" fill="none" stroke="#b2b2b2" stroke-miterlimit="10" stroke-width="0.802"/>
        <path id="Path_2725" data-name="Path 2725" d="M306.043,229.993c.1.481.906.754,1.122.337S305.915,229.44,306.043,229.993Z" fill="none" stroke="#b2b2b2" stroke-miterlimit="10" stroke-width="0.802"/>
        <path id="Path_2726" data-name="Path 2726" d="M197.628,181.891c-.257.473.321,3.207,1.371,1.852C199.865,182.645,198.286,180.64,197.628,181.891Z" fill="none" stroke="#b2b2b2" stroke-miterlimit="10" stroke-width="0.802"/>
        <path id="Path_2727" data-name="Path 2727" d="M203.633,185.13c.192-.048-2.117-.208-1.908.409a6.8,6.8,0,0,0,2.02,1.291,14.2,14.2,0,0,1,.633-1.6.585.585,0,0,0-.746-.1Z" fill="none" stroke="#b2b2b2" stroke-miterlimit="10" stroke-width="0.802"/>
        <path id="Path_2728" data-name="Path 2728" d="M303.935,129.78a8.987,8.987,0,0,0-8.987,8.987c0,4.49,8.29,15.056,8.29,15.056h.7s9-10.085,9-15.056a8.987,8.987,0,0,0-9-8.987Zm0,13.38a4.385,4.385,0,1,1,3.109-1.284,4.393,4.393,0,0,1-3.109,1.284Z" fill="#263238" stroke="#263238" stroke-linecap="round" stroke-linejoin="round" stroke-width="0.802"/>
        <path id="Path_2729" data-name="Path 2729" d="M103.42,202.294a4.979,4.979,0,0,0-4.979,4.987c0,2.485,4.594,8.346,4.594,8.346h.385s4.987-5.612,4.987-8.346a4.979,4.979,0,0,0-4.987-4.987Zm0,7.416a2.405,2.405,0,1,1,2.405-2.405,2.405,2.405,0,0,1-2.405,2.405Z" fill="#263238" stroke="#263238" stroke-linecap="round" stroke-linejoin="round" stroke-width="0.802"/>
        <path id="Path_2730" data-name="Path 2730" d="M254.461,134.318a5.46,5.46,0,0,0-5.46,5.46c0,2.718,5.035,9.131,5.035,9.131h.425s5.452-6.117,5.452-9.131a5.452,5.452,0,0,0-5.452-5.46Zm0,8.121a2.67,2.67,0,1,1,2.662-2.662A2.67,2.67,0,0,1,254.461,142.439Z" fill="#263238" stroke="#263238" stroke-linecap="round" stroke-linejoin="round" stroke-width="0.802"/>
        <path id="Path_2731" data-name="Path 2731" d="M123.992,235.95a4.081,4.081,0,0,0-4.081,4.089c0,2.028,3.76,6.831,3.76,6.831h.321s4.081-4.578,4.081-6.831a4.081,4.081,0,0,0-4.081-4.089Zm0,6.077a2,2,0,1,1,2-1.988A2,2,0,0,1,123.992,242.027Z" fill="#263238" stroke="#263238" stroke-linecap="round" stroke-linejoin="round" stroke-width="0.802"/>
        <path id="Path_2732" data-name="Path 2732" d="M293.023,179.454a5.452,5.452,0,0,0-5.46,5.452c0,2.726,5.035,9.139,5.035,9.139h.425s5.452-6.125,5.452-9.139a5.452,5.452,0,0,0-5.452-5.452Zm0,8.121a1.107,1.107,0,1,1,0,.024Z" fill="#263238" stroke="#263238" stroke-linecap="round" stroke-linejoin="round" stroke-width="0.802"/>
        <path id="Path_2733" data-name="Path 2733" d="M318.622,235a5.46,5.46,0,0,0-5.46,5.46c0,2.726,5.035,9.139,5.035,9.139h.425s5.452-6.125,5.452-9.139a5.452,5.452,0,0,0-5.452-5.46Zm0,8.121a2.662,2.662,0,1,1,2.662-2.662A2.662,2.662,0,0,1,318.622,243.125Z" fill="#263238" stroke="#263238" stroke-linecap="round" stroke-linejoin="round" stroke-width="0.802"/>
        <path id="Path_2734" data-name="Path 2734" d="M101.288,171.26a5.46,5.46,0,0,0-5.452,5.46c0,2.718,5.035,9.139,5.035,9.139h.417s5.46-6.125,5.46-9.139a5.46,5.46,0,0,0-5.46-5.46Zm0,8.121a2.662,2.662,0,1,1,1.887-.777,2.662,2.662,0,0,1-1.887.777Z" fill="#263238" stroke="#263238" stroke-linecap="round" stroke-linejoin="round" stroke-width="0.802"/>
        <path id="Path_2735" data-name="Path 2735" d="M208.957,131.031a5.452,5.452,0,0,0-5.452,5.452c0,2.726,5.035,9.139,5.035,9.139h.417s5.46-6.125,5.46-9.139a5.452,5.452,0,0,0-5.46-5.452Zm0,8.121a2.67,2.67,0,1,1,2.67-2.67,2.67,2.67,0,0,1-2.67,2.67Z" fill="#263238" stroke="#263238" stroke-linecap="round" stroke-linejoin="round" stroke-width="0.802"/>
        <path id="Path_2736" data-name="Path 2736" d="M62.75,134.879a5.46,5.46,0,0,0-5.46,5.46c0,2.718,5.035,9.139,5.035,9.139h.425s5.452-6.125,5.452-9.139a5.452,5.452,0,0,0-5.452-5.46Zm0,8.121a2.662,2.662,0,1,1,2.662-2.662A2.662,2.662,0,0,1,62.75,143Z" fill="#263238" stroke="#263238" stroke-linecap="round" stroke-linejoin="round" stroke-width="0.802"/>
        <path id="Path_2737" data-name="Path 2737" d="M42.49,275.025c0-88.115,72.154-159.539,161.143-159.539S364.776,186.91,364.776,275.025" fill="none" stroke="#263238" stroke-miterlimit="10" stroke-width="0.802" stroke-dasharray="3"/>
      </g>
      <g id="freepik--House--inject-57">
        <rect id="Rectangle_766" data-name="Rectangle 766" width="77.958" height="62.293" transform="translate(298.724 274.857)" fill="#fff" stroke="#263238" stroke-miterlimit="10" stroke-width="0.802"/>
        <rect id="Rectangle_767" data-name="Rectangle 767" width="77.958" height="11.488" transform="translate(298.724 305.835)" fill="#263238" stroke="#263238" stroke-miterlimit="10" stroke-width="0.802"/>
        <rect id="Rectangle_768" data-name="Rectangle 768" width="9.829" height="21.967" transform="translate(332.788 315.191)" fill="#263238" stroke="#263238" stroke-miterlimit="10" stroke-width="0.802"/>
        <rect id="Rectangle_769" data-name="Rectangle 769" width="7.688" height="12.563" transform="translate(333.854 316.257)" fill="#fff" stroke="#263238" stroke-miterlimit="10" stroke-width="0.802"/>
        <rect id="Rectangle_770" data-name="Rectangle 770" width="82.039" height="27.234" transform="translate(296.679 272.131)" fill="red" stroke="#263238" stroke-miterlimit="10" stroke-width="0.802"/>
        <path id="Path_2738" data-name="Path 2738" d="M355.236,300.391V281.174l-18.215-13.805-16.852,13.805v19.217" fill="#fff" stroke="#263238" stroke-miterlimit="10" stroke-width="0.802"/>
        <rect id="Rectangle_771" data-name="Rectangle 771" width="23.145" height="14.294" transform="translate(326.126 284.734)" fill="#fff" stroke="#263238" stroke-miterlimit="10" stroke-width="0.802"/>
        <rect id="Rectangle_772" data-name="Rectangle 772" width="16.756" height="14.294" transform="translate(329.325 284.734)" fill="#fff" stroke="#263238" stroke-miterlimit="10" stroke-width="0.802"/>
        <rect id="Rectangle_773" data-name="Rectangle 773" width="9.188" height="14.294" transform="translate(333.109 284.734)" fill="#fff" stroke="#263238" stroke-miterlimit="10" stroke-width="0.802"/>
        <line id="Line_48" data-name="Line 48" y2="14.078" transform="translate(337.286 284.902)" fill="#fff" stroke="#263238" stroke-miterlimit="10" stroke-width="0.802"/>
        <line id="Line_49" data-name="Line 49" x2="22.784" transform="translate(326.35 287.772)" fill="#fff" stroke="#263238" stroke-miterlimit="10" stroke-width="0.802"/>
        <line id="Line_50" data-name="Line 50" x2="22.784" transform="translate(326.35 290.586)" fill="#fff" stroke="#263238" stroke-miterlimit="10" stroke-width="0.802"/>
        <line id="Line_51" data-name="Line 51" x2="22.784" transform="translate(326.35 293.392)" fill="#fff" stroke="#263238" stroke-miterlimit="10" stroke-width="0.802"/>
        <line id="Line_52" data-name="Line 52" x2="22.784" transform="translate(326.35 296.206)" fill="#fff" stroke="#263238" stroke-miterlimit="10" stroke-width="0.802"/>
        <rect id="Rectangle_774" data-name="Rectangle 774" width="4.914" height="21.967" transform="translate(344.621 315.191)" fill="#fff" stroke="#263238" stroke-miterlimit="10" stroke-width="0.802"/>
        <line id="Line_53" data-name="Line 53" y2="21.646" transform="translate(347.082 315.455)" fill="none" stroke="#263238" stroke-miterlimit="10" stroke-width="0.802"/>
        <line id="Line_54" data-name="Line 54" x2="4.626" transform="translate(344.75 322.542)" fill="none" stroke="#263238" stroke-miterlimit="10" stroke-width="0.802"/>
        <line id="Line_55" data-name="Line 55" x2="4.626" transform="translate(344.75 330.848)" fill="none" stroke="#263238" stroke-miterlimit="10" stroke-width="0.802"/>
        <rect id="Rectangle_775" data-name="Rectangle 775" width="4.914" height="21.967" transform="translate(325.38 315.191)" fill="#fff" stroke="#263238" stroke-miterlimit="10" stroke-width="0.802"/>
        <line id="Line_56" data-name="Line 56" y2="21.646" transform="translate(327.842 315.455)" fill="none" stroke="#263238" stroke-miterlimit="10" stroke-width="0.802"/>
        <line id="Line_57" data-name="Line 57" x2="4.626" transform="translate(325.509 322.542)" fill="none" stroke="#263238" stroke-miterlimit="10" stroke-width="0.802"/>
        <line id="Line_58" data-name="Line 58" x2="4.626" transform="translate(325.509 330.848)" fill="none" stroke="#263238" stroke-miterlimit="10" stroke-width="0.802"/>
        <rect id="Rectangle_776" data-name="Rectangle 776" width="12.29" height="16.836" transform="translate(358.387 314.926)" fill="#fff" stroke="#263238" stroke-miterlimit="10" stroke-width="0.802"/>
        <rect id="Rectangle_777" data-name="Rectangle 777" width="2.141" height="16.836" transform="translate(363.461 314.926)" fill="#fff" stroke="#263238" stroke-miterlimit="10" stroke-width="0.802"/>
        <line id="Line_59" data-name="Line 59" x2="11.945" transform="translate(358.451 319.135)" fill="none" stroke="#263238" stroke-miterlimit="10" stroke-width="0.802"/>
        <line id="Line_60" data-name="Line 60" x2="11.945" transform="translate(358.451 323.432)" fill="none" stroke="#263238" stroke-miterlimit="10" stroke-width="0.802"/>
        <line id="Line_61" data-name="Line 61" x2="11.945" transform="translate(358.451 327.729)" fill="none" stroke="#263238" stroke-miterlimit="10" stroke-width="0.802"/>
        <rect id="Rectangle_778" data-name="Rectangle 778" width="12.29" height="16.836" transform="translate(303.598 314.926)" fill="#fff" stroke="#263238" stroke-miterlimit="10" stroke-width="0.802"/>
        <rect id="Rectangle_779" data-name="Rectangle 779" width="2.141" height="16.836" transform="translate(308.681 314.926)" fill="#fff" stroke="#263238" stroke-miterlimit="10" stroke-width="0.802"/>
        <line id="Line_62" data-name="Line 62" x2="11.945" transform="translate(303.67 319.135)" fill="none" stroke="#263238" stroke-miterlimit="10" stroke-width="0.802"/>
        <line id="Line_63" data-name="Line 63" x2="11.945" transform="translate(303.67 323.432)" fill="none" stroke="#263238" stroke-miterlimit="10" stroke-width="0.802"/>
        <line id="Line_64" data-name="Line 64" x2="11.945" transform="translate(303.67 327.729)" fill="none" stroke="#263238" stroke-miterlimit="10" stroke-width="0.802"/>
        <path id="Path_2739" data-name="Path 2739" d="M316.962,283.66l20.059-16.291,20.828,15.754" fill="none" stroke="#263238" stroke-miterlimit="10" stroke-width="1.603"/>
        <rect id="Rectangle_780" data-name="Rectangle 780" width="33.648" height="3.255" transform="translate(320.883 333.894)" fill="#fff" stroke="#263238" stroke-miterlimit="10" stroke-width="0.802"/>
        <rect id="Rectangle_781" data-name="Rectangle 781" width="33.648" height="1.852" transform="translate(320.883 335.305)" fill="#fff" stroke="#263238" stroke-miterlimit="10" stroke-width="0.802"/>
        <rect id="Rectangle_782" data-name="Rectangle 782" width="3.471" height="30.513" transform="translate(320.169 306.636)" fill="#fff" stroke="#263238" stroke-miterlimit="10" stroke-width="0.802"/>
        <rect id="Rectangle_783" data-name="Rectangle 783" width="3.471" height="30.513" transform="translate(352.775 306.636)" fill="#fff" stroke="#263238" stroke-miterlimit="10" stroke-width="0.802"/>
        <rect id="Rectangle_784" data-name="Rectangle 784" width="82.039" height="7.833" transform="translate(296.679 304.472)" fill="red" stroke="#263238" stroke-miterlimit="10" stroke-width="0.802"/>
      </g>
      <g id="freepik--Store--inject-57">
        <rect id="Rectangle_785" data-name="Rectangle 785" width="76.868" height="65.042" transform="translate(26.015 272.115)" fill="red" stroke="#263238" stroke-linecap="round" stroke-linejoin="round" stroke-width="0.802"/>
        <rect id="Rectangle_786" data-name="Rectangle 786" width="76.868" height="22.592" transform="translate(26.015 314.565)" fill="#263238" stroke="#263238" stroke-linecap="round" stroke-linejoin="round" stroke-width="0.802"/>
        <rect id="Rectangle_787" data-name="Rectangle 787" width="24.484" height="47.156" transform="translate(52.207 289.993)" fill="#fff" stroke="#263238" stroke-linecap="round" stroke-linejoin="round" stroke-width="0.802"/>
        <rect id="Rectangle_788" data-name="Rectangle 788" width="20.163" height="22.143" transform="translate(53.939 289.993)" fill="#fff" stroke="#263238" stroke-linecap="round" stroke-linejoin="round" stroke-width="0.802"/>
        <rect id="Rectangle_789" data-name="Rectangle 789" width="20.163" height="22.143" transform="translate(53.939 313.595)" fill="#fff" stroke="#263238" stroke-linecap="round" stroke-linejoin="round" stroke-width="0.802"/>
        <path id="Path_2740" data-name="Path 2740" d="M75.881,313.194a1.539,1.539,0,1,1-1.539-1.539A1.539,1.539,0,0,1,75.881,313.194Z" fill="#fff" stroke="#263238" stroke-linecap="round" stroke-linejoin="round" stroke-width="0.802"/>
        <line id="Line_65" data-name="Line 65" x1="9.003" y2="9.147" transform="translate(64.77 297.104)" fill="none" stroke="#263238" stroke-linecap="round" stroke-linejoin="round" stroke-width="0.401"/>
        <line id="Line_66" data-name="Line 66" x1="9.011" y2="9.139" transform="translate(58.14 299.533)" fill="none" stroke="#263238" stroke-linecap="round" stroke-linejoin="round" stroke-width="0.401"/>
        <line id="Line_67" data-name="Line 67" x1="9.003" y2="9.139" transform="translate(64.77 318.446)" fill="none" stroke="#263238" stroke-linecap="round" stroke-linejoin="round" stroke-width="0.401"/>
        <line id="Line_68" data-name="Line 68" x1="9.011" y2="9.147" transform="translate(58.14 320.867)" fill="none" stroke="#263238" stroke-linecap="round" stroke-linejoin="round" stroke-width="0.401"/>
        <rect id="Rectangle_790" data-name="Rectangle 790" width="19.233" height="27.963" transform="translate(81.862 289.993)" fill="#fff" stroke="#263238" stroke-linecap="round" stroke-linejoin="round" stroke-width="0.802"/>
        <line id="Line_69" data-name="Line 69" x1="9.003" y2="9.147" transform="translate(90.472 297.754)" fill="none" stroke="#263238" stroke-linecap="round" stroke-linejoin="round" stroke-width="0.401"/>
        <line id="Line_70" data-name="Line 70" x1="9.011" y2="9.139" transform="translate(83.842 300.183)" fill="none" stroke="#263238" stroke-linecap="round" stroke-linejoin="round" stroke-width="0.401"/>
        <rect id="Rectangle_791" data-name="Rectangle 791" width="19.233" height="27.963" transform="translate(27.386 289.993)" fill="#fff" stroke="#263238" stroke-linecap="round" stroke-linejoin="round" stroke-width="0.802"/>
        <line id="Line_71" data-name="Line 71" x1="9.011" y2="9.147" transform="translate(35.187 297.754)" fill="none" stroke="#263238" stroke-linecap="round" stroke-linejoin="round" stroke-width="0.401"/>
        <line id="Line_72" data-name="Line 72" x1="9.003" y2="9.139" transform="translate(28.565 300.183)" fill="none" stroke="#263238" stroke-linecap="round" stroke-linejoin="round" stroke-width="0.401"/>
        <path id="Path_2741" data-name="Path 2741" d="M22.889,282.7h8.45v7.279a4.009,4.009,0,0,1-4.009,4.009h-.369a4.009,4.009,0,0,1-4.009-4.009V282.7Z" fill="red"/>
        <g id="Group_172" data-name="Group 172" clip-path="url(#clip-path-2)">
          <path id="Path_2742" data-name="Path 2742" d="M22.889,282.7h8.45v7.279a4.009,4.009,0,0,1-4.009,4.009h-.369a4.009,4.009,0,0,1-4.009-4.009V282.7Z" opacity="0.3"/>
        </g>
        <path id="Path_2744" data-name="Path 2744" d="M22.889,282.7h8.45v7.279a4.009,4.009,0,0,1-4.009,4.009h-.369a4.009,4.009,0,0,1-4.009-4.009V282.7Z" fill="none" stroke="#263238" stroke-linecap="round" stroke-linejoin="round" stroke-width="0.802"/>
        <path id="Path_2745" data-name="Path 2745" d="M31.154,282.7H39.6v7.279a4.009,4.009,0,0,1-4.009,4.009h-.369a4.009,4.009,0,0,1-4.009-4.009V282.7Z" fill="#b2b2b2" stroke="#263238" stroke-linecap="round" stroke-linejoin="round" stroke-width="0.802"/>
        <path id="Path_2746" data-name="Path 2746" d="M39.412,282.7h8.45v7.279a4.009,4.009,0,0,1-4.009,4.009h-.4a4.009,4.009,0,0,1-4.009-4.009V282.7Z" fill="red"/>
        <g id="Group_173" data-name="Group 173" clip-path="url(#clip-path-3)">
          <path id="Path_2747" data-name="Path 2747" d="M39.412,282.7h8.45v7.279a4.009,4.009,0,0,1-4.009,4.009h-.4a4.009,4.009,0,0,1-4.009-4.009V282.7Z" opacity="0.3"/>
        </g>
        <path id="Path_2749" data-name="Path 2749" d="M39.412,282.7h8.45v7.279a4.009,4.009,0,0,1-4.009,4.009h-.4a4.009,4.009,0,0,1-4.009-4.009V282.7Z" fill="none" stroke="#263238" stroke-linecap="round" stroke-linejoin="round" stroke-width="0.802"/>
        <path id="Path_2750" data-name="Path 2750" d="M47.677,282.7h8.442v7.279a4.009,4.009,0,0,1-4.009,4.009h-.4a4.009,4.009,0,0,1-4.009-4.009V282.7Z" fill="#b2b2b2" stroke="#263238" stroke-linecap="round" stroke-linejoin="round" stroke-width="0.802"/>
        <path id="Path_2751" data-name="Path 2751" d="M55.935,282.7h8.45v7.279a4.009,4.009,0,0,1-4.009,4.009h-.369A4.009,4.009,0,0,1,56,289.977V282.7Z" fill="red"/>
        <g id="Group_174" data-name="Group 174" clip-path="url(#clip-path-4)">
          <path id="Path_2752" data-name="Path 2752" d="M55.935,282.7h8.45v7.279a4.009,4.009,0,0,1-4.009,4.009h-.369A4.009,4.009,0,0,1,56,289.977V282.7Z" opacity="0.3"/>
        </g>
        <path id="Path_2754" data-name="Path 2754" d="M55.935,282.7h8.45v7.279a4.009,4.009,0,0,1-4.009,4.009h-.369A4.009,4.009,0,0,1,56,289.977V282.7Z" fill="none" stroke="#263238" stroke-linecap="round" stroke-linejoin="round" stroke-width="0.802"/>
        <path id="Path_2755" data-name="Path 2755" d="M64.193,282.7h8.45v7.279a4.009,4.009,0,0,1-4.009,4.009h-.369a4.009,4.009,0,0,1-4.009-4.009V282.7Z" fill="#b2b2b2" stroke="#263238" stroke-linecap="round" stroke-linejoin="round" stroke-width="0.802"/>
        <path id="Path_2756" data-name="Path 2756" d="M72.458,282.7h8.45v7.279a4.009,4.009,0,0,1-4.009,4.009h-.369a4.009,4.009,0,0,1-4.009-4.009V282.7Z" fill="red"/>
        <g id="Group_175" data-name="Group 175" clip-path="url(#clip-path-5)">
          <path id="Path_2757" data-name="Path 2757" d="M72.458,282.7h8.45v7.279a4.009,4.009,0,0,1-4.009,4.009h-.369a4.009,4.009,0,0,1-4.009-4.009V282.7Z" opacity="0.3"/>
        </g>
        <path id="Path_2759" data-name="Path 2759" d="M72.458,282.7h8.45v7.279a4.009,4.009,0,0,1-4.009,4.009h-.369a4.009,4.009,0,0,1-4.009-4.009V282.7Z" fill="none" stroke="#263238" stroke-linecap="round" stroke-linejoin="round" stroke-width="0.802"/>
        <path id="Path_2760" data-name="Path 2760" d="M80.716,282.7h8.45v7.288a4.009,4.009,0,0,1-4.009,4.009h-.369a4.009,4.009,0,0,1-4.009-4.009V282.7Z" fill="#b2b2b2" stroke="#263238" stroke-linecap="round" stroke-linejoin="round" stroke-width="0.802"/>
        <path id="Path_2761" data-name="Path 2761" d="M88.989,282.7h8.45v7.288a4.009,4.009,0,0,1-4.009,4.009H93a4.009,4.009,0,0,1-4.009-4.009V282.7Z" fill="red"/>
        <g id="Group_176" data-name="Group 176" clip-path="url(#clip-path-6)">
          <path id="Path_2762" data-name="Path 2762" d="M88.989,282.7h8.45v7.288a4.009,4.009,0,0,1-4.009,4.009H93a4.009,4.009,0,0,1-4.009-4.009V282.7Z" opacity="0.3"/>
        </g>
        <path id="Path_2764" data-name="Path 2764" d="M88.989,282.7h8.45v7.288a4.009,4.009,0,0,1-4.009,4.009H93a4.009,4.009,0,0,1-4.009-4.009V282.7Z" fill="none" stroke="#263238" stroke-linecap="round" stroke-linejoin="round" stroke-width="0.802"/>
        <path id="Path_2765" data-name="Path 2765" d="M97.239,282.7h8.45v7.279a4.009,4.009,0,0,1-4.009,4.009h-.369a4.009,4.009,0,0,1-4.009-4.009v-7.288Z" fill="#b2b2b2" stroke="#263238" stroke-linecap="round" stroke-linejoin="round" stroke-width="0.802"/>
        <rect id="Rectangle_792" data-name="Rectangle 792" width="8.45" height="11.32" transform="translate(22.889 271.907)" fill="red" stroke="#263238" stroke-linecap="round" stroke-linejoin="round" stroke-width="0.802"/>
        <rect id="Rectangle_793" data-name="Rectangle 793" width="8.45" height="11.32" transform="translate(31.154 271.907)" fill="#fff" stroke="#263238" stroke-linecap="round" stroke-linejoin="round" stroke-width="0.802"/>
        <rect id="Rectangle_794" data-name="Rectangle 794" width="8.45" height="11.32" transform="translate(39.412 271.907)" fill="red" stroke="#263238" stroke-linecap="round" stroke-linejoin="round" stroke-width="0.802"/>
        <rect id="Rectangle_795" data-name="Rectangle 795" width="8.45" height="11.32" transform="translate(47.677 271.907)" fill="#fff" stroke="#263238" stroke-linecap="round" stroke-linejoin="round" stroke-width="0.802"/>
        <rect id="Rectangle_796" data-name="Rectangle 796" width="8.45" height="11.32" transform="translate(55.935 271.907)" fill="red" stroke="#263238" stroke-linecap="round" stroke-linejoin="round" stroke-width="0.802"/>
        <rect id="Rectangle_797" data-name="Rectangle 797" width="8.45" height="11.32" transform="translate(64.193 271.907)" fill="#fff" stroke="#263238" stroke-linecap="round" stroke-linejoin="round" stroke-width="0.802"/>
        <rect id="Rectangle_798" data-name="Rectangle 798" width="8.45" height="11.32" transform="translate(72.458 271.907)" fill="red" stroke="#263238" stroke-linecap="round" stroke-linejoin="round" stroke-width="0.802"/>
        <rect id="Rectangle_799" data-name="Rectangle 799" width="8.45" height="11.32" transform="translate(80.716 271.907)" fill="#fff" stroke="#263238" stroke-linecap="round" stroke-linejoin="round" stroke-width="0.802"/>
        <rect id="Rectangle_800" data-name="Rectangle 800" width="8.45" height="11.32" transform="translate(88.981 271.907)" fill="red" stroke="#263238" stroke-linecap="round" stroke-linejoin="round" stroke-width="0.802"/>
        <rect id="Rectangle_801" data-name="Rectangle 801" width="8.45" height="11.32" transform="translate(97.239 271.907)" fill="#fff" stroke="#263238" stroke-linecap="round" stroke-linejoin="round" stroke-width="0.802"/>
      </g>
      <g id="freepik--Airplane--inject-57">
        <path id="Path_2766" data-name="Path 2766" d="M231.573,81.349a2.485,2.485,0,0,0,2.349-2.493h0a3.006,3.006,0,0,0-2.894-2.966l-13.084-.377h-.273l-5.612-7.32,2.044-.152a1.251,1.251,0,0,0,1.187-1.146,1.227,1.227,0,0,0-1.267-1.283l-3.808.152-4.177-5.492,2.846-.2a1.219,1.219,0,0,0,1.162-1.219h0a.722.722,0,0,0-.545-1.235l-5.3.208-2.782-3.648a5.732,5.732,0,0,0-4.329-2.261l-1.363-.048,6.061,12.771s4.009,8.161.922,11.7l-14.767.8h-.192l-5.925-7.736-3.5-.353,2.862,9.147-1.6.257a.144.144,0,0,0,0,.289l1.788.433-3,9.34,3.872-.2,5.147-7.664.337.08,13.549.585c1.756.593,4.353,2.028,3.431,5.219-1.355,4.706-8.819,19.481-8.819,19.481l2.285-.377a5.965,5.965,0,0,0,3.752-2.237L204.571,100l4.369-.313a1.259,1.259,0,0,0,1.106-1.154,1.211,1.211,0,0,0-1.267-1.275l-2.229.088,3.888-5.027L214.809,92A1.251,1.251,0,0,0,216,90.857a1.227,1.227,0,0,0-1.267-1.283l-2.237.088,5.909-7.624Z" fill="#263238"/>
      </g>
      <g id="freepik--Box--inject-57">
        <rect id="Rectangle_802" data-name="Rectangle 802" width="111.301" height="72.178" transform="translate(146.039 216.469)" fill="red" stroke="#263238" stroke-linecap="round" stroke-linejoin="round" stroke-width="0.802"/>
        <path id="Path_2767" data-name="Path 2767" d="M257.34,216.469h-111.3l18.215-33.96h111.3Z" fill="red" stroke="#263238" stroke-linecap="round" stroke-linejoin="round" stroke-width="0.802"/>
        <line id="Line_73" data-name="Line 73" x2="0.802" transform="translate(155.755 199.08)" fill="none" stroke="#263238" stroke-miterlimit="10" stroke-width="0.802"/>
        <line id="Line_74" data-name="Line 74" x2="107.004" transform="translate(158.136 199.08)" fill="none" stroke="#263238" stroke-miterlimit="10" stroke-width="0.802" stroke-dasharray="1.977 1.977"/>
        <line id="Line_75" data-name="Line 75" x2="0.802" transform="translate(265.934 199.08)" fill="none" stroke="#263238" stroke-miterlimit="10" stroke-width="0.802"/>
        <path id="Path_2768" data-name="Path 2768" d="M275.554,182.508v71.015L257.34,288.654V216.469Z" fill="red"/>
        <g id="Group_177" data-name="Group 177" clip-path="url(#clip-path-7)">
          <path id="Path_2769" data-name="Path 2769" d="M275.554,182.508v71.015L257.34,288.654V216.469Z" opacity="0.2"/>
        </g>
        <path id="Path_2771" data-name="Path 2771" d="M275.554,182.508v71.015L257.34,288.654V216.469Z" fill="none" stroke="#263238" stroke-linecap="round" stroke-linejoin="round" stroke-width="0.802"/>
        <path id="Path_2772" data-name="Path 2772" d="M191.271,216.469h15.906l17.1-33.96h-15.9Z" fill="#fff" stroke="#263238" stroke-miterlimit="10" stroke-width="0.802"/>
        <path id="Path_2773" data-name="Path 2773" d="M207.289,246.581l-7.809-5.636-8.209,5.636V216.469h16.018Z" fill="#fff" stroke="#263238" stroke-miterlimit="10" stroke-width="0.802"/>
        <line id="Line_76" data-name="Line 76" x1="5.259" transform="translate(135.087 183.134)" fill="none" stroke="#263238" stroke-miterlimit="10" stroke-width="0.802"/>
        <line id="Line_77" data-name="Line 77" x1="15.77" transform="translate(144.387 183.134)" fill="none" stroke="#263238" stroke-miterlimit="10" stroke-width="0.802"/>
        <line id="Line_78" data-name="Line 78" x1="25.061" transform="translate(119.326 215.883)" fill="none" stroke="#263238" stroke-miterlimit="10" stroke-width="0.802"/>
        <line id="Line_79" data-name="Line 79" x1="3.632" transform="translate(119.326 248.224)" fill="none" stroke="#263238" stroke-miterlimit="10" stroke-width="0.802"/>
        <line id="Line_80" data-name="Line 80" x1="17.381" transform="translate(127.006 248.224)" fill="none" stroke="#263238" stroke-miterlimit="10" stroke-width="0.802"/>
        <line id="Line_81" data-name="Line 81" x1="12.13" transform="translate(132.257 230.033)" fill="none" stroke="#263238" stroke-miterlimit="10" stroke-width="0.802"/>
        <line id="Line_82" data-name="Line 82" x1="12.13" transform="translate(143.986 193.243)" fill="none" stroke="#263238" stroke-miterlimit="10" stroke-width="0.802"/>
        <line id="Line_83" data-name="Line 83" x1="12.13" transform="translate(132.257 274.905)" fill="none" stroke="#263238" stroke-miterlimit="10" stroke-width="0.802"/>
      </g>
      <g id="freepik--Floor--inject-57">
        <line id="Line_84" data-name="Line 84" x2="376" transform="translate(11.224 337.157)" fill="none" stroke="#263238" stroke-miterlimit="10" stroke-width="0.802"/>
      </g>
    </g>
  </g>
</svg>
