<svg xmlns="http://www.w3.org/2000/svg" xmlns:xlink="http://www.w3.org/1999/xlink" width="376" height="267" viewBox="0 0 376 267">
  <defs>
    <clipPath id="clip-path">
      <rect id="Rectangle_14" data-name="Rectangle 14" width="376" height="267" transform="translate(199 3392)" fill="#1d2c7e"/>
    </clipPath>
  </defs>
  <g id="Mask_Group_7" data-name="Mask Group 7" transform="translate(-199 -3392)" clip-path="url(#clip-path)">
    <g id="Messenger-pana" transform="translate(229.073 3365.916)">
      <g id="freepik--background-complete--inject-65">
        <path id="Path_574" data-name="Path 574" d="M251.063,292.861c-16.516-6.543-24.1-24.158-27.449-40.807-.562-2.779-1.554-5.615-.815-8.343s3.4-5.11,6.145-4.535c2.28.48,3.739,2.646,5.35,4.345a16.567,16.567,0,0,0,7.933,4.642c1.971.5,4.276.537,5.779-.827,2.072-1.895,1.573-5.23.9-7.971l-3.733-15.31a26.249,26.249,0,0,1-1.105-8.343c.234-2.811,1.547-5.684,3.985-7.017s6.013-.632,7.2,1.945a25.48,25.48,0,0,1,.891,3.392c.347,1.118,1.175,2.255,2.331,2.318s2.084-.979,2.716-1.977c2.173-3.436,3.246-7.459,4.2-11.432s1.838-8.021,3.688-11.646,4.838-6.865,8.71-8.021,8.634.278,10.541,3.9.587,8.091-1.124,11.8a62.933,62.933,0,0,1-9.865,15.158,5.166,5.166,0,0,0-1.585,2.8c-.164,1.964,2,3.373,3.947,3.543,2.2.2,4.377-.543,6.575-.8s4.737.139,6.025,1.964c1.787,2.526.139,6.032-1.712,8.5a53.793,53.793,0,0,1-13.4,12.632,18.548,18.548,0,0,0-5.1,4.168c-1.314,1.8-1.686,4.5-.246,6.2s4.112,1.718,6.133.827,3.638-2.488,5.476-3.726c3.43-2.318,8.356-3.215,11.545-.531a8.921,8.921,0,0,1,2.741,7.459,20.983,20.983,0,0,1-2.526,7.762,53.947,53.947,0,0,1-18.783,21.177c-8.021,5.053-15.929,7.844-25.371,6.733" fill="#f5f5f5"/>
        <path id="Path_575" data-name="Path 575" d="M252.869,281.493a252.442,252.442,0,0,1,3.48-28.769q.632-3.789,1.3-7.5c.43-2.457.859-4.895,1.427-7.257a125.585,125.585,0,0,1,4.03-13.371c1.484-4.187,3.051-8.11,4.541-11.766s2.956-7.036,4.421-10.061a99.435,99.435,0,0,1,7.958-13.743c1.061-1.541,1.926-2.716,2.526-3.5q.436-.556.682-.891a1.656,1.656,0,0,1,.253-.291,2.337,2.337,0,0,1-.208.328l-.632.916c-.568.808-1.408,2-2.444,3.55a106.811,106.811,0,0,0-7.794,13.794c-1.434,3.025-2.874,6.4-4.352,10.061s-3.019,7.579-4.491,11.773a127.526,127.526,0,0,0-3.985,13.339c-.562,2.35-.985,4.769-1.415,7.232s-.859,4.964-1.295,7.491a256.88,256.88,0,0,0-3.512,28.706" fill="#e0e0e0"/>
        <path id="Path_576" data-name="Path 576" d="M259.216,237.919a5.467,5.467,0,0,1-.549-1.112c-.322-.72-.758-1.781-1.263-3.1-1.036-2.64-2.343-6.316-3.79-10.409s-2.779-7.743-3.846-10.358c-.537-1.307-.979-2.362-1.295-3.088a5.211,5.211,0,0,1-.429-1.156,5.685,5.685,0,0,1,.632,1.067c.373.7.865,1.737,1.446,3.032,1.162,2.59,2.577,6.246,4,10.326s2.653,7.674,3.619,10.453l1.118,3.158A5.978,5.978,0,0,1,259.216,237.919Z" fill="#e0e0e0"/>
        <path id="Path_577" data-name="Path 577" d="M292.912,222.951a7.531,7.531,0,0,1-1.371.505c-.884.291-2.166.714-3.739,1.263-3.158,1.112-7.434,2.8-12.089,4.882s-8.785,4.143-11.729,5.722c-1.478.783-2.659,1.446-3.474,1.895a8.209,8.209,0,0,1-1.295.67,7.614,7.614,0,0,1,1.187-.84c.789-.512,1.945-1.225,3.4-2.046,2.905-1.667,7.023-3.79,11.691-5.88a126.89,126.89,0,0,1,12.19-4.756c1.585-.524,2.893-.891,3.79-1.124A7.288,7.288,0,0,1,292.912,222.951Z" fill="#e0e0e0"/>
        <path id="Path_578" data-name="Path 578" d="M253.147,280.741a2.155,2.155,0,0,1-.341-.373l-.9-1.131c-.783-.992-1.895-2.451-3.208-4.263-2.659-3.638-6.171-8.779-9.973-14.495s-7.27-10.889-9.846-14.577l-3.07-4.358c-.335-.474-.632-.865-.827-1.187s-.278-.423-.259-.436.126.114.341.373l.9,1.131c.783.985,1.895,2.444,3.208,4.263,2.659,3.638,6.171,8.773,9.979,14.495s7.263,10.889,9.84,14.571l3.07,4.358.827,1.194C253.071,280.577,253.166,280.728,253.147,280.741Z" fill="#e0e0e0"/>
        <path id="Path_579" data-name="Path 579" d="M296.423,254.53a1.962,1.962,0,0,1-.423.3l-1.263.777-4.63,2.817c-3.916,2.381-9.278,5.728-15.2,9.436s-11.324,7.011-15.284,9.31c-1.977,1.15-3.594,2.059-4.718,2.672l-1.3.695a1.948,1.948,0,0,1-.474.208,1.962,1.962,0,0,1,.423-.3l1.263-.777,4.63-2.817c3.916-2.381,9.278-5.729,15.2-9.436s11.318-7,15.278-9.3c1.977-1.15,3.587-2.065,4.718-2.678l1.3-.688a1.851,1.851,0,0,1,.474-.215Z" fill="#e0e0e0"/>
        <rect id="Rectangle_486" data-name="Rectangle 486" width="44.255" height="65.66" transform="matrix(0.191, -0.982, 0.982, 0.191, 30.155, 143.956)" fill="#ebebeb"/>
        <path id="Path_580" data-name="Path 580" d="M103.151,113.591a4.111,4.111,0,0,1-.714.461l-2.1,1.225L92.553,119.7,66.7,134.086l-.208.114-.158-.183-.385-.448-19.364-22.9-5.817-6.979-1.56-1.895a4.149,4.149,0,0,1-.512-.695,5.254,5.254,0,0,1,.6.632l1.648,1.844,5.962,6.859,19.5,22.775.385.448-.373-.069,25.933-14.23,7.876-4.244,2.154-1.124a4.571,4.571,0,0,1,.771-.4Z" fill="#e0e0e0"/>
        <path id="Path_581" data-name="Path 581" d="M30.259,144.52c-.107-.133,5.9-5.141,13.409-11.2s13.68-10.863,13.781-10.737-5.9,5.141-13.409,11.2S30.36,144.634,30.259,144.52Z" fill="#e0e0e0"/>
        <path id="Path_582" data-name="Path 582" d="M78.98,126.2c.145-.076,3.79,6.771,8.129,15.278s7.75,15.48,7.579,15.556-3.79-6.764-8.135-15.284S78.835,126.28,78.98,126.2Z" fill="#e0e0e0"/>
        <path id="Path_583" data-name="Path 583" d="M129.027,91.8,88.283,96.065,84.93,67.757l40.744-4.27Z" fill="#f5f5f5"/>
        <path id="Path_584" data-name="Path 584" d="M125.844,63.79a2.4,2.4,0,0,1-.335.417L124.5,65.35l-3.79,4.162-12.6,13.655-.1.114-.133-.088-.316-.2C101.357,78.9,95.736,75.2,91.631,72.5l-4.806-3.221-1.263-.891a2.791,2.791,0,0,1-.436-.328,2.906,2.906,0,0,1,.474.265l1.333.834c1.187.752,2.842,1.813,4.87,3.114l15.985,10.4.316.2h-.234c4.952-5.293,9.417-10.105,12.682-13.573l3.865-4.074c.442-.455.8-.821,1.067-1.093A3.19,3.19,0,0,1,125.844,63.79Z" fill="#e0e0e0"/>
        <path id="Path_585" data-name="Path 585" d="M88.454,96.393c-.088-.057,2.526-4.263,5.817-9.385s6.038-9.228,6.126-9.164S97.871,82.1,94.58,87.229,88.536,96.45,88.454,96.393Z" fill="#e0e0e0"/>
        <path id="Path_586" data-name="Path 586" d="M113.9,76.068c.076-.069,3.556,3.461,7.781,7.895s7.579,8.091,7.516,8.16-3.556-3.461-7.781-7.895S113.825,76.144,113.9,76.068Z" fill="#e0e0e0"/>
        <path id="Path_587" data-name="Path 587" d="M72.569,57.487,50.053,41.893,60.689,26.085,83.205,41.672Z" fill="#f5f5f5"/>
        <path id="Path_588" data-name="Path 588" d="M83.149,41.912a1.635,1.635,0,0,1-.354.069l-1.011.139-3.726.461L65.717,44.009h-.1v-.095a.9.9,0,0,0-.069-.246L62.009,31.422c-.429-1.554-.783-2.817-1.029-3.726l-.272-1.011a1.725,1.725,0,0,1-.076-.36,2.066,2.066,0,0,1,.126.341c.076.253.183.587.309,1,.272.9.632,2.154,1.112,3.695.922,3.158,2.185,7.472,3.575,12.24l.069.24-.126-.088L78.039,42.4l3.739-.379,1.017-.088A2.475,2.475,0,0,1,83.149,41.912Z" fill="#e0e0e0"/>
        <path id="Path_589" data-name="Path 589" d="M50,42.133c0-.063,3.158-1.061,7.036-2.217s7.086-2.046,7.105-1.983S60.98,39,57.1,40.156,50.015,42.2,50,42.133Z" fill="#e0e0e0"/>
        <path id="Path_590" data-name="Path 590" d="M71.755,42.948c.069,0,.291,3.3.505,7.39s.322,7.409.253,7.415-.3-3.3-.505-7.39S71.685,42.948,71.755,42.948Z" fill="#e0e0e0"/>
        <path id="Path_591" data-name="Path 591" d="M253.557,78.235A25.106,25.106,0,1,0,206.82,90.917h0l.069.095c.96,1.623,2.166,2.785,3.385,4.491l14.571,19.308a4.541,4.541,0,0,0,7.238,0L246.42,95.818a54.374,54.374,0,0,0,3.644-4.832l.044-.038h0a24.986,24.986,0,0,0,3.448-12.714ZM228.452,89.168A11.053,11.053,0,1,1,239.5,78.115a11.053,11.053,0,0,1-11.053,11.053Z" fill="#f5f5f5"/>
        <path id="Path_592" data-name="Path 592" d="M272.758,121.322a13.541,13.541,0,1,0-25.175,6.84h0l.038.051c.518.872,1.168,1.5,1.825,2.419l7.863,10.415a2.438,2.438,0,0,0,3.9,0l7.731-10.244a28.964,28.964,0,0,0,1.971-2.6v-.038h0a13.44,13.44,0,0,0,1.851-6.84Zm-13.541,5.893a5.956,5.956,0,1,1,4.216-1.742,5.956,5.956,0,0,1-4.216,1.742Z" fill="#ebebeb"/>
      </g>
      <g id="freepik--Table--inject-65">
        <path id="Path_593" data-name="Path 593" d="M297.712,292.912c0,.095-62.6.164-139.808.164s-139.821-.069-139.821-.164,62.59-.164,139.821-.164S297.712,292.823,297.712,292.912Z" fill="#263238"/>
      </g>
      <g id="freepik--Character--inject-65">
        <path id="Path_594" data-name="Path 594" d="M119.591,75.121l4.156,58.864a18.354,18.354,0,0,0,18.316,17.053h0a18.354,18.354,0,0,0,18.316-19.579c-.366-5.6-.7-10.188-.7-10.188s14.255-2.217,14.432-16.465c.1-8.211-1.32-26.906-2.526-41.211a18.689,18.689,0,0,0-18.626-17.1h-8.634a26.369,26.369,0,0,0-24.733,28.624Z" fill="#b78876"/>
        <path id="Path_595" data-name="Path 595" d="M159.691,121.094a33.124,33.124,0,0,1-18.575-5.28s4.39,10.257,18.607,8.975Z" fill="#aa6550"/>
        <path id="Path_596" data-name="Path 596" d="M167.131,80.843a2.034,2.034,0,0,1-1.964,2.053,1.945,1.945,0,0,1-2.1-1.832,2.04,2.04,0,0,1,1.958-2.059,1.952,1.952,0,0,1,2.1,1.838Z" fill="#263238"/>
        <path id="Path_597" data-name="Path 597" d="M169.1,77.913c-.253.265-1.794-.872-3.979-.865s-3.79,1.1-4.036.834c-.114-.12.145-.632.84-1.112a5.59,5.59,0,0,1,3.227-.992,5.318,5.318,0,0,1,3.158,1.023C169,77.319,169.228,77.8,169.1,77.913Z" fill="#263238"/>
        <path id="Path_598" data-name="Path 598" d="M145.764,80.843A2.034,2.034,0,0,1,143.8,82.9a1.945,1.945,0,0,1-2.1-1.832,2.04,2.04,0,0,1,1.964-2.059,1.952,1.952,0,0,1,2.1,1.838Z" fill="#263238"/>
        <path id="Path_599" data-name="Path 599" d="M147.583,78.317c-.253.265-1.8-.878-3.985-.872s-3.79,1.105-4.036.834c-.114-.12.139-.594.84-1.105a5.684,5.684,0,0,1,3.227-1,5.444,5.444,0,0,1,3.158,1.023C147.476,77.723,147.7,78.2,147.583,78.317Z" fill="#263238"/>
        <path id="Path_600" data-name="Path 600" d="M155.529,94.561a14.273,14.273,0,0,1,3.556-.632c.556-.063,1.086-.171,1.181-.556a2.823,2.823,0,0,0-.373-1.655q-.783-2.027-1.655-4.257c-2.293-6.063-3.96-11.046-3.714-11.135s2.305,4.75,4.6,10.806q.827,2.248,1.585,4.288A3.212,3.212,0,0,1,161,93.614a1.377,1.377,0,0,1-.916.815,3.468,3.468,0,0,1-.947.133A14.293,14.293,0,0,1,155.529,94.561Z" fill="#263238"/>
        <path id="Path_601" data-name="Path 601" d="M149.086,96.077c.354,0,.36,2.356,2.394,4.042s4.56,1.427,4.579,1.756c.038.152-.562.461-1.63.493a5.924,5.924,0,0,1-3.827-1.333,5.147,5.147,0,0,1-1.857-3.392C148.657,96.633,148.922,96.065,149.086,96.077Z" fill="#263238"/>
        <path id="Path_602" data-name="Path 602" d="M148.145,69.74c-.215.632-2.4.316-4.971.632s-4.648,1.011-4.99.474c-.152-.253.208-.815,1.048-1.389a8.71,8.71,0,0,1,7.579-.84C147.792,68.995,148.24,69.475,148.145,69.74Z" fill="#263238"/>
        <path id="Path_603" data-name="Path 603" d="M168.3,71.578c-.385.5-1.895,0-3.707-.044s-3.347.335-3.7-.183c-.158-.253.082-.752.758-1.225a5.356,5.356,0,0,1,5.969.189C168.255,70.82,168.47,71.369,168.3,71.578Z" fill="#263238"/>
        <path id="Path_604" data-name="Path 604" d="M124.423,85.814c-.246-.107-9.79-2.893-9.474,6.846s10.023,7.421,10.036,7.137S124.423,85.814,124.423,85.814Z" fill="#b78876"/>
        <path id="Path_605" data-name="Path 605" d="M121.859,96.2c-.044,0-.164.126-.448.265a1.712,1.712,0,0,1-1.263.069c-1.042-.347-1.958-1.952-2.065-3.707a5.684,5.684,0,0,1,.4-2.444,1.971,1.971,0,0,1,1.263-1.345.865.865,0,0,1,1.017.436c.139.265.082.461.133.48s.208-.171.114-.575a1.074,1.074,0,0,0-.4-.594,1.263,1.263,0,0,0-.947-.221,2.394,2.394,0,0,0-1.724,1.566,5.836,5.836,0,0,0-.5,2.735c.126,1.964,1.187,3.79,2.608,4.131a1.819,1.819,0,0,0,1.547-.309C121.846,96.444,121.9,96.222,121.859,96.2Z" fill="#aa6550"/>
        <path id="Path_606" data-name="Path 606" d="M118.979,85.485c1.484-.36,4.055,1.011,4.686,2.4s.771,2.968,1.4,4.364,2.059,2.646,3.55,2.293a2.987,2.987,0,0,0,2.027-2.217,8.211,8.211,0,0,0,.032-3.158c-.575-4.547-1.528-9.057-1.712-13.642s.467-9.341,2.874-13.263,6.821-6.777,11.369-6.4c3.025.24,5.8,1.819,8.811,2.242a11.893,11.893,0,0,0,9.891-3.3c.328-.322,1.844-1.326,1.844-1.326,0-.234-.221-2.267-1.023-3.013-5.969-5.514-16.718-7.055-24.6-5.053s-15.272,7.579-18.663,14.931-2.381,17.684-.512,25.137" fill="#263238"/>
        <path id="Path_607" data-name="Path 607" d="M171.716,61.428s-37.377-12-53.546,20.312c0,0-2.419-8.091-2.419-12.43,0-2.9,1.731-20.154,19.491-25.586C135.242,43.725,161.99,33.518,171.716,61.428Z" fill="#fff"/>
        <path id="Path_608" data-name="Path 608" d="M139.581,62.237a8.135,8.135,0,0,0,12.941,1.175,4.794,4.794,0,0,0,9.063-.474,10.825,10.825,0,0,0,3.638,2.653,3.7,3.7,0,0,0,4.15-.865,3.659,3.659,0,0,0-.259-4.288,8.842,8.842,0,0,0-3.79-2.526,27.329,27.329,0,0,0-14.11-2.135,18.949,18.949,0,0,0-12.367,6.733" fill="#263238"/>
        <g id="Group_35" data-name="Group 35" opacity="0.4">
          <path id="Path_609" data-name="Path 609" d="M171.716,61.428a17.375,17.375,0,0,0-11.886-5.4c-11.028-.486-31.662,5.716-41.685,25.712,0,0-2.419-8.091-2.419-12.43,0-2.9,1.731-20.154,19.491-25.586C135.242,43.725,161.99,33.518,171.716,61.428Z"/>
        </g>
        <path id="Path_610" data-name="Path 610" d="M119.73,77.957a70.023,70.023,0,0,1,21.777-20.842c8.6-5.35,22.8-10.674,32.59-13.263,2.943-.783,6.006-1.465,9.006-.947s5.931,2.526,6.67,5.463c.935,3.695-5.621,9.392-8.7,11.628a101.6,101.6,0,0,1-9.36,5.526s.088-6.846-10.876-8.255C145.935,55.314,119.73,77.957,119.73,77.957Z" fill="#fff"/>
        <path id="Path_611" data-name="Path 611" d="M150.387,50.022a35.191,35.191,0,0,1,10.794-3.676,14.072,14.072,0,0,0-2.937-1.756,27.746,27.746,0,0,0-8.413,2.83Z" fill="#e0e0e0"/>
        <path id="Path_612" data-name="Path 612" d="M180.723,133.556l-11.855-2.615-4.825-1.206-4.017-6.227s-1.895,11.135-9.089,17.129a8.343,8.343,0,0,1-7.067,1.693c-1.623-.341-3.531-.758-4.945-1.137-.3-.082-.632-.189-.985-.316a23.122,23.122,0,0,1-12.209-10.529c-1.592-2.83-2.937-5.735-2.476-6.84l-5.627,11.653L84.469,150.432,65.641,196.424l36.487,10.788,1.137,37.9L96.393,292.88l103.22.069L195.95,186.66" fill="#fff"/>
        <path id="Path_613" data-name="Path 613" d="M154.038,174.7a3.973,3.973,0,0,1-.632,0l-1.838-.044-6.562-.234h-.126v-.107c-.107-2.848-.24-6.221-.385-9.827-.171-5.2-.322-9.9-.442-13.352-.038-1.68-.069-3.051-.095-4.048v-1.1a1.516,1.516,0,0,1,0-.385,1.678,1.678,0,0,1,.044.379c0,.291.044.632.069,1.1.051,1,.12,2.368.2,4.042.139,3.455.328,8.154.537,13.345.126,3.613.24,6.985.341,9.834l-.139-.133,6.562.347,1.832.12a2.912,2.912,0,0,1,.632.063Z" fill="#263238"/>
        <path id="Path_614" data-name="Path 614" d="M148.423,159.35a.909.909,0,0,1,.493-.164,2.128,2.128,0,0,1,2.021,1.131,1.9,1.9,0,0,1,.183,1.149,2.324,2.324,0,0,1-1.686,1.895,2.444,2.444,0,0,1-2.4-.853,2.331,2.331,0,0,1-.455-2.04,2.482,2.482,0,0,1,.682-1.263c.24-.234.417-.309.423-.291s-.126.133-.328.379a2.665,2.665,0,0,0-.549,1.194,2.141,2.141,0,0,0,.455,1.8,2.192,2.192,0,0,0,2.1.733,2.04,2.04,0,0,0,1.459-1.629,1.718,1.718,0,0,0-.676-1.667,2,2,0,0,0-1.219-.436C148.594,159.312,148.423,159.375,148.423,159.35Z" fill="#263238"/>
        <path id="Path_615" data-name="Path 615" d="M147.305,146a1.011,1.011,0,0,1,.518-.24,2.242,2.242,0,0,1,1.541.227,2.2,2.2,0,0,1,.827.733,2.072,2.072,0,0,1,.347,1.232,2.476,2.476,0,0,1-1.667,2.242,2.526,2.526,0,0,1-2.64-.922,2.217,2.217,0,0,1-.461-1.187,2.615,2.615,0,0,1,.177-1.093,2.526,2.526,0,0,1,.992-1.2,1.03,1.03,0,0,1,.537-.2,3.412,3.412,0,0,0-.461.309,2.526,2.526,0,0,0-.846,1.175,2.078,2.078,0,0,0,.3,2.015,2.236,2.236,0,0,0,2.305.789,2.2,2.2,0,0,0,1.459-1.939,1.9,1.9,0,0,0-.979-1.75,2.286,2.286,0,0,0-1.408-.3C147.5,145.935,147.318,146.03,147.305,146Z" fill="#263238"/>
        <path id="Path_616" data-name="Path 616" d="M143.945,196.98a.88.88,0,0,1,.158-.069l.474-.183c.423-.145,1.023-.411,1.787-.764a23.7,23.7,0,0,0,5.811-4.131,46.371,46.371,0,0,0,6.651-8.249,116.384,116.384,0,0,0,6.48-11.293,196.639,196.639,0,0,0,9.2-21.8c1.029-2.855,1.832-5.173,2.394-6.771l.632-1.844c.069-.189.133-.347.177-.474a.878.878,0,0,1,.069-.158.632.632,0,0,1-.038.171c-.038.126-.088.284-.145.486-.145.448-.341,1.067-.587,1.895-.524,1.611-1.295,3.941-2.305,6.8a181.851,181.851,0,0,1-9.108,21.828,112.766,112.766,0,0,1-6.518,11.312A45.538,45.538,0,0,1,152.333,192a22.97,22.97,0,0,1-5.912,4.074,17.048,17.048,0,0,1-1.825.714l-.486.152a.557.557,0,0,1-.164.038Z" fill="#263238"/>
        <path id="Path_617" data-name="Path 617" d="M165.691,184.367c.272,0,6.556-.429,6.556-.429s-2.6,4.585-5.3,6.316h-5.5Z" fill="#fafafa"/>
        <path id="Path_618" data-name="Path 618" d="M142.846,210.868a2.039,2.039,0,0,1,.354-.272l1.061-.733c.916-.632,2.236-1.579,3.821-2.8,3.158-2.419,7.364-6.032,11.861-10.162,2.248-2.065,4.421-4.011,6.278-5.88a49.112,49.112,0,0,0,4.63-5.255,28.543,28.543,0,0,0,2.526-3.979c.278-.486.448-.884.581-1.15a2.236,2.236,0,0,1,.221-.4,2.651,2.651,0,0,1-.158.423c-.114.272-.272.682-.531,1.181a26.1,26.1,0,0,1-2.457,4.061,46.329,46.329,0,0,1-4.6,5.331c-1.863,1.895-4.023,3.846-6.272,5.905a155.352,155.352,0,0,1-11.937,10.105c-1.611,1.194-2.956,2.1-3.891,2.716-.474.3-.846.524-1.1.682A1.971,1.971,0,0,1,142.846,210.868Z" fill="#263238"/>
        <path id="Path_619" data-name="Path 619" d="M125.137,281.057a.281.281,0,0,1,.076-.152,4.276,4.276,0,0,0,.259-.417c.234-.36.587-.891,1.061-1.56.947-1.326,2.413-3.2,4.345-5.394,3.891-4.364,9.341-10.32,15.341-16.914l15.468-16.857,4.705-5.053,1.263-1.371.341-.347.126-.114a1.292,1.292,0,0,1-.1.133l-.316.373-1.263,1.415-4.63,5.147-15.348,16.876-15.411,16.851c-1.952,2.173-3.442,4.011-4.421,5.312-.486.632-.859,1.168-1.105,1.522l-.284.4a1.151,1.151,0,0,1-.107.152Z" fill="#263238"/>
        <path id="Path_620" data-name="Path 620" d="M179.9,133.265c.543.815,12.745,2.173,15.733,5.154s32.843,25.769,32.843,25.769L207.2,192.824,193.468,189.8Z" fill="#fff"/>
        <path id="Path_621" data-name="Path 621" d="M224.858,161.409,201,191.46l6.2,1.364,21.253-28.668Z" opacity="0.4"/>
        <path id="Path_622" data-name="Path 622" d="M186.4,163.076a6.879,6.879,0,0,1-.246-1c-.069-.322-.152-.72-.208-1.187s-.152-1-.183-1.592-.095-1.263-.095-1.939,0-1.44.057-2.223a30.812,30.812,0,0,1,.789-5.053,30.357,30.357,0,0,1,1.7-4.819c.335-.707.632-1.389.992-2s.669-1.168.992-1.667.632-.928.909-1.314a11.662,11.662,0,0,1,.739-.954,5.906,5.906,0,0,1,.688-.764,6.244,6.244,0,0,1-.587.84c-.2.265-.436.587-.688.985s-.575.821-.865,1.333-.632,1.055-.947,1.674-.632,1.263-.954,1.983a32.847,32.847,0,0,0-1.629,4.781,33.216,33.216,0,0,0-.8,4.983c-.044.777-.1,1.516-.082,2.2s0,1.333.051,1.895.088,1.118.133,1.585.1.865.152,1.187a5.491,5.491,0,0,1,.088,1.055Z" fill="#263238"/>
        <path id="Path_623" data-name="Path 623" d="M195.95,186.622a61.71,61.71,0,0,1-2.634-5.83,62.6,62.6,0,0,1-2.337-5.95,62.937,62.937,0,0,1,2.64,5.823A60.425,60.425,0,0,1,195.95,186.622Z" fill="#263238"/>
        <path id="Path_624" data-name="Path 624" d="M102.128,165.817c-.051,0-.562-.916-1.528-2.337a33.563,33.563,0,0,0-4.307-5.135,34.188,34.188,0,0,0-5.255-4.15c-1.453-.922-2.406-1.4-2.381-1.453a3.157,3.157,0,0,1,.695.284,20.363,20.363,0,0,1,1.806.973,29.172,29.172,0,0,1,5.368,4.112,29.616,29.616,0,0,1,4.27,5.242c.461.733.808,1.339,1.023,1.775a3.076,3.076,0,0,1,.31.688Z" fill="#263238"/>
        <path id="Path_625" data-name="Path 625" d="M65.641,196.4l1.472-3.581,40.358,10.99-1.6,4.491Z" opacity="0.4"/>
        <path id="Path_626" data-name="Path 626" d="M173.384,182.251H188.75v6.316l-19.661-.126A42.528,42.528,0,0,0,173.384,182.251Z" fill="#fafafa"/>
        <g id="Group_36" data-name="Group 36" opacity="0.2">
          <path id="Path_627" data-name="Path 627" d="M118.574,136.549c.556,4.926,1.162,10.011,3.6,14.331s7.206,7.724,12.114,7c3.272-.486,6.044-2.672,8.274-5.122s4.1-5.223,6.531-7.465a28.8,28.8,0,0,0,4.9,4.213,9.607,9.607,0,0,0,6.145,1.623,4.177,4.177,0,0,0,4-3.158,10.115,10.115,0,0,1-5.823.164,15.922,15.922,0,0,1-6.891-3.158c-1.339-1.055-1.825-2.64-3.524-2.526-1.573.088-2.8,1.333-3.84,2.526a44.21,44.21,0,0,1-5.482,5.28c-1.895,1.5-3.726,2.526-6.139,2.457-3.973-.088-7.225-3.208-9.417-6.524A32.7,32.7,0,0,1,118.6,136.2"/>
        </g>
        <path id="Path_628" data-name="Path 628" d="M165.085,130.4a1.636,1.636,0,0,1,.069.354c0,.234.076.575.12,1.017.095.884.189,2.166.227,3.79a53.717,53.717,0,0,1-1.181,12.36v.2h-.095a13.377,13.377,0,0,1-6.8-.183,15.916,15.916,0,0,1-5.053-2.362,13.011,13.011,0,0,1-2.76-2.526,8.836,8.836,0,0,1-.594-.821,1.9,1.9,0,0,1-.183-.309,16.144,16.144,0,0,0,3.663,3.486,16.327,16.327,0,0,0,4.99,2.261,13.352,13.352,0,0,0,6.644.158l-.12.12v-.1a57.65,57.65,0,0,0,1.263-12.291c0-1.585-.069-2.867-.12-3.758,0-.411-.044-.745-.063-1.017a1.313,1.313,0,0,1-.006-.379Z" fill="#263238"/>
        <path id="Path_629" data-name="Path 629" d="M145.9,142.865a1.6,1.6,0,0,1-.2.379,10.378,10.378,0,0,1-.695,1.011,27.2,27.2,0,0,1-3.107,3.278c-.7.632-1.491,1.333-2.343,2.053-.429.36-.859.739-1.339,1.118a12.459,12.459,0,0,1-1.56,1,9.594,9.594,0,0,1-3.79,1.156,7.168,7.168,0,0,1-4.168-.922,13.213,13.213,0,0,1-3.265-2.747,32.3,32.3,0,0,1-2.463-3.107,31.845,31.845,0,0,1-3.215-5.88,30.259,30.259,0,0,1-1.415-4.282c-.133-.518-.215-.922-.265-1.2a2.148,2.148,0,0,1-.063-.423,1.857,1.857,0,0,1,.126.411c.076.272.177.669.322,1.181a35.817,35.817,0,0,0,1.509,4.225,32.71,32.71,0,0,0,3.253,5.792,31.921,31.921,0,0,0,2.451,3.063,12.973,12.973,0,0,0,3.158,2.684,6.9,6.9,0,0,0,3.985.884,9.512,9.512,0,0,0,3.688-1.1,11.734,11.734,0,0,0,1.535-.973c.461-.354.9-.739,1.333-1.093.859-.714,1.655-1.383,2.362-2.015a30.318,30.318,0,0,0,3.158-3.158c.335-.4.581-.739.745-.966A2.638,2.638,0,0,1,145.9,142.865Z" fill="#263238"/>
        <path id="Path_630" data-name="Path 630" d="M132.292,215.435l4.87-7.1s3.347-11.634,2.893-13.263-1.933-7.693-1.585-7.769,3.992-1.427,5.969,3.436a31.925,31.925,0,0,1,1.768,9.6,2.2,2.2,0,0,0,2.646,2.059c3.366-.695,8.969-1.749,10.3-1.427a6.551,6.551,0,0,1,3.827,3.752c.164.827-1.162,2.691-1.162,2.691a5.07,5.07,0,0,1,2.147,2.109c.069.171.126.341.177.505a3.057,3.057,0,0,1-.676,2.956l-.518.568s2.053.562,2.305,1.737a7.017,7.017,0,0,1-.069,2.583l-1.926,1.99a3.253,3.253,0,0,1,1,1.895c.1,1.086-2.785,3.79-2.785,3.79l-12.385,4.421-4.914,1.263Z" fill="#b78876"/>
        <path id="Path_631" data-name="Path 631" d="M161.857,207.426a43.912,43.912,0,0,1-4.295.928,42.671,42.671,0,0,1-4.307.821,5.369,5.369,0,0,1,1.219-.423c.764-.215,1.832-.48,3.025-.72s2.274-.417,3.07-.518a4.831,4.831,0,0,1,1.288-.088Z" fill="#aa6550"/>
        <path id="Path_632" data-name="Path 632" d="M162.988,213.553a18.132,18.132,0,0,1-3.278,1.168,18.316,18.316,0,0,1-3.373.859,18.13,18.13,0,0,1,3.278-1.168,18.315,18.315,0,0,1,3.373-.859Z" fill="#aa6550"/>
        <path id="Path_633" data-name="Path 633" d="M163.727,219.6a22.693,22.693,0,0,1-3.48,1.7,22.8,22.8,0,0,1-3.613,1.4,22.692,22.692,0,0,1,3.48-1.7A22.8,22.8,0,0,1,163.727,219.6Z" fill="#aa6550"/>
        <path id="Path_634" data-name="Path 634" d="M103.757,259.3l45.55-30.556-11.495-20.842L96.241,229.285l4.718-22.459-28.213-8.35L65.685,236.94h0c-1.086,17.1,12.632,30.91,29.167,26.419h0a30.127,30.127,0,0,0,8.905-4.055Z" fill="#b78876"/>
        <path id="Path_635" data-name="Path 635" d="M90.222,241.374a1.926,1.926,0,0,1-.158-.575,10.56,10.56,0,0,1-.158-1.611A11.369,11.369,0,0,1,91.081,234a11.255,11.255,0,0,1,3.442-4.055A9.284,9.284,0,0,1,95.9,229.1a2,2,0,0,1,.556-.221c0,.057-.739.417-1.794,1.263a11.767,11.767,0,0,0-4.522,9.063C90.109,240.534,90.317,241.368,90.222,241.374Z" fill="#aa6550"/>
        <path id="Path_636" data-name="Path 636" d="M207.2,192.824c.284-.392,32.438,19.2,32.438,19.2l10.308,46.959,14.836,5.444s4.63-52.258,1.105-60.392-39.253-37.4-39.253-37.4Z" fill="#b78876"/>
        <path id="Path_637" data-name="Path 637" d="M246.66,208.424a8.482,8.482,0,0,1-2.785,2.627,8.6,8.6,0,0,1-3.549,1.453,35.9,35.9,0,0,0,3.373-1.731,33.773,33.773,0,0,0,2.962-2.35Z" fill="#aa6550"/>
        <path id="Path_638" data-name="Path 638" d="M168.527,192.925l2.52,45.07,51.386-3.474-1.554-33.55L213.395,190.9Z" fill="#263238"/>
        <path id="Path_639" data-name="Path 639" d="M156.849,239c.152.865,4.516,41.685,4.516,41.685l76.479-5.312,12.941-1.737-5.969-38.009-9.139-2.192Z" fill="#fff"/>
        <path id="Path_640" data-name="Path 640" d="M235.677,233.429,156.849,239c.152.865,4.516,41.685,4.516,41.685l79.624-5.539Z" opacity="0.4"/>
        <path id="Path_641" data-name="Path 641" d="M214.727,235.039,171.047,238l-2.52-45.07,44.868-2.027Z" fill="#455a64"/>
        <path id="Path_642" data-name="Path 642" d="M184.815,192.192l.922,13.889,2.337-1.339,1.295,1.339,1.611-1.339,2.488,1.339V191.8Z" fill="#263238"/>
        <path id="Path_643" data-name="Path 643" d="M203.075,235.987l-2.987-33.828,29.2,8.046,2.817,23.35Z" fill="#fff"/>
        <path id="Path_644" data-name="Path 644" d="M229.267,210.212a1.344,1.344,0,0,1-.183.24l-.562.663-2.147,2.451-7.459,8.369-.114.126-.12-.12-3.941-4.168-10.4-10.99-3.126-3.36-.84-.922a1.8,1.8,0,0,1-.272-.341,2.522,2.522,0,0,1,.322.291l.884.884,3.2,3.284,10.472,10.926,3.966,4.175h-.234l7.579-8.293,2.217-2.387.6-.632A1.262,1.262,0,0,1,229.267,210.212Z" fill="#263238"/>
        <path id="Path_645" data-name="Path 645" d="M212.915,216.477c.082.044-2,4.036-4.648,8.918s-4.857,8.8-4.939,8.76,2-4.036,4.648-8.918S212.845,216.433,212.915,216.477Z" fill="#263238"/>
        <path id="Path_646" data-name="Path 646" d="M231.42,233.555c-.076.044-2.1-3.19-4.516-7.219s-4.32-7.345-4.238-7.4,2.1,3.189,4.516,7.225S231.5,233.511,231.42,233.555Z" fill="#263238"/>
        <path id="Path_647" data-name="Path 647" d="M218.757,234.667l-1.907-21.543,18.594,5.128,1.794,14.868Z" fill="#fff"/>
        <path id="Path_648" data-name="Path 648" d="M218.757,234.667l-1.907-21.543,18.594,5.128,1.794,14.868Z" fill="#fff" opacity="0.4"/>
        <path id="Path_649" data-name="Path 649" d="M235.443,218.252a3.577,3.577,0,0,1-.461.587c-.347.411-.8.935-1.352,1.573l-4.737,5.343-.114.133-.12-.126-2.526-2.653c-2.6-2.722-4.933-5.2-6.613-7.011l-1.971-2.154a6.182,6.182,0,0,1-.695-.821,6.584,6.584,0,0,1,.783.733l2.053,2.078c1.724,1.768,4.086,4.225,6.682,6.947l2.526,2.659h-.265l4.819-5.267,1.427-1.51A4.019,4.019,0,0,1,235.443,218.252Z" fill="#263238"/>
        <path id="Path_650" data-name="Path 650" d="M225.022,222.243a62.562,62.562,0,0,1-2.912,5.684,61.27,61.27,0,0,1-3.2,5.552,61.108,61.108,0,0,1,2.905-5.684,60.338,60.338,0,0,1,3.2-5.552Z" fill="#263238"/>
        <path id="Path_651" data-name="Path 651" d="M236.808,233.119a45.043,45.043,0,0,1-2.931-4.566,43.042,43.042,0,0,1-2.646-4.743,92.85,92.85,0,0,1,5.577,9.31Z" fill="#263238"/>
        <path id="Path_652" data-name="Path 652" d="M230.605,217.342v1.731l2.716.316.145-1.32Z" fill="#fff"/>
        <path id="Path_653" data-name="Path 653" d="M221.018,208.557v2.526l5.128.846.284-1.933Z" fill="#fff"/>
        <path id="Path_654" data-name="Path 654" d="M201,248.58l-.253-12.594-10.213.688,1.093,12.8Z" fill="#fff"/>
        <rect id="Rectangle_487" data-name="Rectangle 487" width="17.223" height="15.234" transform="translate(217.162 256.823) rotate(-5.42)" fill="#fafafa"/>
        <path id="Path_655" data-name="Path 655" d="M235.721,270.383a2.257,2.257,0,0,1-.044-.291c0-.208-.057-.48-.095-.821-.076-.733-.189-1.775-.328-3.082-.272-2.665-.632-6.43-1.112-10.958l.152.126-17.135,1.648c-.038.038.278-.335.145-.177h0v.5l.051.518.095,1.023c.069.676.133,1.345.2,2.015.12,1.333.246,2.634.366,3.91.234,2.526.461,4.958.663,7.187l-.158-.126,12.373-1.1,3.512-.3.941-.069a2.181,2.181,0,0,1,.335,0,1.833,1.833,0,0,1-.3.044l-.909.107-3.474.366-12.449,1.263H218.4v-.145c-.221-2.236-.455-4.648-.7-7.187q-.177-1.895-.373-3.91c-.063-.669-.126-1.339-.189-2.021-.032-.335-.063-.676-.1-1.017l-.044-.518v-.5h0c-.133.158.177-.221.152-.183l17.141-1.6h.139v.139c.4,4.566.739,8.369.979,11.059.107,1.295.189,2.324.253,3.057,0,.335.044.6.057.8a1.6,1.6,0,0,1,.006.234Z" fill="#263238"/>
        <path id="Path_656" data-name="Path 656" d="M232.942,258.85c0,.095-2.987.48-6.695.872a67.078,67.078,0,0,1-6.726.543c0-.088,2.987-.48,6.695-.872S232.936,258.762,232.942,258.85Z" fill="#263238"/>
        <path id="Path_657" data-name="Path 657" d="M232.841,261.427a9.512,9.512,0,0,1-1.838.461c-1.149.227-2.747.493-4.522.7s-3.4.322-4.566.36a10.585,10.585,0,0,1-1.895,0,11.623,11.623,0,0,1,1.895-.215c1.162-.107,2.766-.253,4.535-.461s3.366-.436,4.522-.632a12.629,12.629,0,0,1,1.87-.215Z" fill="#263238"/>
        <path id="Path_658" data-name="Path 658" d="M233.568,267.061a9.868,9.868,0,0,1-1.844.461c-1.149.227-2.747.493-4.522.7s-3.392.322-4.566.36a9.807,9.807,0,0,1-1.895,0,11.6,11.6,0,0,1,1.895-.215c1.162-.1,2.773-.253,4.541-.461s3.366-.436,4.522-.632A12.539,12.539,0,0,1,233.568,267.061Z" fill="#263238"/>
        <path id="Path_659" data-name="Path 659" d="M232.7,264.174a58.618,58.618,0,0,1-6.246,1.061,60.318,60.318,0,0,1-6.316.733,62.709,62.709,0,0,1,6.246-1.061,62.461,62.461,0,0,1,6.316-.733Z" fill="#263238"/>
        <path id="Path_660" data-name="Path 660" d="M247.842,287.663s14.116-9.341,15.2-14.116,1.737-9.12,1.737-9.12L249.7,258.181l1.5,5.432s-5.406,3.215-5.962,7.112c-.366,2.6-7.358,7.042-7.358,7.042h0a5.766,5.766,0,0,0-4.819-2.078l-5.874.417,3.973,8.95Z" fill="#b78876"/>
        <path id="Path_661" data-name="Path 661" d="M253.355,274.861a2.25,2.25,0,0,1-.663.272c-.442.145-1.1.291-1.895.543a7.68,7.68,0,0,0-2.451,1.427A12.285,12.285,0,0,1,245.328,279a10.244,10.244,0,0,1-6.4.537,3.442,3.442,0,0,1-1.067-.4.783.783,0,0,1-.392-.783.581.581,0,0,1,.316-.455.235.235,0,0,1,.2,0,.309.309,0,0,0-.164.069.537.537,0,0,0-.221.417.632.632,0,0,0,.366.632,3.55,3.55,0,0,0,1.023.322,10.51,10.51,0,0,0,6.221-.632,12.321,12.321,0,0,0,2.956-1.857,7.636,7.636,0,0,1,2.564-1.4c.808-.227,1.465-.335,1.895-.448A4.742,4.742,0,0,1,253.355,274.861Z" fill="#aa6550"/>
        <path id="Path_662" data-name="Path 662" d="M243.578,282.105c0,.051-.726-.366-1.926-.865a17.572,17.572,0,0,0-4.895-1.219c-.493-.051-.979-.063-1.446-.076h-.088l-.051-.076a15.159,15.159,0,0,0-2.621-3.095c-.764-.688-1.263-1.042-1.263-1.08s.152.051.392.2a11.586,11.586,0,0,1,.985.714,13.207,13.207,0,0,1,2.76,3.088l-.133-.076a9.826,9.826,0,0,1,1.478.076,15.492,15.492,0,0,1,4.958,1.333,12.231,12.231,0,0,1,1.371.733,1.9,1.9,0,0,1,.48.341Z" fill="#aa6550"/>
        <path id="Path_663" data-name="Path 663" d="M247.393,279.541c0,.088-.954.448-2.065,1.08s-1.926,1.295-1.989,1.219a6.872,6.872,0,0,1,4.055-2.3Z" fill="#aa6550"/>
        <path id="Path_664" data-name="Path 664" d="M255.042,262.741c0,.1-.985,0-2.11.284s-1.895.865-1.983.783a4.124,4.124,0,0,1,4.093-1.067Z" fill="#aa6550"/>
      </g>
      <g id="freepik--Plant--inject-65">
        <path id="Path_665" data-name="Path 665" d="M49.119,257.353c1.857,2.211,5,1.143,6.354-.429s1.8-3.707,2.2-5.747c.9-4.661,1.794-9.543.4-14.084a7.775,7.775,0,0,0-2.116-3.632,4.061,4.061,0,0,0-3.947-.928c-1.579.568-2.444,2.242-3.032,3.79a33.279,33.279,0,0,0-2.008,14.527,11.551,11.551,0,0,0,2.147,6.461" fill="#fff"/>
        <g id="Group_37" data-name="Group 37" opacity="0.2">
          <path id="Path_666" data-name="Path 666" d="M49.119,257.353c1.857,2.211,5,1.143,6.354-.429s1.8-3.707,2.2-5.747c.9-4.661,1.794-9.543.4-14.084a7.775,7.775,0,0,0-2.116-3.632,4.061,4.061,0,0,0-3.947-.928c-1.579.568-2.444,2.242-3.032,3.79a33.279,33.279,0,0,0-2.008,14.527,11.551,11.551,0,0,0,2.147,6.461"/>
        </g>
        <path id="Path_667" data-name="Path 667" d="M56.363,268.741a14.507,14.507,0,0,1,8.779-1.895,7.433,7.433,0,0,1,4.56,1.566c1.206,1.112,1.6,3.221.436,4.371a4.206,4.206,0,0,1-2.7.947c-2.35.183-4.99,0-6.733,1.585-1,.9-1.592,2.3-2.836,2.811a3.038,3.038,0,0,1-3.455-1.181,5.179,5.179,0,0,1-.714-3.79,5.836,5.836,0,0,1,2.665-4.415Z" fill="#fff"/>
        <path id="Path_668" data-name="Path 668" d="M44.887,261.143a8.609,8.609,0,0,0,.632-8.015,15.3,15.3,0,0,0-5.28-6.36,25.315,25.315,0,0,0-8.842-4.194,9.051,9.051,0,0,0-3.827-.3,3.985,3.985,0,0,0-2.937,2.2c-.726,1.756.3,3.72,1.358,5.3a64.839,64.839,0,0,0,6.221,7.882c1.838,1.977,3.916,3.9,6.512,4.642s5.192.385,6.373-1.472" fill="#fff"/>
        <path id="Path_669" data-name="Path 669" d="M52.182,292.918a5.249,5.249,0,0,0,.051-1.086v-2.943a41.553,41.553,0,0,1,.278-4.352,32.842,32.842,0,0,1,1.105-5.2,18.568,18.568,0,0,1,2.173-4.806,9.682,9.682,0,0,1,3.025-3.006,9.139,9.139,0,0,1,2.672-1.105,6.2,6.2,0,0,0,1.055-.246,4.679,4.679,0,0,0-1.086.076,8.513,8.513,0,0,0-2.8,1,9.732,9.732,0,0,0-3.2,3.051,18.575,18.575,0,0,0-2.261,4.907,31.313,31.313,0,0,0-1.086,5.28,37.156,37.156,0,0,0-.183,4.39c0,1.263.076,2.261.12,2.956a4.756,4.756,0,0,0,.145,1.08Z" fill="#263238"/>
        <path id="Path_670" data-name="Path 670" d="M52.182,290.651a2.483,2.483,0,0,0,0-.5c0-.373-.076-.846-.126-1.421-.114-1.232-.272-3.019-.4-5.23-.284-4.421-.448-10.535-.316-17.287s.581-12.859,1.093-17.255c.114-1.105.234-2.1.36-2.968s.215-1.623.316-2.23.152-1.042.208-1.415a2.255,2.255,0,0,0,.044-.5,1.819,1.819,0,0,0-.133.486c-.076.366-.171.827-.291,1.4s-.253,1.358-.392,2.23-.291,1.857-.429,2.962a161.4,161.4,0,0,0-1.219,17.287c-.133,6.764.076,12.9.442,17.318.171,2.211.379,4,.549,5.223.082.575.158,1.042.208,1.415A2.406,2.406,0,0,0,52.182,290.651Z" fill="#263238"/>
        <path id="Path_671" data-name="Path 671" d="M51.159,278.878a9.151,9.151,0,0,0-.139-1.484c-.145-.947-.4-2.312-.815-3.979a54.12,54.12,0,0,0-1.832-5.741,52.138,52.138,0,0,0-3.07-6.714,37.1,37.1,0,0,0-8.211-10.566,20.014,20.014,0,0,0-1.838-1.421c-.278-.2-.524-.392-.777-.543l-.695-.4a10.446,10.446,0,0,0-1.32-.688,41.747,41.747,0,0,1,4.421,3.291A39.07,39.07,0,0,1,44.9,261.168a56.155,56.155,0,0,1,3.1,6.625,54.756,54.756,0,0,1,1.895,5.684c.455,1.648.752,2.994.947,3.928A9.19,9.19,0,0,0,51.159,278.878Z" fill="#263238"/>
      </g>
    </g>
  </g>
</svg>
