<svg xmlns="http://www.w3.org/2000/svg" xmlns:xlink="http://www.w3.org/1999/xlink" width="82" height="82" viewBox="0 0 82 82">
  <defs>
    <clipPath id="clip-path">
      <rect id="Rectangle_7" data-name="Rectangle 7" width="82" height="82" transform="translate(884 1806)" fill="#f0f0f0"/>
    </clipPath>
  </defs>
  <g id="Mask_Group_12" data-name="Mask Group 12" transform="translate(-884 -1806)" clip-path="url(#clip-path)">
    <g id="wait-time" transform="translate(884 1806)">
      <path id="Path_1002" data-name="Path 1002" d="M64.184,22.445l-26.643,0-2.474,0H32.734l-26.677,0a2.4,2.4,0,0,1-.912-3.275L14.761,2.139A4.287,4.287,0,0,1,18.463,0H51.674a4.286,4.286,0,0,1,3.7,2.134l9.709,17.032A2.4,2.4,0,0,1,64.184,22.445Z" fill="#ffd399"/>
      <path id="Path_1003" data-name="Path 1003" d="M64.184,22.445l-26.643,0-2.474,0V0H51.674a4.286,4.286,0,0,1,3.7,2.134l9.709,17.032A2.4,2.4,0,0,1,64.184,22.445Z" fill="#ffc477"/>
      <path id="Path_1004" data-name="Path 1004" d="M37.541,0V22.447l-2.474,0H32.734V0Z" fill="#fffce5"/>
      <path id="Path_1005" data-name="Path 1005" d="M37.541,0V22.447l-2.474,0V0Z" fill="#ffe89c"/>
      <path id="Path_1006" data-name="Path 1006" d="M65.641,21.209v48.9H10.432a5.945,5.945,0,0,1-5.939-5.939V21.418A4.232,4.232,0,0,1,8.72,17.191h52.9A4.023,4.023,0,0,1,65.641,21.209Z" fill="#ffc477"/>
      <path id="Path_1007" data-name="Path 1007" d="M65.641,21.209v48.9H35.067V17.191H61.622A4.023,4.023,0,0,1,65.641,21.209Z" fill="#ffb655"/>
      <path id="Path_1008" data-name="Path 1008" d="M77.507,64.253A17.747,17.747,0,1,1,59.76,46.505,17.766,17.766,0,0,1,77.507,64.253Z" fill="#b4deb2"/>
      <path id="Path_1009" data-name="Path 1009" d="M77.507,64.253A17.766,17.766,0,0,1,59.76,82V46.505A17.768,17.768,0,0,1,77.507,64.253Z" fill="#86c983"/>
      <path id="Path_1010" data-name="Path 1010" d="M69.7,64.253a2.4,2.4,0,0,1-2.4,2.4H59.76a2.4,2.4,0,0,1-2.4-2.4V56.241a2.4,2.4,0,1,1,4.807,0V61.85h5.128A2.4,2.4,0,0,1,69.7,64.253Z" fill="#fffce5"/>
      <path id="Path_1011" data-name="Path 1011" d="M69.7,64.253a2.4,2.4,0,0,1-2.4,2.4H59.76V53.838a2.4,2.4,0,0,1,2.4,2.4V61.85h5.128A2.4,2.4,0,0,1,69.7,64.253Z" fill="#ffe89c"/>
    </g>
  </g>
</svg>
