<svg xmlns="http://www.w3.org/2000/svg" xmlns:xlink="http://www.w3.org/1999/xlink" width="509" height="509" viewBox="0 0 509 509">
  <defs>
    <clipPath id="clip-path">
      <rect id="Rectangle_2" data-name="Rectangle 2" width="509" height="509" transform="translate(757 170)" fill="#f0f0f0"/>
    </clipPath>
  </defs>
  <g id="Mask_Group_8" data-name="Mask Group 8" transform="translate(-757 -170)" clip-path="url(#clip-path)">
    <g id="Messenger-pana_1_" data-name="Messenger-pana (1)" transform="translate(724.092 134.076)">
      <g id="freepik--background-complete--inject-65">
        <path id="Path_672" data-name="Path 672" d="M456.9,532.97c-30.057-11.908-43.85-43.965-49.953-74.263-1.023-5.057-2.828-10.218-1.483-15.184s6.2-9.3,11.184-8.253c4.149.874,6.8,4.816,9.736,7.908a30.149,30.149,0,0,0,14.437,8.448c3.586.908,7.782.977,10.517-1.506,3.77-3.448,2.862-9.517,1.644-14.506l-6.793-27.862c-1.218-4.977-2.437-10.069-2.011-15.184s2.816-10.345,7.253-12.77,10.942-1.149,13.1,3.54c.908,1.931.988,4.138,1.621,6.172s2.138,4.1,4.241,4.218,3.793-1.782,4.942-3.6c3.954-6.253,5.908-13.575,7.644-20.8s3.345-14.6,6.713-21.2,8.8-12.494,15.85-14.6,15.712.506,19.184,7.092,1.069,14.724-2.046,21.471a114.528,114.528,0,0,1-17.954,27.586c-1.3,1.483-2.724,3.092-2.885,5.092-.3,3.575,3.644,6.138,7.184,6.448,4.011.356,7.965-.988,11.965-1.448s8.621.253,10.965,3.575c3.253,4.6.253,10.977-3.115,15.471a97.9,97.9,0,0,1-24.379,22.988c-3.345,2.207-6.9,4.31-9.287,7.586s-3.069,8.2-.448,11.287,7.483,3.126,11.161,1.506,6.621-4.529,9.965-6.782c6.241-4.218,15.207-5.85,21.011-.965,3.8,3.218,5.356,8.575,4.988,13.575s-2.368,9.69-4.6,14.126c-7.977,15.552-19.586,29.344-34.183,38.54s-28.988,14.276-46.172,12.253" fill="#f5f5f5"/>
        <path id="Path_673" data-name="Path 673" d="M460.189,512.281a459.419,459.419,0,0,1,6.333-52.356q1.149-6.9,2.368-13.643c.782-4.471,1.563-8.908,2.6-13.207a228.54,228.54,0,0,1,7.333-24.333c2.7-7.621,5.552-14.758,8.264-21.413s5.379-12.8,8.046-18.31a180.966,180.966,0,0,1,14.483-25.011c1.931-2.8,3.506-4.942,4.6-6.368q.793-1.011,1.241-1.621a3.017,3.017,0,0,1,.46-.529,4.254,4.254,0,0,1-.379.6l-1.149,1.667c-1.034,1.471-2.563,3.632-4.448,6.46a194.378,194.378,0,0,0-14.184,25.1c-2.609,5.506-5.23,11.655-7.919,18.31s-5.494,13.793-8.172,21.425a232.091,232.091,0,0,0-7.253,24.275c-1.023,4.276-1.793,8.678-2.575,13.161s-1.563,9.034-2.356,13.632a467.487,467.487,0,0,0-6.391,52.241" fill="#e0e0e0"/>
        <path id="Path_674" data-name="Path 674" d="M471.741,432.983a9.953,9.953,0,0,1-1-2.023c-.586-1.31-1.379-3.241-2.3-5.644-1.885-4.8-4.264-11.494-6.9-18.942s-5.057-14.092-7-18.85c-.977-2.379-1.782-4.3-2.356-5.621a9.484,9.484,0,0,1-.782-2.1,10.346,10.346,0,0,1,1.149,1.943c.678,1.276,1.575,3.161,2.632,5.517,2.115,4.713,4.69,11.368,7.287,18.793s4.828,13.965,6.586,19.023l2.034,5.747a10.884,10.884,0,0,1,.644,2.161Z" fill="#e0e0e0"/>
        <path id="Path_675" data-name="Path 675" d="M533.062,405.742a13.706,13.706,0,0,1-2.494.919c-1.609.529-3.942,1.3-6.8,2.3-5.747,2.023-13.529,5.1-22,8.885s-15.988,7.54-21.345,10.414c-2.69,1.425-4.839,2.632-6.322,3.448a14.943,14.943,0,0,1-2.356,1.218A13.859,13.859,0,0,1,473.9,431.4c1.437-.931,3.54-2.23,6.2-3.724,5.287-3.034,12.781-6.9,21.276-10.7a230.91,230.91,0,0,1,22.184-8.655c2.885-.954,5.264-1.621,6.9-2.046A13.262,13.262,0,0,1,533.062,405.742Z" fill="#e0e0e0"/>
        <path id="Path_676" data-name="Path 676" d="M460.7,510.913a3.922,3.922,0,0,1-.621-.678l-1.644-2.057c-1.425-1.8-3.448-4.46-5.839-7.759-4.839-6.621-11.23-15.977-18.149-26.379s-13.23-19.816-17.919-26.528l-5.586-7.931c-.609-.862-1.149-1.575-1.506-2.161s-.506-.77-.471-.793.23.207.621.678l1.644,2.057c1.425,1.793,3.448,4.448,5.839,7.759,4.839,6.621,11.23,15.965,18.161,26.379s13.218,19.816,17.908,26.517l5.586,7.931,1.506,2.172C460.557,510.614,460.73,510.89,460.7,510.913Z" fill="#e0e0e0"/>
        <path id="Path_677" data-name="Path 677" d="M539.453,463.212a3.572,3.572,0,0,1-.77.552l-2.3,1.414-8.425,5.126c-7.126,4.333-16.885,10.425-27.655,17.172s-20.609,12.758-27.816,16.942c-3.6,2.092-6.54,3.747-8.586,4.862l-2.368,1.264a3.544,3.544,0,0,1-.862.379,3.572,3.572,0,0,1,.77-.552l2.3-1.414,8.425-5.126c7.126-4.333,16.885-10.425,27.666-17.172s20.6-12.747,27.8-16.931c3.6-2.092,6.529-3.759,8.586-4.874l2.368-1.253a3.367,3.367,0,0,1,.862-.391Z" fill="#e0e0e0"/>
        <rect id="Rectangle_488" data-name="Rectangle 488" width="80.539" height="119.493" transform="matrix(0.191, -0.982, 0.982, 0.191, 54.879, 261.982)" fill="#ebebeb"/>
        <path id="Path_678" data-name="Path 678" d="M187.722,206.721a7.482,7.482,0,0,1-1.3.839l-3.816,2.23-14.172,8.046L121.389,244.02l-.379.207-.287-.333-.7-.816L84.781,201.4,74.194,188.7l-2.839-3.448a7.551,7.551,0,0,1-.931-1.264,9.562,9.562,0,0,1,1.092,1.149l3,3.356,10.85,12.483,35.482,41.448.7.816-.678-.126,47.195-25.9,14.333-7.724,3.919-2.046a8.319,8.319,0,0,1,1.4-.724Z" fill="#e0e0e0"/>
        <path id="Path_679" data-name="Path 679" d="M55.068,263.008c-.2-.241,10.735-9.356,24.4-20.379s24.9-19.77,25.08-19.54-10.736,9.356-24.4,20.379S55.252,263.215,55.068,263.008Z" fill="#e0e0e0"/>
        <path id="Path_680" data-name="Path 680" d="M143.734,229.675c.264-.138,6.9,12.322,14.793,27.8s14.1,28.172,13.793,28.31-6.9-12.31-14.8-27.816S143.469,229.813,143.734,229.675Z" fill="#e0e0e0"/>
        <path id="Path_681" data-name="Path 681" d="M234.813,167.067l-74.148,7.759-6.1-51.517,74.148-7.77Z" fill="#f5f5f5"/>
        <path id="Path_682" data-name="Path 682" d="M229.02,116.09a4.368,4.368,0,0,1-.609.759l-1.839,2.08-6.9,7.575-22.931,24.85-.184.207-.241-.161-.575-.368c-11.287-7.448-21.517-14.172-28.988-19.092l-8.747-5.862-2.3-1.621a5.079,5.079,0,0,1-.793-.6,5.288,5.288,0,0,1,.862.483l2.425,1.517c2.161,1.368,5.172,3.3,8.862,5.667l29.092,18.919.575.368h-.425c9.011-9.632,17.138-18.391,23.08-24.7l7.034-7.414c.8-.828,1.448-1.494,1.943-1.988A5.805,5.805,0,0,1,229.02,116.09Z" fill="#e0e0e0"/>
        <path id="Path_683" data-name="Path 683" d="M160.975,175.423c-.161-.1,4.6-7.759,10.586-17.08s10.988-16.793,11.149-16.678-4.6,7.747-10.586,17.08S161.124,175.526,160.975,175.423Z" fill="#e0e0e0"/>
        <path id="Path_684" data-name="Path 684" d="M207.285,138.435c.138-.126,6.471,6.3,14.161,14.368s13.793,14.724,13.678,14.85-6.471-6.3-14.161-14.368S207.147,138.573,207.285,138.435Z" fill="#e0e0e0"/>
        <path id="Path_685" data-name="Path 685" d="M132.067,104.619,91.091,76.24l19.356-28.77,40.976,28.367Z" fill="#f5f5f5"/>
        <path id="Path_686" data-name="Path 686" d="M151.32,76.275a2.977,2.977,0,0,1-.644.126l-1.839.253-6.782.839-22.459,2.6h-.184v-.172a1.642,1.642,0,0,0-.126-.448l-6.437-22.287c-.782-2.828-1.425-5.126-1.874-6.782l-.494-1.839a3.138,3.138,0,0,1-.138-.655,3.76,3.76,0,0,1,.23.621c.138.46.333,1.069.563,1.828.494,1.632,1.149,3.919,2.023,6.724,1.678,5.747,3.977,13.6,6.506,22.276l.126.437-.23-.161,22.459-2.471,6.8-.69,1.851-.161A4.5,4.5,0,0,1,151.32,76.275Z" fill="#e0e0e0"/>
        <path id="Path_687" data-name="Path 687" d="M90.987,76.677c0-.115,5.747-1.931,12.8-4.034s12.9-3.724,12.931-3.609-5.747,1.943-12.816,4.046S91.022,76.8,90.987,76.677Z" fill="#e0e0e0"/>
        <path id="Path_688" data-name="Path 688" d="M130.585,78.16c.126,0,.529,6.011.92,13.448s.586,13.483.46,13.494-.54-6.011-.92-13.448S130.458,78.16,130.585,78.16Z" fill="#e0e0e0"/>
        <path id="Path_689" data-name="Path 689" d="M461.442,142.377a45.689,45.689,0,1,0-85.056,23.08h0l.126.172c1.747,2.954,3.942,5.069,6.161,8.172L409.19,208.94a8.264,8.264,0,0,0,13.172,0l26.092-34.563a98.957,98.957,0,0,0,6.632-8.793l.081-.069h0A45.471,45.471,0,0,0,461.442,142.377Zm-45.689,19.9a20.115,20.115,0,1,1,20.115-20.115,20.115,20.115,0,0,1-20.115,20.115Z" fill="#f5f5f5"/>
        <path id="Path_690" data-name="Path 690" d="M496.384,220.79a24.643,24.643,0,1,0-45.816,12.448h0l.069.092c.943,1.586,2.126,2.736,3.322,4.4l14.31,18.954a4.437,4.437,0,0,0,7.092,0l14.069-18.643a52.725,52.725,0,0,0,3.586-4.736v-.069h0a24.459,24.459,0,0,0,3.368-12.448Zm-24.643,10.724a10.839,10.839,0,1,1,7.672-3.171,10.839,10.839,0,0,1-7.672,3.171Z" fill="#ebebeb"/>
      </g>
      <g id="freepik--Table--inject-65">
        <path id="Path_691" data-name="Path 691" d="M541.8,533.062c0,.172-113.93.3-254.433.3s-254.456-.126-254.456-.3,113.907-.3,254.456-.3S541.8,532.9,541.8,533.062Z" fill="#263238"/>
      </g>
      <g id="freepik--Character--inject-65">
        <path id="Path_692" data-name="Path 692" d="M217.641,136.711,225.2,243.836a33.4,33.4,0,0,0,33.333,31.034h0a33.4,33.4,0,0,0,33.333-35.632c-.667-10.2-1.276-18.54-1.276-18.54s25.942-4.034,26.264-29.965c.184-14.942-2.4-48.965-4.6-75a34.011,34.011,0,0,0-33.9-31.115H262.652a47.988,47.988,0,0,0-45.011,52.091Z" fill="#b78876"/>
        <path id="Path_693" data-name="Path 693" d="M290.617,220.376s-16.391,1.333-33.8-9.609c0,0,7.988,18.666,33.862,16.333Z" fill="#aa6550"/>
        <path id="Path_694" data-name="Path 694" d="M304.157,147.125a3.7,3.7,0,0,1-3.575,3.736,3.54,3.54,0,0,1-3.816-3.333,3.713,3.713,0,0,1,3.563-3.747,3.552,3.552,0,0,1,3.828,3.345Z" fill="#263238"/>
        <path id="Path_695" data-name="Path 695" d="M307.743,141.791c-.46.483-3.264-1.586-7.241-1.575s-6.9,2-7.345,1.517c-.207-.218.264-1.149,1.529-2.023a10.172,10.172,0,0,1,5.873-1.8,9.678,9.678,0,0,1,5.747,1.862C307.559,140.711,307.973,141.584,307.743,141.791Z" fill="#263238"/>
        <path id="Path_696" data-name="Path 696" d="M265.272,147.125a3.7,3.7,0,0,1-3.575,3.736,3.54,3.54,0,0,1-3.816-3.333,3.713,3.713,0,0,1,3.575-3.747,3.552,3.552,0,0,1,3.816,3.345Z" fill="#263238"/>
        <path id="Path_697" data-name="Path 697" d="M268.583,142.527c-.46.483-3.276-1.6-7.253-1.586s-6.9,2.011-7.345,1.517c-.207-.218.253-1.08,1.529-2.011a10.345,10.345,0,0,1,5.873-1.816,9.908,9.908,0,0,1,5.747,1.862C268.387,141.446,268.8,142.32,268.583,142.527Z" fill="#263238"/>
        <path id="Path_698" data-name="Path 698" d="M283.042,172.09c0-.23,2.46-.655,6.471-1.149,1.011-.115,1.977-.31,2.149-1.011a5.138,5.138,0,0,0-.678-3.011q-1.425-3.69-3.011-7.747c-4.172-11.034-7.207-20.1-6.759-20.264s4.2,8.644,8.379,19.666q1.506,4.092,2.885,7.8c.379,1.149,1.046,2.46.517,3.988a2.506,2.506,0,0,1-1.667,1.483,6.311,6.311,0,0,1-1.724.241C285.56,172.3,283.054,172.32,283.042,172.09Z" fill="#263238"/>
        <path id="Path_699" data-name="Path 699" d="M271.318,174.848c.644,0,.655,4.287,4.356,7.356s8.3,2.6,8.333,3.2c.069.276-1.023.839-2.965.9a10.781,10.781,0,0,1-6.965-2.425A9.368,9.368,0,0,1,270.7,177.7C270.537,175.86,271.019,174.825,271.318,174.848Z" fill="#263238"/>
        <path id="Path_700" data-name="Path 700" d="M269.606,126.918c-.391,1.149-4.368.575-9.046,1.149s-8.46,1.839-9.08.862c-.276-.46.379-1.483,1.908-2.529a15.85,15.85,0,0,1,13.793-1.529C268.962,125.562,269.778,126.435,269.606,126.918Z" fill="#263238"/>
        <path id="Path_701" data-name="Path 701" d="M306.283,130.263c-.7.908-3.448,0-6.747-.08s-6.092.609-6.736-.333c-.287-.46.149-1.368,1.379-2.23a9.747,9.747,0,0,1,10.862.345C306.2,128.883,306.594,129.883,306.283,130.263Z" fill="#263238"/>
        <path id="Path_702" data-name="Path 702" d="M226.434,156.17c-.448-.2-17.816-5.264-17.241,12.46s18.241,13.506,18.264,12.988S226.434,156.17,226.434,156.17Z" fill="#b78876"/>
        <path id="Path_703" data-name="Path 703" d="M221.767,175.078c-.08,0-.3.23-.816.483a3.115,3.115,0,0,1-2.3.126c-1.9-.632-3.563-3.552-3.759-6.747a10.345,10.345,0,0,1,.724-4.448,3.586,3.586,0,0,1,2.3-2.448,1.575,1.575,0,0,1,1.851.793c.253.483.149.839.241.874s.379-.31.207-1.046a1.954,1.954,0,0,0-.736-1.08,2.3,2.3,0,0,0-1.724-.4,4.356,4.356,0,0,0-3.138,2.851,10.62,10.62,0,0,0-.908,4.977c.23,3.575,2.161,6.9,4.747,7.517a3.31,3.31,0,0,0,2.816-.563C221.744,175.515,221.836,175.113,221.767,175.078Z" fill="#aa6550"/>
        <path id="Path_704" data-name="Path 704" d="M216.526,155.573c2.7-.655,7.379,1.839,8.529,4.368s1.4,5.4,2.552,7.942,3.747,4.816,6.46,4.172a5.437,5.437,0,0,0,3.69-4.034,14.942,14.942,0,0,0,.057-5.747c-1.046-8.276-2.782-16.483-3.115-24.827s.851-17,5.23-24.138,12.414-12.333,20.689-11.655c5.506.437,10.563,3.31,16.034,4.08a21.643,21.643,0,0,0,18-6.011c.6-.586,3.356-2.414,3.356-2.414,0-.425-.4-4.126-1.862-5.483-10.862-10.034-30.425-12.839-44.77-9.2S223.583,96.424,217.411,109.8s-4.333,32.183-.931,45.747" fill="#263238"/>
        <path id="Path_705" data-name="Path 705" d="M312.5,111.792s-68.022-21.839-97.447,36.965c0,0-4.4-14.724-4.4-22.62,0-5.276,3.149-36.678,35.471-46.563C246.123,79.574,294.8,61,312.5,111.792Z" fill="red"/>
        <path id="Path_706" data-name="Path 706" d="M254.02,113.263a14.8,14.8,0,0,0,23.551,2.138,8.724,8.724,0,0,0,16.494-.862,19.7,19.7,0,0,0,6.621,4.828c2.586.954,5.862.586,7.552-1.575s1.23-5.575-.471-7.8a16.092,16.092,0,0,0-6.9-4.6,49.735,49.735,0,0,0-25.678-3.885c-8.678,1.149-17.08,5.379-22.505,12.253" fill="#263238"/>
        <g id="Group_38" data-name="Group 38" opacity="0.4">
          <path id="Path_707" data-name="Path 707" d="M312.5,111.792a31.62,31.62,0,0,0-21.632-9.827c-20.069-.885-57.62,10.4-75.861,46.792,0,0-4.4-14.724-4.4-22.62,0-5.276,3.149-36.678,35.471-46.563C246.123,79.574,294.8,61,312.5,111.792Z"/>
        </g>
        <path id="Path_708" data-name="Path 708" d="M217.894,141.872c10.08-15.437,23.988-28.2,39.632-37.931s41.494-19.425,59.31-24.138c5.356-1.425,10.931-2.667,16.391-1.724s10.793,4.6,12.138,9.942c1.7,6.724-10.23,17.092-15.827,21.161S312.5,119.24,312.5,119.24s.161-12.46-19.793-15.023C265.583,100.665,217.894,141.872,217.894,141.872Z" fill="red"/>
        <path id="Path_709" data-name="Path 709" d="M273.686,91.033s9.793-5.425,19.643-6.69a25.609,25.609,0,0,0-5.345-3.2,50.494,50.494,0,0,0-15.31,5.149Z" fill="#e0e0e0"/>
        <path id="Path_710" data-name="Path 710" d="M328.892,243.054,307.318,238.3l-8.781-2.2-7.31-11.333s-3.448,20.264-16.54,31.172a15.184,15.184,0,0,1-12.862,3.08c-2.954-.621-6.425-1.379-9-2.069-.552-.149-1.149-.345-1.793-.575a42.08,42.08,0,0,1-22.218-19.161c-2.9-5.149-5.345-10.437-4.506-12.448l-10.241,21.207-60.344,27.793-34.264,83.7,66.4,19.632,2.069,68.965L175.423,533l187.848.126L356.6,339.7" fill="red"/>
        <path id="Path_711" data-name="Path 711" d="M280.33,317.938a7.23,7.23,0,0,1-1.149,0l-3.345-.081-11.942-.425h-.23v-.2c-.2-5.184-.437-11.322-.7-17.885-.31-9.46-.586-18.011-.8-24.3-.069-3.057-.126-5.552-.172-7.368v-2a2.759,2.759,0,0,1,0-.7,3.056,3.056,0,0,1,.08.69c0,.529.08,1.149.126,2,.092,1.816.218,4.31.368,7.356.253,6.287.6,14.839.977,24.287.23,6.575.437,12.712.621,17.9l-.253-.241,11.942.632,3.333.218a5.3,5.3,0,0,1,1.149.115Z" fill="#263238"/>
        <path id="Path_712" data-name="Path 712" d="M270.111,290a1.655,1.655,0,0,1,.9-.3,3.874,3.874,0,0,1,3.678,2.057,3.448,3.448,0,0,1,.333,2.092,4.23,4.23,0,0,1-3.069,3.448,4.448,4.448,0,0,1-4.368-1.552,4.241,4.241,0,0,1-.828-3.713,4.517,4.517,0,0,1,1.241-2.3c.437-.425.759-.563.77-.529s-.23.241-.6.69a4.85,4.85,0,0,0-1,2.172,3.9,3.9,0,0,0,.828,3.276,3.988,3.988,0,0,0,3.816,1.333,3.713,3.713,0,0,0,2.655-2.965,3.126,3.126,0,0,0-1.23-3.034,3.632,3.632,0,0,0-2.218-.793C270.422,289.927,270.111,290.042,270.111,290Z" fill="#263238"/>
        <path id="Path_713" data-name="Path 713" d="M268.077,265.709a1.839,1.839,0,0,1,.943-.437,4.081,4.081,0,0,1,2.8.414,4.012,4.012,0,0,1,1.506,1.333,3.77,3.77,0,0,1,.632,2.241,4.506,4.506,0,0,1-3.034,4.08,4.6,4.6,0,0,1-4.8-1.678,4.034,4.034,0,0,1-.839-2.161,4.759,4.759,0,0,1,.322-1.988,4.6,4.6,0,0,1,1.8-2.184,1.874,1.874,0,0,1,.977-.368,6.211,6.211,0,0,0-.839.563,4.6,4.6,0,0,0-1.54,2.138,3.782,3.782,0,0,0,.552,3.667,4.069,4.069,0,0,0,4.2,1.437,4,4,0,0,0,2.655-3.529,3.448,3.448,0,0,0-1.782-3.184,4.161,4.161,0,0,0-2.563-.552C268.433,265.583,268.1,265.755,268.077,265.709Z" fill="#263238"/>
        <path id="Path_714" data-name="Path 714" d="M261.962,358.478a1.6,1.6,0,0,1,.287-.126l.862-.333c.77-.264,1.862-.747,3.253-1.391a43.125,43.125,0,0,0,10.575-7.517,84.389,84.389,0,0,0,12.1-15.011,211.808,211.808,0,0,0,11.793-20.551,357.858,357.858,0,0,0,16.747-39.678c1.874-5.2,3.333-9.414,4.356-12.322l1.149-3.356c.126-.345.241-.632.322-.862a1.6,1.6,0,0,1,.126-.287,1.149,1.149,0,0,1-.069.31c-.069.23-.161.517-.264.885-.264.816-.621,1.943-1.069,3.448-.954,2.931-2.356,7.172-4.2,12.379a330.948,330.948,0,0,1-16.574,39.724A205.226,205.226,0,0,1,289.5,334.375a82.872,82.872,0,0,1-12.276,15.046,41.8,41.8,0,0,1-10.758,7.414,31.023,31.023,0,0,1-3.322,1.3l-.885.276A1.013,1.013,0,0,1,261.962,358.478Z" fill="#263238"/>
        <path id="Path_715" data-name="Path 715" d="M301.536,335.524c.494,0,11.931-.782,11.931-.782s-4.724,8.345-9.644,11.494H293.812Z" fill="#fafafa"/>
        <path id="Path_716" data-name="Path 716" d="M259.962,383.754a3.712,3.712,0,0,1,.644-.494l1.931-1.333c1.667-1.149,4.069-2.874,6.954-5.092,5.747-4.4,13.4-10.977,21.586-18.494,4.092-3.759,8.046-7.3,11.425-10.7a89.376,89.376,0,0,0,8.425-9.563,51.944,51.944,0,0,0,4.6-7.241c.506-.885.816-1.609,1.057-2.092a4.072,4.072,0,0,1,.4-.724,4.823,4.823,0,0,1-.287.77c-.207.494-.494,1.241-.966,2.149a47.492,47.492,0,0,1-4.471,7.391,84.312,84.312,0,0,1-8.379,9.7c-3.391,3.448-7.322,7-11.414,10.747a282.729,282.729,0,0,1-21.724,18.391c-2.931,2.172-5.379,3.828-7.08,4.942-.862.552-1.54.954-2,1.241A3.587,3.587,0,0,1,259.962,383.754Z" fill="#263238"/>
        <path id="Path_717" data-name="Path 717" d="M227.733,511.488a.512.512,0,0,1,.138-.276,7.779,7.779,0,0,0,.471-.759c.425-.655,1.069-1.621,1.931-2.839,1.724-2.414,4.391-5.816,7.908-9.816,7.08-7.942,17-18.781,27.919-30.781l28.149-30.678,8.563-9.2,2.3-2.494.621-.632.23-.207a2.354,2.354,0,0,1-.184.241l-.575.678-2.3,2.575-8.425,9.368-27.931,30.712L238.5,498.051c-3.552,3.954-6.264,7.3-8.046,9.667-.885,1.149-1.563,2.126-2.011,2.77l-.517.724a2.1,2.1,0,0,1-.2.276Z" fill="#263238"/>
        <path id="Path_718" data-name="Path 718" d="M327.4,242.526c.988,1.483,23.2,3.954,28.632,9.379S415.8,298.8,415.8,298.8l-38.724,52.114-24.988-5.506Z" fill="red"/>
        <path id="Path_719" data-name="Path 719" d="M409.213,293.743,365.8,348.432l11.276,2.483,38.678-52.172Z" opacity="0.4"/>
        <path id="Path_720" data-name="Path 720" d="M339.225,296.778a12.52,12.52,0,0,1-.448-1.816c-.126-.586-.276-1.31-.379-2.161s-.276-1.816-.333-2.9-.172-2.3-.172-3.529,0-2.621.1-4.046a56.07,56.07,0,0,1,1.437-9.2,55.243,55.243,0,0,1,3.092-8.77c.609-1.287,1.149-2.529,1.8-3.632s1.218-2.126,1.8-3.034,1.149-1.69,1.655-2.391a21.232,21.232,0,0,1,1.345-1.736,10.75,10.75,0,0,1,1.253-1.391,11.369,11.369,0,0,1-1.069,1.529c-.356.483-.793,1.069-1.253,1.793s-1.046,1.494-1.575,2.425-1.149,1.92-1.724,3.046-1.149,2.3-1.736,3.609a59.778,59.778,0,0,0-2.965,8.7,60.452,60.452,0,0,0-1.46,9.069c-.08,1.414-.184,2.759-.149,4.011s0,2.425.092,3.448.161,2.034.241,2.885.184,1.575.276,2.161a9.99,9.99,0,0,1,.161,1.92Z" fill="#263238"/>
        <path id="Path_721" data-name="Path 721" d="M356.6,339.628a112.3,112.3,0,0,1-4.793-10.609,113.909,113.909,0,0,1-4.253-10.827,114.543,114.543,0,0,1,4.8,10.6A109.966,109.966,0,0,1,356.6,339.628Z" fill="#263238"/>
        <path id="Path_722" data-name="Path 722" d="M185.86,301.766c-.092,0-1.023-1.667-2.782-4.253a61.078,61.078,0,0,0-7.839-9.345,62.218,62.218,0,0,0-9.563-7.552c-2.644-1.678-4.379-2.552-4.333-2.644a5.746,5.746,0,0,1,1.264.517,37.056,37.056,0,0,1,3.287,1.77,53.088,53.088,0,0,1,9.77,7.483,53.9,53.9,0,0,1,7.77,9.54c.839,1.333,1.471,2.437,1.862,3.23a5.6,5.6,0,0,1,.563,1.253Z" fill="#263238"/>
        <path id="Path_723" data-name="Path 723" d="M119.458,357.432l2.678-6.517,73.447,20-2.908,8.172Z" opacity="0.4"/>
        <path id="Path_724" data-name="Path 724" d="M315.536,331.674H343.5v11.494l-35.781-.23S313.249,336.283,315.536,331.674Z" fill="#fafafa"/>
        <g id="Group_39" data-name="Group 39" opacity="0.2">
          <path id="Path_725" data-name="Path 725" d="M215.79,248.5c1.011,8.965,2.115,18.218,6.552,26.08s13.115,14.057,22.046,12.735c5.954-.885,11-4.862,15.057-9.322s7.46-9.506,11.885-13.586a52.414,52.414,0,0,0,8.919,7.667,17.483,17.483,0,0,0,11.184,2.954c3.9-.471,6.046-2.023,7.276-5.747-4.161,1.287-6.448,1.092-10.6.3a28.976,28.976,0,0,1-12.54-5.747c-2.437-1.92-3.322-4.8-6.414-4.6-2.862.161-5.1,2.425-6.988,4.6a80.457,80.457,0,0,1-9.977,9.609c-3.448,2.724-6.782,4.6-11.172,4.471-7.23-.161-13.149-5.839-17.138-11.873a59.517,59.517,0,0,1-8.046-18.172"/>
        </g>
        <path id="Path_726" data-name="Path 726" d="M300.433,237.319a2.977,2.977,0,0,1,.126.644c0,.425.138,1.046.218,1.851.172,1.609.345,3.942.414,6.9a97.758,97.758,0,0,1-2.149,22.494v.368h-.172a24.345,24.345,0,0,1-12.379-.333,28.966,28.966,0,0,1-9.2-4.3,23.677,23.677,0,0,1-5.023-4.6,16.082,16.082,0,0,1-1.08-1.494,3.448,3.448,0,0,1-.333-.563,29.381,29.381,0,0,0,6.667,6.345,29.712,29.712,0,0,0,9.08,4.115,24.3,24.3,0,0,0,12.092.287l-.218.218v-.184a104.919,104.919,0,0,0,2.3-22.367c0-2.885-.126-5.218-.218-6.839,0-.747-.08-1.356-.115-1.851a2.388,2.388,0,0,1-.012-.69Z" fill="#263238"/>
        <path id="Path_727" data-name="Path 727" d="M265.514,260a2.921,2.921,0,0,1-.368.69,18.89,18.89,0,0,1-1.264,1.839,49.5,49.5,0,0,1-5.655,5.965c-1.276,1.149-2.713,2.425-4.264,3.736-.782.655-1.563,1.345-2.437,2.034a22.67,22.67,0,0,1-2.839,1.828,17.459,17.459,0,0,1-6.9,2.1,13.046,13.046,0,0,1-7.586-1.678,24.047,24.047,0,0,1-5.942-5,58.793,58.793,0,0,1-4.483-5.655,57.954,57.954,0,0,1-5.85-10.7,55.066,55.066,0,0,1-2.575-7.793c-.241-.943-.391-1.678-.483-2.184a3.909,3.909,0,0,1-.115-.77,3.379,3.379,0,0,1,.23.747c.138.494.322,1.218.586,2.149a65.186,65.186,0,0,0,2.747,7.69,59.527,59.527,0,0,0,5.919,10.54,58.09,58.09,0,0,0,4.46,5.575A23.609,23.609,0,0,0,234.445,276a12.552,12.552,0,0,0,7.253,1.609,17.31,17.31,0,0,0,6.713-2,21.349,21.349,0,0,0,2.793-1.77c.839-.644,1.644-1.345,2.425-1.988,1.563-1.3,3.011-2.517,4.3-3.667a55.168,55.168,0,0,0,5.747-5.747c.609-.736,1.057-1.345,1.356-1.759A4.8,4.8,0,0,1,265.514,260Z" fill="#263238"/>
        <path id="Path_728" data-name="Path 728" d="M240.756,392.064l8.862-12.919s6.092-21.172,5.264-24.138-3.517-14-2.885-14.138,7.264-2.6,10.862,6.253c2.241,5.517,2.977,12.781,3.218,17.471a4.011,4.011,0,0,0,4.816,3.747c6.126-1.264,16.322-3.184,18.747-2.6,3.517.839,6.667,5.322,6.965,6.827s-2.115,4.9-2.115,4.9,2.988,1.529,3.908,3.839c.126.31.23.621.322.92a5.563,5.563,0,0,1-1.23,5.379l-.943,1.035s3.736,1.023,4.2,3.161a12.77,12.77,0,0,1-.126,4.7l-3.506,3.621a5.92,5.92,0,0,1,1.816,3.448c.184,1.977-5.069,6.9-5.069,6.9l-22.54,8.046-8.942,2.3Z" fill="#b78876"/>
        <path id="Path_729" data-name="Path 729" d="M294.559,377.489a79.923,79.923,0,0,1-7.816,1.69,77.659,77.659,0,0,1-7.839,1.494,9.77,9.77,0,0,1,2.218-.77c1.391-.391,3.333-.874,5.506-1.31s4.138-.759,5.586-.943a8.793,8.793,0,0,1,2.345-.161Z" fill="#aa6550"/>
        <path id="Path_730" data-name="Path 730" d="M296.617,388.639a33,33,0,0,1-5.965,2.126,33.332,33.332,0,0,1-6.138,1.563,32.994,32.994,0,0,1,5.965-2.126,33.332,33.332,0,0,1,6.138-1.563Z" fill="#aa6550"/>
        <path id="Path_731" data-name="Path 731" d="M297.962,399.638a41.3,41.3,0,0,1-6.333,3.092,41.5,41.5,0,0,1-6.575,2.552,41.3,41.3,0,0,1,6.333-3.092A41.5,41.5,0,0,1,297.962,399.638Z" fill="#aa6550"/>
        <path id="Path_732" data-name="Path 732" d="M188.825,471.9l82.9-55.608L250.8,378.363,175.147,417.27l8.586-40.873-51.344-15.2-12.85,70h0c-1.977,31.126,22.988,56.252,53.08,48.08h0a54.826,54.826,0,0,0,16.207-7.379Z" fill="#b78876"/>
        <path id="Path_733" data-name="Path 733" d="M164.193,439.27a3.5,3.5,0,0,1-.287-1.046,19.217,19.217,0,0,1-.287-2.931,20.69,20.69,0,0,1,2.138-9.437,20.483,20.483,0,0,1,6.264-7.379,16.9,16.9,0,0,1,2.506-1.54,3.645,3.645,0,0,1,1.012-.4c0,.1-1.345.759-3.264,2.3a21.414,21.414,0,0,0-8.23,16.494C163.986,437.741,164.366,439.259,164.193,439.27Z" fill="#aa6550"/>
        <path id="Path_734" data-name="Path 734" d="M377.076,350.915c.517-.713,59.034,34.942,59.034,34.942l18.758,85.459,27,9.908s8.425-95.1,2.011-109.907-71.436-68.068-71.436-68.068Z" fill="#b78876"/>
        <path id="Path_735" data-name="Path 735" d="M448.891,379.305a15.437,15.437,0,0,1-5.069,4.782,15.644,15.644,0,0,1-6.46,2.644,65.347,65.347,0,0,0,6.138-3.149,61.465,61.465,0,0,0,5.391-4.276Z" fill="#aa6550"/>
        <path id="Path_736" data-name="Path 736" d="M306.7,351.1l4.586,82.022L404.8,426.8l-2.828-61.057-13.621-18.333Z" fill="#263238"/>
        <path id="Path_737" data-name="Path 737" d="M285.445,434.948c.276,1.575,8.218,75.861,8.218,75.861l139.182-9.667,23.551-3.161-10.862-69.172L428.9,424.822Z" fill="red"/>
        <path id="Path_738" data-name="Path 738" d="M428.9,424.811,285.445,434.948c.276,1.575,8.218,75.861,8.218,75.861l144.906-10.08Z" opacity="0.4"/>
        <path id="Path_739" data-name="Path 739" d="M390.777,427.742l-79.493,5.379L306.7,351.1l81.654-3.69Z" fill="#455a64"/>
        <path id="Path_740" data-name="Path 740" d="M336.34,349.766l1.678,25.276,4.253-2.437,2.356,2.437,2.931-2.437,4.529,2.437V349.053Z" fill="#263238"/>
        <path id="Path_741" data-name="Path 741" d="M369.57,429.466,364.133,367.9l53.137,14.643L422.4,425.04Z" fill="red"/>
        <path id="Path_742" data-name="Path 742" d="M417.236,382.558a2.446,2.446,0,0,1-.333.437L415.88,384.2l-3.908,4.46L398.4,403.891l-.207.23-.218-.218-7.172-7.586-18.931-20-5.69-6.115-1.529-1.678a3.267,3.267,0,0,1-.494-.621,4.591,4.591,0,0,1,.586.529l1.609,1.609,5.816,5.977L391.225,395.9l7.218,7.6h-.425l13.793-15.092,4.034-4.345,1.092-1.149A2.3,2.3,0,0,1,417.236,382.558Z" fill="#263238"/>
        <path id="Path_743" data-name="Path 743" d="M387.478,393.96c.149.08-3.644,7.345-8.46,16.23s-8.839,16.023-8.988,15.942,3.644-7.345,8.46-16.23S387.351,393.88,387.478,393.96Z" fill="#263238"/>
        <path id="Path_744" data-name="Path 744" d="M421.155,425.04c-.138.08-3.816-5.8-8.218-13.138s-7.862-13.368-7.713-13.46,3.816,5.8,8.218,13.149S421.3,424.96,421.155,425.04Z" fill="#263238"/>
        <path id="Path_745" data-name="Path 745" d="M398.11,427.063l-3.471-39.206,33.839,9.333,3.264,27.057Z" fill="red"/>
        <path id="Path_746" data-name="Path 746" d="M398.11,427.063l-3.471-39.206,33.839,9.333,3.264,27.057Z" fill="#fff" opacity="0.4"/>
        <path id="Path_747" data-name="Path 747" d="M428.477,397.19a6.511,6.511,0,0,1-.839,1.069c-.632.747-1.46,1.7-2.46,2.862l-8.621,9.724-.207.241-.218-.23-4.6-4.828c-4.724-4.954-8.977-9.471-12.034-12.758l-3.586-3.919a11.255,11.255,0,0,1-1.264-1.494,11.984,11.984,0,0,1,1.425,1.333l3.736,3.782c3.138,3.218,7.437,7.69,12.161,12.643l4.6,4.839h-.483l8.77-9.586,2.6-2.747A7.311,7.311,0,0,1,428.477,397.19Z" fill="#263238"/>
        <path id="Path_748" data-name="Path 748" d="M409.512,404.455a113.854,113.854,0,0,1-5.3,10.345,111.506,111.506,0,0,1-5.816,10.1,111.2,111.2,0,0,1,5.287-10.345,109.8,109.8,0,0,1,5.827-10.1Z" fill="#263238"/>
        <path id="Path_749" data-name="Path 749" d="M430.96,424.247a81.971,81.971,0,0,1-5.333-8.31,78.336,78.336,0,0,1-4.816-8.632,168.971,168.971,0,0,1,10.149,16.942Z" fill="#263238"/>
        <path id="Path_750" data-name="Path 750" d="M419.673,395.535v3.149l4.943.575.264-2.4Z" fill="#fff"/>
        <path id="Path_751" data-name="Path 751" d="M402.225,379.547v4.6l9.333,1.54.517-3.517Z" fill="#fff"/>
        <path id="Path_752" data-name="Path 752" d="M365.8,452.385l-.46-22.919-18.586,1.253,1.988,23.287Z" fill="red"/>
        <rect id="Rectangle_489" data-name="Rectangle 489" width="31.344" height="27.724" transform="translate(395.207 467.386) rotate(-5.42)" fill="#fafafa"/>
        <path id="Path_753" data-name="Path 753" d="M428.983,492.063a4.1,4.1,0,0,1-.08-.529c0-.379-.1-.874-.172-1.494-.138-1.333-.345-3.23-.6-5.609-.494-4.85-1.149-11.7-2.023-19.942l.276.23-31.184,3c-.069.069.506-.609.264-.322h0v.908l.092.943.172,1.862c.126,1.23.241,2.448.356,3.667.218,2.425.448,4.793.667,7.115.425,4.6.839,9.023,1.207,13.08l-.287-.23,22.517-2,6.391-.54,1.713-.126a3.965,3.965,0,0,1,.609,0,3.335,3.335,0,0,1-.54.08l-1.655.2-6.322.667-22.655,2.3h-.264v-.264c-.4-4.069-.828-8.46-1.276-13.08q-.322-3.448-.678-7.115c-.115-1.218-.23-2.437-.345-3.678-.057-.609-.115-1.23-.184-1.851l-.08-.943v-.908h0c-.241.287.322-.4.276-.333l31.2-2.908h.253v.253c.736,8.31,1.345,15.23,1.782,20.126.2,2.356.345,4.23.46,5.563,0,.609.08,1.092.1,1.46a2.923,2.923,0,0,1,.012.425Z" fill="#263238"/>
        <path id="Path_754" data-name="Path 754" d="M423.926,471.074c0,.172-5.437.874-12.184,1.586a122.063,122.063,0,0,1-12.241.988c0-.161,5.437-.874,12.184-1.586S423.914,470.913,423.926,471.074Z" fill="#263238"/>
        <path id="Path_755" data-name="Path 755" d="M423.742,475.764a17.311,17.311,0,0,1-3.345.839c-2.092.414-5,.9-8.23,1.276s-6.184.586-8.31.655a19.268,19.268,0,0,1-3.448,0,21.151,21.151,0,0,1,3.448-.391c2.115-.2,5.034-.46,8.253-.839s6.126-.793,8.23-1.149a22.988,22.988,0,0,1,3.4-.391Z" fill="#263238"/>
        <path id="Path_756" data-name="Path 756" d="M425.063,486.017a17.956,17.956,0,0,1-3.356.839c-2.092.414-5,.9-8.23,1.276s-6.172.586-8.31.655a17.857,17.857,0,0,1-3.448,0,21.093,21.093,0,0,1,3.448-.391c2.115-.184,5.046-.46,8.264-.839s6.126-.793,8.23-1.149A22.823,22.823,0,0,1,425.063,486.017Z" fill="#263238"/>
        <path id="Path_757" data-name="Path 757" d="M423.489,480.764a106.667,106.667,0,0,1-11.368,1.931,109.755,109.755,0,0,1-11.494,1.333,114.135,114.135,0,0,1,11.368-1.931,113.673,113.673,0,0,1,11.494-1.333Z" fill="#263238"/>
        <path id="Path_758" data-name="Path 758" d="M451.04,523.51s25.689-17,27.666-25.689,3.161-16.6,3.161-16.6l-27.448-11.368,2.724,9.885s-9.839,5.85-10.85,12.942C445.626,497.407,432.9,505.5,432.9,505.5h0a10.494,10.494,0,0,0-8.77-3.782l-10.689.759,7.23,16.287Z" fill="#b78876"/>
        <path id="Path_759" data-name="Path 759" d="M461.074,500.212a4.1,4.1,0,0,1-1.207.494c-.8.264-2,.529-3.448.988a13.976,13.976,0,0,0-4.46,2.6,22.357,22.357,0,0,1-5.494,3.448,18.643,18.643,0,0,1-11.655.977,6.264,6.264,0,0,1-1.943-.724,1.425,1.425,0,0,1-.713-1.425,1.057,1.057,0,0,1,.575-.828.427.427,0,0,1,.356,0,.563.563,0,0,0-.3.126.977.977,0,0,0-.4.759,1.149,1.149,0,0,0,.667,1.149,6.462,6.462,0,0,0,1.862.586,19.126,19.126,0,0,0,11.322-1.149,22.424,22.424,0,0,0,5.379-3.379,13.9,13.9,0,0,1,4.667-2.552c1.471-.414,2.667-.609,3.448-.816A8.625,8.625,0,0,1,461.074,500.212Z" fill="#aa6550"/>
        <path id="Path_760" data-name="Path 760" d="M443.282,513.4c0,.092-1.322-.667-3.506-1.575a31.977,31.977,0,0,0-8.908-2.218c-.9-.092-1.782-.115-2.632-.138h-.161l-.092-.138a27.589,27.589,0,0,0-4.77-5.632c-1.391-1.253-2.3-1.9-2.3-1.966s.276.092.713.368a21.077,21.077,0,0,1,1.793,1.3,24.035,24.035,0,0,1,5.023,5.621l-.241-.138a17.881,17.881,0,0,1,2.69.138,28.194,28.194,0,0,1,9.023,2.425,22.247,22.247,0,0,1,2.494,1.333,3.451,3.451,0,0,1,.874.621Z" fill="#aa6550"/>
        <path id="Path_761" data-name="Path 761" d="M450.224,508.729c0,.161-1.736.816-3.759,1.965s-3.506,2.356-3.621,2.218a12.506,12.506,0,0,1,7.379-4.184Z" fill="#aa6550"/>
        <path id="Path_762" data-name="Path 762" d="M464.143,478.155c0,.184-1.793,0-3.839.517s-3.448,1.575-3.609,1.425a7.506,7.506,0,0,1,7.448-1.942Z" fill="#aa6550"/>
      </g>
      <g id="freepik--Plant--inject-65">
        <path id="Path_763" data-name="Path 763" d="M89.39,468.35c3.379,4.023,9.092,2.08,11.563-.782s3.276-6.747,4-10.46c1.632-8.483,3.264-17.368.736-25.632a14.149,14.149,0,0,0-3.851-6.609,7.391,7.391,0,0,0-7.184-1.69c-2.874,1.034-4.448,4.08-5.517,6.9a60.563,60.563,0,0,0-3.655,26.436c.356,4.184,1.241,8.517,3.908,11.758" fill="red"/>
        <g id="Group_40" data-name="Group 40" opacity="0.2">
          <path id="Path_764" data-name="Path 764" d="M89.39,468.35c3.379,4.023,9.092,2.08,11.563-.782s3.276-6.747,4-10.46c1.632-8.483,3.264-17.368.736-25.632a14.149,14.149,0,0,0-3.851-6.609,7.391,7.391,0,0,0-7.184-1.69c-2.874,1.034-4.448,4.08-5.517,6.9a60.563,60.563,0,0,0-3.655,26.436c.356,4.184,1.241,8.517,3.908,11.758"/>
        </g>
        <path id="Path_765" data-name="Path 765" d="M102.573,489.074c4.69-2.977,10.448-3.828,15.977-3.448,2.977.23,6.1.828,8.3,2.851s2.908,5.862.793,7.954a7.655,7.655,0,0,1-4.919,1.724c-4.276.333-9.08,0-12.253,2.885-1.816,1.632-2.9,4.184-5.161,5.115a5.529,5.529,0,0,1-6.287-2.149,9.425,9.425,0,0,1-1.3-6.9,10.621,10.621,0,0,1,4.851-8.035Z" fill="red"/>
        <path id="Path_766" data-name="Path 766" d="M81.689,475.247c2.92-4.161,3.034-9.862,1.149-14.586s-5.54-8.54-9.609-11.575a46.069,46.069,0,0,0-16.092-7.632,16.472,16.472,0,0,0-6.965-.552,7.253,7.253,0,0,0-5.345,4c-1.322,3.2.54,6.77,2.471,9.644A118,118,0,0,0,58.62,468.891c3.345,3.6,7.126,7.1,11.85,8.448s9.448.7,11.6-2.678" fill="red"/>
        <path id="Path_767" data-name="Path 767" d="M94.964,533.074a9.552,9.552,0,0,0,.092-1.977V525.74a75.622,75.622,0,0,1,.506-7.919,59.768,59.768,0,0,1,2.011-9.46,33.792,33.792,0,0,1,3.954-8.747,17.62,17.62,0,0,1,5.506-5.471,16.632,16.632,0,0,1,4.862-2.011,11.276,11.276,0,0,0,1.919-.448,8.518,8.518,0,0,0-1.977.138,15.494,15.494,0,0,0-5.1,1.828,17.712,17.712,0,0,0-5.828,5.552,33.8,33.8,0,0,0-4.115,8.931,56.986,56.986,0,0,0-1.977,9.609,67.62,67.62,0,0,0-.333,7.988c0,2.3.138,4.115.218,5.379a8.655,8.655,0,0,0,.264,1.966Z" fill="#263238"/>
        <path id="Path_768" data-name="Path 768" d="M94.964,528.947a4.518,4.518,0,0,0,0-.908c0-.678-.138-1.54-.23-2.586-.207-2.241-.494-5.494-.736-9.517-.517-8.046-.816-19.172-.575-31.459s1.057-23.4,1.988-31.4c.207-2.011.425-3.816.655-5.4s.391-2.954.575-4.057.276-1.9.379-2.575a4.1,4.1,0,0,0,.08-.908,3.311,3.311,0,0,0-.241.885c-.138.667-.31,1.506-.529,2.54s-.46,2.471-.713,4.057-.529,3.379-.782,5.391a293.725,293.725,0,0,0-2.218,31.459c-.241,12.31.138,23.471.8,31.517.31,4.023.69,7.276,1,9.506.149,1.046.287,1.9.379,2.575A4.379,4.379,0,0,0,94.964,528.947Z" fill="#263238"/>
        <path id="Path_769" data-name="Path 769" d="M93.1,507.522a16.654,16.654,0,0,0-.253-2.7c-.264-1.724-.724-4.207-1.483-7.241a98.491,98.491,0,0,0-3.333-10.448,94.884,94.884,0,0,0-5.586-12.218A67.517,67.517,0,0,0,67.5,455.684,36.422,36.422,0,0,0,64.16,453.1c-.506-.356-.954-.713-1.414-.988l-1.264-.724a19.008,19.008,0,0,0-2.4-1.253c-.115.184,3.448,1.862,8.046,5.988a71.1,71.1,0,0,1,14.586,19.172,102.191,102.191,0,0,1,5.644,12.057A99.645,99.645,0,0,1,90.8,497.695c.828,3,1.368,5.448,1.724,7.149A16.724,16.724,0,0,0,93.1,507.522Z" fill="#263238"/>
      </g>
    </g>
  </g>
</svg>
