<svg xmlns="http://www.w3.org/2000/svg" xmlns:xlink="http://www.w3.org/1999/xlink" width="82" height="82" viewBox="0 0 82 82">
  <defs>
    <clipPath id="clip-path">
      <rect id="Rectangle_544" data-name="Rectangle 544" width="82" height="82" transform="translate(913 2471)" fill="#fff" stroke="#707070" stroke-width="1"/>
    </clipPath>
  </defs>
  <g id="Mask_Group_16" data-name="Mask Group 16" transform="translate(-913 -2471)" clip-path="url(#clip-path)">
    <g id="term" transform="translate(913 2471)">
      <g id="Group_60" data-name="Group 60">
        <g id="Group_49" data-name="Group 49">
          <path id="Path_1231" data-name="Path 1231" d="M36.6,6.965c-3.652,5.458-14.1,9.42-26.467,9.509V38.892A30.925,30.925,0,0,0,22.1,63.322l12.888,10a2.634,2.634,0,0,0,3.229,0l12.888-10a30.925,30.925,0,0,0,11.964-24.43V16.474C50.7,16.384,40.256,12.423,36.6,6.965Z" fill="#f9f6f6"/>
        </g>
        <g id="Group_51" data-name="Group 51">
          <g id="Group_50" data-name="Group 50">
            <path id="Path_1232" data-name="Path 1232" d="M47.721,14.131V33.97A30.925,30.925,0,0,1,35.757,58.4l-10,7.76,9.231,7.164a2.634,2.634,0,0,0,3.229,0l12.888-10a30.925,30.925,0,0,0,11.964-24.43V16.474a51.03,51.03,0,0,1-15.35-2.343Z" fill="#eedfda"/>
          </g>
        </g>
        <g id="Group_53" data-name="Group 53">
          <g id="Group_52" data-name="Group 52">
            <path id="Path_1233" data-name="Path 1233" d="M36.6,79.6a8.337,8.337,0,0,1-5.121-1.755L18.6,67.84A36.644,36.644,0,0,1,4.419,38.892V12.557a1.772,1.772,0,0,1,1.759-1.772l3.918-.029c11.156-.081,18.117-3.332,21.756-6.971A23.25,23.25,0,0,0,34.007,1.3a3.253,3.253,0,0,1,5.214,0,22.418,22.418,0,0,0,2.136,2.476c3.49,3.49,10.6,6.89,21.756,6.971l3.918.029a1.772,1.772,0,0,1,1.759,1.772V38.892A36.643,36.643,0,0,1,54.613,67.84l-12.888,10A8.338,8.338,0,0,1,36.6,79.6ZM14.762,19.861a1.126,1.126,0,0,0-1,1.119V38.672A27.565,27.565,0,0,0,24.5,60.592L35.913,69.45a1.127,1.127,0,0,0,1.383,0l11.413-8.858a27.565,27.565,0,0,0,10.735-21.92V20.98a1.126,1.126,0,0,0-1-1.119,56.819,56.819,0,0,1-13.032-2.97,37.75,37.75,0,0,1-7.186-3.462,3.04,3.04,0,0,0-3.248,0,37.742,37.742,0,0,1-7.187,3.462,56.817,56.817,0,0,1-13.032,2.97Z" fill="#c9beb9"/>
          </g>
        </g>
        <g id="Group_55" data-name="Group 55">
          <g id="Group_54" data-name="Group 54">
            <path id="Path_1234" data-name="Path 1234" d="M67.03,10.785l-3.918-.029a46.38,46.38,0,0,1-9.275-.948v9.361q2.255.424,4.609.692a1.126,1.126,0,0,1,1,1.119V38.672a27.565,27.565,0,0,1-10.735,21.92L37.3,69.45a1.127,1.127,0,0,1-1.383,0l-2.8-2.172-7.48,5.805c-.048.037-.1.072-.145.107l5.993,4.652a8.349,8.349,0,0,0,10.241,0l12.888-10A36.644,36.644,0,0,0,68.789,38.892V12.557a1.772,1.772,0,0,0-1.759-1.772Z" fill="#9e9595"/>
          </g>
        </g>
        <g id="Group_56" data-name="Group 56">
          <circle id="Ellipse_14" data-name="Ellipse 14" cx="1.656" cy="1.656" r="1.656" transform="translate(34.948 72.535)" fill="#eedfda"/>
        </g>
        <g id="Group_57" data-name="Group 57">
          <circle id="Ellipse_15" data-name="Ellipse 15" cx="1.656" cy="1.656" r="1.656" transform="translate(34.948 5.309)" fill="#f9f6f6"/>
        </g>
        <g id="Group_58" data-name="Group 58">
          <circle id="Ellipse_16" data-name="Ellipse 16" cx="1.656" cy="1.656" r="1.656" transform="translate(61.539 15.067)" fill="#eedfda"/>
        </g>
        <g id="Group_59" data-name="Group 59">
          <circle id="Ellipse_17" data-name="Ellipse 17" cx="1.656" cy="1.656" r="1.656" transform="translate(8.159 15.067)" fill="#f9f6f6"/>
        </g>
      </g>
      <g id="Group_69" data-name="Group 69">
        <g id="Group_61" data-name="Group 61">
          <path id="Path_1235" data-name="Path 1235" d="M73.018,49.575V42.212H53.373v7.363c0,4.6,3.162,9.674,7.432,10.741a.242.242,0,0,1,0,.468c-4.269,1.068-7.432,6.141-7.432,10.741v7.524H73.018V71.526c0-4.6-3.162-9.674-7.432-10.741a.242.242,0,0,1,0-.468c4.269-1.068,7.432-6.141,7.432-10.741Z" fill="#bed8fb"/>
        </g>
        <g id="Group_62" data-name="Group 62">
          <path id="Path_1236" data-name="Path 1236" d="M65.587,60.317c4.269-1.068,7.432-6.141,7.432-10.741V42.212H69.052v7.363c0,4.6-3.162,9.674-7.432,10.741a.242.242,0,0,0,0,.468c4.269,1.068,7.432,6.141,7.432,10.741v7.524h3.967V71.526c0-4.6-3.162-9.674-7.432-10.741a.242.242,0,0,1,0-.468Z" fill="#6bbef6"/>
        </g>
        <g id="Group_63" data-name="Group 63">
          <path id="Path_1237" data-name="Path 1237" d="M75.186,80.259a1.208,1.208,0,0,1-1.208-1.208V42.212a1.208,1.208,0,1,1,2.416,0V79.05A1.208,1.208,0,0,1,75.186,80.259Z" fill="#8f4e24"/>
        </g>
        <g id="Group_64" data-name="Group 64">
          <path id="Path_1238" data-name="Path 1238" d="M51.222,80.259a1.208,1.208,0,0,1-1.208-1.208V42.212a1.208,1.208,0,1,1,2.416,0V79.05A1.208,1.208,0,0,1,51.222,80.259Z" fill="#8f4e24"/>
        </g>
        <g id="Group_65" data-name="Group 65">
          <path id="Path_1239" data-name="Path 1239" d="M74.649,45.162H51.742A2.932,2.932,0,0,1,48.81,42.23V42.2a2.932,2.932,0,0,1,2.932-2.932H74.649A2.932,2.932,0,0,1,77.581,42.2v.035A2.932,2.932,0,0,1,74.649,45.162Z" fill="#c56e37"/>
        </g>
        <g id="Group_66" data-name="Group 66">
          <path id="Path_1240" data-name="Path 1240" d="M74.632,39.263H74.2a2.948,2.948,0,0,1-2.919,2.549H48.841a2.929,2.929,0,0,0,2.919,3.35H74.632a2.949,2.949,0,0,0,0-5.9Z" fill="#8f4e24"/>
        </g>
        <g id="Group_67" data-name="Group 67">
          <path id="Path_1241" data-name="Path 1241" d="M74.649,82H51.742a2.932,2.932,0,0,1-2.932-2.932v-.035A2.932,2.932,0,0,1,51.742,76.1H74.649a2.932,2.932,0,0,1,2.932,2.932v.035A2.932,2.932,0,0,1,74.649,82Z" fill="#c56e37"/>
        </g>
        <g id="Group_68" data-name="Group 68">
          <path id="Path_1242" data-name="Path 1242" d="M74.632,76.1H74.2a2.948,2.948,0,0,1-2.919,2.549H48.841A2.929,2.929,0,0,0,51.76,82H74.632a2.949,2.949,0,0,0,0-5.9Z" fill="#8f4e24"/>
        </g>
      </g>
      <g id="Group_74" data-name="Group 74">
        <g id="Group_71" data-name="Group 71">
          <g id="Group_70" data-name="Group 70">
            <path id="Path_1243" data-name="Path 1243" d="M31.085,48.7h-.017a2.416,2.416,0,0,1-1.9-.947L20.7,36.69a2.417,2.417,0,0,1,3.837-2.938l6.578,8.589L44.461,25.4a2.417,2.417,0,1,1,3.8,2.991L32.983,47.776a2.417,2.417,0,0,1-1.9.921Z" fill="#9bd069"/>
          </g>
        </g>
        <g id="Group_73" data-name="Group 73">
          <g id="Group_72" data-name="Group 72">
            <path id="Path_1244" data-name="Path 1244" d="M47.854,25a2.4,2.4,0,0,0-.96-.456,2.411,2.411,0,0,1-.458,2.029L31.162,45.955a2.416,2.416,0,0,1-1.9.921h-.017a2.409,2.409,0,0,1-.887-.179l.806,1.052a2.417,2.417,0,0,0,1.9.947h.017a2.417,2.417,0,0,0,1.9-.921L48.256,28.394a2.416,2.416,0,0,0-.4-3.394Z" fill="#69af81"/>
          </g>
        </g>
      </g>
    </g>
  </g>
</svg>
