<svg xmlns="http://www.w3.org/2000/svg" xmlns:xlink="http://www.w3.org/1999/xlink" width="99" height="33" viewBox="0 0 99 33">
  <defs>
    <linearGradient id="linear-gradient" x1="0.094" y1="0.094" x2="0.896" y2="0.896" gradientUnits="objectBoundingBox">
      <stop offset="0" stop-color="#fff" stop-opacity="0.122"/>
      <stop offset="1" stop-color="#fff"/>
    </linearGradient>
  </defs>
  <g id="Group_1289" data-name="Group 1289" transform="translate(-26 -26.125)">
    <g id="Group_1146" data-name="Group 1146" transform="translate(26 28.058)">
      <rect id="Rectangle_533" data-name="Rectangle 533" width="29.904" height="29.904" rx="5" transform="translate(0 0)" fill="#1d2c7e"/>
      <g id="Group_2" data-name="Group 2" transform="translate(4.623 6.822)">
        <path id="Path_1" data-name="Path 1" d="M3.381,0H8.96a3.381,3.381,0,0,1,3.381,3.381V8.959A3.381,3.381,0,0,1,8.96,12.34H3.381A3.381,3.381,0,0,1,0,8.959V3.381A3.381,3.381,0,0,1,3.381,0Z" transform="translate(3.526 8.726) rotate(-45)" fill="url(#linear-gradient)"/>
        <path id="Path_2" data-name="Path 2" d="M2.367,0H6.594A2.372,2.372,0,0,1,8.959,2.367V6.594A2.372,2.372,0,0,1,6.592,8.959H2.364A2.372,2.372,0,0,1,0,6.592V2.364A2.372,2.372,0,0,1,2.367,0Z" transform="translate(0 8.726) rotate(-45)" fill="url(#linear-gradient)"/>
      </g>
    </g>
    <path id="Path_9" data-name="Path 9" d="M5.862-32.24a3.009,3.009,0,0,1,3.109-2.742,2.8,2.8,0,0,1,2.163.681,2.8,2.8,0,0,1,.947,2.061Zm6.586,3.618A3.071,3.071,0,0,1,9.282-26.5a3.386,3.386,0,0,1-3.506-3.166h9.95c0-.057.057-.619.057-1.159,0-4.466-2.573-7.208-6.869-7.208A6.982,6.982,0,0,0,3.945-35.82a6.982,6.982,0,0,0-1.872,5.107A7.044,7.044,0,0,0,4.04-25.428a7.044,7.044,0,0,0,5.213,2.149,6.263,6.263,0,0,0,6.331-4.409ZM16.857-23.7H21.1c.481-.763,2.346-3.506,2.855-4.268L26.863-23.7h4.409L26.242-30.8,31.1-37.6H26.834l-2.742,4.125c-.481-.763-2.289-3.364-2.77-4.125H16.857l4.95,6.925ZM32.634-27.49c0,2.177,1.809,4.183,4.777,4.183a4.648,4.648,0,0,0,4.1-2.062,9.419,9.419,0,0,0,.141,1.667H45.1a15.57,15.57,0,0,1-.169-2.2v-6.839c0-2.8-1.64-5.286-6.049-5.286-3.731,0-5.738,2.4-5.964,4.579l3.336.706a2.469,2.469,0,0,1,2.657-2.261c1.583,0,2.346.825,2.346,1.809,0,.481-.255.876-1.046.989l-3.42.508c-2.318.339-4.156,1.724-4.156,4.211ZM38.2-26.105a1.631,1.631,0,0,1-1.262-.4,1.631,1.631,0,0,1-.546-1.207,1.753,1.753,0,0,1,1.724-1.753l3.138-.481v.619c0,2.459-1.469,3.222-3.052,3.222Zm14.274,2.4V-44.164H48.709V-23.7Zm8.649-18.062h-3.4v1.95a2,2,0,0,1-.554,1.611,2,2,0,0,1-1.594.6h-.706v3.336h2.516v6.473a4.022,4.022,0,0,0,1.2,3.175A4.022,4.022,0,0,0,61.8-23.5a5.577,5.577,0,0,0,2.12-.339V-26.95a5.455,5.455,0,0,1-1.159.113c-1.074,0-1.64-.4-1.64-1.611v-5.824h2.8V-37.6h-2.8Z" transform="translate(60.08 70.289)" fill="#101010"/>
    <text id="Courier" transform="translate(63 50.125)" fill="#101010" font-size="8" font-family="Rubik-Light, Rubik" font-weight="300"><tspan x="0" y="7">Courier</tspan></text>
  </g>
</svg>
