<svg xmlns="http://www.w3.org/2000/svg" xmlns:xlink="http://www.w3.org/1999/xlink" width="376" height="376" viewBox="0 0 376 376">
  <defs>
    <clipPath id="clip-path">
      <rect id="Rectangle_717" data-name="Rectangle 717" width="376" height="376" transform="translate(2073 2799)" fill="#fff" stroke="#707070" stroke-width="1"/>
    </clipPath>
  </defs>
  <g id="Mask_Group_28" data-name="Mask Group 28" transform="translate(-2073 -2799)" clip-path="url(#clip-path)">
    <g id="Coronavirus_Delivery_Preventions-cuate" data-name="Coronavirus Delivery Preventions-cuate" transform="translate(2005.324 2813.311)">
      <g id="freepik--background-complete--inject-72">
        <rect id="Rectangle_718" data-name="Rectangle 718" width="66.195" height="144.703" transform="translate(248.64 46.309)" fill="#fff"/>
        <path id="Path_2339" data-name="Path 2339" d="M318.892,195.069H244.584V42.259h74.309Zm-66.2-8.114h58.081V50.373H252.7Z" fill="#ebebeb"/>
        <rect id="Rectangle_719" data-name="Rectangle 719" width="66.195" height="4.097" transform="translate(248.64 116.379)" fill="#ebebeb"/>
        <rect id="Rectangle_720" data-name="Rectangle 720" width="66.195" height="4.097" transform="translate(248.64 85.83)" fill="#ebebeb"/>
        <rect id="Rectangle_721" data-name="Rectangle 721" width="63.517" height="3.719" transform="translate(295.43 117.589) rotate(-90)" fill="#ebebeb"/>
        <rect id="Rectangle_722" data-name="Rectangle 722" width="63.517" height="3.719" transform="translate(279.879 117.589) rotate(-90)" fill="#ebebeb"/>
        <rect id="Rectangle_723" data-name="Rectangle 723" width="63.517" height="3.719" transform="translate(264.327 117.589) rotate(-90)" fill="#ebebeb"/>
        <rect id="Rectangle_724" data-name="Rectangle 724" width="81.26" height="14.835" transform="translate(241.108 41.576)" fill="#ebebeb"/>
        <rect id="Rectangle_725" data-name="Rectangle 725" width="81.26" height="10.345" transform="translate(241.108 41.576)" fill="#dbdbdb"/>
        <rect id="Rectangle_726" data-name="Rectangle 726" width="91.49" height="14.835" transform="translate(235.99 34.159)" fill="#ebebeb"/>
        <rect id="Rectangle_727" data-name="Rectangle 727" width="66.195" height="144.703" transform="translate(362.551 46.309)" fill="#fff"/>
        <path id="Path_2340" data-name="Path 2340" d="M432.8,195.069H358.495V42.259H432.8Zm-66.2-8.114H424.69V50.373H366.608Z" fill="#ebebeb"/>
        <rect id="Rectangle_728" data-name="Rectangle 728" width="66.195" height="4.097" transform="translate(362.551 116.379)" fill="#ebebeb"/>
        <rect id="Rectangle_729" data-name="Rectangle 729" width="66.195" height="4.097" transform="translate(362.551 85.83)" fill="#ebebeb"/>
        <rect id="Rectangle_730" data-name="Rectangle 730" width="63.517" height="3.719" transform="translate(409.341 117.589) rotate(-90)" fill="#ebebeb"/>
        <rect id="Rectangle_731" data-name="Rectangle 731" width="63.517" height="3.719" transform="translate(393.789 117.589) rotate(-90)" fill="#ebebeb"/>
        <rect id="Rectangle_732" data-name="Rectangle 732" width="63.517" height="3.719" transform="translate(378.238 117.589) rotate(-90)" fill="#ebebeb"/>
        <rect id="Rectangle_733" data-name="Rectangle 733" width="81.26" height="14.835" transform="translate(355.019 41.576)" fill="#ebebeb"/>
        <rect id="Rectangle_734" data-name="Rectangle 734" width="81.26" height="10.345" transform="translate(355.019 41.576)" fill="#dbdbdb"/>
        <rect id="Rectangle_735" data-name="Rectangle 735" width="91.49" height="14.835" transform="translate(349.907 34.159)" fill="#ebebeb"/>
      </g>
      <g id="freepik--Shadows--inject-72">
        <ellipse id="Ellipse_56" data-name="Ellipse 56" cx="73.863" cy="11.67" rx="73.863" ry="11.67" transform="translate(271.488 289.879)" fill="#ebebeb"/>
        <ellipse id="Ellipse_57" data-name="Ellipse 57" cx="73.863" cy="11.67" rx="73.863" ry="11.67" transform="translate(69.136 289.879)" fill="#ebebeb"/>
      </g>
      <g id="freepik--Floor--inject-72">
        <path id="Path_2341" data-name="Path 2341" d="M67.676,285.869l46.472-.162,46.472-.061,92.937-.108,92.937.108,46.472.061,46.465.162-46.465.169-46.472.061-92.937.108-92.937-.108-46.472-.061Z" fill="#263238"/>
      </g>
      <g id="freepik--Door--inject-72">
        <rect id="Rectangle_736" data-name="Rectangle 736" width="109.333" height="241.94" transform="translate(88.197 43.929)" fill="#c7c7c7"/>
        <rect id="Rectangle_737" data-name="Rectangle 737" width="5.727" height="241.94" transform="translate(88.197 43.929)" fill="#dbdbdb"/>
        <path id="Path_2342" data-name="Path 2342" d="M170.227,273.32l-76.3,12.549V43.929l76.3,17.688Z" fill="#ebebeb"/>
        <path id="Path_2343" data-name="Path 2343" d="M104.418,212.717c.081,2.285.128,4.578.183,6.863s.108,4.571.142,6.856q.115,6.87.156,13.726c.047,4.571.041,9.148.054,13.726s0,9.155-.061,13.733l-.46-.561c3.049-.372,6.085-.723,9.162-1.035l4.584-.453c1.528-.142,3.056-.284,4.584-.4-1.528.3-3.056.581-4.584.852l-4.584.811c-3.056.527-6.085,1.014-9.162,1.481l-.46.068v-.629c-.047-4.578-.054-9.162-.068-13.746s0-9.169.041-13.76.081-9.169.156-13.76c0-2.292.081-4.591.135-6.883S104.337,215.016,104.418,212.717Z" fill="#a6a6a6"/>
        <path id="Path_2344" data-name="Path 2344" d="M127.474,259.513c-.081-2.529-.128-5.064-.183-7.593s-.108-5.064-.142-7.6q-.122-7.607-.169-15.22c-.041-5.071-.041-10.142-.061-15.227s0-10.142.047-15.24l.467.609q-5.68.081-11.373.068c-1.9,0-3.793,0-5.686-.047s-3.793-.047-5.693-.108c1.9-.149,3.793-.264,5.693-.372s3.786-.23,5.686-.318q5.686-.27,11.373-.46h.467v.622c.047,5.071.047,10.142.061,15.207s0,10.142-.041,15.213-.074,10.142-.149,15.227c0,2.536-.074,5.078-.128,7.62S127.549,256.937,127.474,259.513Z" fill="#a6a6a6"/>
        <path id="Path_2345" data-name="Path 2345" d="M136.582,211.243c.081,2.164.128,4.327.189,6.491s.108,4.327.142,6.491q.115,6.491.162,12.989c.047,4.327.047,8.661.061,12.989s0,8.668-.054,13l-.46-.534q4.584-.561,9.162-1.041l4.584-.46c1.528-.149,3.056-.3,4.584-.412-1.528.3-3.056.568-4.584.838l-4.578.8q-4.584.778-9.169,1.474l-.453.068v-.6c-.047-4.334-.061-8.675-.074-13.009s0-8.682.034-13.023.074-8.689.149-13.029c.034-2.17.074-4.341.135-6.511S136.515,213.413,136.582,211.243Z" fill="#a6a6a6"/>
        <path id="Path_2346" data-name="Path 2346" d="M159.679,255.375c-.081-2.387-.135-4.78-.189-7.167s-.108-4.787-.149-7.181q-.108-7.181-.169-14.368c-.054-4.794-.054-9.588-.074-14.382s0-9.595,0-14.388l.473.568c-3.793.061-7.586.081-11.373.081-1.9,0-3.793,0-5.693-.041s-3.793-.041-5.686-.095c1.893-.142,3.793-.25,5.686-.358s3.793-.216,5.686-.3c3.793-.176,7.586-.331,11.38-.446h.46v.588c.054,4.787.054,9.574.074,14.361s0,9.574,0,14.361-.068,9.588-.135,14.382c0,2.4-.074,4.794-.128,7.2S159.754,252.968,159.679,255.375Z" fill="#a6a6a6"/>
        <path id="Path_2347" data-name="Path 2347" d="M104.4,103.748c.081,2.306.128,4.6.183,6.9s.108,4.591.142,6.883q.115,6.876.156,13.753c.047,4.578.041,9.155.047,13.733s0,9.148-.054,13.726l-.46-.676c3.049.183,6.085.385,9.148.629l4.571.379c1.521.135,3.049.264,4.571.426h-9.142c-3.049,0-6.085-.095-9.148-.183h-.453v-.636c-.047-4.584-.054-9.169-.068-13.76s0-9.169.047-13.746.074-9.162.149-13.739q.047-3.428.142-6.856Q104.289,107.18,104.4,103.748Z" fill="#a6a6a6"/>
        <path id="Path_2348" data-name="Path 2348" d="M127.407,154.723c-.074-2.542-.128-5.085-.183-7.627s-.108-5.1-.108-7.62q-.108-7.627-.162-15.247c-.047-5.085-.047-10.142-.061-15.24s0-10.142.047-15.234l.467.676q-5.68-.953-11.353-2.028c-1.893-.338-3.786-.676-5.68-1.075s-3.786-.737-5.68-1.143c1.893.2,3.786.433,5.68.676s3.786.46,5.68.717q5.673.764,11.353,1.6l.46.068v.622c.047,5.078.047,10.142.068,15.22s0,10.142-.047,15.2-.074,10.142-.142,15.2c0,2.536-.081,5.064-.135,7.6S127.488,152.188,127.407,154.723Z" fill="#a6a6a6"/>
        <path id="Path_2349" data-name="Path 2349" d="M136.515,108.116c.081,2.177.128,4.348.183,6.525s.108,4.341.149,6.511q.115,6.511.162,13.016c.047,4.334.047,8.668.054,13s0,8.661-.047,13l-.433-.588q4.571.264,9.148.615l4.571.372c1.528.128,3.049.257,4.578.412H150.3l-4.571-.034q-4.578-.054-9.148-.189h-.453v-.6c-.047-4.341-.061-8.682-.074-13.023s0-8.675.041-13.016.068-8.668.142-13c.034-2.164.074-4.327.135-6.491S136.433,110.273,136.515,108.116Z" fill="#a6a6a6"/>
        <path id="Path_2350" data-name="Path 2350" d="M159.571,156.42c-.081-2.4-.128-4.8-.189-7.2s-.108-4.8-.142-7.2q-.122-7.2-.176-14.4c-.047-4.8-.047-9.595-.068-14.388s0-9.595,0-14.382l.467.676q-5.666-.947-11.353-1.981-2.84-.514-5.68-1.075c-1.886-.365-3.78-.723-5.673-1.122,1.893.2,3.786.439,5.673.676s3.786.473,5.68.73q5.68.764,11.353,1.616l.467.068v.588c.047,4.794.047,9.581.068,14.368s0,9.574,0,14.355-.068,9.568-.135,14.348c0,2.394-.074,4.787-.128,7.174S159.625,154.027,159.571,156.42Z" fill="#a6a6a6"/>
        <path id="Path_2351" data-name="Path 2351" d="M104.391,63.558c.156,2.414.257,4.807.338,7.194s.122,4.78.149,7.16l-.487-.757q2.292.365,4.571.778c1.521.291,3.043.575,4.564.906s3.049.676,4.571,1.035,3.043.764,4.564,1.224c-1.521-.081-3.043-.23-4.564-.412s-3.043-.372-4.571-.6-3.043-.473-4.564-.73-3.043-.554-4.564-.859l-.5-.1v-.676c0-2.373.074-4.733.149-7.106S104.235,65.884,104.391,63.558Z" fill="#a6a6a6"/>
        <path id="Path_2352" data-name="Path 2352" d="M127.366,80.617c-.081-1.352-.135-2.657-.189-3.983s-.1-2.657-.142-3.976c-.074-2.651-.128-5.3-.156-7.938l.473.723c-1.886-.338-3.78-.737-5.673-1.116s-3.78-.8-5.673-1.251-3.766-.872-5.673-1.393c-.947-.243-1.893-.507-2.84-.778s-1.893-.527-2.84-.832c.947.095,1.893.223,2.84.352s1.893.257,2.84.412q2.833.446,5.673.98c1.893.338,3.78.737,5.673,1.116s3.78.8,5.673,1.251l.487.115v.609q-.041,3.935-.156,7.864c-.034,1.312-.074,2.617-.135,3.922S127.441,79.319,127.366,80.617Z" fill="#a6a6a6"/>
        <path id="Path_2353" data-name="Path 2353" d="M136.481,70.056c.162,2.279.264,4.55.338,6.816s.128,4.517.162,6.761l-.487-.717q2.285.365,4.564.784c1.521.284,3.049.568,4.571.893s3.043.676,4.564,1.028,3.049.751,4.571,1.2c-1.521-.095-3.043-.25-4.571-.433s-3.043-.385-4.564-.615-3.043-.48-4.564-.737-3.049-.554-4.571-.859l-.494-.1v-.615c0-2.252.074-4.49.149-6.761S136.325,72.274,136.481,70.056Z" fill="#a6a6a6"/>
        <path id="Path_2354" data-name="Path 2354" d="M159.463,86.446c-.081-1.258-.135-2.515-.189-3.766s-.108-2.509-.142-3.759c-.074-2.5-.135-5-.162-7.5l.473.676c-1.886-.345-3.78-.744-5.673-1.122s-3.78-.8-5.673-1.251-3.786-.893-5.673-1.352c-.947-.237-1.893-.5-2.84-.764s-1.893-.527-2.84-.818c.947.095,1.893.23,2.84.365s1.893.264,2.84.419c1.886.3,3.78.629,5.673.987s3.78.744,5.673,1.122,3.78.8,5.673,1.251l.48.115v.581q-.041,3.712-.149,7.438c-.034,1.237-.074,2.475-.135,3.705S159.571,85.195,159.463,86.446Z" fill="#a6a6a6"/>
        <path id="Path_2355" data-name="Path 2355" d="M149.909,167.969l.027,22.949,9.622-.1-.027-22.55Z" fill="#fff"/>
        <path id="Path_2356" data-name="Path 2356" d="M152.2,173.054l.007,5.179,7.336-.642-.007-4.381Z" fill="#ebebeb"/>
        <path id="Path_2357" data-name="Path 2357" d="M152.2,170.457l.007,5.186,12.759.216-.007-5.058Z" fill="#fff"/>
        <path id="Path_2358" data-name="Path 2358" d="M207.314,34.159v251.71h-9.777V43.929H88.2v241.94h-9.77V34.159Z" fill="#263238"/>
      </g>
      <g id="freepik--Boxes--inject-72">
        <rect id="Rectangle_738" data-name="Rectangle 738" width="81.544" height="57.899" transform="translate(200.505 228.086)" fill="red"/>
        <rect id="Rectangle_739" data-name="Rectangle 739" width="27.763" height="57.899" transform="translate(228.275 285.978) rotate(180)" fill="#263238" opacity="0.1"/>
        <path id="Path_2359" data-name="Path 2359" d="M202.419,281.995q3.083-6.173,6.085-12.394l6.024-12.455,5.943-12.5q2.962-6.268,5.862-12.576-3.09,6.173-6.085,12.394l-6.025,12.475-5.95,12.509Q205.326,275.686,202.419,281.995Z" fill="red"/>
        <path id="Path_2360" data-name="Path 2360" d="M202.419,232.068q2.9,6.308,5.855,12.576l5.95,12.5,6.024,12.455q3.022,6.214,6.085,12.394-2.9-6.308-5.862-12.57l-5.916-12.488-6.025-12.455Q205.509,238.248,202.419,232.068Z" fill="red"/>
        <rect id="Rectangle_740" data-name="Rectangle 740" width="8.432" height="14.821" transform="translate(210.113 228.086)" fill="#ebebeb"/>
        <rect id="Rectangle_741" data-name="Rectangle 741" width="0.588" height="8.33" transform="translate(266.051 273.868)" fill="#263238"/>
        <rect id="Rectangle_742" data-name="Rectangle 742" width="0.588" height="8.33" transform="translate(267.471 273.868)" fill="#263238"/>
        <rect id="Rectangle_743" data-name="Rectangle 743" width="0.588" height="8.33" transform="translate(268.884 273.868)" fill="#263238"/>
        <rect id="Rectangle_744" data-name="Rectangle 744" width="0.588" height="8.33" transform="translate(270.304 273.868)" fill="#263238"/>
        <rect id="Rectangle_745" data-name="Rectangle 745" width="0.588" height="8.33" transform="translate(271.724 273.868)" fill="#263238"/>
        <rect id="Rectangle_746" data-name="Rectangle 746" width="0.588" height="8.33" transform="translate(273.137 273.868)" fill="#263238"/>
        <rect id="Rectangle_747" data-name="Rectangle 747" width="0.588" height="8.33" transform="translate(274.557 273.868)" fill="#263238"/>
        <rect id="Rectangle_748" data-name="Rectangle 748" width="0.588" height="8.33" transform="translate(275.97 273.868)" fill="#263238"/>
        <rect id="Rectangle_749" data-name="Rectangle 749" width="0.588" height="8.33" transform="translate(277.39 273.868)" fill="#263238"/>
        <path id="Path_2361" data-name="Path 2361" d="M260.257,281.562l2.272.636h-5.335l2.272-.642V278.5c-1.623-.216-2.272-1.819-2.272-4.625h5.335c0,2.8-.676,4.408-2.272,4.625Z" fill="#263238"/>
        <path id="Path_2362" data-name="Path 2362" d="M255.95,278.121h-1.393V282.2h-3.563v-4.077h-1.4l3.185-4.246Z" fill="#263238"/>
        <rect id="Rectangle_750" data-name="Rectangle 750" width="66.993" height="47.567" transform="translate(213.014 180.532)" fill="red"/>
        <rect id="Rectangle_751" data-name="Rectangle 751" width="22.813" height="47.567" transform="translate(235.827 228.099) rotate(180)" fill="#263238" opacity="0.1"/>
        <path id="Path_2363" data-name="Path 2363" d="M214.59,224.82q2.536-5.071,5.024-10.176l4.949-10.23,4.882-10.277q2.434-5.146,4.814-10.325-2.536,5.071-5.024,10.142L224.286,204.2,219.4,214.475Q216.97,219.64,214.59,224.82Z" fill="red"/>
        <path id="Path_2364" data-name="Path 2364" d="M214.59,183.811q2.387,5.173,4.814,10.325l4.882,10.277,4.929,10.23q2.488,5.1,5.024,10.176-2.38-5.173-4.814-10.325l-4.862-10.3-4.949-10.21Q217.132,188.889,214.59,183.811Z" fill="red"/>
        <rect id="Rectangle_752" data-name="Rectangle 752" width="6.931" height="12.177" transform="translate(220.912 180.532)" fill="#ebebeb"/>
        <rect id="Rectangle_753" data-name="Rectangle 753" width="0.487" height="6.843" transform="translate(266.869 218.153)" fill="#263238"/>
        <rect id="Rectangle_754" data-name="Rectangle 754" width="0.487" height="6.843" transform="translate(268.032 218.153)" fill="#263238"/>
        <rect id="Rectangle_755" data-name="Rectangle 755" width="0.487" height="6.843" transform="translate(269.195 218.153)" fill="#263238"/>
        <rect id="Rectangle_756" data-name="Rectangle 756" width="0.487" height="6.843" transform="translate(270.358 218.153)" fill="#263238"/>
        <rect id="Rectangle_757" data-name="Rectangle 757" width="0.487" height="6.843" transform="translate(271.521 218.153)" fill="#263238"/>
        <rect id="Rectangle_758" data-name="Rectangle 758" width="0.487" height="6.843" transform="translate(272.691 218.153)" fill="#263238"/>
        <rect id="Rectangle_759" data-name="Rectangle 759" width="0.487" height="6.843" transform="translate(273.854 218.153)" fill="#263238"/>
        <rect id="Rectangle_760" data-name="Rectangle 760" width="0.487" height="6.843" transform="translate(275.017 218.153)" fill="#263238"/>
        <rect id="Rectangle_761" data-name="Rectangle 761" width="0.487" height="6.843" transform="translate(276.18 218.153)" fill="#263238"/>
        <path id="Path_2365" data-name="Path 2365" d="M262.1,224.482l1.873.521h-4.388l1.873-.521v-2.515c-1.352-.176-1.873-1.494-1.873-3.8h4.388c0,2.3-.534,3.624-1.873,3.8Z" fill="#263238"/>
        <path id="Path_2366" data-name="Path 2366" d="M258.566,221.642h-1.143v3.347H254.5v-3.347h-1.149l2.617-3.489Z" fill="#263238"/>
        <path id="Path_2367" data-name="Path 2367" d="M280.007,228.1V224.82l-44.18-6.065V228.1Z" fill="#263238" opacity="0.1"/>
      </g>
      <g id="freepik--Plant--inject-72">
        <path id="Path_2368" data-name="Path 2368" d="M407.664,230.865s14.99-3.381,23.205-10.967,12.806-21.109,12.806-21.109a128.854,128.854,0,0,0-16.809,4.415,28.015,28.015,0,0,0-5.091,7.187,34.336,34.336,0,0,1,0-5.139,22.82,22.82,0,0,0-5.342,3.239C409.591,214.434,407.664,230.865,407.664,230.865Z" fill="red"/>
        <path id="Path_2369" data-name="Path 2369" d="M434.311,205.353c2.028-1.413,4.125-2.772,6.16-4.2.122-.088,0-.284-.122-.2-3.861,2.306-7.668,4.774-11.353,7.357-1.285.9-2.549,1.839-3.793,2.792.088-.149.169-.3.264-.446.446-.751.92-1.494,1.393-2.231a31.9,31.9,0,0,1,3.171-4.226c.041-.047,0-.115-.074-.068-1.163,1.352-2.333,2.7-3.381,4.1a24.834,24.834,0,0,0-1.42,2.1c-.237.372-.46.744-.676,1.129-.068.128-.149.257-.223.385-1.941,1.521-3.827,3.11-5.626,4.787-1.116,1.035-2.184,2.11-3.218,3.218.575-1.812,1.082-3.651,1.758-5.409,0-.061-.081-.088-.1,0-.676,1.873-1.352,3.753-1.873,5.68q-1.724,1.859-3.279,3.861a.4.4,0,0,1,.054-.243c.169-.676.345-1.413.534-2.11.365-1.352.764-2.7,1.224-4.057a23.469,23.469,0,0,1,4.057-7.6.054.054,0,0,0-.074-.074,29.235,29.235,0,0,0-5.74,11.988c-.156.636-.311,1.278-.453,1.92-.081.338-.169.676-.223,1.035-.453.615-.9,1.231-1.352,1.866a65.073,65.073,0,0,0-6.342,12.434,145.1,145.1,0,0,0-4.807,14.977c0,.1.122.135.155.041,2.935-8.79,5.93-17.668,10.947-25.5a58.165,58.165,0,0,1,3.421-4.794,28.168,28.168,0,0,0,7.248-1.494,32.5,32.5,0,0,0,7.3-3.529,46.02,46.02,0,0,0,3.746-2.826.054.054,0,1,0-.068-.081,29.979,29.979,0,0,1-6.87,4.158,37.649,37.649,0,0,1-7.559,2.536c-1.109.243-2.225.419-3.381.568a64.478,64.478,0,0,1,4.422-4.9c.507-.5,1.028-.987,1.548-1.474a35.746,35.746,0,0,1,5.592-3.164c2.454-1.183,4.875-2.441,7.3-3.678,1.352-.676,2.7-1.413,4.118-2.083.061,0,0-.122-.054-.088-2.461,1.19-4.963,2.3-7.438,3.442-2.34,1.068-4.733,2.143-6.958,3.381l-.284.169c2.028-1.772,4.131-3.455,6.288-5.078C430.248,208.254,432.269,206.773,434.311,205.353Z" fill="#263238"/>
        <path id="Path_2370" data-name="Path 2370" d="M433.459,213.082c-1.217.534-2.454,1.007-3.665,1.575s-2.414,1.258-3.59,1.954c-.054.034,0,.1.047.081,1.19-.575,2.4-1.109,3.59-1.7s2.407-1.264,3.651-1.805C433.554,213.156,433.52,213.055,433.459,213.082Z" fill="#263238"/>
        <path id="Path_2371" data-name="Path 2371" d="M358.975,155.325a21.461,21.461,0,0,1,4.483,12.448c.047,1.352-.169,3.218-.325,5.409a35.515,35.515,0,0,1,9.784,8.357,17.512,17.512,0,0,0-9.885-2.367,29.386,29.386,0,0,0,.575,4.483,16.818,16.818,0,0,1,6.356,1.258,14.294,14.294,0,0,0-5.734,1.136c2.7,8.5,10.616,17.235,32.543,20.961a45.978,45.978,0,0,0-3.881-30.859C386.318,163.223,358.975,155.325,358.975,155.325Z" fill="red"/>
        <path id="Path_2372" data-name="Path 2372" d="M404.337,243.414q-.568-5.45-1.42-10.866A217.355,217.355,0,0,0,398.5,211.08a86.325,86.325,0,0,0-3.164-9.777,15.367,15.367,0,0,0,.081-1.758v-2.11c0-1.4-.081-2.806-.2-4.206a49.762,49.762,0,0,0-1.352-8.222c-.4-1.562-.865-3.1-1.352-4.645,0-.061-.115-.034-.095,0a61.579,61.579,0,0,1,1.616,8.208,77.973,77.973,0,0,1,.737,8.229c0,.757.041,1.508.041,2.265v.967a70.38,70.38,0,0,0-3.7-7.647,93.046,93.046,0,0,0-7.505-11.231,4.732,4.732,0,0,0-.183-1.224c-.1-.494-.21-.98-.318-1.467-.223-1.007-.473-2.028-.744-2.989-.548-1.988-1.271-3.908-1.886-5.869,0-.068-.122-.034-.1,0,.581,1.941.967,3.955,1.406,5.93.223.98.44,1.961.676,2.934.108.494.216.98.318,1.474v.108c-.886-1.116-1.792-2.225-2.7-3.306-4.185-4.909-8.79-9.466-13.4-13.942-.568-.548-1.149-1.089-1.724-1.636a.054.054,0,0,0-.074.074c4.422,4.611,8.79,9.27,12.887,14.145.98,1.163,1.941,2.333,2.887,3.523l-1.494-.994c-1.278-.832-2.569-1.643-3.9-2.387s-2.7-1.481-4.057-2.157-2.907-1.264-4.266-2.028c-.061,0-.108.061-.047.088a31.588,31.588,0,0,1,4,2.218c1.352.791,2.671,1.589,3.982,2.421s2.583,1.623,3.861,2.454c1.068.676,2.116,1.447,3.225,2.089a102.511,102.511,0,0,1,7.025,10.223,74.443,74.443,0,0,1,3.631,6.89l-.784-.345-2.028-.886c-1.291-.575-2.583-1.136-3.881-1.7-2.461-1.068-4.956-2.028-7.37-3.225a33.31,33.31,0,0,1-3.935-2.184c-.054-.041-.1.047-.047.088,4.5,3.1,9.534,5.281,14.51,7.485l2.157.953c.6.264,1.19.554,1.8.784a77.288,77.288,0,0,1,3.712,10.142,206.825,206.825,0,0,1,4.733,21.218c1.258,7.16,2.11,14.375,2.772,21.637.081.9.162,1.805.264,2.7a.284.284,0,1,0,.568,0A84.9,84.9,0,0,0,404.337,243.414Z" fill="#263238"/>
        <path id="Path_2373" data-name="Path 2373" d="M391.024,182.817c-.406-2.231-1-4.415-1.6-6.592a.054.054,0,0,0-.1,0c.554,2.143.953,4.327,1.352,6.5s.778,4.449,1.089,6.68h.061A58.526,58.526,0,0,0,391.024,182.817Z" fill="#263238"/>
        <path id="Path_2374" data-name="Path 2374" d="M381.572,188.862a39.3,39.3,0,0,0-4.767-2.7c-.8-.412-1.609-.8-2.421-1.2s-1.7-.744-2.529-1.163a.055.055,0,0,0-.054.095c.8.4,1.562.886,2.353,1.319l2.434,1.352c1.6.859,3.178,1.812,4.862,2.515a.124.124,0,1,0,.122-.216Z" fill="#263238"/>
        <path id="Path_2375" data-name="Path 2375" d="M407.935,204.873s13.875-3.313,20.244-12.617c6.085-8.885,8.046-24.03,8.2-25.369-.25,1.224-3.11,14.463-12.556,20.629C416.6,192.27,409.611,196.151,407.935,204.873Z" fill="#263238" opacity="0.1"/>
        <path id="Path_2376" data-name="Path 2376" d="M420.741,180.938a17.722,17.722,0,0,0-5.118,8.418h.047A20.65,20.65,0,0,1,420.808,181C420.856,180.965,420.788,180.89,420.741,180.938Z" fill="#263238"/>
        <path id="Path_2377" data-name="Path 2377" d="M407.935,204.873s13.875-3.313,20.244-12.617c6.085-8.885,8.046-24.03,8.2-25.369a.47.47,0,0,0,0-.088s-6.647,9.466-13.645,11.866S405.933,189.444,407.935,204.873Z" fill="red"/>
        <path id="Path_2378" data-name="Path 2378" d="M433.939,172.04a57.472,57.472,0,0,1-4.287,7.329,29.554,29.554,0,0,1-5.707,5.9c-1.886,1.494-3.881,2.847-5.788,4.314a.411.411,0,0,0,.047-.068c.358-.527.737-1.048,1.136-1.548.791-1.021,1.663-1.974,2.536-2.921,1.724-1.873,3.482-3.705,5.024-5.727a21.1,21.1,0,0,0,2.224-3.584c0-.061-.068-.095-.095-.034-2.252,4.686-6.762,7.688-9.946,11.643A20.137,20.137,0,0,0,417.8,189.1a7.341,7.341,0,0,0-.8,1.406,29.31,29.31,0,0,0-4.733,4.78,19.985,19.985,0,0,1,.554-2.7,13.464,13.464,0,0,1,1.474-3.509c0-.061-.054-.115-.088-.061a16.677,16.677,0,0,0-1.616,3.489,12.683,12.683,0,0,0-.507,3h0a27.383,27.383,0,0,0-1.873,2.914c.061-.3.115-.6.176-.893.27-1.352.575-2.759.933-4.118a24.665,24.665,0,0,1,3.34-7.816.054.054,0,0,0-.088-.054,29.662,29.662,0,0,0-3.692,7.641c-.446,1.352-.8,2.745-1.109,4.145-.156.676-.291,1.352-.419,2.028-.068.358-.149.723-.2,1.089a49.534,49.534,0,0,0-3.2,9.4,138.641,138.641,0,0,0-2.968,17.566,146.375,146.375,0,0,0-.953,18.621c0,.778.061,1.555.1,2.333a.159.159,0,1,0,.318,0c.142-3.076.216-6.153.4-9.229s.453-6.153.784-9.216a162.278,162.278,0,0,1,2.887-17.932c1.122-5.071,2.583-10.142,5.355-14.618a27.391,27.391,0,0,1,5-5.95c1.941-1.744,4.057-3.273,6.119-4.889a33.47,33.47,0,0,0,5.619-5.409,44.182,44.182,0,0,0,4.409-7.16l.994-1.88C434.088,172.04,433.966,171.979,433.939,172.04Z" fill="#263238"/>
        <path id="Path_2379" data-name="Path 2379" d="M431.546,174.075a48.011,48.011,0,0,1-3.09,5.409.037.037,0,0,0,.061.041,38.071,38.071,0,0,0,3.124-5.409A.052.052,0,1,0,431.546,174.075Z" fill="#263238"/>
        <path id="Path_2380" data-name="Path 2380" d="M357.041,198.788s-.223,19.71,11.569,25.4,18.1.953,26.106,2.86h0c-.311-.467-6.024-8.682-15.112-10.947C370.239,213.731,359.874,206.976,357.041,198.788Z" fill="red"/>
        <path id="Path_2381" data-name="Path 2381" d="M357.041,198.788s-.223,19.71,11.569,25.4,18.1.953,26.106,2.86h0a44.626,44.626,0,0,0-13.394-3.949C373.911,222.162,359.712,217.321,357.041,198.788Z" opacity="0.1"/>
        <path id="Path_2382" data-name="Path 2382" d="M395.493,227.369a19.991,19.991,0,0,0-4.686-3.171c-.257-.122-.514-.216-.771-.331a4.953,4.953,0,0,0-.4-.446,13.628,13.628,0,0,0-1.109-1.055,16.324,16.324,0,0,0-2.366-1.711c-1.954-1.149-4.057-1.954-6.085-3.022a.054.054,0,0,0-.047.095c.987.507,1.941,1.075,2.9,1.636s1.893,1.062,2.8,1.65a19.608,19.608,0,0,1,2.333,1.751c.21.183.406.379.6.575a31.961,31.961,0,0,0-3.982-1.055c-2.157-.44-4.334-.744-6.491-1.2a29.164,29.164,0,0,1-3.124-.845c-.98-.784-1.954-1.569-2.88-2.421a24.089,24.089,0,0,1-3.049-3.381c0-.054-.122,0-.088.054a36.115,36.115,0,0,0,4.862,5.328c-.507-.189-1.014-.4-1.508-.622a24.287,24.287,0,0,1-10.041-8.357.054.054,0,0,0-.088.054,27.513,27.513,0,0,0,8.114,7.8,24.254,24.254,0,0,0,5.132,2.427,46.717,46.717,0,0,0,6.376,1.508,44.9,44.9,0,0,1,6.248,1.488,18.77,18.77,0,0,1,5.24,2.752,24.538,24.538,0,0,1,7.059,8.79,43.748,43.748,0,0,1,3.888,14.409c0,.21.352.21.338,0C404.094,241.744,401.883,233.123,395.493,227.369Z" fill="#263238"/>
        <path id="Path_2383" data-name="Path 2383" d="M381.815,220.945a6.761,6.761,0,0,0-2.421-2.2,8.925,8.925,0,0,1-2.88-2.38c-.041-.054-.128,0-.088.047a9.506,9.506,0,0,0,2.542,2.279,8.857,8.857,0,0,1,2.772,2.3C381.774,221.033,381.849,220.993,381.815,220.945Z" fill="#263238"/>
        <path id="Path_2384" data-name="Path 2384" d="M388.069,241.92l.534,10.839,1.643,33.111h24.727l1.643-33.111.534-10.839Z" fill="#37474f"/>
        <path id="Path_2385" data-name="Path 2385" d="M388.069,241.92l.534,10.839h28.013l.534-10.839Z" fill="#263238"/>
        <rect id="Rectangle_762" data-name="Rectangle 762" width="32.55" height="10.338" transform="translate(418.881 247.734) rotate(180)" fill="#37474f"/>
      </g>
      <g id="freepik--character-2--inject-72">
        <path id="Path_2386" data-name="Path 2386" d="M350.617,257.032v29.135c0,5.571-.047,10.453-.318,12.975a.088.088,0,0,1,0,.041,3.9,3.9,0,0,1-.4,1.724l-.034.034c-1.65,1.129-46.147,2.657-47.716,2.184s-.352-4.976,1.352-6.417,18.459-9.635,18.459-9.635l.284-29.108Z" fill="#ad6359"/>
        <path id="Path_2387" data-name="Path 2387" d="M350.611,280.19v5.977c0,5.571-.047,10.453-.318,12.975a.088.088,0,0,1,0,.041,7.642,7.642,0,0,1-.4,1.724l-.034.034c-1.65,1.129-46.147,2.657-47.716,2.184s-.352-4.976,1.352-6.417,18.459-9.635,18.459-9.635l-.081-6.085Z" fill="#c7c7c7"/>
        <path id="Path_2388" data-name="Path 2388" d="M302.137,303.125c1.575.473,46.059-1.048,47.716-2.184.636-.419.791-6.917.757-14.774v-.243L321.9,286.6v.487s-16.769,8.2-18.459,9.642S300.569,302.665,302.137,303.125Z" fill="#455a64"/>
        <path id="Path_2389" data-name="Path 2389" d="M302.584,301.387c7.492-.446,37.756-1.515,45.194-1.352.061,0,.068.041,0,.047-7.438.6-37.689,1.42-45.2,1.454C302.428,301.509,302.421,301.394,302.584,301.387Z" fill="#263238"/>
        <path id="Path_2390" data-name="Path 2390" d="M319.514,287.242c2.928-.676,6.552-.325,8.885,1.7.088.074,0,.2-.122.176a41.521,41.521,0,0,0-8.743-1.508.189.189,0,0,1-.02-.372Z" fill="#263238"/>
        <path id="Path_2391" data-name="Path 2391" d="M317.425,288.6c2.934-.676,6.559-.325,8.885,1.7.088.081,0,.21-.122.183a41.539,41.539,0,0,0-8.736-1.508.189.189,0,0,1-.027-.372Z" fill="#263238"/>
        <path id="Path_2392" data-name="Path 2392" d="M315.343,289.953c2.928-.676,6.552-.318,8.885,1.7.088.081,0,.2-.122.183a41.529,41.529,0,0,0-8.743-1.515.189.189,0,0,1-.02-.372Z" fill="#263238"/>
        <path id="Path_2393" data-name="Path 2393" d="M353.166,149.071,353.139,151l-1.089,85.1-.007.325L351.4,287.4l-31.143-.622,6.011-137.6.081-1.839.3-15.964h26.3Z" fill="#263238"/>
        <path id="Path_2394" data-name="Path 2394" d="M321.563,281.583c4.862-.047,3.469-.1,8.33-.088,2.38,0,18.013.061,20.23.453.054,0,.047.088,0,.1-2.224.338-17.857,0-20.237-.041-4.862-.1-3.469-.128-8.323-.284a.074.074,0,1,1,0-.142Z" fill="#455a64"/>
        <path id="Path_2395" data-name="Path 2395" d="M349.481,141.248c-1.143,17.884-1.961,35.8-2.7,53.707s-1.264,35.613-1.575,53.456q-.264,15.085-.216,30.156a.054.054,0,0,0,.108,0c.27-8.959.548-17.918.784-26.877s.453-17.918.676-26.87q.73-26.728,1.812-53.416c.406-10.048.872-20.088,1.285-30.129C349.684,141.112,349.488,141.119,349.481,141.248Z" fill="#455a64"/>
        <path id="Path_2396" data-name="Path 2396" d="M385.547,255.456s3.922,28.851,3.928,28.872c.778,5.517,1.352,10.359,1.433,12.9v.041a3.815,3.815,0,0,1-.169,1.758v.041c-1.481,1.352-45.363,8.858-46.986,8.6s-1.021-4.889.446-6.538,16.992-12.035,16.992-12.035l-3.644-28.878Z" fill="#ad6359"/>
        <path id="Path_2397" data-name="Path 2397" d="M388.664,278.4s.8,5.9.811,5.923c.778,5.517,1.352,10.359,1.433,12.9v.041a7.612,7.612,0,0,1-.169,1.758s0,0,0,.041c-1.481,1.352-45.363,8.858-46.986,8.6s-1.021-4.889.446-6.538,16.992-12.035,16.992-12.035l-.9-6Z" fill="#c7c7c7"/>
        <path id="Path_2398" data-name="Path 2398" d="M343.727,307.648c1.623.257,45.5-7.255,46.986-8.6.575-.507-.149-6.964-1.244-14.74v-.243l-28.4,4.53.095.48s-15.511,10.406-17.005,12.063S342.132,307.425,343.727,307.648Z" fill="#455a64"/>
        <path id="Path_2399" data-name="Path 2399" d="M343.937,305.883c7.363-1.447,37.188-6.592,44.626-7.438.061,0,.068,0,0,.047-7.269,1.6-37.154,6.5-44.585,7.539C343.8,306.025,343.781,305.917,343.937,305.883Z" fill="#263238"/>
        <path id="Path_2400" data-name="Path 2400" d="M358.806,289.588c2.813-1.041,6.45-1.2,9.027.487.1.068,0,.21-.088.2a40.913,40.913,0,0,0-8.864-.318.189.189,0,0,1-.074-.365Z" fill="#263238"/>
        <path id="Path_2401" data-name="Path 2401" d="M356.919,291.211c2.82-1.041,6.45-1.2,9.033.487.1.068,0,.21-.095.2a41.787,41.787,0,0,0-8.864-.318.189.189,0,0,1-.074-.365Z" fill="#263238"/>
        <path id="Path_2402" data-name="Path 2402" d="M355.033,292.84c2.82-1.041,6.457-1.21,9.033.487.1.068,0,.2-.095.189a41.325,41.325,0,0,0-8.864-.311.189.189,0,0,1-.074-.365Z" fill="#263238"/>
        <path id="Path_2403" data-name="Path 2403" d="M329.332,131.342h0c.115.541,1.954,9.074,3.861,16.4,1.352,5.355,2.813,10.061,3.631,10.548.926.548,5.409,2.549,6.958,3.178l6.91,66.094,9.358,61.246,30.569-4.733L368.867,150.105l-3.543-18.75Z" fill="#263238"/>
        <path id="Path_2404" data-name="Path 2404" d="M360.232,282.718c4.8-.771,3.415-.622,8.222-1.352,2.353-.352,17.823-2.644,20.075-2.59.047,0,.061.088,0,.1-2.15.676-17.654,2.7-20.014,3-4.821.622-3.448.392-8.276.96a.068.068,0,0,1-.007-.122Z" fill="#455a64"/>
        <path id="Path_2405" data-name="Path 2405" d="M369.516,157.5c-.811-.21-1.684-.277-2.515-.412q-1.014-.152-2.028-.365a8.837,8.837,0,0,1-3.53-1.488,8.369,8.369,0,0,1-2.285-3.557c-.331-.778-.676-1.542-1.021-2.312q-.243-.561-.507-1.116a11.317,11.317,0,0,1-.622-1.352c0-.068-.128-.034-.1,0a9.691,9.691,0,0,1,.277.96c.115.379.223.751.338,1.122.2.676.406,1.352.629,1.995a15.583,15.583,0,0,0,1.413,3.5c1.224,1.954,3.421,2.745,5.612,3.022.629.074,1.264.122,1.893.156a13.481,13.481,0,0,0,2.394,0C369.61,157.7,369.644,157.543,369.516,157.5Z" fill="#455a64"/>
        <path id="Path_2406" data-name="Path 2406" d="M334.43,157.124a59.387,59.387,0,0,1,9.311,4.334c.115.068.034.25-.088.2-3.137-1.352-6.336-2.637-9.392-4.152a.21.21,0,0,1,.169-.379Z" fill="#455a64"/>
        <path id="Path_2407" data-name="Path 2407" d="M333.484,135.642c0-.108.2-.135.2,0a104.815,104.815,0,0,0,.527,10.474c.149,1.616,1.447,10.548,4.246,9.9.467-.108.71-.575.784-1.278a11.171,11.171,0,0,0-.372-2.738c-.311-1.873-.561-3.746-.723-5.632a51.522,51.522,0,0,1,.115-10.561.095.095,0,0,1,.182,0,96.472,96.472,0,0,0,.852,14.585c.352,2.319,1.521,5.815-.913,6.173s-4.057-5.49-4.375-7.093A53.748,53.748,0,0,1,333.484,135.642Z" fill="#455a64"/>
        <path id="Path_2408" data-name="Path 2408" d="M338.379,156.238a13.893,13.893,0,0,1,.629,1.853,4.22,4.22,0,0,1,.264,1.521.108.108,0,0,1-.2.041,5.477,5.477,0,0,1-.676-1.481c-.21-.575-.439-1.143-.636-1.717a.326.326,0,0,1,.615-.216Z" fill="#455a64"/>
        <path id="Path_2409" data-name="Path 2409" d="M380.219,252.488q-1.893-11.332-3.773-22.671c-2.488-15.065-5.044-30.129-7.3-45.234q-1.9-12.732-3.685-25.477c0-.149-.25-.149-.237,0,1.724,15.2,3.861,30.352,6.187,45.464s4.916,30.143,7.641,45.167c1.528,8.425,2.968,16.9,4.733,25.254,0,.081.156.061.142,0C382.836,267.458,381.47,259.98,380.219,252.488Z" fill="#455a64"/>
        <path id="Path_2410" data-name="Path 2410" d="M343.991,161.41c0-.128-.21-.128-.2,0,.534,9.879,5.889,63.355,8.222,75.5,0,.061.108.061.108,0C351.828,227.017,344.444,166.955,343.991,161.41Z" fill="#455a64"/>
        <path id="Path_2411" data-name="Path 2411" d="M342.463,93.228c-.933,5.233-5.294,17.357-13.374,27.722-3.124,3.989-14.564,8.526-23.794,11.285a72.108,72.108,0,0,1-10.46,2.468h0a10.317,10.317,0,0,1-1.082.088c-4.294.088-6.579-6.613-6.572-11.461v-.609c.081-1.968.575-3.536,1.488-4.057a10.679,10.679,0,0,1,1-.494c1.738-.751,4.78-1.731,8.269-2.772.818-.25,1.67-.5,2.529-.751,8.114-2.373,17.418-4.855,18.371-5.585a127.2,127.2,0,0,0,16.525-17.925C339.515,85.33,344,84.519,342.463,93.228Z" fill="#dd6a57"/>
        <path id="Path_2412" data-name="Path 2412" d="M305.3,132.208a72.108,72.108,0,0,1-10.46,2.468h0a59.245,59.245,0,0,1-13.28.46c-2.7-.264-10.44-1.846-10.392-3.949s2.339-1.839,2.339-1.839-3.164-1.156-2.928-3.266c.2-1.731,2.617-1.69,3.489-1.623a.142.142,0,0,1,.128,0h.156s-3.164-1.427-2.779-3.509c.345-1.866,3.171-1.163,3.766-.994h0c-.487-.21-2.745-1.3-1.812-2.7,1.251-1.907,6.45.865,9.466,1h2.028a23.215,23.215,0,0,1,6.572-2.934,40.671,40.671,0,0,1,6.342.047c.818-.25,1.67-.5,2.529-.751C301.989,116.663,306.39,123.519,305.3,132.208Z" fill="#455a64"/>
        <path id="Path_2413" data-name="Path 2413" d="M296.972,117.927l-.264,9.189v.237l-.2,6.971a13.948,13.948,0,0,1-1.67.352h0a59.243,59.243,0,0,1-13.28.46c-2.7-.264-10.44-1.846-10.392-3.949s2.339-1.839,2.339-1.839-3.164-1.156-2.928-3.266c.2-1.731,2.617-1.69,3.489-1.623h.3s-3.164-1.427-2.779-3.509c.345-1.866,3.171-1.163,3.766-.994h.02c-.487-.21-2.745-1.3-1.812-2.7,1.251-1.907,6.45.865,9.466,1h2.028l4.645-.115Z" fill="#455a64"/>
        <path id="Path_2414" data-name="Path 2414" d="M285.653,122.059a24.131,24.131,0,0,1-3.9.412,9.764,9.764,0,0,1-6.329-2.292c-.1-.074-.108-.149-.068-.189h0a.169.169,0,0,1,.156,0,14.875,14.875,0,0,0,5.923,1.981,24.381,24.381,0,0,0,4.179-.054C285.714,121.923,285.741,122.045,285.653,122.059Z" fill="#263238"/>
        <path id="Path_2415" data-name="Path 2415" d="M285.024,126.589c-4.395.379-6.971.406-10.893-1.9-.122-.068-.142-.189-.074-.23a.142.142,0,0,1,.128,0h0c4.138,1.751,6.336,2.028,10.818,2.028A.052.052,0,0,1,285.024,126.589Z" fill="#263238"/>
        <path id="Path_2416" data-name="Path 2416" d="M273.841,129.476a20.466,20.466,0,0,0,10.886,1.237.081.081,0,0,1,0,.156A14.5,14.5,0,0,1,273.78,129.6C273.57,129.483,273.584,129.388,273.841,129.476Z" fill="#263238"/>
        <path id="Path_2417" data-name="Path 2417" d="M294.936,126.792a4.3,4.3,0,0,1-.676-.189l-.183-.074h0c-3.381-1.467-4.125-6.8-4.125-6.8a20.871,20.871,0,0,1-3.644.162,8.116,8.116,0,0,1-4.476-1.183h0a2.083,2.083,0,0,1-.6-.764,1.785,1.785,0,0,1-.149-.5.109.109,0,0,1,0-.047c-.074-.98,2.028-1.92,4.49-2.59a23.158,23.158,0,0,1,7.127-.967,40.514,40.514,0,0,1,6.085,1.832c.838.3,1.393.521,1.393.521S299.027,127.671,294.936,126.792Z" fill="#455a64"/>
        <path id="Path_2418" data-name="Path 2418" d="M281.434,118.137c2.11,2.191,5.747,1.467,8.486,1.3a.243.243,0,0,1,.264.311c.541,2.576,2.028,6.052,4.611,7.133.074.034.041.149-.041.122-2.9-.791-4.665-4.057-5.078-6.944-2.8.21-6.478.778-8.263-1.907C281.407,118.137,281.42,118.123,281.434,118.137Z" fill="#263238"/>
        <path id="Path_2419" data-name="Path 2419" d="M337.865,109.016l-16.694-3.536S333.139,91.057,337.858,87.8c5.308-3.658,6.018-.142,4.956,5.9S337.865,109.016,337.865,109.016Z" fill="red"/>
        <path id="Path_2420" data-name="Path 2420" d="M337.865,109.016l-16.694-3.536S333.139,91.057,337.858,87.8c5.308-3.658,6.018-.142,4.956,5.9S337.865,109.016,337.865,109.016Z" opacity="0.1"/>
        <path id="Path_2421" data-name="Path 2421" d="M369.854,145.372c-.108.122-44.18.264-44.626-.216-.6-.676,8.614-51.354,13.415-57.615,1.028-1.352,8.3-2.59,11.217-.081C359.292,95.553,370.266,144.96,369.854,145.372Z" fill="red"/>
        <rect id="Rectangle_763" data-name="Rectangle 763" width="8.371" height="1.352" transform="translate(349.285 104.911) rotate(180)" opacity="0.1"/>
        <rect id="Rectangle_764" data-name="Rectangle 764" width="27.262" height="35.484" transform="translate(294.478 121.344) rotate(-18.43)" fill="#a6a6a6"/>
        <rect id="Rectangle_765" data-name="Rectangle 765" width="12.921" height="3.915" transform="translate(300.814 117.277) rotate(-18.37)" fill="#ebebeb"/>
        <path id="Path_2422" data-name="Path 2422" d="M310.292,114.148l-1.508.507-.575-1.717-3.665,1.217.568,1.717-1.515.5-1.034-3.124,6.714-2.225Z" fill="#ebebeb"/>
        <path id="Path_2423" data-name="Path 2423" d="M353.714,90.6c7.215,9.3,22.82,33.334,18.472,38.392-7.133,8.263-24.646,15.639-30.136,17.3-2.36.717-10.818-16.485-8.594-17.9,2.671-1.7,21.231-8.181,21.13-9.791-.054-.913-3.381-9.3-5.287-19.108C347.095,88.123,351.246,87.392,353.714,90.6Z" fill="#dd6a57"/>
        <path id="Path_2424" data-name="Path 2424" d="M341.929,127.224s-7.235-2.1-11.968-3.239c-2.671-.676-7.336-1.352-9.513-.9-3.252.636-16.444,5.409-15.362,8.607.98,2.921,11.792-2.6,11.792-2.6s-11.407,4.6-9.581,7.9,13.2-4.564,13.2-4.564-11.616,4.99-9.2,8.114c1.832,2.346,12.549-4.192,12.549-4.192s-9.953,4.361-8.175,6.856c1.961,2.752,12.238-2.664,12.238-2.664,5.585,5.578,10.521,5.943,14.064,5.788C342.808,146.278,341.929,127.224,341.929,127.224Z" fill="#dd6a57"/>
        <path id="Path_2425" data-name="Path 2425" d="M341.99,124.709a14.721,14.721,0,0,1-3.022,1.048c-2.529.243-6.275-1.109-9.033-1.772s-7.336-1.352-9.513-.9c-3.252.636-16.444,5.409-15.362,8.607.98,2.921,11.792-2.6,11.792-2.6s-11.407,4.6-9.581,7.9,13.225-4.564,13.225-4.564-11.616,4.99-9.2,8.114c1.832,2.346,12.549-4.192,12.549-4.192s-9.953,4.361-8.175,6.856c1.961,2.752,12.238-2.664,12.238-2.664,5.585,5.578,10.521,5.943,14.064,5.788.176,0,6.295-1.63,6.288-2.333C348.217,138.408,341.99,124.709,341.99,124.709Z" fill="#455a64"/>
        <path id="Path_2426" data-name="Path 2426" d="M320.7,127.251c-1.352.494-2.738.98-4.057,1.589a38.791,38.791,0,0,0-3.854,2.028,24.679,24.679,0,0,0-4.584,3.306,53.092,53.092,0,0,1,8.621-4.949c1.312-.609,2.583-1.285,3.895-1.9C320.759,127.285,320.732,127.238,320.7,127.251Z" fill="#263238"/>
        <path id="Path_2427" data-name="Path 2427" d="M322.99,131.944c-1.711.676-3.428,1.352-5.112,2.116s-3.185,1.663-4.794,2.549c-.128.068-.047.115.081.047,1.643-.825,3.232-1.454,4.889-2.258s3.279-1.677,4.956-2.414C323.037,131.971,323.017,131.937,322.99,131.944Z" fill="#263238"/>
        <path id="Path_2428" data-name="Path 2428" d="M325.681,135.622a41.362,41.362,0,0,0-7.559,3.834c-.122.074,0,.122.108.054,2.495-1.352,4.436-2.38,7.485-3.8C325.762,135.69,325.742,135.6,325.681,135.622Z" fill="#263238"/>
        <path id="Path_2429" data-name="Path 2429" d="M350.989,111.024l17-1.224S358.123,93.863,353.9,90c-4.733-4.354-5.943-.967-5.72,5.152S350.989,111.024,350.989,111.024Z" fill="red"/>
        <path id="Path_2430" data-name="Path 2430" d="M350.989,111.024l17-1.224S358.123,93.863,353.9,90c-4.733-4.354-5.943-.967-5.72,5.152S350.989,111.024,350.989,111.024Z" opacity="0.1"/>
        <path id="Path_2431" data-name="Path 2431" d="M341.456,93.775c1.542.23,6.085-2.59,7.776-5.632.122-.21-.676-8.628-.636-10.311,0-.345-10.589,2.441-10.589,2.441a27.085,27.085,0,0,1,.947,6.478,3.7,3.7,0,0,1-.081.676v.115C338.589,88.866,339.157,93.437,341.456,93.775Z" fill="#dd6a57"/>
        <path id="Path_2432" data-name="Path 2432" d="M347.879,77.879c-.426,2.549-2.137,9.682-7.979,9.75a6.761,6.761,0,0,1-1.082-.074V87.44a4.4,4.4,0,0,0,.074-.676,26.872,26.872,0,0,0-.94-6.478S345.512,78.285,347.879,77.879Z" fill="#263238"/>
        <path id="Path_2433" data-name="Path 2433" d="M345.911,83.788h0" fill="none" stroke="#f5a79e" stroke-linecap="round" stroke-linejoin="round" stroke-width="0"/>
        <path id="Path_2434" data-name="Path 2434" d="M348.893,63.558c1.548,3.6.764,14.564-1.623,17.255-3.455,3.895-9.7,4.916-13.158.629-3.381-4.158-2.083-18.432.636-20.961C338.751,56.8,346.635,58.25,348.893,63.558Z" fill="#dd6a57"/>
        <path id="Path_2435" data-name="Path 2435" d="M339.332,71.212s.054.041.054.074c-.074.737-.034,1.589.622,1.88v.041C339.19,73.024,339.143,71.9,339.332,71.212Z" fill="#263238"/>
        <path id="Path_2436" data-name="Path 2436" d="M340.042,70.489c1.2,0,1.129,2.38,0,2.387S339.042,70.5,340.042,70.489Z" fill="#263238"/>
        <path id="Path_2437" data-name="Path 2437" d="M335.046,71.219a.06.06,0,0,0-.061.061c0,.744-.115,1.589-.791,1.819v.041C335.019,73.024,335.167,71.922,335.046,71.219Z" fill="#263238"/>
        <path id="Path_2438" data-name="Path 2438" d="M334.4,70.428c-1.183-.122-1.352,2.258-.243,2.373S335.4,70.529,334.4,70.428Z" fill="#263238"/>
        <path id="Path_2439" data-name="Path 2439" d="M341.016,69.42a8.791,8.791,0,0,1-.913-.352,1.548,1.548,0,0,1-.865-.534.5.5,0,0,1,.095-.609,1.231,1.231,0,0,1,1.264-.095,1.839,1.839,0,0,1,1.041.825.541.541,0,0,1-.622.764Z" fill="#263238"/>
        <path id="Path_2440" data-name="Path 2440" d="M333.511,69.2c.338-.047.636-.142.96-.216a1.616,1.616,0,0,0,.933-.412.507.507,0,0,0,0-.615,1.244,1.244,0,0,0-1.237-.27,1.846,1.846,0,0,0-1.149.676.541.541,0,0,0,.494.838Z" fill="#263238"/>
        <path id="Path_2441" data-name="Path 2441" d="M339.826,78.1c-.176.169-.365.406-.629.419a1.886,1.886,0,0,1-.791-.21l-.034.041a.98.98,0,0,0,.926.426.778.778,0,0,0,.6-.636C339.914,78.1,339.853,78.082,339.826,78.1Z" fill="#263238"/>
        <path id="Path_2442" data-name="Path 2442" d="M339.109,75.864a2.515,2.515,0,0,1-1.711,1.082,3.38,3.38,0,0,1-.906,0,.736.736,0,0,1-.176,0h-.162a.189.189,0,0,1-.142-.169h0a.28.28,0,0,1,0-.074h0v-.068c0-.568.081-1.433.081-1.433-.216.1-1.291.548-1.264.25a37.753,37.753,0,0,1,1.217-7.654.068.068,0,1,1,.135,0c-.115,2.373-.642,4.733-.8,7.093a4.646,4.646,0,0,1,1.2-.325c.081,0-.183,1.67-.162,1.92h0a3.482,3.482,0,0,0,2.63-.744C339.1,75.729,339.157,75.81,339.109,75.864Z" fill="#263238"/>
        <path id="Path_2443" data-name="Path 2443" d="M336.837,76.682a2.989,2.989,0,0,0,1.17.96,1.393,1.393,0,0,0,.818.074c.6-.142.622-.676.527-1.149a3.455,3.455,0,0,0-.243-.717A3.874,3.874,0,0,1,336.837,76.682Z" fill="#263238"/>
        <path id="Path_2444" data-name="Path 2444" d="M338.007,77.642a1.393,1.393,0,0,0,.818.074c.6-.142.622-.676.527-1.149A1.386,1.386,0,0,0,338.007,77.642Z" fill="#f7a9a0"/>
        <path id="Path_2445" data-name="Path 2445" d="M349.211,73.7c-1.981-.467-3.3-6.971-3.3-6.971s.156,2.779-.372,2.7-2.847-3.712-3.218-6.41a21.183,21.183,0,0,1-4.834,2.657c-2.441.859-4.929.784-4.875.365.169-1.285.676-4.49,1.63-5.409a9.358,9.358,0,0,1,9.351-1.907,8.584,8.584,0,0,1,6.011,5.882C350.306,66.6,349.941,73.842,349.211,73.7Z" fill="#263238"/>
        <path id="Path_2446" data-name="Path 2446" d="M347.581,72.578s2.123-3.7,3.78-2.975.284,5.943-1.515,6.8a1.893,1.893,0,0,1-2.617-.791Z" fill="#dd6a57"/>
        <path id="Path_2447" data-name="Path 2447" d="M350.922,71.09s.041,0,0,.047a4.893,4.893,0,0,0-2.2,3.2,1.048,1.048,0,0,1,1.535-.419c.034,0,0,.074,0,.068a1.177,1.177,0,0,0-1.244.521,5.751,5.751,0,0,0-.521,1.089c-.047.122-.264.081-.23-.061h0C348.082,73.856,349.164,71.415,350.922,71.09Z" fill="#263238"/>
        <path id="Path_2448" data-name="Path 2448" d="M332.882,63.179c1.034-.3,6.863-.379,9.52.636s7.438,4.571,7.708,4.733,1.035-9.466-6.816-10.859C334.741,56.168,332.882,63.179,332.882,63.179Z" fill="red"/>
        <path id="Path_2449" data-name="Path 2449" d="M349.65,68.2s-5.409-6.559-8.357-7.979-9.358-2.028-13.232-.115c-3.029,1.494,4.672,5.132,4.672,5.132a2.15,2.15,0,0,1,1.136-1.542c1.893-.845,5.578-.412,7.688.2C344.221,64.66,349.65,68.2,349.65,68.2Z" fill="red"/>
        <path id="Path_2450" data-name="Path 2450" d="M349.65,68.2s-5.409-6.559-8.357-7.979-9.358-2.028-13.232-.115c-3.029,1.494,4.672,5.132,4.672,5.132a2.15,2.15,0,0,1,1.136-1.542c1.893-.845,5.578-.412,7.688.2C344.221,64.66,349.65,68.2,349.65,68.2Z" opacity="0.2"/>
        <path id="Path_2451" data-name="Path 2451" d="M345.567,80.84A10.973,10.973,0,0,0,350.3,77.2a9.709,9.709,0,0,0,1.609-4.192,7.377,7.377,0,0,1-.676,1.724,5.105,5.105,0,0,1-1.143,1.5h0a10.2,10.2,0,0,1-4.577,4.294C345.3,80.617,345.391,80.928,345.567,80.84Z" fill="#ebebeb"/>
        <path id="Path_2452" data-name="Path 2452" d="M347.237,73.781a21.008,21.008,0,0,1,2.13-3.381h0c.135-.142.27-.284.419-.412a2.117,2.117,0,0,1,.818-.473,1.352,1.352,0,0,0-.8-.041c-1.352.311-2.225,3.124-2.7,4.192C347.081,73.768,347.183,73.856,347.237,73.781Z" fill="#ebebeb"/>
        <path id="Path_2453" data-name="Path 2453" d="M347.541,73.3c.216-.527-3.469,1.4-7.4.723a24.508,24.508,0,0,0-4.3-.92c-1.237.041-2.657,1.1-4.361,1.352-.581.081.095,5.132,1.663,7.3a7.852,7.852,0,0,0,3.949,2.225c3.022.2,8.114-2.116,8.851-3.144C346.533,80,345.472,78.291,347.541,73.3Z" fill="#ebebeb"/>
        <path id="Path_2454" data-name="Path 2454" d="M331.915,75.539a11.975,11.975,0,0,1,3.617-1.244,13.922,13.922,0,0,1,3.1.575,12.779,12.779,0,0,0,7.2-.3s.047.041,0,.054a10.419,10.419,0,0,1-6.5.642,14.974,14.974,0,0,0-3.827-.676,16.269,16.269,0,0,0-3.577,1.062C331.841,75.729,331.807,75.587,331.915,75.539Z" fill="#dbdbdb"/>
        <path id="Path_2455" data-name="Path 2455" d="M334.018,81.334a20.715,20.715,0,0,0,2.495,1.156,6.15,6.15,0,0,0,3.191-.345c1.873-.507,3.651-1.352,5.477-2.028h0a24.341,24.341,0,0,1-6.3,2.448,5.017,5.017,0,0,1-2.279.176,10.352,10.352,0,0,1-2.6-1.352A.472.472,0,0,1,334.018,81.334Z" fill="#dbdbdb"/>
        <path id="Path_2456" data-name="Path 2456" d="M332.618,77.223a13.05,13.05,0,0,1,5.646-.352,22.712,22.712,0,0,0,6.626-.352s.034,0,0,.041a19.345,19.345,0,0,1-5.91.507c-.96-.068-1.92-.216-2.88-.25a11.2,11.2,0,0,0-3.462.527C332.584,77.365,332.551,77.25,332.618,77.223Z" fill="#dbdbdb"/>
        <path id="Path_2457" data-name="Path 2457" d="M333.132,79.15a9.466,9.466,0,0,0,5.653,1.041,25.47,25.47,0,0,0,5.761-1.785s.034.034,0,.047c-3.766,1.738-7.6,2.955-11.495.811C333.01,79.224,333.058,79.11,333.132,79.15Z" fill="#dbdbdb"/>
      </g>
      <g id="freepik--character-1--inject-72">
        <path id="Path_2458" data-name="Path 2458" d="M160,111.565a28.742,28.742,0,0,1-5.247,3.834c2.6-5.267,1.291-16.62,1.055-14.97-1.163,7.9-5.409,16.775-7.235,17.336h0a21.5,21.5,0,0,1-13.523-1.812h0c3.421-6,2.394-17.58,2.184-16.843-2.258,7.769-7.769,12.624-8.79,12.691h0c-4.023-3.306-6.281-6.761-5.774-7.14,3.692-2.934,6.491-10,8.932-17.431h0c2.421-7.323,3.381-14.2,7.079-20.846,3.381-6.085,10.872-7.755,15.4-5.118C165.934,68.21,162.276,109.536,160,111.565Z" fill="#263238"/>
        <path id="Path_2459" data-name="Path 2459" d="M144.48,62.314c-3.07.974-5.409,4.057-6.863,6.809-1.914,3.685-3.049,7.782-4.564,11.637a78.433,78.433,0,0,1-12.117,21.062.136.136,0,0,0,.2.183c5.72-5.024,9.385-11.9,12.286-18.932,1.481-3.577,2.576-7.289,3.962-10.9a23.666,23.666,0,0,1,2.928-5.619,14.578,14.578,0,0,1,4.381-3.719.291.291,0,0,0-.216-.521Z" fill="#263238"/>
        <path id="Path_2460" data-name="Path 2460" d="M199.633,302.239c-1.521.494-46.113-.183-47.75-1.251-.2-.122-.223-4.152-.169-9.676l-2.17-32.82,28.216.088,2.231,28.4s6.329,2.921,11.549,5.47h0a63.765,63.765,0,0,1,6.653,3.516C199.87,297.377,201.161,301.759,199.633,302.239Z" fill="#f7a9a0"/>
        <path id="Path_2461" data-name="Path 2461" d="M199.633,302.239c-1.521.494-46.113-.183-47.75-1.251-.2-.122-.223-4.152-.169-9.676,11.021,2.454,40.386,6.43,41.245,4.118.345-.92-.358-1.968-1.406-2.941A63.75,63.75,0,0,1,198.207,296C199.87,297.377,201.161,301.759,199.633,302.239Z" fill="#263238"/>
        <path id="Path_2462" data-name="Path 2462" d="M137.63,139.077s7.979,84.8,8.168,85.83c0,.135.088,1.7.169,4.253.439,13.99,1.535,57.615,1.535,57.615h33.523s-2.184-51.671-3.442-63.727c-1.6-15.376-11.454-83.971-11.454-83.971Z" fill="#37474f"/>
        <path id="Path_2463" data-name="Path 2463" d="M149.8,227.775q-1.555-26.424-4.665-52.706c-1.176-9.872-2.6-19.717-4-29.561,0-.081-.149-.081-.135,0,2.6,17.519,4.436,35.16,6.018,52.814s2.7,35.268,3.381,52.936c.406,10.014.717,20.028,1.041,30.048a.183.183,0,0,0,.365,0C151.356,263.448,150.842,245.6,149.8,227.775Z" fill="#263238"/>
        <path id="Path_2464" data-name="Path 2464" d="M178.909,281.373c-.872-.122-1.832-.081-2.7-.115-1.007-.034-2.028-.041-3.022-.081-1.941-.074-3.881-.122-5.828-.156-3.915-.061-7.837-.041-11.745.081l-3.232.115c-1.143.047-2.3.149-3.442.142-.088,0-.088.108,0,.108,1.968,0,3.969.169,5.937.237s3.881.108,5.828.135c3.908.054,7.837,0,11.745-.122,1.075-.041,2.15-.061,3.232-.088l1.717-.074a14.494,14.494,0,0,0,1.535-.054.068.068,0,1,0-.02-.128Z" fill="#263238"/>
        <path id="Path_2465" data-name="Path 2465" d="M161.843,139.077,146.535,249.533c-.216-8.236-.433-15.849-.575-20.372-.074-2.549-.135-4.118-.162-4.253-.189-1.028-8.168-85.83-8.168-85.83Z" fill="#263238"/>
        <path id="Path_2466" data-name="Path 2466" d="M143.472,308.128c-1.6-.135-42.5-17.9-43.6-19.52-.135-.189,1.352-3.915,3.563-9l9.02-31.779,26.1,10.48-7.384,28.2s4.733,5.132,8.56,9.466h0a63.441,63.441,0,0,1,4.787,5.8C145.561,303.72,145.068,308.263,143.472,308.128Z" fill="#f7a9a0"/>
        <path id="Path_2467" data-name="Path 2467" d="M143.472,308.128c-1.6-.135-42.5-17.9-43.6-19.52-.135-.189,1.352-3.915,3.563-9,9.229,6.5,34.808,21.468,36.512,19.669.676-.723.426-1.961-.169-3.259a63.447,63.447,0,0,1,4.787,5.8C145.561,303.72,145.068,308.263,143.472,308.128Z" fill="#263238"/>
        <path id="Path_2468" data-name="Path 2468" d="M100.5,276.342l32.705,10.142s15.971-56.053,17.194-69.217c1.217-13.043,2.387-39.69,2.9-59.021,0,0,5.47-3.239,6.849-5s2.637-8.114,5.362-14.2H125.5c-9.561,18.567-2.367,26.836-2.367,30.887,0,19.554-2.955,45.512-3.895,49.359C117.278,227.355,100.5,276.342,100.5,276.342Z" fill="#37474f"/>
        <path id="Path_2469" data-name="Path 2469" d="M133.141,279.331c-.818-.338-1.751-.554-2.6-.811-.967-.291-1.934-.561-2.9-.859-1.853-.575-3.719-1.122-5.585-1.657q-5.646-1.609-11.373-2.955c-1.048-.25-2.1-.487-3.151-.724s-2.252-.453-3.381-.757c-.088,0-.108.081,0,.1,1.907.5,3.786,1.19,5.673,1.772s3.726,1.1,5.6,1.63c3.759,1.062,7.566,2.028,11.373,2.914,1.055.243,2.1.507,3.144.751.561.135,1.122.25,1.684.379s.987.277,1.494.345a.068.068,0,0,0,.027-.128Z" fill="#263238"/>
        <path id="Path_2470" data-name="Path 2470" d="M129.388,142.424c.074-.162-.162-.3-.237-.135a35.978,35.978,0,0,0-2.657,22.239,48.746,48.746,0,0,0,1.6,5.612,12.252,12.252,0,0,1,.71,3.293,20.961,20.961,0,0,1-.156,3.191L127.3,189.93l-2.7,26.37c-.23,2.2-.433,4.4-.791,6.579a51.929,51.929,0,0,1-1.494,6.234c-1.278,4.158-2.63,8.283-3.983,12.394-2.752,8.31-5.761,16.525-8.628,24.788-.358,1.014-.717,2.028-1.089,3.043,0,.061.074.088.1,0,3.185-8.114,6.275-16.261,9.087-24.524q2.11-6.187,4.091-12.414c.636-2.028,1.278-4.01,1.772-6.085a51.294,51.294,0,0,0,1.062-6.329c1-8.682,1.8-17.4,2.7-26.093q.676-6.592,1.352-13.192c.223-2.143.554-4.314.588-6.471a17.109,17.109,0,0,0-1.352-5.95,36.255,36.255,0,0,1,.243-23.07C128.59,144.3,128.976,143.344,129.388,142.424Z" fill="#263238"/>
        <path id="Path_2471" data-name="Path 2471" d="M161.093,152.85a30.069,30.069,0,0,0-5.409,3.2c-1.792,1.224-3.442,2.644-5.166,3.962a.064.064,0,0,0,.068.108c1.826-1.163,3.726-2.184,5.531-3.381a35.836,35.836,0,0,0,5.085-3.753C161.235,152.932,161.174,152.81,161.093,152.85Z" fill="#263238"/>
        <path id="Path_2472" data-name="Path 2472" d="M161.336,141.592c-.23,1.251-.534,2.481-.8,3.719s-.439,2.346-.744,3.5a5.943,5.943,0,0,1-1.63,2.934c-.453.419-.953.8-1.44,1.183-.264.21-.548.412-.818.622.034-.162.061-.331.095-.5.081-.473.162-.947.237-1.42.183-1.048.345-2.1.507-3.151.318-2.069.609-4.158,1.041-6.2a.068.068,0,0,0-.128,0c-.521,2.028-1.089,4.057-1.535,6.085-.216,1.007-1.007,5.957-1.041,6.308s-.061.723-.074,1.089a4.348,4.348,0,0,0,0,1.109.088.088,0,0,0,.169,0h0a4.571,4.571,0,0,0,.318-1.075c.088-.352.169-.717.23-1.075a2.621,2.621,0,0,1,.061-.392c.487-.3.94-.676,1.4-1.021s.994-.676,1.454-1.1a5.517,5.517,0,0,0,1.778-2.779,20.34,20.34,0,0,0,.588-3.557c.156-1.406.27-2.82.467-4.226C161.478,141.545,161.35,141.511,161.336,141.592Z" fill="#263238"/>
        <path id="Path_2473" data-name="Path 2473" d="M145.852,96.277c4.01,4.206,24.6,24.118,33.591,22.266,10.893-2.252,23.544-8.878,28.486-13.591,2.765-2.644-10.589-15.984-13.367-13.929-4.395,3.252-14.963,8.655-16.823,9.4s-17.58-7.357-26.782-10.528C142.668,87.034,143.033,93.309,145.852,96.277Z" fill="#f7a9a0"/>
        <path id="Path_2474" data-name="Path 2474" d="M215.462,98.961c-2.421,3.225-9.939,7.877-12.171,8.3s-10.582-12.1-9.838-14.321S203.19,80.5,207.165,79.475,217.964,95.628,215.462,98.961Z" fill="#f7a9a0"/>
        <path id="Path_2475" data-name="Path 2475" d="M194.657,90.929a33.375,33.375,0,0,0,1.129-9.649c-.25-3.874-1.055-9.595,1.021-9.811,4.267-.433,6.281,13.841,6.281,13.841s-.122,6.444-4.314,7.248A4.239,4.239,0,0,1,194.657,90.929Z" fill="#f7a9a0"/>
        <path id="Path_2476" data-name="Path 2476" d="M201.337,82.281c-.21,2.123,2.414,1.156,2.414,1.156s-3.442,2.3-2.813,4.578,3.739.913,3.962.825c-.183.122-3.286,2.319-2.421,4.537s3.82.487,4.01.365c-.135.176-1.873,2.454-.832,3.989,1.785,2.644,6.4-3.063,8.979-3.225,0,0,.778,4.334.825,4.456,0,0,4.5-5.335,4.057-8.79a2.225,2.225,0,0,0-1.961-1.988s1.636-1.562,1.014-3.327c-.325-.906-2.069-1.2-2.069-1.2a2.792,2.792,0,0,0,.609-2.847,2.735,2.735,0,0,0-2.184-1.352s.629-1.819-.311-2.9C212.75,74.376,201.8,77.757,201.337,82.281Z" fill="#f7a9a0"/>
        <path id="Path_2477" data-name="Path 2477" d="M214.684,79.421V79.36a19.852,19.852,0,0,0-11.075,4.118c-.095.081,0,.277.115.21a40.745,40.745,0,0,1,10.96-4.267Z" fill="#263238"/>
        <path id="Path_2478" data-name="Path 2478" d="M216.571,83.613c.047,0,.034-.081,0-.081a18.6,18.6,0,0,0-11.806,5.24c-.108.115-.095.318.041.2C207.051,86.973,212.987,84.39,216.571,83.613Z" fill="#263238"/>
        <path id="Path_2479" data-name="Path 2479" d="M206.347,94.046a25.571,25.571,0,0,1,11.062-5.869c.054,0,0-.088,0-.088a16.2,16.2,0,0,0-6.667,2.028,11.5,11.5,0,0,0-4.483,3.834C206.226,93.985,206.28,94.113,206.347,94.046Z" fill="#263238"/>
        <path id="Path_2480" data-name="Path 2480" d="M203.683,83.423c-.122.095.156.162.034.264-.487.419-3.2,3.225-2.529,4.449.541.974,2.225.933,2.867.676l1.609-.676-1.278,1.2a7.174,7.174,0,0,0-1.42,1.832,2.549,2.549,0,0,0-.284,2.076,1.467,1.467,0,0,0,1.528,1.028,4.429,4.429,0,0,0,2.076-.784l1.731-1.143-1.258,1.636a6.9,6.9,0,0,0-.865,1.481,2.82,2.82,0,0,0-.243,1.582,1.352,1.352,0,0,0,.94,1.028,2.961,2.961,0,0,0,1.616-.257,22.9,22.9,0,0,0,3.144-1.744c.514-.311,1.035-.629,1.569-.926a4.409,4.409,0,0,1,1.717-.615,4.618,4.618,0,0,0-1.65.737c-.507.325-.994.676-1.488,1.035a19.866,19.866,0,0,1-3.124,1.947,3.381,3.381,0,0,1-1.92.372,1.866,1.866,0,0,1-1.44-1.46,3.381,3.381,0,0,1,.237-1.968,7.241,7.241,0,0,1,.947-1.663l.473.494a5.152,5.152,0,0,1-2.441.953,2.157,2.157,0,0,1-1.386-.372,2.38,2.38,0,0,1-.838-1.149,3.239,3.239,0,0,1,.352-2.623,7.593,7.593,0,0,1,1.6-1.988l.331.514a3.251,3.251,0,0,1-3.732-.832C199.518,86.486,203.007,83.843,203.683,83.423Z" fill="#263238"/>
        <path id="Path_2481" data-name="Path 2481" d="M203.751,83.437a4.273,4.273,0,0,1-1.312,0,.974.974,0,0,1-.791-.609,1.988,1.988,0,0,1,.047-1.149c.115-.412.264-.838.433-1.278a3.536,3.536,0,0,0-.872,1.116,2.028,2.028,0,0,0-.169,1.521,1.352,1.352,0,0,0,.534.676,1.514,1.514,0,0,0,.778.21,2.292,2.292,0,0,0,1.352-.487Z" fill="#263238"/>
        <path id="Path_2482" data-name="Path 2482" d="M191.35,92.416l15.47,17.478s-22.989,11.244-30.427,9.527-22.908-13.374-29.669-21.7-2.7-10.636,6.761-7.519,22.685,9.189,24.037,9.121S191.35,92.416,191.35,92.416Z" fill="red"/>
        <path id="Path_2483" data-name="Path 2483" d="M165.717,106.426a1.691,1.691,0,0,1,.906-.047.859.859,0,0,1,.554.8.676.676,0,0,0,.311.581.75.75,0,0,0,.358.115l.433.081a1.521,1.521,0,0,1-.906.034.872.872,0,0,1-.534-.8.676.676,0,0,0-.325-.568.771.771,0,0,0-.365-.108C166.008,106.48,165.859,106.467,165.717,106.426Z" fill="#fff"/>
        <path id="Path_2484" data-name="Path 2484" d="M186.753,102.139a1.765,1.765,0,0,1,.906-.047.859.859,0,0,1,.554.8.676.676,0,0,0,.311.581.777.777,0,0,0,.358.115,1.951,1.951,0,0,1,.433.081,1.467,1.467,0,0,1-.906.034.859.859,0,0,1-.527-.8.693.693,0,0,0-.7-.669C187.043,102.193,186.9,102.18,186.753,102.139Z" fill="#fff"/>
        <path id="Path_2485" data-name="Path 2485" d="M201.81,108.495a1.67,1.67,0,0,1,.9-.047.879.879,0,0,1,.561.8.676.676,0,0,0,.311.581.723.723,0,0,0,.352.115,1.881,1.881,0,0,1,.433.081,1.521,1.521,0,0,1-.906.034.859.859,0,0,1-.527-.8.676.676,0,0,0-.331-.568.771.771,0,0,0-.365-.108C202.094,108.549,201.952,108.536,201.81,108.495Z" fill="#fff"/>
        <path id="Path_2486" data-name="Path 2486" d="M173.655,111.031a1.67,1.67,0,0,1,.9-.047.866.866,0,0,1,.561.8.676.676,0,0,0,.311.581.723.723,0,0,0,.358.115l.426.081a1.521,1.521,0,0,1-.906.034.859.859,0,0,1-.527-.8.676.676,0,0,0-.331-.568.771.771,0,0,0-.365-.108A3.415,3.415,0,0,1,173.655,111.031Z" fill="#fff"/>
        <path id="Path_2487" data-name="Path 2487" d="M156.042,91.713a1.67,1.67,0,0,1,.9-.047.852.852,0,0,1,.561.791.676.676,0,0,0,.311.588.723.723,0,0,0,.358.115,1.58,1.58,0,0,1,.426.081,1.548,1.548,0,0,1-.9,0,.879.879,0,0,1-.534-.811.676.676,0,0,0-.331-.561.73.73,0,0,0-.365-.108A1.553,1.553,0,0,1,156.042,91.713Z" fill="#fff"/>
        <path id="Path_2488" data-name="Path 2488" d="M191.7,111.795a1.67,1.67,0,0,1-.6.676.859.859,0,0,1-.96-.162.676.676,0,0,0-.629-.2.778.778,0,0,0-.338.176c-.122.081-.23.169-.358.243a1.582,1.582,0,0,1,.615-.676.872.872,0,0,1,.947.2.676.676,0,0,0,.629.169.778.778,0,0,0,.338-.189C191.452,111.957,191.567,111.869,191.7,111.795Z" fill="#fff"/>
        <path id="Path_2489" data-name="Path 2489" d="M174.812,103.539a1.711,1.711,0,0,1-.6.676.872.872,0,0,1-.96-.162.694.694,0,0,0-.967-.027,4.282,4.282,0,0,1-.365.243,1.762,1.762,0,0,1,.615-.676.879.879,0,0,1,.953.2.676.676,0,0,0,.629.162.771.771,0,0,0,.331-.183C174.568,103.7,174.683,103.613,174.812,103.539Z" fill="#fff"/>
        <path id="Path_2490" data-name="Path 2490" d="M182.4,107.291a1.67,1.67,0,0,1-.6.676.859.859,0,0,1-.96-.162.676.676,0,0,0-.629-.2.778.778,0,0,0-.338.176c-.122.081-.23.169-.358.243a1.582,1.582,0,0,1,.615-.676.872.872,0,0,1,.947.2.707.707,0,0,0,.967-.02C182.168,107.454,182.276,107.366,182.4,107.291Z" fill="#fff"/>
        <path id="Path_2491" data-name="Path 2491" d="M193.778,95.628a1.711,1.711,0,0,1-.6.676.865.865,0,0,1-.96-.169.7.7,0,0,0-.967-.02c-.122.081-.23.169-.358.243a1.555,1.555,0,0,1,.615-.676.872.872,0,0,1,.947.2.676.676,0,0,0,.629.169.757.757,0,0,0,.338-.183C193.534,95.79,193.649,95.7,193.778,95.628Z" fill="#fff"/>
        <path id="Path_2492" data-name="Path 2492" d="M150,94.722a1.67,1.67,0,0,1,.047.9.852.852,0,0,1-.791.561.676.676,0,0,0-.581.311.615.615,0,0,0-.115.358c-.034.142-.047.284-.088.426a1.548,1.548,0,0,1-.034-.9.879.879,0,0,1,.811-.534.676.676,0,0,0,.568-.331.73.73,0,0,0,.1-.365C149.95,95.006,149.97,94.864,150,94.722Z" fill="#fff"/>
        <path id="Path_2493" data-name="Path 2493" d="M196.279,105.662a1.67,1.67,0,0,1,.047.9.859.859,0,0,1-.791.561.71.71,0,0,0-.7.669,1.58,1.58,0,0,1-.081.426,1.548,1.548,0,0,1,0-.9.872.872,0,0,1,.811-.534.676.676,0,0,0,.568-.331.771.771,0,0,0,.1-.365A1.524,1.524,0,0,1,196.279,105.662Z" fill="#fff"/>
        <path id="Path_2494" data-name="Path 2494" d="M183.392,114.148a1.67,1.67,0,0,1,.047.9.859.859,0,0,1-.791.561.676.676,0,0,0-.588.311.724.724,0,0,0-.115.358,1.579,1.579,0,0,1-.081.426,1.575,1.575,0,0,1-.034-.906.872.872,0,0,1,.811-.527.676.676,0,0,0,.6-.325.771.771,0,0,0,.108-.365A1.466,1.466,0,0,1,183.392,114.148Z" fill="#fff"/>
        <path id="Path_2495" data-name="Path 2495" d="M181.14,99.137a1.67,1.67,0,0,1,.068.933.865.865,0,0,1-.8.561.676.676,0,0,0-.581.311.723.723,0,0,0-.115.358,1.579,1.579,0,0,1-.081.426,1.549,1.549,0,0,1-.034-.9.865.865,0,0,1,.811-.534.676.676,0,0,0,.561-.331.751.751,0,0,0,.108-.365A1.723,1.723,0,0,1,181.14,99.137Z" fill="#fff"/>
        <path id="Path_2496" data-name="Path 2496" d="M159.443,109.658l-.135-.108a.558.558,0,0,1,.054-.291C159.382,109.394,159.423,109.536,159.443,109.658Z" fill="#fff"/>
        <path id="Path_2497" data-name="Path 2497" d="M165.765,97.683a1.67,1.67,0,0,1,.047.9.859.859,0,0,1-.8.561.676.676,0,0,0-.581.311.75.75,0,0,0-.115.358,1.894,1.894,0,0,1-.081.426,1.494,1.494,0,0,1-.034-.9.865.865,0,0,1,.8-.534.676.676,0,0,0,.568-.331.724.724,0,0,0,.108-.358C165.711,97.967,165.724,97.825,165.765,97.683Z" fill="#fff"/>
        <path id="Path_2498" data-name="Path 2498" d="M155.71,101.166a1.67,1.67,0,0,1,.6-.676.859.859,0,0,1,.96.162.676.676,0,0,0,.629.2.778.778,0,0,0,.338-.176c.122-.081.23-.169.358-.243a1.582,1.582,0,0,1-.615.676.872.872,0,0,1-.947-.2.676.676,0,0,0-.636-.169.791.791,0,0,0-.331.189C155.947,101,155.839,101.091,155.71,101.166Z" fill="#fff"/>
        <path id="Path_2499" data-name="Path 2499" d="M124.412,152.411a1.67,1.67,0,0,1,.6-.676.859.859,0,0,1,.96.162.676.676,0,0,0,.629.2.778.778,0,0,0,.338-.176c.122-.081.23-.169.358-.243a1.582,1.582,0,0,1-.615.676.872.872,0,0,1-.947-.2.707.707,0,0,0-.967.02A2.35,2.35,0,0,0,124.412,152.411Z" fill="#fff"/>
        <path id="Path_2500" data-name="Path 2500" d="M202.169,111.95c-.8-1.156-1.826-2.191-2.7-3.266s-1.913-2.184-2.894-3.259c-1.893-2.089-3.861-4.125-5.822-6.153-1.149-1.176-2.339-2.306-3.5-3.475-.041-.041-.115,0-.074.074,1.873,2.177,3.719,4.375,5.639,6.511s3.807,4.172,5.781,6.194c.568.575,1.149,1.136,1.724,1.7a22.954,22.954,0,0,0,1.792,1.744.054.054,0,0,0,.054-.074Z" fill="#263238"/>
        <path id="Path_2501" data-name="Path 2501" d="M186.09,118.171c-3.922,1.136-7.485,1.758-9.7,1.251-7.478-1.717-22.928-13.374-29.683-21.7-4.78-5.9-4.138-8.79,0-8.851C156.109,95.655,175.035,109.847,186.09,118.171Z" fill="#263238"/>
        <path id="Path_2502" data-name="Path 2502" d="M163.953,122.383l3.212,22.1s-36.012.527-44.95-.1c0,0,7.289-41.306,16.9-51.746,4.807-5.22,10.453-4.828,14.05-1.183.913.926,11.772,15.281,12.914,20.765C167.083,117.035,163.953,122.383,163.953,122.383Z" fill="red"/>
        <path id="Path_2503" data-name="Path 2503" d="M147.962,104.9a1.69,1.69,0,0,1,.906-.047.859.859,0,0,1,.554.791.676.676,0,0,0,.311.588.75.75,0,0,0,.358.115,1.679,1.679,0,0,1,.433.081,1.575,1.575,0,0,1-.906,0,.886.886,0,0,1-.534-.811.676.676,0,0,0-.325-.561.771.771,0,0,0-.365-.108A1.27,1.27,0,0,1,147.962,104.9Z" fill="#fff"/>
        <path id="Path_2504" data-name="Path 2504" d="M155.873,133.2a1.738,1.738,0,0,1,.9-.047.865.865,0,0,1,.561.8.676.676,0,0,0,.676.676,1.6,1.6,0,0,1,.426.088,1.548,1.548,0,0,1-.9.034.879.879,0,0,1-.534-.811.676.676,0,0,0-.331-.568.724.724,0,0,0-.358-.1A2.85,2.85,0,0,0,155.873,133.2Z" fill="#fff"/>
        <path id="Path_2505" data-name="Path 2505" d="M140.551,92.037a1.67,1.67,0,0,1,.9-.047.865.865,0,0,1,.561.791.676.676,0,0,0,.311.588.724.724,0,0,0,.352.115,1.579,1.579,0,0,1,.433.081,1.575,1.575,0,0,1-.906.034.872.872,0,0,1-.527-.811.676.676,0,0,0-.331-.561.771.771,0,0,0-.365-.108Z" fill="#fff"/>
        <path id="Path_2506" data-name="Path 2506" d="M136.745,116.737a1.67,1.67,0,0,1,.9-.047.852.852,0,0,1,.561.791.676.676,0,0,0,.311.588.75.75,0,0,0,.358.115,1.579,1.579,0,0,1,.426.081,1.548,1.548,0,0,1-.9.034.879.879,0,0,1-.534-.811.676.676,0,0,0-.331-.561.73.73,0,0,0-.365-.108Z" fill="#fff"/>
        <path id="Path_2507" data-name="Path 2507" d="M153.486,142.411a1.7,1.7,0,0,1,.906-.047.865.865,0,0,1,.561.791.676.676,0,0,0,.311.588.724.724,0,0,0,.352.115,1.627,1.627,0,0,1,.433.081,1.575,1.575,0,0,1-.906.034.872.872,0,0,1-.527-.811.676.676,0,0,0-.331-.561.771.771,0,0,0-.365-.108Z" fill="#fff"/>
        <path id="Path_2508" data-name="Path 2508" d="M145.325,128.732a1.67,1.67,0,0,1,.9-.047.865.865,0,0,1,.561.791.71.71,0,0,0,.676.676,1.579,1.579,0,0,1,.433.081,1.575,1.575,0,0,1-.906,0,.872.872,0,0,1-.527-.811.676.676,0,0,0-.331-.568.859.859,0,0,0-.365-.1A.959.959,0,0,1,145.325,128.732Z" fill="#fff"/>
        <path id="Path_2509" data-name="Path 2509" d="M129.936,131.261a1.67,1.67,0,0,1,.9-.047.879.879,0,0,1,.561.8.676.676,0,0,0,.311.581.723.723,0,0,0,.352.115,1.881,1.881,0,0,1,.433.081,1.521,1.521,0,0,1-.906.034.859.859,0,0,1-.527-.8.676.676,0,0,0-.331-.568.771.771,0,0,0-.365-.108C130.22,131.315,130.078,131.3,129.936,131.261Z" fill="#fff"/>
        <path id="Path_2510" data-name="Path 2510" d="M152.4,117.075a1.69,1.69,0,0,1,.906-.047.859.859,0,0,1,.554.8.676.676,0,0,0,.311.581.751.751,0,0,0,.358.115l.433.081a1.521,1.521,0,0,1-.906.034.872.872,0,0,1-.534-.8.676.676,0,0,0-.325-.568.771.771,0,0,0-.365-.108C152.695,117.129,152.546,117.116,152.4,117.075Z" fill="#fff"/>
        <path id="Path_2511" data-name="Path 2511" d="M142.83,100.449a1.711,1.711,0,0,1-.6.676.872.872,0,0,1-.96-.162.676.676,0,0,0-.629-.216.757.757,0,0,0-.338.169c-.122.081-.23.176-.358.25a1.582,1.582,0,0,1,.615-.676.872.872,0,0,1,.947.2.676.676,0,0,0,.629.162.73.73,0,0,0,.338-.183C142.586,100.611,142.7,100.523,142.83,100.449Z" fill="#fff"/>
        <path id="Path_2512" data-name="Path 2512" d="M164.98,116.71a1.731,1.731,0,0,1-.6.676.872.872,0,0,1-.96-.169.7.7,0,0,0-.967-.02c-.122.081-.23.169-.358.243a1.648,1.648,0,0,1,.609-.676.879.879,0,0,1,.953.2.676.676,0,0,0,.629.169.771.771,0,0,0,.331-.183A2.622,2.622,0,0,0,164.98,116.71Z" fill="#fff"/>
        <path id="Path_2513" data-name="Path 2513" d="M150,94.722a1.67,1.67,0,0,1,.047.9.852.852,0,0,1-.791.561.676.676,0,0,0-.581.311.615.615,0,0,0-.115.358c-.034.142-.047.284-.088.426a1.548,1.548,0,0,1-.034-.9.879.879,0,0,1,.811-.534.676.676,0,0,0,.568-.331.73.73,0,0,0,.1-.365C149.95,95.006,149.97,94.864,150,94.722Z" fill="#fff"/>
        <path id="Path_2514" data-name="Path 2514" d="M146.6,119.868a1.738,1.738,0,0,1,.047.9.879.879,0,0,1-.8.561.676.676,0,0,0-.581.311.723.723,0,0,0-.115.352,1.881,1.881,0,0,1-.081.433,1.467,1.467,0,0,1-.034-.906.859.859,0,0,1,.8-.527.676.676,0,0,0,.568-.331.771.771,0,0,0,.108-.365C146.549,120.152,146.562,120.01,146.6,119.868Z" fill="#fff"/>
        <path id="Path_2515" data-name="Path 2515" d="M164.3,138.57a1.69,1.69,0,0,1,.047.906.852.852,0,0,1-.791.554.71.71,0,0,0-.7.669,1.628,1.628,0,0,1-.081.433,1.575,1.575,0,0,1,0-.906.872.872,0,0,1,.811-.527.676.676,0,0,0,.568-.331.859.859,0,0,0,.1-.365C164.264,138.861,164.3,138.719,164.3,138.57Z" fill="#fff"/>
        <path id="Path_2516" data-name="Path 2516" d="M132.742,120.767a1.67,1.67,0,0,1,.047.9.879.879,0,0,1-.8.561.676.676,0,0,0-.581.311.724.724,0,0,0-.115.352,1.881,1.881,0,0,1-.081.433,1.521,1.521,0,0,1-.034-.906.859.859,0,0,1,.8-.527.676.676,0,0,0,.568-.331.771.771,0,0,0,.108-.365A3.664,3.664,0,0,1,132.742,120.767Z" fill="#fff"/>
        <path id="Path_2517" data-name="Path 2517" d="M139.523,106.21a1.69,1.69,0,0,1,.047.906.852.852,0,0,1-.791.554.717.717,0,0,0-.588.311.75.75,0,0,0-.115.358,1.679,1.679,0,0,1-.081.433,1.575,1.575,0,0,1-.034-.906.893.893,0,0,1,.811-.534.676.676,0,0,0,.561-.325.771.771,0,0,0,.108-.365C139.469,106.5,139.49,106.352,139.523,106.21Z" fill="#fff"/>
        <path id="Path_2518" data-name="Path 2518" d="M159.362,109.259a1.67,1.67,0,0,1,.047.9.852.852,0,0,1-.791.561.71.71,0,0,0-.676.676,1.58,1.58,0,0,1-.081.426,1.549,1.549,0,0,1-.034-.9.879.879,0,0,1,.811-.534.676.676,0,0,0,.561-.331.73.73,0,0,0,.108-.365A1.8,1.8,0,0,1,159.362,109.259Z" fill="#fff"/>
        <path id="Path_2519" data-name="Path 2519" d="M141.031,134.723a1.738,1.738,0,0,1,.047.9.886.886,0,0,1-.8.561.695.695,0,0,0-.7.663,1.589,1.589,0,0,1-.088.433,1.576,1.576,0,0,1-.034-.906.872.872,0,0,1,.811-.527.676.676,0,0,0,.568-.331.771.771,0,0,0,.1-.365C140.97,135.007,140.991,134.865,141.031,134.723Z" fill="#fff"/>
        <path id="Path_2520" data-name="Path 2520" d="M134.554,138.57a1.69,1.69,0,0,1,.047.906.859.859,0,0,1-.8.554.676.676,0,0,0-.581.311.778.778,0,0,0-.115.358,1.95,1.95,0,0,1-.081.433,1.521,1.521,0,0,1-.034-.906.859.859,0,0,1,.8-.527.676.676,0,0,0,.568-.331.771.771,0,0,0,.108-.365A1.253,1.253,0,0,1,134.554,138.57Z" fill="#fff"/>
        <path id="Path_2521" data-name="Path 2521" d="M124.966,136.535a.859.859,0,0,1-.791.561.676.676,0,0,0-.581.311.379.379,0,0,0,0,.054,2.793,2.793,0,0,1,.115-.554.832.832,0,0,1,.494-.149.676.676,0,0,0,.568-.331.771.771,0,0,0,.1-.365,1.894,1.894,0,0,1,.081-.426,1.67,1.67,0,0,1,.014.9Z" fill="#fff"/>
        <path id="Path_2522" data-name="Path 2522" d="M155.71,101.166a1.67,1.67,0,0,1,.6-.676.859.859,0,0,1,.96.162.676.676,0,0,0,.629.2.778.778,0,0,0,.338-.176c.122-.081.23-.169.358-.243a1.582,1.582,0,0,1-.615.676.872.872,0,0,1-.947-.2.676.676,0,0,0-.636-.169.791.791,0,0,0-.331.189C155.947,101,155.839,101.091,155.71,101.166Z" fill="#fff"/>
        <path id="Path_2523" data-name="Path 2523" d="M144.392,112.545a1.67,1.67,0,0,1,.6-.676.859.859,0,0,1,.96.162.676.676,0,0,0,.629.2.777.777,0,0,0,.338-.176c.122-.081.23-.169.358-.243a1.582,1.582,0,0,1-.615.676.872.872,0,0,1-.947-.2.711.711,0,0,0-.967.02C144.635,112.383,144.52,112.471,144.392,112.545Z" fill="#fff"/>
        <path id="Path_2524" data-name="Path 2524" d="M136.582,127.988a1.7,1.7,0,0,1,.609-.676.852.852,0,0,1,.953.162.71.71,0,0,0,.636.2.724.724,0,0,0,.331-.176c.122-.081.237-.169.365-.243-.169.237-.284.521-.615.676a.865.865,0,0,1-.947-.2.676.676,0,0,0-.636-.169.723.723,0,0,0-.331.189A1.9,1.9,0,0,0,136.582,127.988Z" fill="#fff"/>
        <path id="Path_2525" data-name="Path 2525" d="M139.963,144.02a1.623,1.623,0,0,1,.6-.676.859.859,0,0,1,.96.162.676.676,0,0,0,.629.2.839.839,0,0,0,.338-.169c.115-.081.23-.176.358-.25a1.582,1.582,0,0,1-.615.676.866.866,0,0,1-.947-.2.707.707,0,0,0-.967.02C140.179,143.871,140.071,143.959,139.963,144.02Z" fill="#fff"/>
        <path id="Path_2526" data-name="Path 2526" d="M126.792,126.886a1.555,1.555,0,0,1-.615.676.676.676,0,0,1-.419.054,1.663,1.663,0,0,1,.074-.3.582.582,0,0,0,.264,0,.676.676,0,0,0,.338-.169A3.175,3.175,0,0,1,126.792,126.886Z" fill="#fff"/>
        <path id="Path_2527" data-name="Path 2527" d="M155.109,126.4a1.7,1.7,0,0,1,.609-.676.859.859,0,0,1,.953.162.676.676,0,0,0,.636.2.778.778,0,0,0,.331-.169c.122-.081.237-.176.365-.25-.169.237-.284.521-.615.676a.866.866,0,0,1-.947-.2.707.707,0,0,0-.967.02C155.352,126.237,155.237,126.325,155.109,126.4Z" fill="#fff"/>
        <path id="Path_2528" data-name="Path 2528" d="M147.989,137.644a1.731,1.731,0,0,1,.6-.676.872.872,0,0,1,.96.169.676.676,0,0,0,.629.2.778.778,0,0,0,.338-.176c.122-.081.23-.169.358-.243a1.621,1.621,0,0,1-.615.676.872.872,0,0,1-.947-.2.676.676,0,0,0-.629-.169.757.757,0,0,0-.338.183C148.232,137.475,148.117,137.569,147.989,137.644Z" fill="#fff"/>
        <path id="Path_2529" data-name="Path 2529" d="M123.9,143.918a1.758,1.758,0,0,1,.6-.676.865.865,0,0,1,.96.169.7.7,0,0,0,.967.02c.122-.081.23-.169.358-.243a1.555,1.555,0,0,1-.615.676.872.872,0,0,1-.947-.2.676.676,0,0,0-.629-.169.839.839,0,0,0-.338.183C124.148,143.756,124.033,143.844,123.9,143.918Z" fill="#fff"/>
        <path id="Path_2530" data-name="Path 2530" d="M130.531,112.917a1.731,1.731,0,0,1,.6-.676.872.872,0,0,1,.96.169.676.676,0,0,0,.636.2.757.757,0,0,0,.331-.176c.122-.081.23-.169.358-.243a1.582,1.582,0,0,1-.615.676.872.872,0,0,1-.947-.2.676.676,0,0,0-.629-.169.771.771,0,0,0-.331.183q-.177.127-.365.237Z" fill="#fff"/>
        <path id="Path_2531" data-name="Path 2531" d="M143.932,90.82c.25.676,3.225,3.381,6.329,2.475,1.494-.453,1.352-4.138,1.352-4.138l.041-.433.554-6.085L144.7,79.11l-1.082-.46s-.041,1.677-.074,3.759v3.07a38,38,0,0,0,.392,5.342Z" fill="#f7a9a0"/>
        <path id="Path_2532" data-name="Path 2532" d="M143.506,82.382a12.272,12.272,0,0,0,8.114,6.342l.554-6.085L144.7,79.11l-1.082-.46S143.54,80.3,143.506,82.382Z" fill="#263238"/>
        <path id="Path_2533" data-name="Path 2533" d="M159.923,73.7c.852,10.69-5.457,12.407-7.762,12.59-2.089.162-9.236.453-11.19-10.088s2.752-14.314,7.519-14.943S159.071,62.99,159.923,73.7Z" fill="#f7a9a0"/>
        <path id="Path_2534" data-name="Path 2534" d="M158.118,71.4a6.508,6.508,0,0,1-.723-.142,1.217,1.217,0,0,1-.71-.291.379.379,0,0,1,0-.467.953.953,0,0,1,.933-.23,1.352,1.352,0,0,1,.872.487.406.406,0,0,1-.372.642Z" fill="#263238"/>
        <path id="Path_2535" data-name="Path 2535" d="M151.113,71.78a6.577,6.577,0,0,0,.723-.162,1.15,1.15,0,0,0,.676-.3.379.379,0,0,0,0-.467.953.953,0,0,0-.933-.21,1.406,1.406,0,0,0-.872.5.406.406,0,0,0,.406.642Z" fill="#263238"/>
        <path id="Path_2536" data-name="Path 2536" d="M152.81,74.471s-.061.041-.054.068c.047.73,0,1.575-.676,1.839v.041C152.871,76.276,152.952,75.154,152.81,74.471Z" fill="#263238"/>
        <path id="Path_2537" data-name="Path 2537" d="M152.134,73.734c-1.177-.054-1.2,2.306-.1,2.353S153.094,73.775,152.134,73.734Z" fill="#263238"/>
        <path id="Path_2538" data-name="Path 2538" d="M151.647,73.856c-.2.128-.412.365-.676.385s-.507-.216-.676-.46h-.041c0,.453.162.92.676.987s.764-.331.879-.784C151.8,73.923,151.728,73.8,151.647,73.856Z" fill="#263238"/>
        <path id="Path_2539" data-name="Path 2539" d="M156.731,74.092a.055.055,0,0,1,.054.061c0,.73.054,1.575.71,1.826v.041C156.684,75.891,156.583,74.775,156.731,74.092Z" fill="#263238"/>
        <path id="Path_2540" data-name="Path 2540" d="M157.394,73.335c1.176-.074,1.231,2.285.142,2.353S156.407,73.4,157.394,73.335Z" fill="#263238"/>
        <path id="Path_2541" data-name="Path 2541" d="M157.888,73.477c.189.122.379.345.6.352s.446-.25.6-.494h.041c0,.453-.115.926-.548,1.021s-.676-.291-.811-.737C157.752,73.558,157.813,73.43,157.888,73.477Z" fill="#263238"/>
        <path id="Path_2542" data-name="Path 2542" d="M152.627,80.029c.162.176.325.426.588.46a2.028,2.028,0,0,0,.8-.142h0a.987.987,0,0,1-.947.352.791.791,0,0,1-.541-.676C152.546,80.016,152.6,80,152.627,80.029Z" fill="#263238"/>
        <path id="Path_2543" data-name="Path 2543" d="M155.663,77.372s.156,1.089.162,1.6c0,.047-.128.074-.3.088h0a2.448,2.448,0,0,1-2.373-.9.054.054,0,0,1,.074-.074,3.705,3.705,0,0,0,2.238.629c.034-.142-.331-1.859-.25-1.866a4.524,4.524,0,0,1,1.17.257c-.264-2.279-.886-4.5-1.116-6.761,0-.081.115-.108.135,0a37.282,37.282,0,0,1,1.467,7.2C156.928,77.838,155.873,77.46,155.663,77.372Z" fill="#263238"/>
        <path id="Path_2544" data-name="Path 2544" d="M141.315,75.411c1.156-.074,4.179-3.266,4.267-8.864,0,0-.426,5.024-.8,5.761s1.684-1.8,1.819-6.315a18.5,18.5,0,0,0,4.638,2.407c2.13.6,3.435.575,3.59.419s-2.989-1.143-3.834-2.123c0,0,5.673,2.637,8.29,2.84.3,0,.676-6.2-3.381-8.837s-10.447.21-12.171,1.88c0,0-2.028.284-4.219,3.279S140.031,75.485,141.315,75.411Z" fill="#263238"/>
        <path id="Path_2545" data-name="Path 2545" d="M146.657,84.566a10.783,10.783,0,0,1-5-3.009,9.378,9.378,0,0,1-2.028-3.9,7.486,7.486,0,0,0,.811,1.609,5.159,5.159,0,0,0,1.291,1.352h0a10.014,10.014,0,0,0,4.99,3.658C146.894,84.323,146.839,84.634,146.657,84.566Z" fill="#ebebeb"/>
        <path id="Path_2546" data-name="Path 2546" d="M144.236,77.886a18.986,18.986,0,0,0-2.448-3.016h0c-.149-.122-.3-.243-.453-.352a2.17,2.17,0,0,0-.852-.365,1.3,1.3,0,0,1,.771-.128c1.352.142,2.515,2.786,3.1,3.773C144.385,77.852,144.3,77.953,144.236,77.886Z" fill="#ebebeb"/>
        <path id="Path_2547" data-name="Path 2547" d="M143.9,77.446c-.264-.487,3.536.974,7.282-.122.771-.223,2.874-1.278,4.057-1.352s2.7.771,4.395.818c.575,0,.487,5-.8,7.289a7.444,7.444,0,0,1-3.6,2.61c-2.914.541-8.114-1.149-8.966-2.028C145.616,83.843,146.461,82.078,143.9,77.446Z" fill="#ebebeb"/>
        <path id="Path_2548" data-name="Path 2548" d="M159.348,77.879a11.5,11.5,0,0,0-3.665-.8,13.225,13.225,0,0,0-2.948.906,12.488,12.488,0,0,1-7.045.514s-.034.047,0,.054a10.2,10.2,0,0,0,6.4-.1,14.078,14.078,0,0,1,3.644-1.075,16.281,16.281,0,0,1,3.611.622C159.443,78.014,159.456,77.913,159.348,77.879Z" fill="#dbdbdb"/>
        <path id="Path_2549" data-name="Path 2549" d="M157.955,83.755a20.716,20.716,0,0,1-2.3,1.406,5.908,5.908,0,0,1-3.144,0,56,56,0,0,1-5.558-1.352h0a24.206,24.206,0,0,0,6.4,1.677A5,5,0,0,0,155.6,85.4a10.494,10.494,0,0,0,2.387-1.623S157.982,83.741,157.955,83.755Z" fill="#dbdbdb"/>
        <path id="Path_2550" data-name="Path 2550" d="M158.855,79.6a12.847,12.847,0,0,0-5.531.284,22.313,22.313,0,0,1-6.5.412h0a18.756,18.756,0,0,0,5.8-.169c.926-.169,1.846-.426,2.779-.568a10.818,10.818,0,0,1,3.428.128C158.9,79.732,158.9,79.61,158.855,79.6Z" fill="#dbdbdb"/>
        <path id="Path_2551" data-name="Path 2551" d="M158.571,81.53a9.338,9.338,0,0,1-5.409,1.65,25.369,25.369,0,0,1-5.761-1.1v.047c3.861,1.271,7.728,2.028,11.258-.494C158.7,81.591,158.638,81.483,158.571,81.53Z" fill="#dbdbdb"/>
        <path id="Path_2552" data-name="Path 2552" d="M143.547,76.959s-2.15-3.475-3.712-2.7-.074,5.686,1.663,6.45a1.812,1.812,0,0,0,2.481-.838Z" fill="#f7a9a0"/>
        <path id="Path_2553" data-name="Path 2553" d="M140.294,75.641s-.034,0,0,.047a4.6,4.6,0,0,1,2.2,3,1,1,0,0,0-1.481-.358c-.034,0,0,.074,0,.068a1.109,1.109,0,0,1,1.2.46,5.058,5.058,0,0,1,.534,1.021c.047.115.257.068.216-.061v-.027C143.107,78.19,141.991,75.891,140.294,75.641Z" fill="#263238"/>
        <path id="Path_2554" data-name="Path 2554" d="M143,80.516a.778.778,0,1,1-.2-.564A.784.784,0,0,1,143,80.516Z" fill="#fff"/>
        <path id="Path_2555" data-name="Path 2555" d="M111.463,175.2c-1.318,3.131-.46,8.337-2.975,8.08-2.231-.223-2.475-3.881-2.475-3.881s-1.062,4.212-3.381,3.286-1.785-4.99-1.785-4.99-.723,3.55-2.989,2.454-2.427-4.632-2.427-4.632-.906.872-2.157-.615c-1.8-2.13-.568-8.033.8-10.954s8.553-12.637,9.682-14.1l18.865,8.634s0,6.329-.446,9.534-4.692,13.4-7.3,12.509.548-8.033.94-9.953,0-2.333-.838-1.609A38.993,38.993,0,0,0,111.463,175.2Z" fill="#f7a9a0"/>
        <path id="Path_2556" data-name="Path 2556" d="M106.088,179.22c0-5.132.92-7.37,3.638-11.623.054-.081-.061-.183-.122-.1-3.036,3.928-4.571,6.572-3.766,11.731C105.878,179.484,106.088,179.464,106.088,179.22Z" fill="#263238"/>
        <path id="Path_2557" data-name="Path 2557" d="M100.882,177.908c.494-5.321,1.44-7.762,3.955-12.428.041-.061-.068-.128-.108-.068-2.853,4.368-4.321,7.045-4.111,12.428C100.625,178.084,100.861,178.152,100.882,177.908Z" fill="#263238"/>
        <path id="Path_2558" data-name="Path 2558" d="M95.459,175.461c.852-5.118,1.778-7.837,4.8-12.049a.1.1,0,0,0-.149-.122,17.2,17.2,0,0,0-4.8,12.13C95.3,175.745,95.4,175.8,95.459,175.461Z" fill="#263238"/>
        <path id="Path_2559" data-name="Path 2559" d="M137.569,94.3c-14,15.409-31.826,50.907-34.328,56.4-1.7,3.732,17.817,13.144,18.587,10.44.994-3.469,17.147-44.626,21.339-60.745C145.48,91.5,142.431,88.947,137.569,94.3Z" fill="#f7a9a0"/>
        <path id="Path_2560" data-name="Path 2560" d="M125.02,155.23c.088.041.142-.095.054-.142" fill="#263238"/>
        <path id="Path_2561" data-name="Path 2561" d="M104.837,144.6c-.081-.047-.142.088-.054.122" fill="#263238"/>
        <path id="Path_2562" data-name="Path 2562" d="M103.884,146.873l23.956,9.547s12.421-39.96,15.382-54.376-1.352-13.523-8.844-5.145S103.884,146.873,103.884,146.873Z" fill="red"/>
        <path id="Path_2563" data-name="Path 2563" d="M140.551,92.037a1.67,1.67,0,0,1,.9-.047.865.865,0,0,1,.561.791.676.676,0,0,0,.311.588.724.724,0,0,0,.352.115,1.579,1.579,0,0,1,.433.081,1.575,1.575,0,0,1-.906.034.872.872,0,0,1-.527-.811.676.676,0,0,0-.331-.561.771.771,0,0,0-.365-.108Z" fill="#fff"/>
        <path id="Path_2564" data-name="Path 2564" d="M139.125,118.225v.081a1.19,1.19,0,0,1-.676,0,.879.879,0,0,1-.534-.811.676.676,0,0,0-.331-.561.73.73,0,0,0-.365-.108l-.426-.081a1.67,1.67,0,0,1,.9-.047.852.852,0,0,1,.561.791.676.676,0,0,0,.311.588.751.751,0,0,0,.358.115Z" fill="#fff"/>
        <path id="Path_2565" data-name="Path 2565" d="M117.718,147.489a1.67,1.67,0,0,1,.9-.047.879.879,0,0,1,.561.8.676.676,0,0,0,.311.581.724.724,0,0,0,.352.115,1.881,1.881,0,0,1,.433.081,1.521,1.521,0,0,1-.906.034.859.859,0,0,1-.527-.8.676.676,0,0,0-.331-.568.771.771,0,0,0-.365-.108C118,147.543,117.86,147.529,117.718,147.489Z" fill="#fff"/>
        <path id="Path_2566" data-name="Path 2566" d="M128.651,104.9a1.69,1.69,0,0,1,.906-.047.859.859,0,0,1,.554.791.71.71,0,0,0,.311.588.778.778,0,0,0,.358.115,1.627,1.627,0,0,1,.433.081,1.575,1.575,0,0,1-.906,0,.865.865,0,0,1-.527-.811.676.676,0,0,0-.331-.561.771.771,0,0,0-.365-.108A1.371,1.371,0,0,1,128.651,104.9Z" fill="#fff"/>
        <path id="Path_2567" data-name="Path 2567" d="M129.936,131.261a1.67,1.67,0,0,1,.9-.047.879.879,0,0,1,.561.8.676.676,0,0,0,.311.581.723.723,0,0,0,.352.115,1.881,1.881,0,0,1,.433.081,1.521,1.521,0,0,1-.906.034.859.859,0,0,1-.527-.8.676.676,0,0,0-.331-.568.771.771,0,0,0-.365-.108C130.22,131.315,130.078,131.3,129.936,131.261Z" fill="#fff"/>
        <path id="Path_2568" data-name="Path 2568" d="M125.514,116.737a1.69,1.69,0,0,1,.906-.047.852.852,0,0,1,.554.791.717.717,0,0,0,.311.588.75.75,0,0,0,.358.115,1.679,1.679,0,0,1,.433.081,1.575,1.575,0,0,1-.906.034.892.892,0,0,1-.534-.811.676.676,0,0,0-.325-.561.771.771,0,0,0-.365-.108C125.8,116.791,125.656,116.771,125.514,116.737Z" fill="#fff"/>
        <path id="Path_2569" data-name="Path 2569" d="M117.718,130.4a1.67,1.67,0,0,1,.9-.047.879.879,0,0,1,.561.8.676.676,0,0,0,.311.581.724.724,0,0,0,.352.115,1.579,1.579,0,0,1,.433.081,1.575,1.575,0,0,1-.906,0,.865.865,0,0,1-.527-.811.676.676,0,0,0-.331-.561.771.771,0,0,0-.365-.108A1.309,1.309,0,0,1,117.718,130.4Z" fill="#fff"/>
        <path id="Path_2570" data-name="Path 2570" d="M142.83,100.449a1.711,1.711,0,0,1-.6.676.872.872,0,0,1-.96-.162.676.676,0,0,0-.629-.216.757.757,0,0,0-.338.169c-.122.081-.23.176-.358.25a1.582,1.582,0,0,1,.615-.676.872.872,0,0,1,.947.2.676.676,0,0,0,.629.162.73.73,0,0,0,.338-.183C142.586,100.611,142.7,100.523,142.83,100.449Z" fill="#fff"/>
        <path id="Path_2571" data-name="Path 2571" d="M117.731,140.294a1.7,1.7,0,0,1-.609.676.852.852,0,0,1-.953-.162.676.676,0,0,0-.636-.2.723.723,0,0,0-.331.176c-.122.081-.237.169-.365.243.169-.237.284-.521.615-.676a.865.865,0,0,1,.947.2.707.707,0,0,0,.967-.02C117.488,140.457,117.6,140.369,117.731,140.294Z" fill="#fff"/>
        <path id="Path_2572" data-name="Path 2572" d="M121.666,119.868a1.67,1.67,0,0,1,.047.9.879.879,0,0,1-.8.561.676.676,0,0,0-.581.311.723.723,0,0,0-.115.352,1.881,1.881,0,0,1-.081.433,1.522,1.522,0,0,1-.034-.906.859.859,0,0,1,.8-.527.676.676,0,0,0,.568-.331.771.771,0,0,0,.108-.365C121.612,120.152,121.626,120.01,121.666,119.868Z" fill="#fff"/>
        <path id="Path_2573" data-name="Path 2573" d="M132.742,120.767a1.67,1.67,0,0,1,.047.9.879.879,0,0,1-.8.561.676.676,0,0,0-.581.311.724.724,0,0,0-.115.352,1.881,1.881,0,0,1-.081.433,1.521,1.521,0,0,1-.034-.906.859.859,0,0,1,.8-.527.676.676,0,0,0,.568-.331.771.771,0,0,0,.108-.365A3.664,3.664,0,0,1,132.742,120.767Z" fill="#fff"/>
        <path id="Path_2574" data-name="Path 2574" d="M109.644,143.614a1.738,1.738,0,0,1,.047.9.865.865,0,0,1-.8.561.676.676,0,0,0-.581.311.723.723,0,0,0-.115.358,1.894,1.894,0,0,1-.081.426,1.467,1.467,0,0,1-.034-.906.859.859,0,0,1,.8-.527.652.652,0,0,0,.649-.717A3.212,3.212,0,0,0,109.644,143.614Z" fill="#fff"/>
        <path id="Path_2575" data-name="Path 2575" d="M113.485,133.952a1.69,1.69,0,0,1,.047.906.859.859,0,0,1-.8.554.676.676,0,0,0-.581.311.751.751,0,0,0-.115.358,1.952,1.952,0,0,1-.081.433,1.521,1.521,0,0,1-.034-.906.872.872,0,0,1,.8-.534.676.676,0,0,0,.568-.325.771.771,0,0,0,.108-.365C113.431,134.243,113.444,134.094,113.485,133.952Z" fill="#fff"/>
        <path id="Path_2576" data-name="Path 2576" d="M134.858,97.528a1.67,1.67,0,0,1,.047.9.865.865,0,0,1-.8.561.676.676,0,0,0-.581.311.723.723,0,0,0-.115.358,1.894,1.894,0,0,1-.081.426,1.494,1.494,0,0,1-.034-.9.865.865,0,0,1,.8-.534.676.676,0,0,0,.568-.331.73.73,0,0,0,.108-.365C134.8,97.812,134.817,97.67,134.858,97.528Z" fill="#fff"/>
        <path id="Path_2577" data-name="Path 2577" d="M139.523,106.21a1.69,1.69,0,0,1,.047.906.852.852,0,0,1-.791.554.717.717,0,0,0-.588.311.75.75,0,0,0-.115.358,1.679,1.679,0,0,1-.081.433,1.575,1.575,0,0,1-.034-.906.893.893,0,0,1,.811-.534.676.676,0,0,0,.561-.325.771.771,0,0,0,.108-.365C139.469,106.5,139.49,106.352,139.523,106.21Z" fill="#fff"/>
        <path id="Path_2578" data-name="Path 2578" d="M124.919,135.636a1.67,1.67,0,0,1,.047.9.859.859,0,0,1-.791.561.676.676,0,0,0-.581.311.615.615,0,0,0-.115.358c-.034.142-.047.284-.088.426a1.569,1.569,0,0,1-.034-.906.872.872,0,0,1,.811-.527.676.676,0,0,0,.568-.331.771.771,0,0,0,.1-.365C124.865,135.906,124.885,135.778,124.919,135.636Z" fill="#fff"/>
        <path id="Path_2579" data-name="Path 2579" d="M123.9,127.61a1.758,1.758,0,0,1,.6-.676.865.865,0,0,1,.96.169.7.7,0,0,0,.967.02c.122-.081.23-.169.358-.243a1.555,1.555,0,0,1-.615.676.872.872,0,0,1-.947-.2.676.676,0,0,0-.629-.169.838.838,0,0,0-.338.183C124.148,127.447,124.033,127.535,123.9,127.61Z" fill="#fff"/>
        <path id="Path_2580" data-name="Path 2580" d="M123.9,143.918a1.758,1.758,0,0,1,.6-.676.865.865,0,0,1,.96.169.7.7,0,0,0,.967.02c.122-.081.23-.169.358-.243a1.555,1.555,0,0,1-.615.676.872.872,0,0,1-.947-.2.676.676,0,0,0-.629-.169.839.839,0,0,0-.338.183C124.148,143.756,124.033,143.844,123.9,143.918Z" fill="#fff"/>
        <path id="Path_2581" data-name="Path 2581" d="M124.412,152.411a1.67,1.67,0,0,1,.6-.676.859.859,0,0,1,.96.162.676.676,0,0,0,.629.2.778.778,0,0,0,.338-.176c.122-.081.23-.169.358-.243a1.582,1.582,0,0,1-.615.676.872.872,0,0,1-.947-.2.707.707,0,0,0-.967.02A2.35,2.35,0,0,0,124.412,152.411Z" fill="#fff"/>
        <path id="Path_2582" data-name="Path 2582" d="M130.531,112.917a1.731,1.731,0,0,1,.6-.676.872.872,0,0,1,.96.169.676.676,0,0,0,.636.2.757.757,0,0,0,.331-.176c.122-.081.23-.169.358-.243a1.582,1.582,0,0,1-.615.676.872.872,0,0,1-.947-.2.676.676,0,0,0-.629-.169.771.771,0,0,0-.331.183q-.177.127-.365.237Z" fill="#fff"/>
        <path id="Path_2583" data-name="Path 2583" d="M142.668,110.456c-.751,1.521-1.555,3.009-2.245,4.557.6-2.15,1.183-4.307,1.67-6.484,0-.115-.135-.149-.176-.047-1.7,4.6-3.083,9.331-4.483,14.023s-2.867,9.378-4.091,14.118c-.676,2.671-1.494,5.308-2.11,8a.084.084,0,1,0,.162.041c.852-2.333,1.535-4.733,2.319-7.079s1.467-4.618,2.164-6.944c1.251-4.179,2.495-8.364,3.685-12.57.406-.994.818-1.981,1.217-2.975.629-1.535,1.244-3.1,1.981-4.584C142.776,110.449,142.668,110.395,142.668,110.456Z" fill="#263238"/>
        <path id="Path_2584" data-name="Path 2584" d="M128.272,151.458a42.594,42.594,0,0,0-3.868-1.785c-1.352-.609-2.664-1.156-4-1.717-2.61-1.082-5.254-2.083-7.9-3.076-1.535-.575-3.1-1.089-4.638-1.65-.061,0-.095.074-.041.095,2.623,1.17,5.233,2.367,7.884,3.482s5.22,2.15,7.87,3.137c.757.277,1.521.534,2.279.8a22.825,22.825,0,0,0,2.373.811.055.055,0,0,0,.041-.1Z" fill="#263238"/>
        <path id="Path_2585" data-name="Path 2585" d="M152.715,90.82h-.054a3.9,3.9,0,0,1-.967,3.759c-1.109.96-2.759.676-4.057.426a9.1,9.1,0,0,1-3.678-1.623c-.953-.744-1.751-2.211-.906-3.428.041-.054,0-.088-.041-.041a2.326,2.326,0,0,0-.372,2.7,5.45,5.45,0,0,0,2.7,2.265,10.345,10.345,0,0,0,3.786.947,3.381,3.381,0,0,0,3.1-1.21,4.246,4.246,0,0,0,.487-3.8Z" fill="#263238"/>
      </g>
      <g id="freepik--speech-bubble--inject-72">
        <path id="Path_2586" data-name="Path 2586" d="M287.932,57.473a15.058,15.058,0,0,0,24.037,12.09l7.377,1.886-3.07-6.87a15.065,15.065,0,1,0-28.344-7.106Z" fill="#fff"/>
        <path id="Path_2587" data-name="Path 2587" d="M287.932,57.473a15.153,15.153,0,0,0,2.285,7.877,16.236,16.236,0,0,0,1.2,1.69,17.587,17.587,0,0,0,1.447,1.481,13.955,13.955,0,0,0,3.381,2.326,14.469,14.469,0,0,0,6,1.5,13.044,13.044,0,0,0,2.028-.041,14.781,14.781,0,0,0,7.546-2.941l.088-.074h.115l7.39,1.826-.345.412-3.1-6.863-.068-.142.081-.142a15.133,15.133,0,0,0,1.731-6.4,14.922,14.922,0,0,0-1.231-6.525,15.551,15.551,0,0,0-3.962-5.348,14.894,14.894,0,0,0-24.585,11.366Zm0,0a15.226,15.226,0,1,1,28.628,7.255v-.284l3.043,6.883.25.561-.588-.156-7.37-1.934.2-.041a15.227,15.227,0,0,1-7.8,2.88,12.766,12.766,0,0,1-2.1,0,15.37,15.37,0,0,1-2.083-.257,15.18,15.18,0,0,1-3.928-1.352,15.023,15.023,0,0,1-3.381-2.394,17.824,17.824,0,0,1-1.44-1.508,16.36,16.36,0,0,1-1.19-1.7,15.206,15.206,0,0,1-2.245-7.952Z" fill="#263238"/>
        <path id="Path_2588" data-name="Path 2588" d="M300.663,67.5l-7.154-7.248,2.4-2.373,4.185,4.233,8.682-13.624,2.853,1.819Z" fill="red"/>
      </g>
    </g>
  </g>
</svg>
