<svg xmlns="http://www.w3.org/2000/svg" xmlns:xlink="http://www.w3.org/1999/xlink" width="82" height="82" viewBox="0 0 82 82">
  <defs>
    <clipPath id="clip-path">
      <rect id="Rectangle_5" data-name="Rectangle 5" width="82" height="82" transform="translate(198 1806)" fill="#f0f0f0"/>
    </clipPath>
  </defs>
  <g id="Mask_Group_13" data-name="Mask Group 13" transform="translate(-198 -1806)" clip-path="url(#clip-path)">
    <g id="guarantee" transform="translate(198 1806)">
      <path id="Path_1012" data-name="Path 1012" d="M77.558,34.5c-.961-.79-2.414-1.984-2.579-2.6-.186-.7.467-2.447.944-3.726.923-2.477,1.971-5.286.588-7.676-1.4-2.419-4.381-2.915-7.011-3.353-1.253-.209-3.147-.524-3.631-1.008s-.8-2.378-1.008-3.631c-.438-2.631-.935-5.612-3.353-7.011-2.389-1.383-5.2-.335-7.676.588-1.278.477-3.03,1.129-3.726.943-.62-.166-1.814-1.618-2.605-2.579C45.788,2.36,43.848,0,41,0s-4.788,2.36-6.5,4.442c-.79.961-1.984,2.414-2.6,2.579-.7.185-2.447-.467-3.726-.944-2.477-.923-5.286-1.971-7.676-.588-2.419,1.4-2.915,4.381-3.353,7.011-.209,1.253-.524,3.147-1.008,3.631s-2.378.8-3.631,1.008c-2.631.438-5.612.935-7.011,3.353-1.383,2.389-.335,5.2.588,7.676.477,1.278,1.129,3.03.943,3.726-.166.62-1.618,1.814-2.579,2.605C2.36,36.212,0,38.152,0,41s2.36,4.788,4.442,6.5c.961.79,2.414,1.984,2.579,2.6.186.7-.467,2.447-.944,3.726-.923,2.477-1.971,5.286-.588,7.676,1.4,2.419,4.381,2.915,7.011,3.353,1.253.209,3.147.524,3.631,1.008s.8,2.378,1.008,3.631c.438,2.631.935,5.612,3.353,7.011,2.389,1.383,5.2.335,7.676-.588,1.278-.477,3.03-1.129,3.726-.943.62.166,1.814,1.618,2.605,2.579C36.212,79.64,38.152,82,41,82s4.788-2.36,6.5-4.442c.79-.961,1.984-2.414,2.6-2.579.7-.185,2.447.467,3.726.944,2.477.923,5.286,1.971,7.676.588,2.419-1.4,2.915-4.381,3.353-7.011.209-1.253.524-3.147,1.008-3.631s2.378-.8,3.631-1.008c2.631-.438,5.612-.935,7.011-3.353,1.383-2.389.335-5.2-.588-7.676-.477-1.278-1.129-3.03-.943-3.726.166-.62,1.618-1.814,2.579-2.605C79.64,45.788,82,43.848,82,41S79.64,36.212,77.558,34.5Zm0,0" fill="#00ee8a"/>
      <path id="Path_1013" data-name="Path 1013" d="M59.86,30.647a6.307,6.307,0,0,0-11.29-2.893l-9.829,13.1L34.422,36.54A6.308,6.308,0,1,0,25.5,45.461l9.462,9.461a6.264,6.264,0,0,0,4.46,1.847c.149,0,.3-.005.447-.016a6.3,6.3,0,0,0,4.6-2.507L58.662,35.323A6.265,6.265,0,0,0,59.86,30.647Zm0,0" fill="#00aa63"/>
      <path id="Path_1014" data-name="Path 1014" d="M77.558,34.5c-.961-.79-2.414-1.984-2.579-2.6-.186-.7.467-2.447.944-3.726.923-2.477,1.971-5.286.588-7.676-1.4-2.419-4.381-2.915-7.011-3.353-1.253-.209-3.147-.524-3.631-1.008s-.8-2.378-1.008-3.631c-.438-2.631-.935-5.612-3.353-7.011-2.389-1.383-5.2-.335-7.676.588-1.278.477-3.03,1.129-3.726.943-.62-.166-1.814-1.618-2.605-2.579C45.788,2.36,43.848,0,41,0V82c2.848,0,4.788-2.36,6.5-4.442.79-.961,1.984-2.414,2.6-2.579.7-.185,2.447.467,3.726.944,2.477.923,5.286,1.971,7.676.588,2.419-1.4,2.915-4.381,3.353-7.011.209-1.253.524-3.147,1.008-3.631s2.378-.8,3.631-1.008c2.631-.438,5.612-.935,7.011-3.353,1.383-2.389.335-5.2-.588-7.676-.477-1.278-1.129-3.03-.943-3.726.166-.62,1.618-1.814,2.579-2.605C79.64,45.788,82,43.848,82,41S79.64,36.212,77.558,34.5Zm0,0" fill="#00cc76"/>
      <path id="Path_1015" data-name="Path 1015" d="M59.86,30.647a6.307,6.307,0,0,0-11.29-2.893L41,37.846V56.567a6.3,6.3,0,0,0,3.469-2.32L58.662,35.323A6.265,6.265,0,0,0,59.86,30.647Zm0,0" fill="#009959"/>
    </g>
  </g>
</svg>
