<svg xmlns="http://www.w3.org/2000/svg" xmlns:xlink="http://www.w3.org/1999/xlink" width="82" height="82" viewBox="0 0 82 82">
  <defs>
    <clipPath id="clip-path">
      <rect id="Rectangle_7" data-name="Rectangle 7" width="82" height="82" transform="translate(884 1806)" fill="#f0f0f0"/>
    </clipPath>
  </defs>
  <g id="Mask_Group_14" data-name="Mask Group 14" transform="translate(-884 -1806)" clip-path="url(#clip-path)">
    <g id="race" transform="translate(884.095 1806)">
      <path id="Path_1016" data-name="Path 1016" d="M81.811,79.6a2.374,2.374,0,0,1-2.4,2.4h-7.35L67.27,77.206,62.476,82H19.334L14.54,77.206,9.747,82H2.4A2.373,2.373,0,0,1,0,79.6,16.9,16.9,0,0,1,16.937,62.826c4.506,0,8.053.623,10.642-3.02a2.268,2.268,0,0,1,.336-.336H53.9a2.236,2.236,0,0,1,.335.336c2.588,3.643,6.135,3.02,10.642,3.02A16.9,16.9,0,0,1,81.811,79.6Zm0,0" fill="#5a5a5a"/>
      <path id="Path_1017" data-name="Path 1017" d="M81.811,79.6a2.374,2.374,0,0,1-2.4,2.4h-7.35L67.27,77.206,62.476,82H40.905V59.47H53.9a2.236,2.236,0,0,1,.335.336c2.589,3.643,6.136,3.02,10.642,3.02A16.9,16.9,0,0,1,81.811,79.6Zm0,0" fill="#292929"/>
      <path id="Path_1018" data-name="Path 1018" d="M63.483,49.451c-.623,1.438-1.246,2.877-1.965,4.218C57.492,60.86,51.979,65.462,45.7,67H36.112c-6.28-1.534-11.793-6.136-15.819-13.326a41.031,41.031,0,0,1-1.917-4.17h22.53Zm0,0" fill="#ec5569"/>
      <path id="Path_1019" data-name="Path 1019" d="M40.905,49.5l22.578-.048c-.623,1.438-1.246,2.877-1.965,4.218C57.492,60.86,51.979,65.462,45.7,67H40.905Zm0,0" fill="#cc2e43"/>
      <path id="Path_1020" data-name="Path 1020" d="M66.311,21.792l-7.286,4.793H21.3l-5.8-4.793a33.471,33.471,0,0,1,4.026-10.738C24.175,3.624,31.558-.434,40.905.045a22.666,22.666,0,0,1,21.38,11.009A33.485,33.485,0,0,1,66.311,21.792Zm0,0" fill="#ec5569"/>
      <path id="Path_1021" data-name="Path 1021" d="M59.025,26.586H40.905V.045a22.666,22.666,0,0,1,21.38,11.009,33.48,33.48,0,0,1,4.026,10.738Zm0,0" fill="#cc2e43"/>
      <path id="Path_1022" data-name="Path 1022" d="M66.311,21.792C60.7,23.9,47.76,24.477,40.905,24.477c-6.663,0-19.8-.576-25.406-2.684A48.039,48.039,0,0,0,18.375,49.5c6.184,2.732,15.867,3.739,22.53,3.739,6.9,0,16.3-1.007,22.578-3.787A47.845,47.845,0,0,0,66.311,21.792Zm0,0" fill="#6e6e6e"/>
      <path id="Path_1023" data-name="Path 1023" d="M63.483,49.451c-6.279,2.78-15.675,3.787-22.578,3.787V24.477c6.855,0,19.8-.576,25.406-2.684A47.845,47.845,0,0,1,63.483,49.451Zm0,0" fill="#444"/>
      <path id="Path_1024" data-name="Path 1024" d="M48.1,17.286a2.373,2.373,0,0,1-2.4,2.4H36.112a2.4,2.4,0,1,1,0-4.793H45.7A2.373,2.373,0,0,1,48.1,17.286Zm0,0" fill="#6e6e6e"/>
      <path id="Path_1025" data-name="Path 1025" d="M19.334,82H9.747V62.826a4.794,4.794,0,0,1,9.587,0Zm0,0" fill="#cc2e43"/>
      <path id="Path_1026" data-name="Path 1026" d="M72.064,82H62.476V62.826a4.794,4.794,0,0,1,9.587,0Zm0,0" fill="#ae2538"/>
      <path id="Path_1027" data-name="Path 1027" d="M45.7,19.683H40.905V14.889H45.7a2.4,2.4,0,0,1,0,4.793Zm0,0" fill="#444"/>
      <path id="Path_1028" data-name="Path 1028" d="M59.744,45.76A57.488,57.488,0,0,1,45.22,48.3c-1.438.1,1.869-4.65.479-4.65-.288,0-3.068,2.445-4.793,3.835a5.578,5.578,0,0,1-1.343.91,77.73,77.73,0,0,1-8.436-.575c-.671-.1,1.054-4.985.383-5.129-1.055-.144-4.458,4.458-5.417,4.218a27.135,27.135,0,0,1-4.026-1.1,44.965,44.965,0,0,1-2.541-18.072,124.5,124.5,0,0,0,17.209,1.486c1.39,0-1.966,4.842-.623,4.842.288,0,3.068-2.445,4.793-3.835a5.677,5.677,0,0,1,1.39-.958c2.877-.048,5.945-.144,8.964-.335.911-.048-3.019,4.7-2.109,4.6,1.055-.1,6.951-4.985,8.005-5.082,1.774-.191,3.547-.431,5.129-.719A44.745,44.745,0,0,1,59.744,45.76Zm0,0" fill="#deecf1"/>
      <path id="Path_1029" data-name="Path 1029" d="M59.744,45.76A57.488,57.488,0,0,1,45.22,48.3c-1.438.1,1.869-4.65.479-4.65-.288,0-3.068,2.445-4.793,3.835V30.229a5.665,5.665,0,0,1,1.39-.958c2.876-.048,5.944-.144,8.964-.335.911-.048-3.02,4.7-2.109,4.6,1.055-.1,6.951-4.985,8.005-5.082,1.774-.191,3.547-.431,5.129-.719A44.745,44.745,0,0,1,59.744,45.76Zm0,0" fill="#a8d3d8"/>
      <path id="Path_1030" data-name="Path 1030" d="M42.3,29.27l-1.39,2.3-9.779,16.25a47.327,47.327,0,0,1-5.034-.911L36.735,29.222c1.39,0,2.828.048,4.17.048Zm0,0" fill="#c6e2e7"/>
      <path id="Path_1031" data-name="Path 1031" d="M57.156,28.455,45.22,48.3c-1.438.1-2.924.144-4.314.144-.432,0-.863-.048-1.343-.048l1.343-2.253L51.259,28.935C53.273,28.791,55.238,28.647,57.156,28.455Zm0,0" fill="#c6e2e7"/>
      <path id="Path_1032" data-name="Path 1032" d="M42.3,29.27l-1.39,2.3v-2.3Zm0,0" fill="#8ebac5"/>
      <path id="Path_1033" data-name="Path 1033" d="M57.156,28.455,45.22,48.3c-1.438.1-2.924.144-4.314.144v-2.3L51.259,28.935C53.273,28.791,55.238,28.647,57.156,28.455Zm0,0" fill="#8ebac5"/>
      <path id="Path_1034" data-name="Path 1034" d="M45.7,62.826V67a18.749,18.749,0,0,1-9.587,0v-4.17a4.793,4.793,0,1,1,9.587,0Zm0,0" fill="#6e6e6e"/>
      <path id="Path_1035" data-name="Path 1035" d="M45.7,62.826V67a19.909,19.909,0,0,1-4.793.623V58.032A4.808,4.808,0,0,1,45.7,62.826Zm0,0" fill="#444"/>
    </g>
  </g>
</svg>
