<svg xmlns="http://www.w3.org/2000/svg" xmlns:xlink="http://www.w3.org/1999/xlink" width="400" height="400" viewBox="0 0 400 400">
  <defs>
    <clipPath id="clip-path">
      <rect id="Rectangle_532" data-name="Rectangle 532" width="400" height="400" transform="translate(757 170)" fill="#fff" stroke="#707070" stroke-width="1"/>
    </clipPath>
  </defs>
  <g id="Mask_Group_15" data-name="Mask Group 15" transform="translate(-757 -170)" clip-path="url(#clip-path)">
    <g id="High_five-pana" data-name="High five-pana" transform="translate(757 205.272)">
      <g id="freepik--background-complete--inject-116" transform="translate(0 0)">
        <rect id="Rectangle_533" data-name="Rectangle 533" width="44.09" height="63.906" transform="translate(254.095 69.541)" fill="#e0e0e0"/>
        <rect id="Rectangle_534" data-name="Rectangle 534" width="44.09" height="63.906" transform="translate(251.888 69.541)" fill="#f5f5f5"/>
        <rect id="Rectangle_535" data-name="Rectangle 535" width="33.135" height="50.068" transform="translate(257.365 76.46)" fill="#fff"/>
        <path id="Path_1036" data-name="Path 1036" d="M389.2,217.209V203.2c0-8.792,0-21.328-.053-36.045l.106.105H356.13l.123-.123v50.059l-.1-.088h-.211V166.825h33.364v.114c0,14.752-.044,27.254-.053,36.125v13.706a2.1,2.1,0,0,1-.053.44Z" transform="translate(-98.712 -90.69)" fill="#e0e0e0"/>
        <path id="Path_1037" data-name="Path 1037" d="M403.768,158.434a7.742,7.742,0,0,1-.782,1.143c-.51.677-1.24,1.609-2.066,2.637s-1.609,1.9-2.18,2.532a8.415,8.415,0,0,1-.976.993,9.466,9.466,0,0,1,.879-1.1l2.128-2.576,2.119-2.576A7.794,7.794,0,0,1,403.768,158.434Z" transform="translate(-107.667 -88.893)" fill="#e0e0e0"/>
        <path id="Path_1038" data-name="Path 1038" d="M398.491,230.737a41.322,41.322,0,0,0,5.785,7.227" transform="translate(-107.823 -104.376)" fill="#fff"/>
        <path id="Path_1039" data-name="Path 1039" d="M404.276,237.981a6.154,6.154,0,0,1-1.011-.879,32.4,32.4,0,0,1-2.18-2.462A30.645,30.645,0,0,1,399.168,232a6.465,6.465,0,0,1-.677-1.187,7.746,7.746,0,0,1,.818,1.09c.484.686,1.169,1.618,1.961,2.637s1.565,1.873,2.119,2.5A8.8,8.8,0,0,1,404.276,237.981Z" transform="translate(-107.823 -104.393)" fill="#e0e0e0"/>
        <path id="Path_1040" data-name="Path 1040" d="M349.144,237.747l5.767-7.121" transform="translate(-97.256 -104.352)" fill="#fff"/>
        <path id="Path_1041" data-name="Path 1041" d="M354.911,230.626a43.96,43.96,0,0,1-2.787,3.631c-1.6,1.969-2.936,3.517-2.98,3.517a43.073,43.073,0,0,1,2.787-3.64A45.584,45.584,0,0,1,354.911,230.626Z" transform="translate(-97.256 -104.352)" fill="#e0e0e0"/>
        <path id="Path_1042" data-name="Path 1042" d="M349.144,158.434a38.772,38.772,0,0,1,2.8,3.35,42.348,42.348,0,0,1,2.637,3.517,38.778,38.778,0,0,1-2.8-3.35,39.441,39.441,0,0,1-2.637-3.517Z" transform="translate(-97.256 -88.893)" fill="#e0e0e0"/>
        <rect id="Rectangle_536" data-name="Rectangle 536" width="11.095" height="31.5" transform="translate(269.084 86.623)" fill="#e0e0e0"/>
        <path id="Path_1043" data-name="Path 1043" d="M293.228,385.959A15.7,15.7,0,0,0,284,394.074a27.693,27.693,0,0,0-2.637,12.238c-.105,8.15,3.42,16.836,7.517,23.878,7.517-5.046,10.383-15.139,11.517-20.352,1.758-8.246,0-24.221-7.156-23.878" transform="translate(-82.739 -137.615)" fill="#f5f5f5"/>
        <path id="Path_1044" data-name="Path 1044" d="M272.655,452.705a13.39,13.39,0,0,0-2.69-13.187,17.75,17.75,0,0,0-12.484-5.715c-2.172-.114-4.58.22-6.04,1.837a5.723,5.723,0,0,0-.818,5.741,11.578,11.578,0,0,0,3.728,4.739c5.389,4.4,11.429,7.71,18.3,6.567" transform="translate(-76.066 -147.858)" fill="#f5f5f5"/>
        <path id="Path_1045" data-name="Path 1045" d="M281.16,474.6a26.469,26.469,0,0,0-.246-5.38,24.613,24.613,0,0,0-1.336-5.732,54.846,54.846,0,0,0-2.7-6.655,26.727,26.727,0,0,0-8.37-9.97,19.623,19.623,0,0,0-3.517-1.908,4.4,4.4,0,0,0-1.4-.4c-.07.15,1.89.879,4.5,2.831a28.722,28.722,0,0,1,7.912,9.864,64.731,64.731,0,0,1,2.717,6.523,27.84,27.84,0,0,1,1.495,5.539A43.258,43.258,0,0,0,281.16,474.6Z" transform="translate(-78.935 -150.163)" fill="#e0e0e0"/>
        <path id="Path_1046" data-name="Path 1046" d="M294.359,401.623a15.47,15.47,0,0,0-.615,2.637c-.334,1.758-.782,4.22-1.31,7.306-1.064,6.154-2.426,14.717-3.71,24.194s-2.189,18.084-2.717,24.335c-.264,3.121-.448,5.644-.545,7.394a14.311,14.311,0,0,0-.053,2.725,15.672,15.672,0,0,0,.4-2.69c.22-1.908.5-4.4.879-7.367.695-6.224,1.706-14.814,2.98-24.274s2.541-17.865,3.438-24.221c.422-2.972.765-5.451,1.029-7.341A15.759,15.759,0,0,0,294.359,401.623Z" transform="translate(-83.598 -140.971)" fill="#e0e0e0"/>
        <path id="Path_1047" data-name="Path 1047" d="M291.256,458.556a31.316,31.316,0,0,1,22.5-17.671c2.479-.457,5.539-.369,6.9,1.758s.167,4.958-1.336,7.033a26.744,26.744,0,0,1-28.08,9.539" transform="translate(-84.855 -149.33)" fill="#f5f5f5"/>
        <path id="Path_1048" data-name="Path 1048" d="M309.173,449.281a4.4,4.4,0,0,0-1.4.3c-.879.246-2.154.677-3.693,1.248a35.167,35.167,0,0,0-11.095,6.541,22.153,22.153,0,0,0-4.4,5.627,21.143,21.143,0,0,0-2.013,5.477,21.435,21.435,0,0,0-.492,3.886,4.255,4.255,0,0,0,0,1.433c.185,0,.255-2.031,1.073-5.161a21.873,21.873,0,0,1,6.418-10.594,39.623,39.623,0,0,1,10.726-6.611C307.336,450.116,309.244,449.422,309.173,449.281Z" transform="translate(-83.739 -151.176)" fill="#e0e0e0"/>
        <path id="Path_1049" data-name="Path 1049" d="M492.193,189.884s-9.214-2.717-12.941,18.462-4.027,32.845-4.027,32.845-1.292,4.6-4.7,2.892-9.2-7.71-13.293-5.055c-4.246,2.752-4.185,8.414-.958,15.763s9.671,23.737,10.269,25.214.387,3.912-2.119,3.13-18.462-10.4-22.594-2.488,8.229,26.867,9.539,29.012,1.16,3.218.246,4.114-5.978-2.84-10.638-5.389-10.506-4.686-12.493.044,1.758,20.678,24.458,41.523l11.13,8.967,13.477-4.958c28.195-12.379,36.925-26.234,36.591-31.36s-6.576-5.029-11.807-4.15-11.236,2.8-11.816,1.653-.352-2.251,1.574-3.816,19.763-15.561,18.418-24.326-19.579-4.835-22.207-4.906-2-2.453-.993-3.64,12.458-14.612,17.891-20.528,7.323-11.244,4.2-15.227c-3.007-3.842-10.444,0-14.216.475s-3.517-4.255-3.517-4.255,3.517-11.13,6.831-32.388-6.506-21.627-6.506-21.627" transform="translate(-114.146 -95.603)" fill="#f5f5f5"/>
        <path id="Path_1050" data-name="Path 1050" d="M497.536,214.068a3.474,3.474,0,0,1-.044.448l-.185,1.31c-.176,1.169-.431,2.866-.747,5.029-.659,4.4-1.653,10.691-2.91,18.462-2.514,15.605-6.154,37.127-10.277,60.89s-7.825,45.277-10.418,60.864c-1.292,7.781-2.339,14.066-3.06,18.462-.36,2.163-.642,3.851-.879,5.02-.1.554-.167.985-.229,1.3s-.1.44-.1.44a2.911,2.911,0,0,1,.053-.448c.053-.3.106-.747.176-1.31.176-1.169.431-2.866.747-5.029.659-4.4,1.653-10.691,2.91-18.462,2.514-15.605,6.154-37.136,10.286-60.9s7.851-45.268,10.488-60.89c1.284-7.781,2.33-14.066,3.059-18.462l.835-5.02.229-1.3A3.948,3.948,0,0,1,497.536,214.068Z" transform="translate(-122.856 -100.807)" fill="#e0e0e0"/>
        <path id="Path_1051" data-name="Path 1051" d="M475.079,263.595a4.616,4.616,0,0,1,.633.818c.387.545.879,1.345,1.565,2.339,1.292,2,3.007,4.791,4.835,7.912l4.651,8.027,1.415,2.418a3.659,3.659,0,0,1,.483.879,4.449,4.449,0,0,1-.642-.809c-.378-.545-.879-1.345-1.547-2.347-1.275-2.013-2.954-4.835-4.783-7.956l-4.7-7.992c-.563-.949-1.046-1.758-1.433-2.418a3.775,3.775,0,0,1-.475-.87Z" transform="translate(-124.224 -111.412)" fill="#e0e0e0"/>
        <path id="Path_1052" data-name="Path 1052" d="M494.063,287.488c-.079-.114,5.539-3.895,12.546-8.457s12.73-8.159,12.809-8.053-5.547,3.9-12.546,8.457S494.134,287.585,494.063,287.488Z" transform="translate(-128.289 -112.993)" fill="#e0e0e0"/>
        <path id="Path_1053" data-name="Path 1053" d="M483.928,335.639a4.808,4.808,0,0,1,.993-.36l2.743-.835c2.312-.712,5.512-1.7,8.994-2.919s6.611-2.409,8.871-3.3l2.637-1.046a3.982,3.982,0,0,1,1.011-.334,4.915,4.915,0,0,1-.932.5c-.615.3-1.5.712-2.637,1.2-2.215.967-5.328,2.224-8.792,3.438s-6.717,2.163-9.055,2.787c-1.178.308-2.128.545-2.8.695a4.395,4.395,0,0,1-1.037.176Z" transform="translate(-126.119 -124.958)" fill="#e0e0e0"/>
        <path id="Path_1054" data-name="Path 1054" d="M461.106,316.152a4.017,4.017,0,0,1,.774.6c.475.4,1.161,1,1.987,1.758,1.67,1.5,3.947,3.6,6.444,5.926s4.739,4.466,6.348,6.031c.8.774,1.442,1.415,1.881,1.864a4.512,4.512,0,0,1,.651.73,3.445,3.445,0,0,1-.774-.589c-.484-.4-1.16-1.011-2-1.758-1.662-1.495-3.947-3.587-6.444-5.926s-4.739-4.466-6.339-6.022c-.809-.782-1.451-1.415-1.89-1.873A3.779,3.779,0,0,1,461.106,316.152Z" transform="translate(-121.232 -122.667)" fill="#e0e0e0"/>
        <path id="Path_1055" data-name="Path 1055" d="M446.987,355.688a5.794,5.794,0,0,1,.985.774l2.558,2.242c2.145,1.908,5.082,4.563,8.317,7.526s6.154,5.662,8.22,7.631l2.453,2.356a6.226,6.226,0,0,1,.879.879,7.03,7.03,0,0,1-.985-.774l-2.558-2.242c-2.145-1.908-5.081-4.572-8.317-7.526s-6.154-5.662-8.211-7.631l-2.479-2.3A6.051,6.051,0,0,1,446.987,355.688Z" transform="translate(-118.208 -131.134)" fill="#e0e0e0"/>
        <path id="Path_1056" data-name="Path 1056" d="M476.22,378.835a7.626,7.626,0,0,1,1.24-.484l3.446-1.187c2.9-1,6.91-2.4,11.3-4.062s8.317-3.262,11.148-4.44l3.367-1.4a7.293,7.293,0,0,1,1.257-.457,6.338,6.338,0,0,1-1.178.633c-.774.378-1.9.879-3.306,1.53-2.8,1.266-6.726,2.919-11.121,4.58s-8.422,3.033-11.359,3.912c-1.468.457-2.637.809-3.517,1.037a6.708,6.708,0,0,1-1.275.334Z" transform="translate(-124.468 -133.515)" fill="#e0e0e0"/>
        <path id="Path_1057" data-name="Path 1057" d="M97.42,391.306c20.3-11.587,26.893-35.922,28.133-58.227.211-3.728.976-7.6-.492-11.016s-5.38-6.022-8.844-4.765c-2.875,1.046-4.4,4.141-6.154,6.655a21.838,21.838,0,0,1-9.469,7.517c-2.479,1.011-5.468,1.486-7.684,0-3.042-2.066-3.016-6.523-2.637-10.207q1.046-10.339,2.013-20.643c.36-3.684.721-7.455-.106-11.06s-3.068-7.1-6.488-8.4-7.956.316-9.029,3.868a34.441,34.441,0,0,0-.519,4.58c-.237,1.521-1.117,3.156-2.637,3.455s-2.892-.879-3.895-2.066c-3.517-4.079-5.618-9.117-7.6-14.119s-3.877-10.093-6.963-14.48-7.57-8.035-12.827-8.792-11.192,1.969-13,7.033.73,10.638,3.649,15.157a83.1,83.1,0,0,0,15.719,17.891,7.2,7.2,0,0,1,2.637,3.35c.571,2.532-1.987,4.765-4.484,5.354-2.84.659-5.8.1-8.7.176s-6.154,1.055-7.482,3.684c-1.864,3.631.932,7.912,3.8,10.752a70.7,70.7,0,0,0,19.79,13.97c2.637,1.24,5.4,2.374,7.411,4.484s3.033,5.547,1.477,8.027S58,346.487,55.2,345.7s-5.2-2.567-7.816-3.833c-4.9-2.383-11.482-2.637-15.13,1.451-2.4,2.69-2.954,6.682-2.189,10.216a27.458,27.458,0,0,0,4.756,9.671c7.253,10.286,16.959,18.919,28.362,24.08s22.19,7.262,34.287,4.062" transform="translate(-28.616 -109.246)" fill="#f5f5f5"/>
        <path id="Path_1058" data-name="Path 1058" d="M97.96,408.512a163.523,163.523,0,0,0-3.244-30.982A333.362,333.362,0,0,0,84.843,340.7l-3.112-9.5c-1.02-3.121-2.031-6.216-3.209-9.187a165.2,165.2,0,0,0-7.728-16.66c-2.717-5.178-5.477-10-8.1-14.48s-5.161-8.616-7.622-12.308a132.121,132.121,0,0,0-12.906-16.387c-1.67-1.811-3.007-3.174-3.93-4.088l-1.055-1.029a3.093,3.093,0,0,0-.378-.334,3.406,3.406,0,0,0,.325.378l1.011,1.081c.879.941,2.2,2.339,3.833,4.176a138.9,138.9,0,0,1,12.7,16.511c2.435,3.666,4.932,7.807,7.534,12.308s5.345,9.319,8.035,14.488a169.027,169.027,0,0,1,7.693,16.572c1.16,2.954,2.163,6.022,3.174,9.152s2.04,6.295,3.086,9.512a342.676,342.676,0,0,1,9.9,36.722,166.339,166.339,0,0,1,3.376,30.858" transform="translate(-30.37 -109.941)" fill="#e0e0e0"/>
        <path id="Path_1059" data-name="Path 1059" d="M89.688,328.815a6.506,6.506,0,0,0,.51-1.539c.29-1,.651-2.462,1.081-4.281.879-3.631,1.873-8.677,2.972-14.251s2.18-10.594,3.095-14.2c.448-1.758.826-3.262,1.108-4.264a7.833,7.833,0,0,0,.352-1.582,6.9,6.9,0,0,0-.607,1.5c-.352.985-.809,2.427-1.319,4.22-1.037,3.578-2.2,8.607-3.3,14.19L90.8,322.933c-.343,1.714-.633,3.165-.879,4.325A8.345,8.345,0,0,0,89.688,328.815Z" transform="translate(-41.694 -116.788)" fill="#e0e0e0"/>
        <path id="Path_1060" data-name="Path 1060" d="M30.329,322.93a11.076,11.076,0,0,0,1.873.4c1.213.22,2.963.528,5.108.985,4.308.879,10.207,2.268,16.651,4.106s12.2,3.772,16.335,5.275c2.066.738,3.728,1.38,4.871,1.82a9.81,9.81,0,0,0,1.811.624,9.72,9.72,0,0,0-1.706-.879c-1.117-.519-2.752-1.231-4.809-2.031-4.1-1.635-9.847-3.631-16.317-5.486a166.781,166.781,0,0,0-16.748-3.93c-2.163-.387-3.93-.624-5.152-.765A9.464,9.464,0,0,0,30.329,322.93Z" transform="translate(-28.983 -124.117)" fill="#e0e0e0"/>
        <path id="Path_1061" data-name="Path 1061" d="M109.848,393.351a2.259,2.259,0,0,0,.378-.554l.976-1.644c.879-1.424,1.987-3.517,3.376-6.154,2.787-5.222,6.418-12.563,10.3-20.722s7.438-15.526,10.119-20.8l3.183-6.242.879-1.706a2.908,2.908,0,0,0,.255-.615,2.639,2.639,0,0,0-.378.545l-.967,1.644c-.835,1.433-1.987,3.517-3.385,6.154-2.787,5.231-6.409,12.572-10.3,20.73s-7.438,15.517-10.11,20.8l-3.191,6.242-.879,1.706a2.409,2.409,0,0,0-.255.615Z" transform="translate(-46.011 -126.685)" fill="#e0e0e0"/>
        <path id="Path_1062" data-name="Path 1062" d="M31.962,376.049a2.374,2.374,0,0,0,.607.316l1.758.782,6.55,2.813c5.539,2.365,13.187,5.732,21.539,9.46s16.036,7.033,21.627,9.284c2.787,1.134,5.055,2.022,6.638,2.637l1.82.668a2.954,2.954,0,0,0,.651.185,2.19,2.19,0,0,0-.6-.316L90.8,401.1l-6.585-2.84c-5.539-2.374-13.187-5.741-21.539-9.469s-16.045-7.033-21.627-9.284c-2.787-1.125-5.055-2.022-6.638-2.637l-1.82-.659a2.75,2.75,0,0,0-.624-.158Z" transform="translate(-29.333 -135.494)" fill="#e0e0e0"/>
        <path id="Path_1063" data-name="Path 1063" d="M166.174,91.4v72.566H61.959L58.2,91.91Z" transform="translate(-34.95 -74.538)" fill="#e0e0e0"/>
        <rect id="Rectangle_537" data-name="Rectangle 537" width="71.897" height="104.215" transform="translate(23.246 89.278) rotate(-90)" fill="#fff"/>
        <path id="Path_1064" data-name="Path 1064" d="M162.778,164.313H57.57V91.422H162.778ZM58.563,163.32H161.785V92.407H58.563Z" transform="translate(-34.816 -74.543)" fill="#e0e0e0"/>
        <rect id="Rectangle_538" data-name="Rectangle 538" width="81.639" height="54.033" transform="translate(34.534 26.304)" fill="#fff"/>
        <path id="Path_1065" data-name="Path 1065" d="M154.119,103.334h-6l-16.827.062-58.772.114.237-.237v54.033h0l-.264-.255,81.647.053-.211.2c.053-16.44.088-29.891.114-39.307,0-4.695,0-8.361.053-10.875v-.079c0,2.5,0,6.154.053,10.822,0,9.416.062,22.946.105,39.439v.211h-.2l-81.647.053h-.255v-.264h0v-54.27h.229l58.9.123,16.774.062h5.53Z" transform="translate(-37.938 -77.029)" fill="#e0e0e0"/>
        <path id="Path_1066" data-name="Path 1066" d="M58.173,91.792a9.125,9.125,0,0,1,1.758,1.16c1.073.774,2.523,1.864,4.088,3.121s2.945,2.435,3.921,3.323a8.342,8.342,0,0,1,1.486,1.53,64.187,64.187,0,0,1-5.732-4.457A63.785,63.785,0,0,1,58.173,91.792Z" transform="translate(-34.945 -74.622)" fill="#e0e0e0"/>
        <path id="Path_1067" data-name="Path 1067" d="M187.745,92.049a50.235,50.235,0,0,1-5.486,4.668,50.013,50.013,0,0,1-5.8,4.264,51.532,51.532,0,0,1,5.512-4.668,50.41,50.41,0,0,1,5.776-4.264Z" transform="translate(-60.275 -74.677)" fill="#e0e0e0"/>
        <path id="Path_1068" data-name="Path 1068" d="M187.545,180.993l-11.614-9.425" transform="translate(-60.163 -91.705)" fill="#fff"/>
        <path id="Path_1069" data-name="Path 1069" d="M175.93,171.568a56.962,56.962,0,0,1,5.969,4.51,53.751,53.751,0,0,1,5.644,4.914,55.508,55.508,0,0,1-5.969-4.51A48.645,48.645,0,0,1,175.93,171.568Z" transform="translate(-60.162 -91.705)" fill="#e0e0e0"/>
        <path id="Path_1070" data-name="Path 1070" d="M58.174,181.139a49.835,49.835,0,0,1,5.433-4.624,50.433,50.433,0,0,1,5.741-4.22,49.171,49.171,0,0,1-5.424,4.624A50.436,50.436,0,0,1,58.174,181.139Z" transform="translate(-34.946 -91.861)" fill="#e0e0e0"/>
        <rect id="Rectangle_539" data-name="Rectangle 539" width="18.093" height="51.369" transform="translate(51.115 61.242) rotate(-90)" fill="#e0e0e0"/>
        <rect id="Rectangle_540" data-name="Rectangle 540" width="55.721" height="80.768" transform="translate(316.146 0)" fill="#e0e0e0"/>
        <rect id="Rectangle_541" data-name="Rectangle 541" width="55.721" height="80.768" transform="translate(313.359 0)" fill="#f5f5f5"/>
        <rect id="Rectangle_542" data-name="Rectangle 542" width="41.874" height="63.273" transform="translate(320.278 8.748)" fill="#fff"/>
        <path id="Path_1071" data-name="Path 1071" d="M478.031,144.306V126.618c0-11.157-.044-26.964-.07-45.567l.141.141H436.148l.158-.149v63.3l-.123-.123,30.48.07h.079l-30.559.062h-.114V80.884h42.2v.141c0,18.647-.044,34.472-.062,45.655,0,5.565,0,9.978-.044,13V144A.7.7,0,0,0,478.031,144.306Z" transform="translate(-115.87 -72.286)" fill="#e0e0e0"/>
        <path id="Path_1072" data-name="Path 1072" d="M496.4,69.943a8.886,8.886,0,0,1-.993,1.442c-.651.879-1.565,2.048-2.637,3.323s-2.031,2.4-2.761,3.2a9.81,9.81,0,0,1-1.2,1.248,9.973,9.973,0,0,1,1.064-1.389l2.681-3.253c1.011-1.24,1.934-2.356,2.681-3.262a10.29,10.29,0,0,1,1.16-1.31Z" transform="translate(-127.166 -69.943)" fill="#e0e0e0"/>
        <path id="Path_1073" data-name="Path 1073" d="M489.734,161.332a52.22,52.22,0,0,0,7.306,9.134" transform="translate(-127.362 -89.513)" fill="#fff"/>
        <path id="Path_1074" data-name="Path 1074" d="M497.033,170.466a8.388,8.388,0,0,1-1.275-1.16A38.4,38.4,0,0,1,493,166.2a41.468,41.468,0,0,1-2.418-3.376,8.522,8.522,0,0,1-.879-1.495,10.992,10.992,0,0,1,1.029,1.38c.615.879,1.477,2.04,2.479,3.3s1.969,2.365,2.681,3.147A12.066,12.066,0,0,1,497.033,170.466Z" transform="translate(-127.355 -89.513)" fill="#e0e0e0"/>
        <path id="Path_1075" data-name="Path 1075" d="M427.354,170.189l7.3-9" transform="translate(-114.004 -89.482)" fill="#fff"/>
        <path id="Path_1076" data-name="Path 1076" d="M434.653,161.186a54.022,54.022,0,0,1-3.517,4.6,55.625,55.625,0,0,1-3.772,4.4,103.078,103.078,0,0,1,7.288-8.994Z" transform="translate(-114.006 -89.482)" fill="#e0e0e0"/>
        <path id="Path_1077" data-name="Path 1077" d="M427.354,69.943a51.18,51.18,0,0,1,3.517,4.238,51.708,51.708,0,0,1,3.306,4.4,49.243,49.243,0,0,1-3.517-4.238A51.719,51.719,0,0,1,427.354,69.943Z" transform="translate(-114.004 -69.943)" fill="#e0e0e0"/>
        <rect id="Rectangle_543" data-name="Rectangle 543" width="14.023" height="39.808" transform="translate(335.091 21.592)" fill="#e0e0e0"/>
      </g>
      <g id="freepik--Floor--inject-116" transform="translate(1.082 328.998)">
        <path id="Path_1078" data-name="Path 1078" d="M412.532,488.822c0,.132-85.647.229-191.261.229s-191.278-.062-191.278-.229,85.621-.229,191.278-.229S412.532,488.734,412.532,488.822Z" transform="translate(-29.993 -488.593)" fill="#263238"/>
      </g>
      <g id="freepik--character-2--inject-116" transform="translate(204.765 63.946)">
        <path id="Path_1079" data-name="Path 1079" d="M375.545,295.344a15.183,15.183,0,0,1-4.528,14.858c-2.681,2.374-6.154,3.745-8.616,6.356a13.372,13.372,0,0,0-2.681,12.906,17.065,17.065,0,0,0,8.994,9.97,19.966,19.966,0,0,0,18.111-.616c6.8-3.842,10.752-11.552,11.754-19.3s-.571-15.587-2.637-23.122" transform="translate(-304.149 -182.158)" fill="#263238"/>
        <path id="Path_1080" data-name="Path 1080" d="M489.1,465.049c7.033-1.152,13.627.993,20.59,2.532a12.308,12.308,0,0,0,5.706.308c3.016-.774,5.161-3.71,5.627-6.787a11.113,11.113,0,0,0-1.758-7.7,7.4,7.4,0,0,0-2.409-2.4,8.379,8.379,0,0,0-3.367-.879,23.923,23.923,0,0,0-12.4,2.339,36.556,36.556,0,0,0-10.286,7.455c-1.477,1.477-1.037,3.174-1.688,5.161" transform="translate(-331.991 -215.286)" fill="#263238"/>
        <path id="Path_1081" data-name="Path 1081" d="M307.444,315.953a54.508,54.508,0,0,1,.4-20.221,26.552,26.552,0,0,1,3.517-9.187,5.891,5.891,0,0,1,2.576-2.418,4.484,4.484,0,0,1,4.58,1.081,7.657,7.657,0,0,1,2.11,5.926,18.787,18.787,0,0,1-1.565,6.26c-2.717,6.945-7.033,12.713-11.649,18.55" transform="translate(-292.929 -179.707)" fill="#263238"/>
        <path id="Path_1082" data-name="Path 1082" d="M474.91,357.031c1.591,1.134,36.925,77.243,36.925,77.243h0a15.007,15.007,0,0,0-9.011-.879l-1.917.51a32.071,32.071,0,0,0-9.627,4.4L481.2,445.122h0a2.883,2.883,0,0,1-1.433-2.224v-.29L452.369,395.59Z" transform="translate(-324.126 -195.368)" fill="red"/>
        <path id="Path_1083" data-name="Path 1083" d="M307.629,202.848l9.425,53.567c3.033,7.209,38.4,50.886,38.4,50.886l-11.693,37.575-46.455-63.519a24.273,24.273,0,0,1-6.541-17.038l1.811-57.233Z" transform="translate(-289.519 -162.35)" fill="#ffbe9d"/>
        <path id="Path_1084" data-name="Path 1084" d="M372.243,325.08l24.256,1.837,21.152,3.279s37.109,9.75,37.109,13.812c0,1.354-10.128,33.61-15.825,52.934a134.349,134.349,0,0,0-3.411,14.277l19.236,42.586H363.478V414.763s-6.154-51.281-5.073-58.288S372.243,325.08,372.243,325.08Z" transform="translate(-303.977 -188.525)" fill="red"/>
        <path id="Path_1085" data-name="Path 1085" d="M297.581,170.391a107.376,107.376,0,0,1,1.67-16.264c.132-.765.448-1.688,1.213-1.758.949-.123,1.433,1.1,1.556,2.048a57.311,57.311,0,0,1-.8,19.438" transform="translate(-290.979 -151.538)" fill="#eb996e"/>
        <path id="Path_1086" data-name="Path 1086" d="M310.546,308.245c10.409-9.3,10.761-25.416,9.873-38.243a4.3,4.3,0,0,1,.4-2.752c.993-1.415,3.411-.879,4.4.545s.879,3.3.826,5.02c.536-1.459,2.822-1.451,3.895-.325s1.257,2.822,1.38,4.4l.343,4.29,30.41,29.012s.835-2.637,3.068-1.117a13.1,13.1,0,0,1,3.675,4.73l-21.425,46.762L307.628,312.21A16.15,16.15,0,0,1,310.546,308.245Z" transform="translate(-293.13 -175.964)" fill="red"/>
        <path id="Path_1087" data-name="Path 1087" d="M361.688,360.823a40.317,40.317,0,0,0-6.98,13.6,24.792,24.792,0,0,0,.448,15.139,20.994,20.994,0,0,0,16.115,12.994" transform="translate(-303.004 -196.18)" fill="red"/>
        <path id="Path_1088" data-name="Path 1088" d="M488.783,465.868l-1.152,15.517h22.533l5.275-27.474h0a28.379,28.379,0,0,0-19.051,5.97Z" transform="translate(-331.677 -216.105)" fill="#ffbe9d"/>
        <path id="Path_1089" data-name="Path 1089" d="M324.822,306.318a7.551,7.551,0,0,1,.492-1.24c.352-.774.826-1.917,1.363-3.341s1.108-3.147,1.644-5.082a60.78,60.78,0,0,0,1.328-6.409,59.613,59.613,0,0,0,.554-6.515c0-2.013,0-3.824-.123-5.345s-.237-2.743-.352-3.587a8.477,8.477,0,0,1-.123-1.328,6.669,6.669,0,0,1,.3,1.3,35.455,35.455,0,0,1,.5,3.587,49.086,49.086,0,0,1,.22,5.38,50.886,50.886,0,0,1-1.9,13.02,48.277,48.277,0,0,1-1.758,5.09c-.58,1.424-1.1,2.55-1.5,3.306A8.79,8.79,0,0,1,324.822,306.318Z" transform="translate(-296.813 -177.474)" fill="#263238"/>
        <path id="Path_1090" data-name="Path 1090" d="M333.246,300.544a21.749,21.749,0,0,1,.985-2.215,32.811,32.811,0,0,0,2.637-11.262,21.6,21.6,0,0,1,.132-2.418,9.1,9.1,0,0,1,.193,2.426,26.779,26.779,0,0,1-2.637,11.385A8.7,8.7,0,0,1,333.246,300.544Z" transform="translate(-298.616 -179.867)" fill="#263238"/>
        <path id="Path_1091" data-name="Path 1091" d="M378.184,332.751c-.07-.044.3-.615.51-1.653a8.721,8.721,0,0,0-.229-4.07,30.516,30.516,0,0,0-1.521-3.886,6.647,6.647,0,0,1-.615-1.653,7.912,7.912,0,0,1,.879,1.512,20.142,20.142,0,0,1,1.679,3.9,7.974,7.974,0,0,1,.1,4.273A3.138,3.138,0,0,1,378.184,332.751Z" transform="translate(-307.842 -187.756)" fill="#263238"/>
        <path id="Path_1092" data-name="Path 1092" d="M368,404.661a1.81,1.81,0,0,1-.387-.22l-1.037-.686c-.879-.607-2.189-1.495-3.719-2.7a31.885,31.885,0,0,1-4.932-4.721,18.919,18.919,0,0,1-3.816-7.429,23.359,23.359,0,0,1-.51-8.352,32.98,32.98,0,0,1,1.5-6.655,43.472,43.472,0,0,1,1.679-4.281c.229-.492.4-.879.536-1.125a1.942,1.942,0,0,1,.22-.387,14.938,14.938,0,0,1-.589,1.582c-.4,1-.967,2.462-1.539,4.308a34.912,34.912,0,0,0-1.389,6.6,23.509,23.509,0,0,0,.527,8.194,18.762,18.762,0,0,0,3.7,7.279,33.408,33.408,0,0,0,4.809,4.73c1.495,1.231,2.752,2.154,3.622,2.813l.985.756C367.891,404.547,368.005,404.644,368,404.661Z" transform="translate(-302.939 -197.739)" fill="#263238"/>
        <path id="Path_1093" data-name="Path 1093" d="M427.057,420.448a1.5,1.5,0,0,1-.387.141c-.264.07-.642.2-1.143.3a23.21,23.21,0,0,1-4.308.519,24.2,24.2,0,0,1-22.92-14.5,22.765,22.765,0,0,1-1.38-4.114c-.123-.5-.167-.879-.22-1.161a1.837,1.837,0,0,1-.044-.413,12,12,0,0,1,.44,1.521,24.616,24.616,0,0,0,24.115,18.339,26.528,26.528,0,0,0,4.281-.369A15.048,15.048,0,0,1,427.057,420.448Z" transform="translate(-312.195 -204.831)" fill="#263238"/>
        <path id="Path_1094" data-name="Path 1094" d="M453.138,441.607c-.123,0,1.037-4.9,2.637-10.858s2.919-10.77,3.033-10.734-1.037,4.888-2.594,10.849S453.261,441.607,453.138,441.607Z" transform="translate(-324.289 -208.855)" fill="#263238"/>
        <path id="Path_1095" data-name="Path 1095" d="M464.546,427.2c-.105.062-3.64-5.715-7.912-12.906s-7.613-13.073-7.5-13.135,3.64,5.706,7.912,12.9S464.7,427.135,464.546,427.2Z" transform="translate(-323.433 -204.818)" fill="#263238"/>
        <path id="Path_1096" data-name="Path 1096" d="M506.589,452.405c0,.088-1.284.193-3.288.7a25.931,25.931,0,0,0-3.437,1.134,28.63,28.63,0,0,0-3.939,2.04,27.816,27.816,0,0,0-3.517,2.681A25.826,25.826,0,0,0,489.9,461.6c-1.319,1.591-1.969,2.708-2.048,2.637a3.912,3.912,0,0,1,.413-.809,16.337,16.337,0,0,1,1.38-2.057,23.531,23.531,0,0,1,2.47-2.725,25.448,25.448,0,0,1,3.569-2.761,25.911,25.911,0,0,1,4.027-2.04,22.36,22.36,0,0,1,3.517-1.064,15.92,15.92,0,0,1,2.444-.369A3.192,3.192,0,0,1,506.589,452.405Z" transform="translate(-331.725 -215.786)" fill="#263238"/>
        <path id="Path_1097" data-name="Path 1097" d="M511.355,445.616c0,.1-1.415-.079-3.675.114a23.493,23.493,0,0,0-15.4,7.719c-1.5,1.688-2.207,2.919-2.286,2.875a4.028,4.028,0,0,1,.466-.879,8.492,8.492,0,0,1,.633-.976,15.4,15.4,0,0,1,.941-1.231,21.361,21.361,0,0,1,2.866-2.831,24.619,24.619,0,0,1,4.15-2.69,24.233,24.233,0,0,1,4.624-1.706,21.226,21.226,0,0,1,3.991-.607,15.317,15.317,0,0,1,1.539,0,10.433,10.433,0,0,1,1.169.07,3.93,3.93,0,0,1,.985.141Z" transform="translate(-332.183 -214.288)" fill="#263238"/>
        <g id="Group_44" data-name="Group 44" transform="translate(84.463 198.262)" opacity="0.3">
          <path id="Path_1098" data-name="Path 1098" d="M397.6,403.6c-2.066,3.921-.343,8.7,1.547,12.721,1.468,3.112,3.1,6.268,5.776,8.44a12.308,12.308,0,0,0,17.891-2.5,27.773,27.773,0,0,1-25.636-18.137" transform="translate(-396.659 -403.603)"/>
        </g>
        <g id="Group_45" data-name="Group 45" transform="translate(125.021 196.346)" opacity="0.3">
          <path id="Path_1099" data-name="Path 1099" d="M449.011,401.164c-1.582,3.772-.387,8.932,1.266,12.669s3.411,7.912,2.084,11.79a4.957,4.957,0,0,0-.519,2.215c.088.756.879,1.486,1.591,1.134a1.758,1.758,0,0,0,.712-1.09q1.873-5.644,3.754-11.28" transform="translate(-448.269 -401.164)"/>
        </g>
        <path id="Path_1100" data-name="Path 1100" d="M343.382,334.163a55.037,55.037,0,0,1,.879-7.033,54.658,54.658,0,0,1,1.345-6.928,52.023,52.023,0,0,1-.879,7.033,53.678,53.678,0,0,1-1.345,6.928Z" transform="translate(-300.787 -187.481)" fill="#fafafa"/>
        <path id="Path_1101" data-name="Path 1101" d="M329.538,333.095c-.114.07-1.626-2.04-3.719-4.466s-3.939-4.246-3.851-4.343a21.7,21.7,0,0,1,4.2,4.044A22.513,22.513,0,0,1,329.538,333.095Z" transform="translate(-296.201 -188.355)" fill="#fafafa"/>
        <path id="Path_1102" data-name="Path 1102" d="M339.477,306.676a7.581,7.581,0,0,1-.993,1.582c-.668.941-1.644,2.2-2.778,3.517s-2.224,2.506-3.042,3.314a7.11,7.11,0,0,1-1.4,1.231c-.1-.088,1.829-2.172,4.088-4.844A60.619,60.619,0,0,1,339.477,306.676Z" transform="translate(-298.191 -184.583)" fill="#fafafa"/>
        <path id="Path_1103" data-name="Path 1103" d="M336.8,291.483c-.132.053-.633-1.064-1.6-2.18s-2-1.758-1.934-1.89A4.29,4.29,0,0,1,335.545,289,4.4,4.4,0,0,1,336.8,291.483Z" transform="translate(-298.62 -180.459)" fill="#fafafa"/>
        <path id="Path_1104" data-name="Path 1104" d="M326.3,301.271a6.312,6.312,0,0,1-2.286.589,6.067,6.067,0,0,1-2.356.141,12.309,12.309,0,0,1,4.642-.73Z" transform="translate(-296.135 -183.425)" fill="#fafafa"/>
        <path id="Path_1105" data-name="Path 1105" d="M352.836,311.541a24.006,24.006,0,0,0-.29-4.088,23.342,23.342,0,0,0-1.433-3.842,6.9,6.9,0,0,1,1.873,3.745A7.033,7.033,0,0,1,352.836,311.541Z" transform="translate(-302.442 -183.928)" fill="#fafafa"/>
        <path id="Path_1106" data-name="Path 1106" d="M365.318,326.741a20.589,20.589,0,0,0-6.374-6.427,11.112,11.112,0,0,1,6.374,6.427Z" transform="translate(-304.119 -187.505)" fill="#fafafa"/>
        <path id="Path_1107" data-name="Path 1107" d="M342.785,354.076a10.55,10.55,0,0,1-8.062-.273c.044-.132,1.758.422,4.018.483S342.75,353.944,342.785,354.076Z" transform="translate(-298.933 -194.672)" fill="#fafafa"/>
        <path id="Path_1108" data-name="Path 1108" d="M355.337,356.93c-.123-.053.563-2.075,1.134-4.642s.826-4.695.958-4.677a14.831,14.831,0,0,1-.51,4.774A15,15,0,0,1,355.337,356.93Z" transform="translate(-303.344 -193.35)" fill="#fafafa"/>
        <path id="Path_1109" data-name="Path 1109" d="M375.968,358.136a31.306,31.306,0,0,1-3.842-3.868,32.845,32.845,0,0,1-3.517-4.185,32.088,32.088,0,0,1,3.833,3.877A33.958,33.958,0,0,1,375.968,358.136Z" transform="translate(-306.189 -193.88)" fill="#fafafa"/>
        <path id="Path_1110" data-name="Path 1110" d="M387.041,384.952a16.8,16.8,0,0,1-2.866-2.637,17.181,17.181,0,0,1-2.532-2.954A16.8,16.8,0,0,1,384.509,382,15.93,15.93,0,0,1,387.041,384.952Z" transform="translate(-308.98 -200.149)" fill="#fafafa"/>
        <path id="Path_1111" data-name="Path 1111" d="M366.858,388.968a12.765,12.765,0,0,1-3.517,2.637,12.44,12.44,0,0,1-4.062,1.758c0-.123,1.758-.879,3.833-2.119S366.77,388.863,366.858,388.968Z" transform="translate(-304.191 -202.205)" fill="#fafafa"/>
        <path id="Path_1112" data-name="Path 1112" d="M377.934,410.977c-.132,0,.4-2.339.659-5.231s.185-5.275.316-5.275a16.89,16.89,0,0,1,.141,5.275,16.642,16.642,0,0,1-1.116,5.231Z" transform="translate(-308.182 -204.67)" fill="#fafafa"/>
        <path id="Path_1113" data-name="Path 1113" d="M410.047,391.563a14.779,14.779,0,0,1-3.807-3.35,14.41,14.41,0,0,1-2.8-4.211c.114-.079,1.319,1.829,3.147,3.912S410.135,391.449,410.047,391.563Z" transform="translate(-313.647 -201.143)" fill="#fafafa"/>
        <path id="Path_1114" data-name="Path 1114" d="M424.231,401.854c-.105-.079,1.231-1.908,2.725-4.255s2.594-4.317,2.708-4.255a18.857,18.857,0,0,1-2.33,4.5A18.339,18.339,0,0,1,424.231,401.854Z" transform="translate(-318.099 -203.144)" fill="#fafafa"/>
        <path id="Path_1115" data-name="Path 1115" d="M420.025,377.707a46.015,46.015,0,0,1-8.792-2.374,24.193,24.193,0,0,1,4.466.967,22.513,22.513,0,0,1,4.325,1.407Z" transform="translate(-315.317 -199.287)" fill="#fafafa"/>
        <path id="Path_1116" data-name="Path 1116" d="M413.36,421.532a18.64,18.64,0,0,1,0-4.167,19.7,19.7,0,0,1,.475-4.141,18.357,18.357,0,0,1,0,4.167,19.337,19.337,0,0,1-.475,4.141Z" transform="translate(-315.747 -207.401)" fill="#fafafa"/>
        <path id="Path_1117" data-name="Path 1117" d="M421.2,436.957a35.333,35.333,0,0,0,1.108-4.334,34.016,34.016,0,0,0,.07-4.475,10.55,10.55,0,0,1-1.178,8.792Z" transform="translate(-317.451 -210.597)" fill="#fafafa"/>
        <path id="Path_1118" data-name="Path 1118" d="M400.923,433.528a13.566,13.566,0,0,1,1.688-8.792c.123.053-.686,1.908-1.143,4.343S401.055,433.519,400.923,433.528Z" transform="translate(-313.078 -209.866)" fill="#fafafa"/>
        <path id="Path_1119" data-name="Path 1119" d="M380.269,442.042a49.231,49.231,0,0,1-4.132-3.209,51.06,51.06,0,0,1-4.071-3.279,21.346,21.346,0,0,1,4.4,2.919,22.339,22.339,0,0,1,3.807,3.569Z" transform="translate(-306.93 -212.183)" fill="#fafafa"/>
        <path id="Path_1120" data-name="Path 1120" d="M392.125,421.861a75.923,75.923,0,0,1-10.55,5.583,39.482,39.482,0,0,1,5.2-3.024,38.4,38.4,0,0,1,5.345-2.558Z" transform="translate(-308.966 -209.251)" fill="#fafafa"/>
        <path id="Path_1121" data-name="Path 1121" d="M421.731,463.555a3.986,3.986,0,0,1-.571.141c-.378.07-.932.211-1.653.308a35.271,35.271,0,0,1-6.154.4,37.984,37.984,0,0,1-33.1-20.678A34.787,34.787,0,0,1,377.9,438c-.237-.695-.352-1.248-.457-1.618a2.78,2.78,0,0,1-.114-.58,3.216,3.216,0,0,1,.2.554c.132.36.273.879.536,1.591a39.827,39.827,0,0,0,7.649,13.108,38.613,38.613,0,0,0,27.65,13.02,40,40,0,0,0,6.154-.246c.73-.07,1.284-.185,1.662-.22a2.477,2.477,0,0,1,.554-.053Z" transform="translate(-308.056 -212.236)" fill="#263238"/>
        <path id="Path_1122" data-name="Path 1122" d="M400.362,463.263a6.831,6.831,0,0,1,.413-4.158,6.761,6.761,0,0,1,2.426-3.4,21.634,21.634,0,0,0-2,3.569A22.3,22.3,0,0,0,400.362,463.263Z" transform="translate(-312.956 -216.498)" fill="#fafafa"/>
        <path id="Path_1123" data-name="Path 1123" d="M390.181,461.475a15.351,15.351,0,0,0-2.286,2.18,16.071,16.071,0,0,0-1.442,2.8,5.389,5.389,0,0,1,3.728-4.985Z" transform="translate(-310.01 -217.734)" fill="#fafafa"/>
        <path id="Path_1124" data-name="Path 1124" d="M424.688,481.354a9,9,0,0,1-7.033-4.4A15.825,15.825,0,0,0,424.688,481.354Z" transform="translate(-316.692 -221.05)" fill="#fafafa"/>
        <path id="Path_1125" data-name="Path 1125" d="M430.808,451.563a6.928,6.928,0,0,1-4.774,5.627,18.775,18.775,0,0,0,2.848-2.418,18.173,18.173,0,0,0,1.925-3.209Z" transform="translate(-318.486 -215.611)" fill="#fafafa"/>
        <path id="Path_1126" data-name="Path 1126" d="M447.755,472.664c-.105-.088,1.055-1.556,2.128-3.578s1.644-3.807,1.758-3.763a13.522,13.522,0,0,1-3.9,7.341Z" transform="translate(-323.134 -218.558)" fill="#fafafa"/>
        <path id="Path_1127" data-name="Path 1127" d="M466.852,477.7c.053.132-1.547.765-3.156,2.092s-2.576,2.752-2.69,2.637a7.13,7.13,0,0,1,2.4-3.033A7.033,7.033,0,0,1,466.852,477.7Z" transform="translate(-325.975 -221.208)" fill="#fafafa"/>
        <path id="Path_1128" data-name="Path 1128" d="M451.086,448.406c-.141.044-.879-2.523-2.523-5.372s-3.4-4.853-3.288-4.941a5.486,5.486,0,0,1,1.257,1.231,21.829,21.829,0,0,1,4.15,7.367,5.82,5.82,0,0,1,.4,1.714Z" transform="translate(-322.606 -212.727)" fill="#fafafa"/>
        <path id="Path_1129" data-name="Path 1129" d="M453.458,417.912a40.824,40.824,0,0,1-8.44,1.943A41.182,41.182,0,0,1,453.458,417.912Z" transform="translate(-322.552 -208.405)" fill="#fafafa"/>
        <path id="Path_1130" data-name="Path 1130" d="M444.87,406.194a19.34,19.34,0,0,1-2.69-3.095,19.083,19.083,0,0,1-2.33-3.367,17.664,17.664,0,0,1,2.69,3.086,17.89,17.89,0,0,1,2.33,3.376Z" transform="translate(-321.445 -204.512)" fill="#fafafa"/>
        <path id="Path_1131" data-name="Path 1131" d="M467.623,401.449a20.475,20.475,0,0,1-8.229-1.952,35.847,35.847,0,0,1,4.123.958A34.785,34.785,0,0,1,467.623,401.449Z" transform="translate(-325.63 -204.462)" fill="#fafafa"/>
        <path id="Path_1132" data-name="Path 1132" d="M486.646,399.683a34.071,34.071,0,0,1,1.345-3.657,31.125,31.125,0,0,1,1.345-3.666,11.491,11.491,0,0,1-.879,3.824A11.2,11.2,0,0,1,486.646,399.683Z" transform="translate(-331.466 -202.933)" fill="#fafafa"/>
        <path id="Path_1133" data-name="Path 1133" d="M480.9,423.274a13.187,13.187,0,0,1-7.033-4.167c.088-.106,1.477,1.108,3.4,2.242S480.948,423.142,480.9,423.274Z" transform="translate(-328.73 -208.66)" fill="#fafafa"/>
        <path id="Path_1134" data-name="Path 1134" d="M493.71,420.9a31.86,31.86,0,0,1,.967-5.222,31.328,31.328,0,0,1,1.389-5.108,61.209,61.209,0,0,1-2.382,10.339Z" transform="translate(-332.973 -206.833)" fill="#fafafa"/>
        <path id="Path_1135" data-name="Path 1135" d="M483.026,446.953a53.73,53.73,0,0,1-5.855-8.009,27.458,27.458,0,0,1,3.112,3.868,26.946,26.946,0,0,1,2.743,4.141Z" transform="translate(-329.437 -212.909)" fill="#fafafa"/>
        <path id="Path_1136" data-name="Path 1136" d="M498.9,437.65c-.123.062-.923-1.53-2.189-3.306s-2.488-3.068-2.391-3.165a10.217,10.217,0,0,1,2.769,2.9A9.916,9.916,0,0,1,498.9,437.65Z" transform="translate(-333.108 -211.246)" fill="#fafafa"/>
        <path id="Path_1137" data-name="Path 1137" d="M513.182,435.227a43.676,43.676,0,0,1-2.813-3.684,45.8,45.8,0,0,1-2.813-3.675,23.824,23.824,0,0,1,5.627,7.358Z" transform="translate(-335.944 -210.537)" fill="#fafafa"/>
        <path id="Path_1138" data-name="Path 1138" d="M510.334,445.48a8.474,8.474,0,0,0-1.046-3,8.659,8.659,0,0,0-2.347-2.145c0-.053.4,0,.958.273a4.748,4.748,0,0,1,1.758,1.618,4.827,4.827,0,0,1,.782,2.268C510.527,445.076,510.413,445.48,510.334,445.48Z" transform="translate(-335.812 -213.203)" fill="#fafafa"/>
        <path id="Path_1139" data-name="Path 1139" d="M499.282,459.5c-.07,0-.044-.237-.114-.545a1.8,1.8,0,0,0-.607-1.011,1.759,1.759,0,0,0-1.125-.343c-.316,0-.519.079-.554,0s.132-.237.51-.343a1.67,1.67,0,0,1,2.092,1.635C499.475,459.311,499.334,459.513,499.282,459.5Z" transform="translate(-333.657 -216.818)" fill="#fafafa"/>
        <path id="Path_1140" data-name="Path 1140" d="M381.57,479.312a12.669,12.669,0,0,1-7.244-7.209,21.416,21.416,0,0,0,7.244,7.244Z" transform="translate(-307.414 -220.01)" fill="#fafafa"/>
        <path id="Path_1141" data-name="Path 1141" d="M307.846,192.41c-1.415-13.372-3.974-25.953-4.668-39.061a2.374,2.374,0,0,0-.624-1.811,1.635,1.635,0,0,0-2.277.659,4.994,4.994,0,0,0-.44,2.637,60.5,60.5,0,0,1-3.517,20.458c-1.5,4.264-3.517,8.352-4.642,12.721s.993,5.855,2.963,9.926" transform="translate(-289.648 -151.314)" fill="#ffbe9d"/>
        <path id="Path_1142" data-name="Path 1142" d="M294.262,201.89a12.247,12.247,0,0,1-4.651-11.578c.448-2.637,1.758-5.029,2.8-7.49s1.837-5.2,1.2-7.789a13.116,13.116,0,0,1-.7-2.98c0-1.02.659-2.163,1.679-2.207A2.5,2.5,0,0,1,296.495,171c1.714,2.119,3.086,8.308,2.224,12.932" transform="translate(-289.242 -155.283)" fill="#ffbe9d"/>
        <path id="Path_1143" data-name="Path 1143" d="M298.657,183.873s.088-.712.141-2a23.949,23.949,0,0,0-.448-5.4,19.547,19.547,0,0,0-1.055-3.578,7.245,7.245,0,0,0-.985-1.758,2.506,2.506,0,0,0-1.644-1.117,1.582,1.582,0,0,0-1.468,1.231,3.728,3.728,0,0,0,.141,2.259,11.712,11.712,0,0,1,.615,2.488,9.961,9.961,0,0,1-.1,2.637c-.615,3.569-2.514,6.453-3.517,9.31a12.617,12.617,0,0,0-.782,4.167,12.194,12.194,0,0,0,.545,3.657,12.545,12.545,0,0,0,2.637,4.668c.879.941,1.451,1.354,1.424,1.4a2.321,2.321,0,0,1-.44-.29,9.784,9.784,0,0,1-1.117-.993,12.027,12.027,0,0,1-2.813-4.686,12.168,12.168,0,0,1-.615-3.754,12.889,12.889,0,0,1,.765-4.308c.967-2.919,2.84-5.8,3.42-9.24a9.106,9.106,0,0,0,.1-2.532,11.158,11.158,0,0,0-.589-2.418,4.123,4.123,0,0,1-.123-2.523,2.444,2.444,0,0,1,.695-1.081,1.618,1.618,0,0,1,1.213-.431,2.875,2.875,0,0,1,2,1.24,7.684,7.684,0,0,1,1.02,1.9,18.463,18.463,0,0,1,1.02,3.657,21.714,21.714,0,0,1,.308,5.468,10.941,10.941,0,0,1-.193,1.477,2,2,0,0,1-.158.545Z" transform="translate(-289.18 -155.227)" fill="#eb996e"/>
        <path id="Path_1144" data-name="Path 1144" d="M445.869,274.648a6.066,6.066,0,0,0,5.424,4.695,7.614,7.614,0,0,0,6.62-3.253,10.26,10.26,0,0,0,1.644-7.35c-.5-3.7-2.963-7.262-6.532-8.361s-8.009.879-8.994,4.466l-4.114,5.741Z" transform="translate(-321.459 -174.605)" fill="#263238"/>
        <path id="Path_1145" data-name="Path 1145" d="M427.517,256.93A23.939,23.939,0,0,0,406,230.116c-12.757-1.213-24.107,8.29-26.014,20.968-1.679,11.113-3.121,22.331-3.068,26.375.158,12.308,7.341,17.073,10.26,18.462a16.125,16.125,0,0,0,3.235.8h0a.079.079,0,0,1,.061.1l-2.725,14.067c-1.24,9.24,3.921,17.486,13.143,18.832s16.493-5.75,17.908-15Z" transform="translate(-307.969 -168.167)" fill="#ffbe9d"/>
        <path id="Path_1146" data-name="Path 1146" d="M383.516,265.547c.2.29,1.82-.58,3.9-.273s3.446,1.574,3.71,1.345c.132-.1-.053-.58-.642-1.16a5.38,5.38,0,0,0-2.928-1.4,5.2,5.2,0,0,0-3.156.536C383.674,264.993,383.411,265.415,383.516,265.547Z" transform="translate(-309.377 -175.447)" fill="#263238"/>
        <path id="Path_1147" data-name="Path 1147" d="M407.055,270.648c.2.29,1.829-.58,3.9-.273s3.455,1.574,3.719,1.345c.123-.1-.053-.58-.651-1.169a5.372,5.372,0,0,0-2.919-1.389,5.2,5.2,0,0,0-3.156.536C407.24,270.094,406.958,270.516,407.055,270.648Z" transform="translate(-314.418 -176.539)" fill="#263238"/>
        <path id="Path_1148" data-name="Path 1148" d="M396.525,278.891a14,14,0,0,0-3.288-1.1c-.527-.132-1.011-.316-1.046-.686a2.734,2.734,0,0,1,.58-1.521l2.163-3.816c3.016-5.442,5.275-9.943,5.064-10.066s-2.848,4.194-5.864,9.671l-2.1,3.842a3.209,3.209,0,0,0-.58,2.048,1.38,1.38,0,0,0,.765.879,3.8,3.8,0,0,0,.879.255,13.687,13.687,0,0,0,3.429.492Z" transform="translate(-311.08 -174.953)" fill="#263238"/>
        <path id="Path_1149" data-name="Path 1149" d="M394,314.264s7.912,1.829,18.858-2.743c0,0-4.712,10.154-19.588,6.541Z" transform="translate(-311.469 -185.622)" fill="#eb996e"/>
        <path id="Path_1150" data-name="Path 1150" d="M398.009,289.847a3.789,3.789,0,0,1,3.517-.879,3.517,3.517,0,0,1,2.18,1.618,2.172,2.172,0,0,1-.2,2.5,2.514,2.514,0,0,1-2.822.29,7.807,7.807,0,0,1-2.426-1.969,2.224,2.224,0,0,1-.51-.7.686.686,0,0,1,.123-.774" transform="translate(-312.414 -180.766)" fill="#eb996e"/>
        <path id="Path_1151" data-name="Path 1151" d="M403.4,286.539c-.334-.07-.668,2.189-2.831,3.517s-4.536.721-4.6,1.037c-.053.141.475.519,1.486.695a5.7,5.7,0,0,0,3.816-.738,4.958,4.958,0,0,0,2.233-2.963C403.727,287.146,403.56,286.548,403.4,286.539Z" transform="translate(-312.048 -180.272)" fill="#263238"/>
        <path id="Path_1152" data-name="Path 1152" d="M408.883,262.167c.123.6,2.242.633,4.633,1.284s4.281,1.6,4.677,1.143c.176-.22-.088-.8-.8-1.468a8.37,8.37,0,0,0-7.095-1.846C409.331,261.507,408.839,261.885,408.883,262.167Z" transform="translate(-314.813 -174.827)" fill="#263238"/>
        <path id="Path_1153" data-name="Path 1153" d="M386.187,257.352c.29.528,1.8.246,3.517.475s3.139.774,3.517.334c.185-.22,0-.73-.554-1.266a5.134,5.134,0,0,0-5.7-.651C386.328,256.639,386.055,257.1,386.187,257.352Z" transform="translate(-309.947 -173.661)" fill="#263238"/>
        <path id="Path_1154" data-name="Path 1154" d="M377.6,246.364c2.541,3.877,10.611,1.477,15.482-1.187a11.587,11.587,0,0,0,15.825-3.27c2.787,3.517,8.458,2.374,10.55-1.626s.879-9.512-1.934-13.012-6.98-5.275-11.077-6.022c-9.715-1.758-20.291,1.969-26.1,10.752-2.681,4.053-4.29,9.512-2.7,14.365" transform="translate(-307.989 -166.199)" fill="#263238"/>
        <path id="Path_1155" data-name="Path 1155" d="M405.208,223a42.253,42.253,0,0,0-5.9.334,21.451,21.451,0,0,0-12.2,6.567,26.585,26.585,0,0,0-5.82,12.713,35.168,35.168,0,0,0-.308,5.89,5.387,5.387,0,0,1-.325-1.582,18.252,18.252,0,0,1,.07-4.4,25.61,25.61,0,0,1,5.82-13.187,21.1,21.1,0,0,1,12.73-6.6,18.717,18.717,0,0,1,4.4-.07,5.16,5.16,0,0,1,1.538.334Z" transform="translate(-308.747 -166.574)" fill="#455a64"/>
        <path id="Path_1156" data-name="Path 1156" d="M395.158,241.4a3.992,3.992,0,0,1-.193-1.38,13.635,13.635,0,0,1,.4-3.789,15.605,15.605,0,0,1,19.588-11.535,14.269,14.269,0,0,1,3.517,1.495,3.816,3.816,0,0,1,1.116.879,28.732,28.732,0,0,0-4.765-1.758,15.57,15.57,0,0,0-18.9,11.13A27.494,27.494,0,0,0,395.158,241.4Z" transform="translate(-311.831 -166.895)" fill="#455a64"/>
        <path id="Path_1157" data-name="Path 1157" d="M424.422,238.447A45.951,45.951,0,0,0,422.787,249a15.535,15.535,0,0,0,3.156,9.97c3.394,4.088,9.055,5.336,14.277,6.33a41.321,41.321,0,0,0,2.435-21.979c-.6-3.6-1.758-7.262-4.29-9.882a11.948,11.948,0,0,0-14.506-1.758" transform="translate(-317.789 -168.163)" fill="#263238"/>
        <path id="Path_1158" data-name="Path 1158" d="M426.92,262.409c-1.371,2.972-1.275,6.409-.8,9.671s1.3,6.453,1.266,9.723-1.073,6.743-3.64,8.792a15.469,15.469,0,0,0-2.18,1.758,2.277,2.277,0,0,0-.457,2.576c.492.791,1.978.774,2.189-.132l-.132.229a1.451,1.451,0,0,0,1.231,2.189,6.585,6.585,0,0,0,4.695-2.3c1.679-1.943,2.347-4.554,2.787-7.033,1.354-7.763,1.09-15.825,3.235-23.394" transform="translate(-317.386 -175.105)" fill="#263238"/>
        <path id="Path_1159" data-name="Path 1159" d="M388.5,327.181A18.911,18.911,0,0,0,413.758,340.6c4.554-1.758,8.229-5.187,11.772-8.537a27.579,27.579,0,0,1-25.557,32.054c-5.829.352-12.088-1.424-15.755-5.969a17.673,17.673,0,0,1-3.517-11.429,41.637,41.637,0,0,1,2.3-11.957c1.037-3.323,2.681-7.033,6.04-7.956" transform="translate(-308.778 -188.894)" fill="red"/>
        <path id="Path_1160" data-name="Path 1160" d="M439.676,273.9c3.517,1.89,5.4,5.846,6.075,9.75s.334,7.912.5,11.86.923,8.1,3.429,11.165c2.637,3.27,6.813,4.818,10.55,6.813,8.194,4.4,14.946,11.895,17.407,20.88s.229,19.341-6.5,25.8c-6.154,5.855-15.034,7.912-23.509,7.912-6.04,0-12.677-1.3-16.449-6.022s-3.517-11.341-2.2-17.161,3.736-11.473,3.833-17.442a31.077,31.077,0,0,1-4.642,10.321c-.624.879-1.688,1.846-2.637,1.336s-.659-2.154-.167-3.253c7.279-16.2,4.747-48.864,9.064-66.754" transform="translate(-318.247 -176.54)" fill="#263238"/>
        <path id="Path_1161" data-name="Path 1161" d="M435.616,272.823c.22-.07,8.721-1.679,7.622,6.726s-9.3,5.574-9.284,5.336S435.616,272.823,435.616,272.823Z" transform="translate(-320.183 -177.299)" fill="#ffbe9d"/>
        <path id="Path_1162" data-name="Path 1162" d="M437.744,282.83a3.307,3.307,0,0,0,.369.264,1.486,1.486,0,0,0,1.09.167c.932-.211,1.864-1.53,2.1-3.033a4.985,4.985,0,0,0-.141-2.154,1.7,1.7,0,0,0-.958-1.266.756.756,0,0,0-.879.29c-.141.22-.114.4-.158.4s-.158-.167-.053-.5a.94.94,0,0,1,.4-.484,1.108,1.108,0,0,1,.879-.114,2.084,2.084,0,0,1,1.363,1.5,5.082,5.082,0,0,1,.2,2.409c-.273,1.688-1.345,3.156-2.638,3.35a1.565,1.565,0,0,1-1.31-.4C437.736,283.032,437.718,282.839,437.744,282.83Z" transform="translate(-320.992 -178.092)" fill="#eb996e"/>
        <path id="Path_1163" data-name="Path 1163" d="M379.573,345.2A20.756,20.756,0,0,1,381,342.607a35,35,0,0,0,3.033-6.409,15.825,15.825,0,0,0,.756-6.963,27.191,27.191,0,0,0-.668-2.857,2.373,2.373,0,0,1,.378.712,9.334,9.334,0,0,1,.615,2.1,14.945,14.945,0,0,1-.642,7.148,29.524,29.524,0,0,1-3.191,6.435c-.492.774-.879,1.389-1.2,1.8A4.446,4.446,0,0,1,379.573,345.2Z" transform="translate(-308.537 -188.803)" fill="#263238"/>
        <path id="Path_1164" data-name="Path 1164" d="M384.3,337.441c-.123,0-.36-.721-1.116-1.222s-1.512-.5-1.53-.633.185-.149.528-.158a2.207,2.207,0,0,1,1.266.413,2.312,2.312,0,0,1,.826,1.046C384.388,337.213,384.361,337.424,384.3,337.441Z" transform="translate(-308.982 -190.741)" fill="#fafafa"/>
        <path id="Path_1165" data-name="Path 1165" d="M390.6,337.083a16.552,16.552,0,0,0-2.163-2.031,14.539,14.539,0,0,0-2.725-1.178,3.947,3.947,0,0,1,2.972.8,4.079,4.079,0,0,1,1.917,2.409Z" transform="translate(-309.852 -190.401)" fill="#fafafa"/>
        <path id="Path_1166" data-name="Path 1166" d="M396.276,358.731a14.6,14.6,0,0,1,.51-3.587,14.446,14.446,0,0,1,.958-3.517,14.647,14.647,0,0,1-.51,3.6A14.445,14.445,0,0,1,396.276,358.731Z" transform="translate(-312.114 -194.21)" fill="#fafafa"/>
        <path id="Path_1167" data-name="Path 1167" d="M413.695,362.027a32.09,32.09,0,0,1,.237-7.57,30.886,30.886,0,0,1-.237,7.57Z" transform="translate(-315.818 -194.817)" fill="#fafafa"/>
      </g>
      <g id="freepik--character-1--inject-116" transform="translate(9.065 51.456)">
        <path id="Path_1168" data-name="Path 1168" d="M53.708,413.806,40.151,472.841l28.669.088,13.24-51.914Z" transform="translate(-40.151 -195.036)" fill="#b78876"/>
        <path id="Path_1169" data-name="Path 1169" d="M228.944,315.229c-2.725-3.648-5.855-7.156-7.288-11.482-.695-2.092-.967-4.308-1.706-6.383s-2.084-4.1-4.141-4.879-3.622,0-4.958,1.477l-9.838,28.775,5.671,22.1c5.662-1.275,12.748-2.787,18.04-5.169s8.792-6.2,9.161-11.992C234.14,323.133,231.669,318.887,228.944,315.229Z" transform="translate(-74.599 -168.989)" fill="#263238"/>
        <path id="Path_1170" data-name="Path 1170" d="M107.154,314.446s-34.2,14.884-38.472,21.6-18.339,54.6-18.339,54.6L86.388,401.2l-.615,49.857h88.355l-.73-87.916L162.321,314.56S142.812,313.3,141,312.415,107.154,314.446,107.154,314.446Z" transform="translate(-42.334 -173.287)" fill="red"/>
        <path id="Path_1171" data-name="Path 1171" d="M277.154,157.731c.281-2.013-1.134-4.229-.114-6a4.994,4.994,0,0,1,2.734-1.855,4.4,4.4,0,0,1,1.688-.4,1.486,1.486,0,0,1,1.38.879,1.881,1.881,0,0,1-.677,1.82,5.363,5.363,0,0,0-1.328,1.53,9.179,9.179,0,0,0,.325,4.325,76.431,76.431,0,0,1,2.91,9.407" transform="translate(-90.8 -138.432)" fill="#b78876"/>
        <path id="Path_1172" data-name="Path 1172" d="M268.1,155.913c.123-3.051,2.637-15.069,2.725-18.119,2.066.633,3.262,2.831,3.648,4.958s.185,4.317.554,6.444a23.467,23.467,0,0,0,3.473,7.912,28.536,28.536,0,0,1,3.736,7.816c.677,2.813,3.227,10.128,1.24,12.238" transform="translate(-88.966 -135.929)" fill="#b78876"/>
        <path id="Path_1173" data-name="Path 1173" d="M251.413,187.029l-12.229,58.095c-.431,2.637-46.349,42.683-46.349,42.683l9.064,36.212,59.783-58.49a24.3,24.3,0,0,0,6.55-17.047l-1.02-54.508Z" transform="translate(-72.848 -146.472)" fill="#b78876"/>
        <path id="Path_1174" data-name="Path 1174" d="M264.563,155.774l2.092,20.221,15.825,6.963s.193-1.433.879-8.44c.747-7.719-7.552-11.033-11.253-16.7-1.583-2.435-1.169-6.919-2.391-12.475-.141-.642-1.02-4.528-1.495-6.611a4.7,4.7,0,0,0-1.9-2.857c-.721-.475-1.53-.712-2.119,0S264.563,155.774,264.563,155.774Z" transform="translate(-88.089 -135.421)" fill="#b78876"/>
        <path id="Path_1175" data-name="Path 1175" d="M274.063,184.288a6.37,6.37,0,0,0,1.521-6.506,16.59,16.59,0,0,0-3.736-5.943,23.58,23.58,0,0,1-4.123-5.715c-.668-1.512-.985-3.183-1.758-4.668s-2.084-2.848-3.736-2.91c1.328,8.361,1.292,13.187,4.009,22.348" transform="translate(-87.708 -140.373)" fill="#b78876"/>
        <path id="Path_1176" data-name="Path 1176" d="M263.768,168.131s-.062-.229-.158-.668-.264-1.169-.422-1.917c-.378-1.758-.879-4-1.4-6.576l-.053-.246h.255a4.1,4.1,0,0,1,2.954,1.108,8.871,8.871,0,0,1,2.479,4.229,21.924,21.924,0,0,0,1.38,3.648,11.253,11.253,0,0,0,1.547,2.136,3.193,3.193,0,0,1,.528.835,6.482,6.482,0,0,1-.668-.721,9.988,9.988,0,0,1-1.688-2.092,20.728,20.728,0,0,1-1.512-3.684,8.7,8.7,0,0,0-2.374-4.027A3.736,3.736,0,0,0,262,159.146l.211-.264C263.276,164.175,263.962,168.14,263.768,168.131Z" transform="translate(-87.603 -140.41)" fill="#7c5142"/>
        <path id="Path_1177" data-name="Path 1177" d="M272.7,159.637a75.756,75.756,0,0,1-1.459-8.246,76.632,76.632,0,0,1-1.011-8.317,73.707,73.707,0,0,1,1.459,8.255,76.618,76.618,0,0,1,1.011,8.308Z" transform="translate(-89.421 -137.06)" fill="#7c5142"/>
        <path id="Path_1178" data-name="Path 1178" d="M279.073,161.842a.986.986,0,0,1,.114.308h-.132a47.33,47.33,0,0,1-1.6-5.75c-.378-1.7-.651-3.244-.818-4.4a6.813,6.813,0,0,1-.158-1.837c.132,0,.668,2.734,1.424,6.154.607,2.734,1.169,5.038,1.284,5.811h-.132C279.047,161.947,279.047,161.842,279.073,161.842Z" transform="translate(-90.758 -138.578)" fill="#7c5142"/>
        <path id="Path_1179" data-name="Path 1179" d="M281.325,177.959c-.07,0-.387-.457-1.02-1.134a9.89,9.89,0,0,0-6.374-3.077,10.55,10.55,0,0,1-1.521-.1,3.517,3.517,0,0,1,1.53-.229,8.651,8.651,0,0,1,6.6,3.191,3.446,3.446,0,0,1,.782,1.345Z" transform="translate(-89.888 -143.556)" fill="#7c5142"/>
        <path id="Path_1180" data-name="Path 1180" d="M268.072,184.374a11.967,11.967,0,0,1-1.046-2.391,53.017,53.017,0,0,1-1.811-6.031,52.209,52.209,0,0,1-1.108-6.154,12.765,12.765,0,0,1-.158-2.637,17.763,17.763,0,0,1,.475,2.558c.264,1.574.668,3.754,1.231,6.154s1.2,4.5,1.679,6.031A18.532,18.532,0,0,1,268.072,184.374Z" transform="translate(-88.074 -142.217)" fill="#7c5142"/>
        <path id="Path_1181" data-name="Path 1181" d="M179.175,311.859a5.574,5.574,0,0,1,7.49-1.758c6.453-5.275,13.055-10.392,19.508-15.64-2.11,10.55-3.517,25.258,1.2,34.911,0,0,5.952,11.06,15.429,9.372l-8.457,8.282-13.337,12.37" transform="translate(-69.923 -169.478)" fill="red"/>
        <path id="Path_1182" data-name="Path 1182" d="M176.513,320.984a7.121,7.121,0,0,1,1.24-3.965,7.2,7.2,0,0,1,2.954-2.936A15.412,15.412,0,0,0,176.513,320.984Z" transform="translate(-69.352 -173.68)" fill="#263238"/>
        <path id="Path_1183" data-name="Path 1183" d="M185.1,327.583a5.424,5.424,0,0,1-.738-1.917,12.4,12.4,0,0,1,1.7-9.592,5.5,5.5,0,0,1,1.354-1.556c.062.053-.448.651-1.073,1.758a13.978,13.978,0,0,0-1.662,4.528,14.208,14.208,0,0,0,0,4.827A19.331,19.331,0,0,1,185.1,327.583Z" transform="translate(-70.963 -173.774)" fill="#263238"/>
        <path id="Path_1184" data-name="Path 1184" d="M220.667,348a7.139,7.139,0,0,1-2.1.879,11.684,11.684,0,0,1-6.154-.185,14.822,14.822,0,0,1-7.4-5.275,24.915,24.915,0,0,1-4.4-10.295,77.674,77.674,0,0,1-1.055-20.326c.2-2.637.492-4.695.738-6.154.114-.721.22-1.275.3-1.653a2.893,2.893,0,0,1,.141-.571,2.461,2.461,0,0,1-.053.589l-.211,1.662c-.185,1.442-.431,3.517-.589,6.154a81.489,81.489,0,0,0,1.178,20.221,24.827,24.827,0,0,0,4.264,10.049,14.524,14.524,0,0,0,7.165,5.275,11.834,11.834,0,0,0,6.022.325A16.879,16.879,0,0,0,220.667,348Z" transform="translate(-74.235 -171.61)" fill="#fafafa"/>
        <path id="Path_1185" data-name="Path 1185" d="M96.361,429.112c-.123,0-.229-12.5-.229-27.913s.105-27.913.229-27.913.229,12.493.229,27.913S96.493,429.112,96.361,429.112Z" transform="translate(-52.139 -186.358)" fill="#263238"/>
        <path id="Path_1186" data-name="Path 1186" d="M92.1,356.526c-.1,0-.07-1.248-.5-3.191a17.689,17.689,0,0,0-1.1-3.306,19.862,19.862,0,0,0-2.172-3.657,20.089,20.089,0,0,0-2.963-3.059,18.179,18.179,0,0,0-2.892-1.934c-1.758-.923-2.98-1.231-2.954-1.319a3.078,3.078,0,0,1,.879.176,6.639,6.639,0,0,1,.976.325,9.588,9.588,0,0,1,1.257.536,16.131,16.131,0,0,1,2.972,1.881,19.746,19.746,0,0,1,3.051,3.112,18.692,18.692,0,0,1,2.2,3.772,16.265,16.265,0,0,1,1.064,3.411,10.74,10.74,0,0,1,.185,1.354,7.508,7.508,0,0,1,.053,1.029A3.789,3.789,0,0,1,92.1,356.526Z" transform="translate(-48.581 -179.243)" fill="#263238"/>
        <path id="Path_1187" data-name="Path 1187" d="M160.071,314.553a4.089,4.089,0,0,1,.149.747,18.348,18.348,0,0,1,.229,2.154,22.418,22.418,0,0,1-1.1,7.868,23.086,23.086,0,0,1-6.374,9.864,22.691,22.691,0,0,1-27.087,2.075,23.069,23.069,0,0,1-7.772-8.792,22.5,22.5,0,0,1-2.259-7.614,19.914,19.914,0,0,1-.1-2.163,4.5,4.5,0,0,1,0-.756,4.5,4.5,0,0,1,.062.747A21.37,21.37,0,0,0,116,320.83a23.227,23.227,0,0,0,2.374,7.49,22.946,22.946,0,0,0,7.71,8.607,22.419,22.419,0,0,0,26.568-2A22.937,22.937,0,0,0,159,325.261a23.535,23.535,0,0,0,1.231-7.763,14.977,14.977,0,0,0-.149-2.145A2.315,2.315,0,0,1,160.071,314.553Z" transform="translate(-56.339 -173.781)" fill="#263238"/>
        <path id="Path_1188" data-name="Path 1188" d="M86.662,408.7c0,.123-7.306-2.172-16.22-5.117s-16.115-5.433-16.071-5.556,7.3,2.172,16.22,5.117S86.7,408.581,86.662,408.7Z" transform="translate(-43.196 -191.656)" fill="#fafafa"/>
        <path id="Path_1189" data-name="Path 1189" d="M182.246,396.063c0,.132-19.385.316-43.3.413s-43.307.079-43.307,0,19.385-.316,43.307-.413S182.246,395.94,182.246,396.063Z" transform="translate(-52.034 -191.218)" fill="#fafafa"/>
        <path id="Path_1190" data-name="Path 1190" d="M182.685,405.767c0,.123-19.491.229-43.518.229s-43.527-.105-43.527-.229,19.482-.229,43.527-.229S182.685,405.635,182.685,405.767Z" transform="translate(-52.034 -193.265)" fill="#fafafa"/>
        <path id="Path_1191" data-name="Path 1191" d="M177.255,417.666a4,4,0,0,1-.246.712c-.193.492-.457,1.16-.782,2l-.58,1.442c-.229.527-.5,1.081-.782,1.688-.58,1.2-1.178,2.585-2.013,4.044l-1.266,2.3c-.44.8-.967,1.591-1.477,2.435-1,1.7-2.233,3.4-3.517,5.222a94.8,94.8,0,0,1-9.407,10.9,94.483,94.483,0,0,1-11.086,9.2c-1.846,1.231-3.578,2.435-5.275,3.4-.879.492-1.653,1-2.462,1.433l-2.356,1.213c-1.468.8-2.875,1.38-4.079,1.934-.607.264-1.169.528-1.7.747l-1.459.554-2.013.747a3.859,3.859,0,0,1-.721.229,4.56,4.56,0,0,1,.686-.317l1.987-.826,1.433-.589c.527-.229,1.081-.5,1.679-.782,1.2-.571,2.585-1.169,4.035-1.987l2.312-1.231c.8-.44,1.6-.958,2.444-1.451,1.7-.976,3.411-2.189,5.275-3.42a89.033,89.033,0,0,0,20.4-20c1.275-1.8,2.514-3.517,3.517-5.178.519-.835,1.055-1.618,1.5-2.409l1.275-2.286c.879-1.433,1.468-2.813,2.066-4,.29-.6.58-1.143.818-1.662s.431-.993.615-1.424c.36-.826.651-1.477.879-1.969a7.223,7.223,0,0,1,.3-.677Z" transform="translate(-58.543 -195.862)" fill="#263238"/>
        <g id="Group_46" data-name="Group 46" transform="translate(71.477 229.417)" opacity="0.3">
          <path id="Path_1192" data-name="Path 1192" d="M174.772,427.354c-5.908,7.191-12.1,12.4-20.775,15.763-4.158,1.6-8.51,2.7-12.537,4.607s-7.824,4.783-9.671,8.853c-1.4,3.147-.721,7.912,2.637,8.6a7.13,7.13,0,0,0,3.824-.589c17.188-6.233,28.485-21.979,36.467-37.232" transform="translate(-131.105 -427.354)"/>
        </g>
        <path id="Path_1193" data-name="Path 1193" d="M104.18,228.31c-3.71,2.91-3.956,8.352-3.772,13.064s.237,10.075-3.2,13.328c-2.813,2.681-7.737,3.675-8.545,7.482a4.4,4.4,0,0,0,7.1,4.352c-1.2,2.98-.651,6.8,1.89,8.792s6.981,1.046,7.912-2.013a3.886,3.886,0,1,0,7.561,1.758" transform="translate(-50.516 -155.312)" fill="#263238"/>
        <path id="Path_1194" data-name="Path 1194" d="M169.453,259.962a4.686,4.686,0,1,0,8.792-3.183c-.73-1.829-2.637-3.209-2.681-5.169-.114-2.374,2.383-3.947,4.572-4.871s4.756-2.154,5.1-4.5-1.618-4.15-3.253-5.758-3.209-4.053-2.057-6.04c.589-1.011,1.758-1.556,2.514-2.444,1.706-1.969,1.02-5.275-.949-6.954a9.61,9.61,0,0,0-7.367-1.758,63.4,63.4,0,0,0-7.561,1.9,31.113,31.113,0,0,1-24.616-4.4" transform="translate(-61.95 -152.845)" fill="#263238"/>
        <path id="Path_1195" data-name="Path 1195" d="M111.538,243.418l9.047,52.433a16.871,16.871,0,0,0,19.6,13.768h0a16.88,16.88,0,0,0,13.838-18.111c-.413-4.651-.765-8.5-.765-8.5s13.135-3.376,12-16.7c-.554-6.453-2.761-19.649-4.906-31.571a24.95,24.95,0,0,0-26.99-20.405l-1.284.123a24.783,24.783,0,0,0-20.537,28.968Z" transform="translate(-55.351 -152.292)" fill="#b78876"/>
        <path id="Path_1196" data-name="Path 1196" d="M169.161,250.855a1.9,1.9,0,0,1-1.644,2.1,1.82,1.82,0,0,1-2.128-1.521,1.9,1.9,0,0,1,1.644-2.1,1.82,1.82,0,0,1,2.128,1.521Z" transform="translate(-66.968 -159.808)" fill="#263238"/>
        <path id="Path_1197" data-name="Path 1197" d="M168.876,248.507c-.211.264-1.758-.659-3.807-.457s-3.455,1.38-3.7,1.152c-.114-.105.079-.571.686-1.117a5.222,5.222,0,0,1,2.936-1.222,5.064,5.064,0,0,1,3.059.668C168.726,247.953,168.981,248.384,168.876,248.507Z" transform="translate(-66.102 -159.28)" fill="#263238"/>
        <path id="Path_1198" data-name="Path 1198" d="M143.652,253.84A1.917,1.917,0,0,1,142,255.932a1.829,1.829,0,0,1-2.128-1.521,1.917,1.917,0,0,1,1.644-2.1,1.837,1.837,0,0,1,2.136,1.53Z" transform="translate(-61.503 -160.446)" fill="#263238"/>
        <path id="Path_1199" data-name="Path 1199" d="M143.291,251.484c-.211.273-1.758-.651-3.807-.448s-3.446,1.38-3.7,1.152c-.114-.105.079-.571.686-1.117a5.275,5.275,0,0,1,2.936-1.222,5,5,0,0,1,3.059.668C143.141,250.939,143.361,251.37,143.291,251.484Z" transform="translate(-60.623 -159.919)" fill="#263238"/>
        <path id="Path_1200" data-name="Path 1200" d="M155.987,265.734a13.429,13.429,0,0,1,3.262-.932c.519-.105,1.011-.255,1.064-.624a2.761,2.761,0,0,0-.5-1.512l-1.943-3.833c-2.7-5.468-4.7-9.978-4.484-10.084s2.585,4.238,5.275,9.671l1.873,3.868A3.016,3.016,0,0,1,161,264.31a1.31,1.31,0,0,1-.782.879,3.938,3.938,0,0,1-.879.211,13.863,13.863,0,0,1-3.35.334Z" transform="translate(-64.396 -159.689)" fill="#263238"/>
        <path id="Path_1201" data-name="Path 1201" d="M142.5,241.315c-.149.58-2.215.51-4.589,1.037s-4.264,1.371-4.624.879c-.167-.22.114-.782.879-1.4a7.912,7.912,0,0,1,3.341-1.547,7.807,7.807,0,0,1,3.684.079C142.075,240.656,142.559,241.051,142.5,241.315Z" transform="translate(-60.085 -157.838)" fill="#263238"/>
        <path id="Path_1202" data-name="Path 1202" d="M167.308,241.009c-.316.5-1.758.158-3.517.3s-3.1.624-3.517.167c-.167-.22,0-.712.6-1.213a4.844,4.844,0,0,1,2.752-1.037,4.791,4.791,0,0,1,2.857.668C167.194,240.314,167.44,240.772,167.308,241.009Z" transform="translate(-65.862 -157.646)" fill="#263238"/>
        <path id="Path_1203" data-name="Path 1203" d="M123.494,229.005l-.07.07a10.55,10.55,0,0,0-3.235,7.156v.273c-.149,3.859.316,7.719.132,11.57s-1.125,7.842-3.684,10.735c-1.046,1.187-3.016,2.128-4.088.958a3.262,3.262,0,0,1-.651-1.7c-1.6-9.108-4.906-17.012-5.82-26.621a8.1,8.1,0,0,1,2.717-6.91c1.864-1.644,4.176-3.376,6.515-2.532s5.635,4.739,7.543,6.339" transform="translate(-54.26 -153.915)" fill="#263238"/>
        <path id="Path_1204" data-name="Path 1204" d="M115.84,258.445c-.237-.07-9.425-1.811-8.246,7.271s10.058,6.031,10.04,5.767S115.84,258.445,115.84,258.445Z" transform="translate(-54.571 -161.727)" fill="#b78876"/>
        <path id="Path_1205" data-name="Path 1205" d="M115.117,269.266a2.408,2.408,0,0,1-.4.281,1.556,1.556,0,0,1-1.178.185c-1-.229-2.013-1.653-2.268-3.279a5.275,5.275,0,0,1,.149-2.33,1.864,1.864,0,0,1,1.037-1.372.818.818,0,0,1,.985.317c.158.237.123.431.176.44s.176-.176.053-.545a1.028,1.028,0,0,0-.431-.527,1.213,1.213,0,0,0-.879-.114,2.26,2.26,0,0,0-1.477,1.626,5.53,5.53,0,0,0-.22,2.637c.3,1.82,1.459,3.411,2.822,3.622a1.679,1.679,0,0,0,1.415-.431A.938.938,0,0,0,115.117,269.266Z" transform="translate(-55.237 -162.588)" fill="#7c5142"/>
        <path id="Path_1206" data-name="Path 1206" d="M117.417,220.4c-2.637-3.429,3.042-9.266,7.4-11.121s10.506-.246,15.13.8c2.91.668,5.855,1.7,8.792,1.284a20.221,20.221,0,0,0,5.635-2.031,14.8,14.8,0,0,1,5.715-1.758,5.521,5.521,0,0,1,5.1,2.576c.932,1.758.1,4.4-1.855,4.879a4.5,4.5,0,1,1,2,8.176c1.2-1.108,3.35.325,3.35,1.952s-1.363,2.963-2.787,3.763c-3.64,2.04-8.123,1.934-12.185.993s-7.912-2.637-11.957-3.692-10.822-2.954-14.6-1.187c-2.778,1.292-4.449,4.958-6.154,4.4a5.583,5.583,0,0,1-3.279-3.816,16.141,16.141,0,0,1-.334-5.2" transform="translate(-56.553 -150.869)" fill="#263238"/>
        <path id="Path_1207" data-name="Path 1207" d="M118.261,259.079a79.482,79.482,0,0,0,1.653,14.365,26.858,26.858,0,0,0,6.515,12.7c4.4,4.51,10.163,8.792,16.405,9.855,6.813,1.125,15.148-.3,20.7-4.4,2.637-1.943,4.545-6.154,3.728-9.337a6.928,6.928,0,0,0,3.956-5.8c.141-2.462-1.363-5.539-3.306-5.864,1.459-.246,1.881-2.567,1.328-3.877s-2.479-1.706-3.939-1.424a10.163,10.163,0,0,0-3.93,2.022,13.863,13.863,0,0,1-3.807,2.268c-4.712,1.53-9.486-2.638-14.436-2.435-4.475.176-8.457,3.895-12.9,3.27a8.941,8.941,0,0,1-5.978-4.158c-1.371-2.1-.774-9.864-1.31-12.308" transform="translate(-56.878 -160.806)" fill="#263238"/>
        <g id="Group_47" data-name="Group 47" transform="translate(90.245 118.286)" opacity="0.6">
          <path id="Path_1208" data-name="Path 1208" d="M162.039,286.859a8.4,8.4,0,0,1-1.09-.334,5.838,5.838,0,0,0-5.082.923c-.563.4-.879.73-.879.686a2.184,2.184,0,0,1,.712-.879,5.275,5.275,0,0,1,5.372-.967C161.723,286.508,162.066,286.815,162.039,286.859Z" transform="translate(-154.988 -285.939)" fill="#455a64"/>
        </g>
        <path id="Path_1209" data-name="Path 1209" d="M151.649,274.256c.334-.053.554,2.172,2.637,3.517s4.4.923,4.449,1.231c.044.132-.484.484-1.486.607a5.547,5.547,0,0,1-3.7-.879,4.827,4.827,0,0,1-2.04-3.007C151.306,274.827,151.5,274.256,151.649,274.256Z" transform="translate(-63.979 -165.151)" fill="#fff"/>
        <path id="Path_1210" data-name="Path 1210" d="M143.3,297.573a2.354,2.354,0,0,1,.571.211c.378.141.932.334,1.662.536a29.634,29.634,0,0,0,6.33.993,27.915,27.915,0,0,0,4.4-.088,24.613,24.613,0,0,0,4.967-.967,20.223,20.223,0,0,0,5.064-2.312,15.368,15.368,0,0,0,4.4-3.991,9.135,9.135,0,0,0,1.758-6.594v-.185l.158-.07a7.13,7.13,0,0,0,2.752-2.259,8.028,8.028,0,0,0,.879-1.477,5.337,5.337,0,0,0,.387-1.591,6.268,6.268,0,0,0-2.11-5.319l-.132-.106.105-.132a3.692,3.692,0,0,0,.545-3.613A3.517,3.517,0,0,0,173,268.623a3.868,3.868,0,0,0-1.837-.255c-.431.053-.642.132-.651.106a2.224,2.224,0,0,1,.642-.193,3.833,3.833,0,0,1,4.114,2.224,4.009,4.009,0,0,1-.527,3.93V274.2a6.638,6.638,0,0,1,2.3,5.618,5.794,5.794,0,0,1-.413,1.758,9.135,9.135,0,0,1-.923,1.565,7.455,7.455,0,0,1-2.919,2.418l.132-.264a9.451,9.451,0,0,1-1.758,6.963,15.772,15.772,0,0,1-4.528,4.106,19.789,19.789,0,0,1-5.178,2.33,24.247,24.247,0,0,1-5.055.949,28.34,28.34,0,0,1-4.475,0,27.721,27.721,0,0,1-6.356-1.152,14.31,14.31,0,0,1-1.644-.624,3.255,3.255,0,0,1-.633-.29Z" transform="translate(-62.239 -163.861)" fill="#455a64"/>
        <path id="Path_1211" data-name="Path 1211" d="M92.142,265.527a1.388,1.388,0,0,1-.466-.229,2.637,2.637,0,0,1-.879-1.16,3.947,3.947,0,0,1-.185-2.339,4.721,4.721,0,0,1,1.758-2.576,11.746,11.746,0,0,1,3.341-1.758,21.649,21.649,0,0,0,3.886-1.653,7.6,7.6,0,0,0,2.928-3.446,12.6,12.6,0,0,0,1.037-4.835c.07-3.438-.721-6.7-.809-9.732s.44-5.864,1.82-7.763a7.315,7.315,0,0,1,4.4-3.015,4.976,4.976,0,0,1,1.477-.07,3.6,3.6,0,0,1,.51.1,7.851,7.851,0,0,0-1.943.149,7.271,7.271,0,0,0-4.211,3.024,12.35,12.35,0,0,0-1.662,7.561c.158,2.972.879,6.233.879,9.767a13.047,13.047,0,0,1-1.117,5.011,7.991,7.991,0,0,1-3.121,3.622,20.783,20.783,0,0,1-4,1.653,11.561,11.561,0,0,0-3.262,1.635,4.448,4.448,0,0,0-1.7,2.374,3.754,3.754,0,0,0,.1,2.215,2.927,2.927,0,0,0,1.222,1.468Z" transform="translate(-50.936 -155.016)" fill="#455a64"/>
        <path id="Path_1212" data-name="Path 1212" d="M163.966,216.729a2,2,0,0,1,.4-.185,2.948,2.948,0,0,1,.519-.176,4.4,4.4,0,0,1,.73-.149,5.442,5.442,0,0,1,4.484,1.609h0a7.288,7.288,0,0,1,1.363,5.451,8.941,8.941,0,0,1-3.6,5.952,13.812,13.812,0,0,1-7.649,2.637,30.664,30.664,0,0,1-8.871-.949,40.23,40.23,0,0,1-12.888-5.706,40.5,40.5,0,0,0-5.275-3.068,14.419,14.419,0,0,0-5.1-1.3,15.227,15.227,0,0,0-7.482,1.389c-1.644.774-2.426,1.442-2.462,1.389a10.8,10.8,0,0,1,2.383-1.556,15.165,15.165,0,0,1,7.578-1.547,14.681,14.681,0,0,1,5.275,1.275,40.91,40.91,0,0,1,5.354,3.068,40.521,40.521,0,0,0,12.765,5.609,30.542,30.542,0,0,0,8.739.985,13.565,13.565,0,0,0,7.429-2.532,8.668,8.668,0,0,0,3.517-5.679,7.033,7.033,0,0,0-1.222-5.275h0a5.354,5.354,0,0,0-4.264-1.644,11.43,11.43,0,0,0-1.714.4Z" transform="translate(-56.849 -152.716)" fill="#455a64"/>
        <path id="Path_1213" data-name="Path 1213" d="M159.009,207.02a5.143,5.143,0,0,1-.413,2.013,8.572,8.572,0,0,1-3.763,4.106,10.778,10.778,0,0,1-3.666,1.319,15.481,15.481,0,0,1-4.466,0c-3.139-.4-6.383-1.626-9.794-2.69s-6.849-1.7-9.873-1.046a13.047,13.047,0,0,0-6.937,4.044,13.548,13.548,0,0,0-2.8,4.712c-.4,1.248-.484,1.978-.536,1.969a2.163,2.163,0,0,1,0-.527,10.068,10.068,0,0,1,.325-1.495,12.985,12.985,0,0,1,2.734-4.879,13.188,13.188,0,0,1,7.086-4.238c3.13-.695,6.664-.053,10.093,1.02s6.646,2.3,9.715,2.708a15.059,15.059,0,0,0,4.352,0,10.549,10.549,0,0,0,3.569-1.222,8.581,8.581,0,0,0,3.754-3.895A12.526,12.526,0,0,0,159.009,207.02Z" transform="translate(-56.552 -150.753)" fill="#455a64"/>
      </g>
      <g id="freepik--Lines--inject-116" transform="translate(146.617 11.13)">
        <path id="Path_1214" data-name="Path 1214" d="M249.267,131.226c-.079.1-5.02-3.921-11.042-8.976s-10.831-9.275-10.743-9.337,5.02,3.921,11.042,8.985S249.355,131.129,249.267,131.226Z" transform="translate(-217.819 -90.275)" fill="#263238"/>
        <path id="Path_1215" data-name="Path 1215" d="M286.621,119.035c-.123,0-.624-7.807-1.108-17.451s-.782-17.469-.659-17.478.624,7.807,1.117,17.46S286.744,119.035,286.621,119.035Z" transform="translate(-230.1 -84.106)" fill="#263238"/>
        <path id="Path_1216" data-name="Path 1216" d="M265.034,115.984c-.123,0-1.662-4.4-3.446-9.961s-3.13-10.058-3.007-10.093,1.662,4.4,3.446,9.952S265.148,115.949,265.034,115.984Z" transform="translate(-224.478 -86.638)" fill="#263238"/>
        <path id="Path_1217" data-name="Path 1217" d="M245.038,145.038a60.665,60.665,0,0,1-6.778-2.857,58.9,58.9,0,0,1-6.594-3.279,60.665,60.665,0,0,1,6.778,2.857,59.784,59.784,0,0,1,6.594,3.279Z" transform="translate(-218.716 -95.84)" fill="#263238"/>
        <path id="Path_1218" data-name="Path 1218" d="M218.4,133.714c0,.123-.747.141-1.635,0s-1.591-.3-1.574-.422.747-.141,1.626,0S218.4,133.591,218.4,133.714Z" transform="translate(-215.187 -94.618)" fill="#263238"/>
        <path id="Path_1219" data-name="Path 1219" d="M259.247,87.829c-.132,0-.229-.712-.229-1.6s.1-1.609.229-1.609.229.721.229,1.609S259.371,87.829,259.247,87.829Z" transform="translate(-224.573 -84.216)" fill="#263238"/>
        <path id="Path_1220" data-name="Path 1220" d="M321.637,104.5c.1.088-3.965,4.739-9.055,10.392s-9.293,10.172-9.407,10.084,3.965-4.73,9.055-10.392S321.549,104.421,321.637,104.5Z" transform="translate(-234.028 -88.473)" fill="#263238"/>
        <path id="Path_1221" data-name="Path 1221" d="M334.232,96.362c.088.088-.378.7-1.046,1.371s-1.275,1.125-1.363,1.037.378-.7,1.046-1.363S334.144,96.239,334.232,96.362Z" transform="translate(-240.162 -86.727)" fill="#263238"/>
        <path id="Path_1222" data-name="Path 1222" d="M345.955,125.007a8.02,8.02,0,0,1-1.2.712c-.782.431-1.925,1.037-3.35,1.758-2.857,1.442-6.857,3.323-11.359,5.2s-8.66,3.367-11.7,4.4c-1.512.5-2.743.879-3.6,1.134a7.033,7.033,0,0,1-1.345.343,8.318,8.318,0,0,1,1.292-.51l3.517-1.275c3.007-1.081,7.13-2.637,11.631-4.484s8.5-3.7,11.429-5.064l3.411-1.618a9.495,9.495,0,0,1,1.275-.589Z" transform="translate(-236.219 -92.865)" fill="#263238"/>
        <path id="Path_1223" data-name="Path 1223" d="M333.986,152.55a11.974,11.974,0,0,1-2.339.765c-1.459.4-3.517.879-5.785,1.275s-4.4.615-5.882.721a11.307,11.307,0,0,1-2.453.044,16.268,16.268,0,0,1,2.427-.369c1.495-.185,3.561-.466,5.829-.879s4.317-.809,5.794-1.125A13.275,13.275,0,0,1,333.986,152.55Z" transform="translate(-237.103 -98.763)" fill="#263238"/>
        <path id="Path_1224" data-name="Path 1224" d="M351.959,149.735a14.137,14.137,0,0,1-5.064,0A14.137,14.137,0,0,1,351.959,149.735Z" transform="translate(-243.391 -98.111)" fill="#263238"/>
      </g>
      <g id="freepik--Plant--inject-116" transform="translate(178.552 280.873)">
        <path id="Path_1225" data-name="Path 1225" d="M268.339,427.354a9.363,9.363,0,0,1,6.154,3.939,16.467,16.467,0,0,1,2.637,6.972c.8,4.783-.492,10.216-2.268,14.735-4.879-2.295-7.482-7.974-8.616-10.946-1.758-4.686-2.207-14.26,2.048-14.7" transform="translate(-257.783 -427.354)" fill="red"/>
        <path id="Path_1226" data-name="Path 1226" d="M286.444,464.974a7.956,7.956,0,0,1-.185-8A10.55,10.55,0,0,1,292.747,452a4.466,4.466,0,0,1,3.754.264,3.411,3.411,0,0,1,1.231,3.227,6.963,6.963,0,0,1-1.53,3.244c-2.55,3.288-5.609,6-9.759,6.242" transform="translate(-262.13 -432.568)" fill="red"/>
        <path id="Path_1227" data-name="Path 1227" d="M285.069,481.533a3.693,3.693,0,0,1-.167-1c-.062-.651-.149-1.6-.211-2.769a34.542,34.542,0,0,1,.554-9.143,17.328,17.328,0,0,1,4.158-8.15,11.219,11.219,0,0,1,2.163-1.758,2.867,2.867,0,0,1,.879-.457,22.474,22.474,0,0,0-2.8,2.488,18,18,0,0,0-3.9,8,39.187,39.187,0,0,0-.7,9.02A31.335,31.335,0,0,1,285.069,481.533Z" transform="translate(-261.986 -433.971)" fill="#263238"/>
        <path id="Path_1228" data-name="Path 1228" d="M270.732,436.628a10.55,10.55,0,0,1,.615,1.565c.36,1.02.879,2.5,1.459,4.334,1.2,3.675,2.778,8.792,4.4,14.462s2.919,10.858,3.816,14.62c.448,1.881.791,3.4,1.011,4.466a9.886,9.886,0,0,1,.3,1.653,9.3,9.3,0,0,1-.5-1.6c-.308-1.143-.7-2.638-1.178-4.4-.993-3.736-2.374-8.9-3.974-14.568s-3.112-10.8-4.22-14.5l-1.292-4.4a10.24,10.24,0,0,1-.431-1.644Z" transform="translate(-259.016 -429.34)" fill="#263238"/>
        <path id="Path_1229" data-name="Path 1229" d="M273.641,471.426a18.656,18.656,0,0,0-13.328-10.55c-1.477-.281-3.3-.246-4.123,1.02s-.114,2.954.774,4.167a15.921,15.921,0,0,0,16.7,5.838" transform="translate(-255.824 -434.502)" fill="red"/>
        <path id="Path_1230" data-name="Path 1230" d="M263.594,466.274a3.376,3.376,0,0,1,.976.105,7.8,7.8,0,0,1,1.117.237,13.517,13.517,0,0,1,1.459.431,19.676,19.676,0,0,1,3.587,1.679,20.713,20.713,0,0,1,6.928,6.708,19.553,19.553,0,0,1,1.758,3.517,12.622,12.622,0,0,1,.484,1.442,7.667,7.667,0,0,1,.281,1.116,3.059,3.059,0,0,1,.123.967c-.1,0-.369-1.345-1.24-3.376a21.975,21.975,0,0,0-1.855-3.4,23.852,23.852,0,0,0-3.033-3.64,24.248,24.248,0,0,0-3.728-2.919,22.359,22.359,0,0,0-3.464-1.758C264.948,466.608,263.577,466.379,263.594,466.274Z" transform="translate(-257.488 -435.688)" fill="#263238"/>
      </g>
    </g>
  </g>
</svg>
