<svg xmlns="http://www.w3.org/2000/svg" xmlns:xlink="http://www.w3.org/1999/xlink" width="82" height="82" viewBox="0 0 82 82">
  <defs>
    <clipPath id="clip-path">
      <rect id="Rectangle_5" data-name="Rectangle 5" width="82" height="82" transform="translate(198 1806)" fill="#f0f0f0"/>
    </clipPath>
  </defs>
  <g id="Mask_Group_10" data-name="Mask Group 10" transform="translate(-198 -1806)" clip-path="url(#clip-path)">
    <g id="tracking" transform="translate(198 1805.92)">
      <path id="Path_983" data-name="Path 983" d="M79.892,69.781,65.548,55.437c-.025-.025-.052-.047-.078-.071L55.286,65.551c.024.026.046.053.071.078L69.7,79.972A7.207,7.207,0,0,0,79.892,69.781Zm0,0" fill="#ff5b5b"/>
      <path id="Path_984" data-name="Path 984" d="M79.892,79.972a7.214,7.214,0,0,0,0-10.192L65.548,55.437c-.025-.025-.052-.047-.078-.071l-5.092,5.092Zm0,0" fill="#ca0000"/>
      <path id="Path_985" data-name="Path 985" d="M57.816,60.3H2.4A2.4,2.4,0,0,1,0,57.9V2.482A2.4,2.4,0,0,1,2.4.08H57.816a2.4,2.4,0,0,1,2.4,2.4V57.9A2.4,2.4,0,0,1,57.816,60.3Zm0,0" fill="#ffe046"/>
      <path id="Path_986" data-name="Path 986" d="M57.816.08H30.109V60.3H57.816a2.4,2.4,0,0,0,2.4-2.4V2.482A2.4,2.4,0,0,0,57.816.08Zm0,0" fill="#fdbf00"/>
      <path id="Path_987" data-name="Path 987" d="M38.107,20.491l-8-4.05-8,4.05a2.4,2.4,0,0,1-3.488-2.143V2.482a2.4,2.4,0,0,1,2.4-2.4H39.192a2.4,2.4,0,0,1,2.4,2.4V18.348a2.4,2.4,0,0,1-1.145,2.047A2.491,2.491,0,0,1,38.107,20.491Zm0,0" fill="#e69f34"/>
      <path id="Path_988" data-name="Path 988" d="M71.158,61.045l-9-9c-.024-.025-.051-.047-.078-.07L51.893,62.158c.023.026.045.053.07.078l9.015,9.015Zm0,0" fill="#62e3f8"/>
      <path id="Path_989" data-name="Path 989" d="M66.068,66.148l5.09-5.1-9-9c-.024-.025-.051-.047-.078-.07l-5.092,5.092Zm0,0" fill="#00c0f1"/>
      <path id="Path_990" data-name="Path 990" d="M60.976,38.635a15.855,15.855,0,1,0,0,22.423A15.855,15.855,0,0,0,60.976,38.635Zm0,0" fill="#e1f6fd" fill-rule="evenodd"/>
      <path id="Path_991" data-name="Path 991" d="M38.554,38.635,60.977,61.057A15.855,15.855,0,0,0,38.554,38.635Zm0,0" fill="#beebfa" fill-rule="evenodd"/>
      <path id="Path_992" data-name="Path 992" d="M62.676,62.756a18.258,18.258,0,1,1,0-25.82A18.278,18.278,0,0,1,62.676,62.756ZM40.253,40.333a13.453,13.453,0,1,0,19.025,0A13.469,13.469,0,0,0,40.253,40.333Zm0,0" fill="#1751a9"/>
      <path id="Path_993" data-name="Path 993" d="M39.191.08H30.109V16.442l8,4.05a2.489,2.489,0,0,0,2.343-.1,2.4,2.4,0,0,0,1.144-2.046V2.482A2.4,2.4,0,0,0,39.191.08Zm0,0" fill="#bb7c14"/>
      <path id="Path_994" data-name="Path 994" d="M36.856,36.935l3.4,3.4A13.453,13.453,0,0,1,59.278,59.359l3.4,3.4a18.258,18.258,0,0,0-25.82-25.82Zm0,0" fill="#001a48"/>
    </g>
  </g>
</svg>
